<?xml version="1.0" encoding="utf-8"?>
<!-- Generator: Adobe Illustrator 24.3.0, SVG Export Plug-In . SVG Version: 6.00 Build 0)  -->
<svg version="1.1" id="Layer_3" xmlns="http://www.w3.org/2000/svg" xmlns:xlink="http://www.w3.org/1999/xlink" x="0px" y="0px"
	 viewBox="0 0 225.67 225.67" style="enable-background:new 0 0 225.67 225.67;" xml:space="preserve">
<style type="text/css">
	.st0{fill:#00C2FF;}
	.st1{fill:#AFDFF9;}
	.st2{fill:#E7EDF2;}
	.st3{fill:#BCB9BF;}
	.st4{opacity:0.4;}
	.st5{fill:#21D0DB;}
	.st6{fill:#0099D4;}
	.st7{fill:#004895;}
	.st8{fill:#F3F6F8;}
	.st9{fill:#1FACD5;}
	.st10{fill:#FFFFFF;}
	.st11{fill:none;}
	.st12{fill:#92ADBF;}
	.st13{fill:#192E2D;}
</style>
<g>
	<g>
		<path class="st0" d="M225.67,112.83c0,62.06-50.78,112.84-112.83,112.84C50.78,225.67,0,174.89,0,112.83C0,50.78,50.78,0,112.84,0
			C174.89,0,225.67,50.78,225.67,112.83z"/>
	</g>
</g>
<g>
	<g>
		<path class="st1" d="M110.07,187.31h-82.2l0.01,1.44c0.7,4.4,4.52,7.79,9.1,7.79h2.65h1.44h2.07l76.16,0
			C114.22,196.54,110.07,192.38,110.07,187.31z"/>
	</g>
</g>
<g>
	<path class="st2" d="M45.62,105.2v82.11c0,5.07-4.15,9.22-9.22,9.22l36.61,0h45.52c5.08,0,9.23-4.15,9.23-9.22V105.2H45.62z"/>
</g>
<g>
	<g>
		<path class="st2" d="M100.72,96.57V79.65c0-5.07-4.15-9.22-9.23-9.22H54.87c-5.07,0-9.22,4.15-9.22,9.22v42.51v37.02h82.12V96.57
			H100.72z"/>
	</g>
</g>
<g>
	<g>
		<rect x="57.47" y="144.42" class="st3" width="20.29" height="1.92"/>
	</g>
	<g>
		<g>
			<rect x="57.47" y="91.53" class="st3" width="11.22" height="1.92"/>
		</g>
		<g>
			<rect x="57.47" y="94.97" class="st3" width="11.22" height="1.92"/>
		</g>
		<g>
			<rect x="57.47" y="98.42" class="st3" width="11.22" height="1.92"/>
		</g>
	</g>
	<g>
		<g>
			<rect x="57.47" y="108.21" class="st3" width="11.22" height="1.92"/>
		</g>
		<g>
			<rect x="57.47" y="111.65" class="st3" width="11.22" height="1.92"/>
		</g>
		<g>
			<rect x="57.47" y="115.1" class="st3" width="11.22" height="1.92"/>
		</g>
	</g>
	<g>
		<g>
			<rect x="57.47" y="124.3" class="st3" width="11.22" height="1.92"/>
		</g>
		<g>
			<rect x="57.47" y="127.75" class="st3" width="11.22" height="1.92"/>
		</g>
		<g>
			<rect x="57.47" y="131.19" class="st3" width="11.22" height="1.92"/>
		</g>
	</g>
	<g>
		<g>
			<rect x="57.47" y="140.98" class="st3" width="20.29" height="1.92"/>
		</g>
		<g>
			<rect x="57.47" y="147.87" class="st3" width="20.29" height="1.92"/>
		</g>
		<g>
			<rect x="57.47" y="179" class="st3" width="60.08" height="1.92"/>
		</g>
		<g>
			<rect x="57.47" y="182.71" class="st3" width="50.72" height="1.92"/>
		</g>
	</g>
	<g class="st4">
		<rect x="79.48" y="161.13" class="st3" width="16.16" height="8.73"/>
	</g>
	<g class="st4">
		<rect x="101.4" y="160.94" class="st3" width="16.16" height="8.92"/>
	</g>
	<g>
		<rect x="57.57" y="160.94" class="st5" width="16.16" height="15.22"/>
	</g>
	<g>
		<rect x="79.48" y="169.57" class="st6" width="16.16" height="6.59"/>
	</g>
	<g>
		<rect x="101.4" y="169.43" class="st7" width="16.16" height="6.73"/>
	</g>
</g>
<g>
	<g>
		<g>
			<g>
				<g>
					<g>
						<path class="st1" d="M117.19,104.35c0,23.34,0,11.82,0,19.18v1.54v18.07c0,5.07-4.15,9.22-9.23,9.22H81.35h-3.51
							c-5.07,0-9.22-3.89-9.22-8.65c0-3.84,0-14.62,0-18.64c0-0.96,0-1.54,0-1.54V80.04c0-0.01,0-0.01,0-0.01v-0.37
							c0-5.07-4.15-9.22-9.23-9.22h48.77c4.59,0,8.4,3.39,9.1,7.79h0.13v1.44L117.19,104.35z"/>
					</g>
					<g>
						<g>
							<path class="st8" d="M92.06,143.13v-19.6V34.68c0-5.07,4.15-9.22,9.23-9.22h24.75c5.07,0,9.22,4.15,9.22,9.23v-3.32h38.93
								v111.77c0,5.07-4.15,9.22-9.22,9.22h-28.41H82.84C87.91,152.35,92.06,148.2,92.06,143.13z"/>
						</g>
						<g>
							<path class="st1" d="M192.06,34.68v-1.44h-0.12c-0.7-4.4-4.52-7.79-9.1-7.78h-2.64h-1.44h-2.07h-76.17
								c5.07,0,9.23,4.15,9.23,9.23L192.06,34.68z"/>
						</g>
					</g>
				</g>
			</g>
		</g>
	</g>
	<g>
		<g>
			<rect x="101.43" y="113.49" class="st9" width="11.6" height="1.78"/>
		</g>
		<g>
			<rect x="101.43" y="108.66" class="st3" width="67.04" height="1.78"/>
		</g>
		<g>
			<rect x="156.8" y="113.49" class="st7" width="11.59" height="1.78"/>
		</g>
		<g>
			<rect x="101.43" y="117.29" class="st6" width="11.6" height="1.78"/>
		</g>
	</g>
	<g>
		<g>
			<path class="st7" d="M151.74,67.21l7.32-3.31c-4.04-8.9-13.01-15.11-23.42-15.11v8.04C142.8,56.83,148.96,61.09,151.74,67.21z"/>
		</g>
		<g>
			<path class="st6" d="M159.07,63.9l-7.32,3.31c1.01,2.22,1.58,4.69,1.58,7.28c0,4.87-1.98,9.29-5.18,12.49l5.68,5.68
				c4.65-4.65,7.54-11.08,7.54-18.17C161.36,70.72,160.54,67.13,159.07,63.9z"/>
		</g>
		<g>
			<path class="st5" d="M148.14,86.98c-3.2,3.2-7.62,5.18-12.49,5.18c-7.15,0-13.31-4.27-16.09-10.39
				c-1.01-2.22-1.58-4.69-1.58-7.28c0-4.87,1.98-9.29,5.18-12.49c3.2-3.2,7.62-5.18,12.49-5.18v-8.04c-7.09,0-13.52,2.88-18.17,7.54
				c-4.66,4.66-7.54,11.08-7.54,18.17c0,3.78,0.83,7.37,2.3,10.6c4.05,8.9,13.01,15.11,23.42,15.11c7.09,0,13.52-2.88,18.17-7.54
				L148.14,86.98z"/>
		</g>
	</g>
	<g>
		<g>
			<rect x="101.37" y="128.98" class="st3" width="67.02" height="1.92"/>
		</g>
		<g>
			<rect x="101.37" y="132.43" class="st3" width="67.02" height="1.92"/>
		</g>
		<g>
			<rect x="101.37" y="135.87" class="st3" width="39.87" height="1.92"/>
		</g>
	</g>
</g>
<g>
	<g>
		<g>
			<path class="st10" d="M166.8,99.29l32.94,32.94l-32.94,32.94c-2.38,2.38-6.25,2.38-8.63,0l-32.94-32.94l32.94-32.94
				C160.56,96.9,164.42,96.9,166.8,99.29z"/>
		</g>
	</g>
</g>
<g>
	<g>
		<path class="st11" d="M187.28,142.02l0.36,0.08l1.92-5.74l-0.72-0.16c1.19-7.92-1.25-16.27-7.35-22.38
			c-5.36-5.36-12.48-7.89-19.5-7.63l-0.06-0.87l-5.95,1.27l0.06,0.53c-4.22,1.16-8.22,3.38-11.53,6.7
			c-10.21,10.21-10.22,26.77,0,36.99c10.21,10.21,26.78,10.21,36.99,0C184.07,148.23,186.01,145.22,187.28,142.02z"/>
	</g>
</g>
<g>
	<g>
		<g>
			<g>
				<g>
					<g>
						<g>
							<polygon class="st12" points="166.82,204.5 163.14,205.46 159.47,204.5 159.47,202.88 166.82,202.88 							"/>
						</g>
					</g>
				</g>
				<g>
					<g>
						<g>
							<g>
								<rect x="160.88" y="158.54" class="st12" width="4.53" height="13.01"/>
							</g>
						</g>
					</g>
				</g>
				<g>
					<g>
						<g>
							<rect x="159.4" y="169.69" class="st13" width="7.49" height="32.42"/>
						</g>
					</g>
				</g>
				<g>
					<g>
						<g>
							<polygon class="st12" points="167.78,203.12 158.49,203.12 158.5,201.51 167.79,201.51 							"/>
						</g>
					</g>
				</g>
				<g>
					<g>
						<g>
							<polygon class="st12" points="167.78,170.98 158.49,170.98 158.5,169.37 167.79,169.37 							"/>
						</g>
					</g>
				</g>
			</g>
		</g>
	</g>
</g>
<g>
	<defs>
		<path id="SVGID_1_" d="M188.24,132.19c0,14.29-11.59,25.87-25.87,25.87c-14.29,0-25.88-11.58-25.88-25.87
			c0-14.3,11.59-25.88,25.88-25.88C176.65,106.31,188.24,117.9,188.24,132.19z"/>
	</defs>
	<clipPath id="SVGID_2_">
		<use xlink:href="#SVGID_1_"  style="overflow:visible;"/>
	</clipPath>
</g>
<g>
	<rect x="138.23" y="122.07" class="st3" width="32.77" height="4.29"/>
</g>
<g>
	<rect x="138.23" y="130.85" class="st3" width="32.77" height="4.29"/>
</g>
<g>
	<rect x="138.23" y="139.63" class="st3" width="32.77" height="4.29"/>
</g>
<g>
	<path class="st12" d="M181.98,113.37c-10.7-10.71-28.12-10.71-38.82-0.01c-5.19,5.19-8.04,12.09-8.04,19.42l0,0l0,0
		c0.01,7.34,2.85,14.23,8.04,19.42c10.71,10.71,28.12,10.71,38.83-0.01c5.18-5.18,8.04-12.08,8.04-19.41l0,0l0,0
		C190.02,125.44,187.16,118.55,181.98,113.37z M186.68,132.78c0,6.44-2.5,12.49-7.05,17.04c-9.41,9.4-24.7,9.4-34.1,0
		c-4.55-4.55-7.06-10.61-7.07-17.04l0,0l0.01,0c0-6.44,2.51-12.49,7.06-17.05c9.4-9.39,24.7-9.39,34.1,0
		C184.17,120.28,186.69,126.34,186.68,132.78L186.68,132.78L186.68,132.78z"/>
</g>
</svg>
