<?xml version="1.0" encoding="utf-8"?>
<!-- Generator: Adobe Illustrator 24.3.0, SVG Export Plug-In . SVG Version: 6.00 Build 0)  -->
<svg version="1.1" id="Modo_de_aislamiento" xmlns="http://www.w3.org/2000/svg" xmlns:xlink="http://www.w3.org/1999/xlink"
	 x="0px" y="0px" viewBox="0 0 398.9 322.96" style="enable-background:new 0 0 398.9 322.96;" xml:space="preserve">
<style type="text/css">
	.st0{fill:#D0E7F2;}
	.st1{fill:#2F4869;}
	.st2{fill:#FFFFFF;}
	.st3{fill:#00C2FF;}
</style>
<g>
	<g>
		<g>
			
				<rect x="104.37" y="192.74" transform="matrix(-1 -1.224647e-16 1.224647e-16 -1 416.0083 498.1629)" class="st0" width="207.26" height="112.69"/>
			<path class="st1" d="M311.64,308.64H104.37c-1.77,0-3.21-1.44-3.21-3.21V192.74c0-1.77,1.44-3.21,3.21-3.21h207.26
				c1.77,0,3.21,1.44,3.21,3.21v112.69C314.85,307.2,313.41,308.64,311.64,308.64z M107.58,302.21h200.84V195.95H107.58V302.21z"/>
		</g>
		<g>
			<g>
				<polygon class="st2" points="132.61,158.16 122.3,158.16 122.3,305.42 14.01,305.42 14.01,158.16 3.69,158.16 66.19,91.48 				
					"/>
				<path class="st1" d="M122.3,308.64H14c-1.77,0-3.21-1.44-3.21-3.21V161.37h-7.1c-1.28,0-2.44-0.76-2.95-1.94
					c-0.51-1.17-0.27-2.54,0.6-3.47l62.5-66.67c0.6-0.64,1.42-1,2.29-1.02c0.87,0,1.71,0.33,2.32,0.94l66.42,66.67
					c0.92,0.92,1.19,2.3,0.69,3.5c-0.5,1.2-1.67,1.98-2.97,1.98h-7.1v144.06C125.51,307.2,124.07,308.64,122.3,308.64z
					 M17.22,302.21h101.87V158.16c0-1.77,1.44-3.21,3.21-3.21h2.58L66.26,96.11l-55.16,58.84H14c1.77,0,3.21,1.44,3.21,3.21V302.21z
					"/>
			</g>
			<g>
				<g>
					<g>
						<path class="st1" d="M40.84,199.45c-1.77,0-3.21-1.44-3.21-3.21v-18.1c0-1.77,1.44-3.21,3.21-3.21h18.1
							c1.77,0,3.21,1.44,3.21,3.21s-1.44,3.21-3.21,3.21H44.06v14.89C44.06,198.02,42.62,199.45,40.84,199.45z"/>
					</g>
					<g>
						<path class="st1" d="M79.58,199.45c-1.77,0-3.21-1.44-3.21-3.21v-18.1c0-1.77,1.44-3.21,3.21-3.21h18.1
							c1.77,0,3.21,1.44,3.21,3.21s-1.44,3.21-3.21,3.21H82.8v14.89C82.8,198.02,81.36,199.45,79.58,199.45z"/>
					</g>
				</g>
				<g>
					<g>
						<path class="st1" d="M59.68,155.53c-1.77,0-3.21-1.44-3.21-3.21v-18.1c0-1.77,1.44-3.21,3.21-3.21h18.1
							c1.77,0,3.21,1.44,3.21,3.21s-1.44,3.21-3.21,3.21H62.89v14.89C62.89,154.09,61.45,155.53,59.68,155.53z"/>
					</g>
				</g>
				<g>
					<g>
						<path class="st1" d="M40.84,253.94c-1.77,0-3.21-1.44-3.21-3.21v-18.1c0-1.77,1.44-3.21,3.21-3.21h18.1
							c1.77,0,3.21,1.44,3.21,3.21s-1.44,3.21-3.21,3.21H44.06v14.89C44.06,252.5,42.62,253.94,40.84,253.94z"/>
					</g>
					<g>
						<path class="st1" d="M79.58,253.94c-1.77,0-3.21-1.44-3.21-3.21v-18.1c0-1.77,1.44-3.21,3.21-3.21h18.1
							c1.77,0,3.21,1.44,3.21,3.21s-1.44,3.21-3.21,3.21H82.8v14.89C82.8,252.5,81.36,253.94,79.58,253.94z"/>
					</g>
				</g>
			</g>
			<g>
				<g>
					<path class="st3" d="M54.87,303.41v-22.55c0-6.22,5.04-11.26,11.26-11.26h0.23c6.22,0,11.26,5.04,11.26,11.26v22.55"/>
					<path class="st1" d="M77.61,306.62c-1.77,0-3.21-1.44-3.21-3.21v-22.55c0-4.44-3.61-8.04-8.04-8.04h-0.23
						c-4.44,0-8.04,3.61-8.04,8.04v22.55c0,1.77-1.44,3.21-3.21,3.21s-3.21-1.44-3.21-3.21v-22.55c0-7.98,6.49-14.47,14.47-14.47
						h0.23c7.98,0,14.47,6.49,14.47,14.47v22.55C80.82,305.19,79.39,306.62,77.61,306.62z"/>
				</g>
			</g>
		</g>
		<g>
			<g>
				<polygon class="st2" points="266.76,158.16 277.08,158.16 277.08,305.42 385.37,305.42 385.37,158.16 395.68,158.16 
					333.18,91.48 				"/>
				<path class="st1" d="M385.37,308.64H277.08c-1.77,0-3.21-1.44-3.21-3.21V161.37h-7.1c-1.3,0-2.47-0.78-2.97-1.98
					c-0.5-1.2-0.22-2.58,0.69-3.5l66.42-66.67c0.61-0.62,1.45-0.96,2.32-0.94c0.87,0.01,1.7,0.38,2.29,1.02l62.5,66.67
					c0.88,0.93,1.11,2.3,0.6,3.47s-1.67,1.94-2.95,1.94h-7.1v144.06C388.58,307.2,387.14,308.64,385.37,308.64z M280.29,302.21
					h101.87V158.16c0-1.77,1.44-3.21,3.21-3.21h2.9l-55.16-58.84l-58.62,58.84h2.58c1.77,0,3.21,1.44,3.21,3.21V302.21z"/>
			</g>
			<g>
				<g>
					<g>
						<path class="st1" d="M358.53,199.45c-1.77,0-3.21-1.44-3.21-3.21v-14.89h-14.89c-1.77,0-3.21-1.44-3.21-3.21
							s1.44-3.21,3.21-3.21h18.1c1.77,0,3.21,1.44,3.21,3.21v18.1C361.74,198.02,360.3,199.45,358.53,199.45z"/>
					</g>
					<g>
						<path class="st1" d="M319.79,199.45c-1.77,0-3.21-1.44-3.21-3.21v-14.89h-14.89c-1.77,0-3.21-1.44-3.21-3.21
							s1.44-3.21,3.21-3.21h18.1c1.77,0,3.21,1.44,3.21,3.21v18.1C323,198.02,321.56,199.45,319.79,199.45z"/>
					</g>
				</g>
				<g>
					<g>
						<path class="st1" d="M339.7,155.53c-1.77,0-3.21-1.44-3.21-3.21v-14.89H321.6c-1.77,0-3.21-1.44-3.21-3.21
							s1.44-3.21,3.21-3.21h18.1c1.77,0,3.21,1.44,3.21,3.21v18.1C342.91,154.09,341.47,155.53,339.7,155.53z"/>
					</g>
				</g>
				<g>
					<g>
						<path class="st1" d="M358.53,251.07c-1.77,0-3.21-1.44-3.21-3.21v-14.89h-14.89c-1.77,0-3.21-1.44-3.21-3.21
							s1.44-3.21,3.21-3.21h18.1c1.77,0,3.21,1.44,3.21,3.21v18.1C361.74,249.63,360.3,251.07,358.53,251.07z"/>
					</g>
					<g>
						<path class="st1" d="M319.79,251.07c-1.77,0-3.21-1.44-3.21-3.21v-14.89h-14.89c-1.77,0-3.21-1.44-3.21-3.21
							s1.44-3.21,3.21-3.21h18.1c1.77,0,3.21,1.44,3.21,3.21v18.1C323,249.63,321.56,251.07,319.79,251.07z"/>
					</g>
				</g>
			</g>
			<g>
				<g>
					<path class="st3" d="M341.63,303.41v-22.55c0-6.22-5.04-11.26-11.26-11.26h-0.23c-6.22,0-11.26,5.04-11.26,11.26v22.55"/>
					<path class="st1" d="M341.63,306.62c-1.77,0-3.21-1.44-3.21-3.21v-22.55c0-4.44-3.61-8.04-8.04-8.04h-0.23
						c-4.44,0-8.04,3.61-8.04,8.04v22.55c0,1.77-1.44,3.21-3.21,3.21s-3.21-1.44-3.21-3.21v-22.55c0-7.98,6.49-14.47,14.47-14.47
						h0.23c7.98,0,14.47,6.49,14.47,14.47v22.55C344.84,305.19,343.4,306.62,341.63,306.62z"/>
				</g>
			</g>
		</g>
		<g>
			<path class="st2" d="M280.94,104.14H257.2v201.28H141.69V104.14h-23.73c-2.4,0-3.68-2.82-2.11-4.63l83.61-96.3l83.59,96.3
				C284.62,101.32,283.33,104.14,280.94,104.14z"/>
			<path class="st1" d="M257.2,308.64H141.69c-1.77,0-3.21-1.44-3.21-3.21V107.35h-20.52c-2.38,0-4.48-1.35-5.47-3.52
				c-0.99-2.17-0.63-4.63,0.93-6.43l83.62-96.3c0.61-0.7,1.49-1.11,2.43-1.11l0,0c0.93,0,1.82,0.4,2.43,1.11l83.59,96.3
				c1.56,1.8,1.92,4.26,0.93,6.43c-0.99,2.17-3.08,3.51-5.47,3.51h-20.52v198.07C260.41,307.2,258.98,308.64,257.2,308.64z
				 M144.9,302.21h109.09V104.14c0-1.77,1.44-3.21,3.21-3.21h22.82L199.46,8.11l-80.59,92.81h22.82c1.77,0,3.21,1.44,3.21,3.21
				V302.21z M280.62,101.62h0.01H280.62z"/>
		</g>
		<g>
			<g>
				<g>
					<polyline class="st2" points="160.28,137.47 160.28,119.37 178.38,119.37 					"/>
					<path class="st1" d="M160.28,140.68c-1.77,0-3.21-1.44-3.21-3.21v-18.1c0-1.77,1.44-3.21,3.21-3.21h18.1
						c1.77,0,3.21,1.44,3.21,3.21s-1.44,3.21-3.21,3.21h-14.89v14.89C163.49,139.24,162.05,140.68,160.28,140.68z"/>
				</g>
				<g>
					<polyline class="st2" points="220.52,137.47 220.52,119.37 238.62,119.37 					"/>
					<path class="st1" d="M220.52,140.68c-1.77,0-3.21-1.44-3.21-3.21v-18.1c0-1.77,1.44-3.21,3.21-3.21h18.1
						c1.77,0,3.21,1.44,3.21,3.21s-1.44,3.21-3.21,3.21h-14.89v14.89C223.73,139.24,222.29,140.68,220.52,140.68z"/>
				</g>
			</g>
			<g>
				<g>
					<polyline class="st2" points="160.28,194.83 160.28,176.73 178.38,176.73 					"/>
					<path class="st1" d="M160.28,198.04c-1.77,0-3.21-1.44-3.21-3.21v-18.1c0-1.77,1.44-3.21,3.21-3.21h18.1
						c1.77,0,3.21,1.44,3.21,3.21s-1.44,3.21-3.21,3.21h-14.89v14.89C163.49,196.6,162.05,198.04,160.28,198.04z"/>
				</g>
				<g>
					<polyline class="st2" points="220.52,194.83 220.52,176.73 238.62,176.73 					"/>
					<path class="st1" d="M220.52,198.04c-1.77,0-3.21-1.44-3.21-3.21v-18.1c0-1.77,1.44-3.21,3.21-3.21h18.1
						c1.77,0,3.21,1.44,3.21,3.21s-1.44,3.21-3.21,3.21h-14.89v14.89C223.73,196.6,222.29,198.04,220.52,198.04z"/>
				</g>
			</g>
			<g>
				<g>
					<polyline class="st2" points="160.28,249.32 160.28,231.22 178.38,231.22 					"/>
					<path class="st1" d="M160.28,252.53c-1.77,0-3.21-1.44-3.21-3.21v-18.1c0-1.77,1.44-3.21,3.21-3.21h18.1
						c1.77,0,3.21,1.44,3.21,3.21s-1.44,3.21-3.21,3.21h-14.89v14.89C163.49,251.09,162.05,252.53,160.28,252.53z"/>
				</g>
				<g>
					<polyline class="st2" points="220.52,249.32 220.52,231.22 238.62,231.22 					"/>
					<path class="st1" d="M220.52,252.53c-1.77,0-3.21-1.44-3.21-3.21v-18.1c0-1.77,1.44-3.21,3.21-3.21h18.1
						c1.77,0,3.21,1.44,3.21,3.21s-1.44,3.21-3.21,3.21h-14.89v14.89C223.73,251.09,222.29,252.53,220.52,252.53z"/>
				</g>
			</g>
			<g>
				<g>
					<path class="st3" d="M188.08,303.58v-22.55c0-6.22,5.04-11.26,11.26-11.26h0.23c6.22,0,11.26,5.04,11.26,11.26v22.55"/>
					<path class="st1" d="M210.82,306.79c-1.77,0-3.21-1.44-3.21-3.21v-22.55c0-4.44-3.61-8.04-8.04-8.04h-0.23
						c-4.44,0-8.04,3.61-8.04,8.04v22.55c0,1.77-1.44,3.21-3.21,3.21s-3.21-1.44-3.21-3.21v-22.55c0-7.98,6.49-14.47,14.47-14.47
						h0.23c7.98,0,14.47,6.49,14.47,14.47v22.55C214.03,305.35,212.59,306.79,210.82,306.79z"/>
				</g>
			</g>
		</g>
	</g>
	<g>
		<g>
			
				<ellipse transform="matrix(0.2298 -0.9732 0.9732 0.2298 84.3692 248.9177)" class="st0" cx="199.45" cy="71.16" rx="22.89" ry="22.89"/>
			<path class="st1" d="M199.45,97.25c-14.39,0-26.1-11.71-26.1-26.1s11.71-26.1,26.1-26.1s26.1,11.71,26.1,26.1
				S213.84,97.25,199.45,97.25z M199.45,51.48c-10.85,0-19.67,8.83-19.67,19.67s8.83,19.67,19.67,19.67
				c10.85,0,19.67-8.83,19.67-19.67S210.29,51.48,199.45,51.48z"/>
		</g>
	</g>
	<g>
		<rect x="3.21" y="304.16" class="st0" width="392.47" height="15.59"/>
		<path class="st1" d="M395.68,322.96H3.21c-1.77,0-3.21-1.44-3.21-3.21v-15.59c0-1.77,1.44-3.21,3.21-3.21h392.47
			c1.77,0,3.21,1.44,3.21,3.21v15.59C398.9,321.52,397.46,322.96,395.68,322.96z M6.42,316.53h386.05v-9.16H6.42V316.53z"/>
	</g>
</g>
</svg>
