<?xml version="1.0" encoding="utf-8"?>
<!-- Generator: Adobe Illustrator 24.3.0, SVG Export Plug-In . SVG Version: 6.00 Build 0)  -->
<svg version="1.1" id="Modo_de_aislamiento" xmlns="http://www.w3.org/2000/svg" xmlns:xlink="http://www.w3.org/1999/xlink"
	 x="0px" y="0px" viewBox="0 0 306.57 259.49" style="enable-background:new 0 0 306.57 259.49;" xml:space="preserve">
<style type="text/css">
	.st0{fill:#00C2FF;}
	.st1{fill:#2F4869;}
	.st2{fill:#FFFFFF;}
	.st3{fill:#D0E7F2;}
</style>
<g>
	<g>
		<g>
			<polyline class="st0" points="3.36,99.01 58.39,3.36 248.18,3.36 303.21,99.01 			"/>
			<path class="st1" d="M3.36,102.37c-0.57,0-1.14-0.14-1.67-0.45c-1.61-0.92-2.16-2.98-1.24-4.58L55.48,1.68
				C56.08,0.64,57.19,0,58.39,0h189.79c1.2,0,2.31,0.64,2.91,1.68l55.04,95.66c0.92,1.61,0.37,3.66-1.24,4.58
				c-1.6,0.92-3.66,0.37-4.58-1.24L246.23,6.72H60.33L6.27,100.69C5.65,101.77,4.52,102.37,3.36,102.37z"/>
		</g>
		<g>
			<g>
				<polygon class="st2" points="221.05,99.01 153.28,43.92 85.52,99.01 23.89,99.01 23.89,221.98 85.52,221.98 221.05,221.98 
					282.68,221.98 282.68,99.01 				"/>
				<path class="st1" d="M282.68,225.33H23.89c-1.85,0-3.36-1.5-3.36-3.36V99.02c0-1.85,1.5-3.36,3.36-3.36h60.44l66.84-54.35
					c1.23-1,3-1,4.24,0l66.84,54.35h60.43c1.85,0,3.36,1.5,3.36,3.36v122.96C286.04,223.83,284.53,225.33,282.68,225.33z
					 M27.25,218.62h252.07V102.37h-58.27c-0.77,0-1.52-0.27-2.12-0.75l-65.65-53.38l-65.65,53.38c-0.6,0.49-1.35,0.75-2.12,0.75
					H27.25V218.62z"/>
			</g>
			<g>
				<circle class="st2" cx="153.28" cy="103" r="24.76"/>
				<path class="st1" d="M153.28,131.12c-15.51,0-28.12-12.62-28.12-28.12s12.62-28.12,28.12-28.12s28.12,12.62,28.12,28.12
					S168.79,131.12,153.28,131.12z M153.28,81.59c-11.8,0-21.41,9.6-21.41,21.41c0,11.8,9.6,21.41,21.41,21.41
					c11.8,0,21.41-9.6,21.41-21.41C174.69,91.2,165.09,81.59,153.28,81.59z"/>
			</g>
			<g>
				<path class="st3" d="M153.28,157.22L153.28,157.22c-14.21,0-25.72,11.52-25.72,25.72v39.03h51.45v-39.03
					C179.01,168.74,167.49,157.22,153.28,157.22z"/>
				<path class="st1" d="M179.01,225.33h-51.45c-1.85,0-3.36-1.5-3.36-3.36v-39.03c0-16.04,13.05-29.08,29.08-29.08h0
					c16.04,0,29.08,13.05,29.08,29.08v39.03C182.37,223.83,180.86,225.33,179.01,225.33z M130.92,218.62h44.73v-35.67
					c0-12.33-10.03-22.37-22.36-22.37c-12.33,0-22.37,10.03-22.37,22.37V218.62z"/>
			</g>
			<g>
				<rect x="40.62" y="175.3" class="st2" width="25.82" height="28.61"/>
				<path class="st1" d="M66.44,207.26H40.62c-1.85,0-3.36-1.5-3.36-3.36V175.3c0-1.85,1.5-3.36,3.36-3.36h25.82
					c1.85,0,3.36,1.5,3.36,3.36v28.61C69.8,205.76,68.3,207.26,66.44,207.26z M43.98,200.55h19.11v-21.89H43.98V200.55z"/>
			</g>
			<g>
				<rect x="82.73" y="175.3" class="st2" width="25.82" height="28.61"/>
				<path class="st1" d="M108.55,207.26H82.73c-1.85,0-3.36-1.5-3.36-3.36V175.3c0-1.85,1.5-3.36,3.36-3.36h25.82
					c1.85,0,3.36,1.5,3.36,3.36v28.61C111.91,205.76,110.41,207.26,108.55,207.26z M86.09,200.55h19.11v-21.89H86.09V200.55z"/>
			</g>
			<g>
				<rect x="40.62" y="121.6" class="st2" width="25.82" height="28.61"/>
				<path class="st1" d="M66.44,153.57H40.62c-1.85,0-3.36-1.5-3.36-3.36V121.6c0-1.85,1.5-3.36,3.36-3.36h25.82
					c1.85,0,3.36,1.5,3.36,3.36v28.61C69.8,152.06,68.3,153.57,66.44,153.57z M43.98,146.85h19.11v-21.89H43.98V146.85z"/>
			</g>
			<g>
				<rect x="82.73" y="121.6" class="st2" width="25.82" height="28.61"/>
				<path class="st1" d="M108.55,153.57H82.73c-1.85,0-3.36-1.5-3.36-3.36V121.6c0-1.85,1.5-3.36,3.36-3.36h25.82
					c1.85,0,3.36,1.5,3.36,3.36v28.61C111.91,152.06,110.41,153.57,108.55,153.57z M86.09,146.85h19.11v-21.89H86.09V146.85z"/>
			</g>
			<g>
				<rect x="196.43" y="175.3" class="st2" width="25.82" height="28.61"/>
				<path class="st1" d="M222.25,207.26h-25.82c-1.85,0-3.36-1.5-3.36-3.36V175.3c0-1.85,1.5-3.36,3.36-3.36h25.82
					c1.85,0,3.36,1.5,3.36,3.36v28.61C225.61,205.76,224.11,207.26,222.25,207.26z M199.79,200.55h19.11v-21.89h-19.11V200.55z"/>
			</g>
			<g>
				<rect x="13.92" y="221.98" class="st2" width="278.73" height="17.08"/>
				<path class="st1" d="M292.65,242.41H13.92c-1.85,0-3.36-1.5-3.36-3.36v-17.08c0-1.85,1.5-3.36,3.36-3.36h278.73
					c1.85,0,3.36,1.5,3.36,3.36v17.08C296,240.91,294.5,242.41,292.65,242.41z M17.28,235.69h272.01v-10.36H17.28V235.69z"/>
			</g>
			<g>
				<rect x="3.36" y="239.05" class="st3" width="299.85" height="17.08"/>
				<path class="st1" d="M303.21,259.49H3.36c-1.85,0-3.36-1.5-3.36-3.36v-17.08c0-1.85,1.5-3.36,3.36-3.36h299.85
					c1.85,0,3.36,1.5,3.36,3.36v17.08C306.57,257.98,305.07,259.49,303.21,259.49z M6.72,252.77h293.14v-10.36H6.72V252.77z"/>
			</g>
			<g>
				<rect x="238.54" y="175.3" class="st2" width="25.82" height="28.61"/>
				<path class="st1" d="M264.36,207.26h-25.82c-1.85,0-3.36-1.5-3.36-3.36V175.3c0-1.85,1.5-3.36,3.36-3.36h25.82
					c1.85,0,3.36,1.5,3.36,3.36v28.61C267.72,205.76,266.22,207.26,264.36,207.26z M241.9,200.55H261v-21.89H241.9V200.55z"/>
			</g>
			<g>
				<rect x="196.43" y="121.6" class="st2" width="25.82" height="28.61"/>
				<path class="st1" d="M222.25,153.57h-25.82c-1.85,0-3.36-1.5-3.36-3.36V121.6c0-1.85,1.5-3.36,3.36-3.36h25.82
					c1.85,0,3.36,1.5,3.36,3.36v28.61C225.61,152.06,224.11,153.57,222.25,153.57z M199.79,146.85h19.11v-21.89h-19.11V146.85z"/>
			</g>
			<g>
				<rect x="238.54" y="121.6" class="st2" width="25.82" height="28.61"/>
				<path class="st1" d="M264.36,153.57h-25.82c-1.85,0-3.36-1.5-3.36-3.36V121.6c0-1.85,1.5-3.36,3.36-3.36h25.82
					c1.85,0,3.36,1.5,3.36,3.36v28.61C267.72,152.06,266.22,153.57,264.36,153.57z M241.9,146.85H261v-21.89H241.9V146.85z"/>
			</g>
			<g>
				<line class="st2" x1="303.21" y1="99.01" x2="282.68" y2="99.01"/>
				<path class="st1" d="M303.21,102.37h-20.53c-1.85,0-3.36-1.5-3.36-3.36s1.5-3.36,3.36-3.36h20.53c1.85,0,3.36,1.5,3.36,3.36
					S305.07,102.37,303.21,102.37z"/>
			</g>
			<g>
				<path class="st1" d="M58.39,102.37c-0.96,0-1.92-0.41-2.58-1.21c-1.19-1.42-1-3.54,0.43-4.73l94.9-79.18
					c1.25-1.04,3.06-1.04,4.3,0l94.89,79.18c1.42,1.19,1.61,3.31,0.43,4.73c-1.19,1.42-3.31,1.61-4.73,0.43L153.28,24.2
					l-92.75,77.39C59.91,102.12,59.15,102.37,58.39,102.37z"/>
			</g>
			<g>
				<line class="st2" x1="23.89" y1="99.01" x2="3.36" y2="99.01"/>
				<path class="st1" d="M23.89,102.37H3.36c-1.85,0-3.36-1.5-3.36-3.36s1.5-3.36,3.36-3.36h20.53c1.85,0,3.36,1.5,3.36,3.36
					S25.74,102.37,23.89,102.37z"/>
			</g>
		</g>
	</g>
</g>
</svg>
