<?xml version="1.0" encoding="utf-8"?>
<!-- Generator: Adobe Illustrator 24.3.0, SVG Export Plug-In . SVG Version: 6.00 Build 0)  -->
<svg version="1.1" id="_x2014_ÎÓÈ_x5F_1" xmlns="http://www.w3.org/2000/svg" xmlns:xlink="http://www.w3.org/1999/xlink"
	 x="0px" y="0px" viewBox="0 0 1414.63 861.01" style="enable-background:new 0 0 1414.63 861.01;" xml:space="preserve">
<style type="text/css">
	.st0{filter:url(#Adobe_OpacityMaskFilter);}
	.st1{filter:url(#Adobe_OpacityMaskFilter_1_);}
	.st2{mask:url(#SVGID_1_);fill:url(#SVGID_2_);}
	.st3{opacity:0.5;fill:url(#SVGID_3_);}
	.st4{filter:url(#Adobe_OpacityMaskFilter_2_);}
	.st5{filter:url(#Adobe_OpacityMaskFilter_3_);}
	.st6{mask:url(#SVGID_4_);fill:url(#SVGID_5_);}
	.st7{opacity:0.4;fill:url(#SVGID_6_);}
	.st8{fill:#40B8B2;}
	.st9{opacity:0.1;fill:#FFFFFF;}
	.st10{fill:#DCF3FA;}
	.st11{fill:#81DAF8;}
	.st12{fill:#9BE2EB;}
	.st13{fill:#001729;}
	.st14{fill:#FFFFFF;}
	.st15{fill:#00A6CC;}
	.st16{fill:#D0E7F2;}
	.st17{filter:url(#Adobe_OpacityMaskFilter_4_);}
	.st18{filter:url(#Adobe_OpacityMaskFilter_5_);}
	.st19{mask:url(#SVGID_7_);fill:url(#SVGID_8_);}
	.st20{opacity:0.6;fill:url(#SVGID_9_);}
	.st21{filter:url(#Adobe_OpacityMaskFilter_6_);}
	.st22{filter:url(#Adobe_OpacityMaskFilter_7_);}
	.st23{mask:url(#SVGID_10_);fill:url(#SVGID_11_);}
	.st24{opacity:0.6;fill:url(#SVGID_12_);}
	.st25{filter:url(#Adobe_OpacityMaskFilter_8_);}
	.st26{filter:url(#Adobe_OpacityMaskFilter_9_);}
	.st27{mask:url(#SVGID_13_);fill:url(#SVGID_14_);}
	.st28{opacity:0.6;fill:url(#SVGID_15_);}
	.st29{filter:url(#Adobe_OpacityMaskFilter_10_);}
	.st30{filter:url(#Adobe_OpacityMaskFilter_11_);}
	.st31{mask:url(#SVGID_16_);fill:url(#SVGID_17_);}
	.st32{opacity:0.6;fill:url(#SVGID_18_);}
	.st33{filter:url(#Adobe_OpacityMaskFilter_12_);}
	.st34{filter:url(#Adobe_OpacityMaskFilter_13_);}
	.st35{mask:url(#SVGID_19_);fill:url(#SVGID_20_);}
	.st36{opacity:0.6;fill:url(#SVGID_21_);}
	.st37{filter:url(#Adobe_OpacityMaskFilter_14_);}
	.st38{filter:url(#Adobe_OpacityMaskFilter_15_);}
	.st39{mask:url(#SVGID_22_);fill:url(#SVGID_23_);}
	.st40{opacity:0.6;fill:url(#SVGID_24_);}
	.st41{fill:#C9E5F2;}
	.st42{fill:url(#SVGID_25_);}
	.st43{fill:#7DDFFA;}
	.st44{fill:#01B7E6;}
	.st45{fill:#BBE3F0;}
	.st46{fill:#00263F;}
	.st47{fill:#E8875A;}
	.st48{fill:#FFBE91;}
	.st49{fill:#F7F2FF;}
	.st50{filter:url(#Adobe_OpacityMaskFilter_16_);}
	.st51{filter:url(#Adobe_OpacityMaskFilter_17_);}
	.st52{mask:url(#SVGID_26_);fill:url(#SVGID_27_);}
	.st53{opacity:0.65;fill:url(#SVGID_28_);}
	.st54{fill:#F7AE7C;}
	.st55{fill:#ED9E68;}
	.st56{fill:#DB7B4F;}
	.st57{fill:#45C2E6;}
	.st58{fill:#6EDCFA;}
	.st59{fill:#ECE3FA;}
	.st60{fill:#EB8E6C;}
	.st61{fill:#C3B8D4;}
	.st62{fill:#E7DCFA;}
	.st63{fill:#AE9DBF;}
</style>
<g>
	<defs>
		<filter id="Adobe_OpacityMaskFilter" filterUnits="userSpaceOnUse" x="82.99" y="36.79" width="1252.83" height="747.2">
			<feFlood  style="flood-color:white;flood-opacity:1" result="back"/>
			<feBlend  in="SourceGraphic" in2="back" mode="normal"/>
		</filter>
	</defs>
	<mask maskUnits="userSpaceOnUse" x="82.99" y="36.79" width="1252.83" height="747.2" id="SVGID_1_">
		<g class="st0">
			<defs>
				<filter id="Adobe_OpacityMaskFilter_1_" filterUnits="userSpaceOnUse" x="-108.4" y="36.79" width="1444.23" height="747.2">
					<feFlood  style="flood-color:white;flood-opacity:1" result="back"/>
					<feBlend  in="SourceGraphic" in2="back" mode="normal"/>
				</filter>
			</defs>
			<mask maskUnits="userSpaceOnUse" x="-108.4" y="36.79" width="1444.23" height="747.2" id="SVGID_1_">
				<g class="st1">
				</g>
			</mask>
			
				<linearGradient id="SVGID_2_" gradientUnits="userSpaceOnUse" x1="1966.349" y1="1267.6869" x2="2672.7209" y2="44.2149" gradientTransform="matrix(-1 0 0 1 2942.8154 0)">
				<stop  offset="0" style="stop-color:#B3B3B3"/>
				<stop  offset="1" style="stop-color:#000000"/>
			</linearGradient>
			<path class="st2" d="M1275.79,581.69c13.33,61.05,96.16,73.16,41.66,202.31H-108.4c25.66-41.93,108.32-80.34,241.64-79.01
				c142.28,1.42,212.94-90.69,228.81-145.82c16.67-57.89,6.79-123.68,76.57-189.41c31.87-30.02,100.95-33.18,108.6-100.03
				c4.34-37.93-9.38-75.45,2.06-125.71c12.78-56.16,76.79-123.07,204.96-103.86c126.77,19,215.59,128.12,273.25,122.53
				c53.52-5.18,110.53,3.67,140.45,43.37c34.92,46.34,19.07,81.01,30.03,122.6c16.06,60.98,82.49,57.89,82.81,146.97
				C1280.92,515.92,1269.74,553.95,1275.79,581.69z"/>
		</g>
	</mask>
	
		<linearGradient id="SVGID_3_" gradientUnits="userSpaceOnUse" x1="1894.5769" y1="1226.2493" x2="2600.9487" y2="2.7773" gradientTransform="matrix(-1 0 0 1 2942.8154 0)">
		<stop  offset="0" style="stop-color:#B9FFFF"/>
		<stop  offset="1" style="stop-color:#B9FFFF"/>
	</linearGradient>
	<path class="st3" d="M1275.79,581.69c13.33,61.05,96.16,73.16,41.66,202.31H82.99c25.66-41.93,108.32-80.34,241.64-79.01
		c142.28,1.42,21.55-90.69,37.42-145.82c16.67-57.89,6.79-123.68,76.57-189.41c31.87-30.02,100.95-33.18,108.6-100.03
		c4.34-37.93-9.38-75.45,2.06-125.71c12.78-56.16,76.79-123.07,204.96-103.86c126.77,19,215.59,128.12,273.25,122.53
		c53.52-5.18,110.53,3.67,140.45,43.37c34.92,46.34,19.07,81.01,30.03,122.6c16.06,60.98,82.49,57.89,82.81,146.97
		C1280.92,515.92,1269.74,553.95,1275.79,581.69z"/>
	<defs>
		<filter id="Adobe_OpacityMaskFilter_2_" filterUnits="userSpaceOnUse" x="0" y="92.1" width="1414.63" height="691.89">
			<feFlood  style="flood-color:white;flood-opacity:1" result="back"/>
			<feBlend  in="SourceGraphic" in2="back" mode="normal"/>
		</filter>
	</defs>
	<mask maskUnits="userSpaceOnUse" x="0" y="92.1" width="1414.63" height="691.89" id="SVGID_4_">
		<g class="st4">
			<defs>
				<filter id="Adobe_OpacityMaskFilter_3_" filterUnits="userSpaceOnUse" x="-191.39" y="92.1" width="1606.02" height="691.89">
					<feFlood  style="flood-color:white;flood-opacity:1" result="back"/>
					<feBlend  in="SourceGraphic" in2="back" mode="normal"/>
				</filter>
			</defs>
			<mask maskUnits="userSpaceOnUse" x="-191.39" y="92.1" width="1606.02" height="691.89" id="SVGID_4_">
				<g class="st5">
				</g>
			</mask>
			
				<linearGradient id="SVGID_5_" gradientUnits="userSpaceOnUse" x1="1750.5239" y1="1189.172" x2="2836.6914" y2="103.0045" gradientTransform="matrix(-1 0 0 1 2942.8154 0)">
				<stop  offset="0" style="stop-color:#595959"/>
				<stop  offset="0.2419" style="stop-color:#3F3F3F"/>
				<stop  offset="0.4996" style="stop-color:#2A2A2A"/>
				<stop  offset="0.7542" style="stop-color:#1E1E1E"/>
				<stop  offset="1" style="stop-color:#1A1A1A"/>
			</linearGradient>
			<path class="st6" d="M-39.43,706.32c148.65-13.38,205.46,46.26,328.6-28.44c86.28-52.34,31.6-182.61,142.24-275.8
				c34.11-28.73,133.27-50.59,141.93-113.99c4.92-35.97-18.8-134.31,37.1-170.43c141.44-91.39,269.02,93.14,474.7,74.85
				c68-6.05,116.52,18.33,141.32,55.37c25.33,37.83,20.23,80.26,39.33,129.15c22.62,57.91,114.33,88.16,148.83,170.13v171.93
				c-6.33,18.42-20.34,43.77-32.56,64.92H-191.39C-181.39,753.15-111.75,712.83-39.43,706.32z"/>
		</g>
	</mask>
	
		<linearGradient id="SVGID_6_" gradientUnits="userSpaceOnUse" x1="1712.2163" y1="1131.7836" x2="2702.1682" y2="141.8318" gradientTransform="matrix(-1 0 0 1 2942.8154 0)">
		<stop  offset="0" style="stop-color:#40D2FA"/>
		<stop  offset="0.1227" style="stop-color:#4BD4FA"/>
		<stop  offset="0.421" style="stop-color:#5FD7F9"/>
		<stop  offset="0.7156" style="stop-color:#6CD8F8"/>
		<stop  offset="1" style="stop-color:#70D9F8"/>
	</linearGradient>
	<path class="st7" d="M116.32,701.07c53.48-5.25,96.25,1.28,153.09-39.88c70.04-50.72,51.37-165.92,162.01-259.11
		c34.11-28.73,133.27-50.59,141.93-113.99c4.92-35.97-18.8-134.31,37.1-170.43c141.44-91.39,269.02,93.14,474.7,74.85
		c68-6.05,116.52,18.33,141.32,55.37c25.33,37.83,20.23,80.26,39.33,129.15c7.81,20,23.87,36.7,42.96,53.37
		c67.19,58.67,105.87,143.42,105.87,232.62v0c0,42.24-11.07,83.76-32.19,120.34c-0.12,0.21-0.24,0.42-0.37,0.64H0
		C10,753.15,44.05,708.16,116.32,701.07z"/>
	<path class="st8" d="M222.4,540.99c2.62,0,2.63,4.08,0,4.08C219.77,545.07,219.77,540.99,222.4,540.99z"/>
	<path class="st9" d="M288.49,840.58c0,11.79,67.47,17.65,198.74,19.55c68.67,0.99,149.82,1.9,229.35-1.66
		c79.17-3.55,232.11,2.55,272.92,2.55c160.17,0,292.16-5.71,292.16-16.4c0-8.88-212.69-14.59-372.87-14.59
		S288.49,821.74,288.49,840.58z"/>
	<g>
		<path class="st10" d="M1058.06,177.54l-0.48-1.51l-24.89-24.44l10.68-3.39l33.65,12.7l34.38-10.91l-61.85-42.47l10.64-3.55
			l95.52,31.96l50.04-15.88c4.67-1.48,9.7-1.44,14.34,0.12l6.71,2.26c3.48,1.17,3.44,6.11-0.06,7.22l-134.06,42.54L1058.06,177.54z"
			/>
		<polygon class="st11" points="1052.12,109.28 1118.28,154.98 1154.87,143.18 1060.73,106.21 		"/>
		<polygon class="st11" points="1036.07,166.34 1058.34,174.68 1082.87,166.9 1044.14,163.8 		"/>
		<path class="st11" d="M1209.55,121.79l0.36,2.33l12.39-3.22l-2.17-0.74c-0.94-0.32-1.87-0.57-2.83-0.75L1209.55,121.79z"/>
		<path class="st10" d="M1111.17,132.55l22.3-8.43c2.02-0.63,4.62,1.94,5.82,5.76c1.2,3.81,0.53,7.41-1.49,8.05l-23.13,5.81
			c-1.6,0.5-3.69-1.59-4.66-4.68C1109.05,135.96,1109.57,133.05,1111.17,132.55z"/>
		<path class="st11" d="M1058.06,177.54l-0.48-1.51l23.69-5.7l147.24-46.72c1.59,1.91,1.02,5.15-1.75,6.03l-134.06,42.54
			L1058.06,177.54z"/>
		<path class="st11" d="M1110.95,134.74c1.23,0.39,0.98,1.8,3.37,1.88c1.99,0.07,9.1-1.5,14.47-3.46c1.61-0.59,3.47,0.1,4.33,1.59
			c1.33,2.3,3.17,3.63,4.69,3.16l-23.13,5.81c-1.6,0.5-3.69-1.59-4.66-4.68C1109.86,138.54,1109.36,134.23,1110.95,134.74z"/>
	</g>
	<g>
		<path class="st12" d="M1277.41,784.46c23.55-15.85,53.67-57.99,47.26-87.95c-2.79-13.05-17.58-14.56-28.47-14.56
			c-4.66,0-9.26,0.32-13.33,0.6c-3.17,0.22-6.11,0.42-8.45,0.42c-3.6,0-4.2-0.52-4.29-0.68c-4.39-7.31-4.22-17.63-4.05-27.62
			c0.17-10.26,0.33-19.96-4.79-25.08c-6.55-6.56-13.53-9.61-21.98-9.61c-4.56,0-9.67,0.89-16.08,2.8c-3.63,1.08-6.99,1.63-10,1.63
			c-3.26,0-5.97-0.64-8.06-1.9c-3.58-2.17-5.05-6.13-4.25-11.46c0.26-1.72,0.58-3.4,0.89-5.03c1.73-9.05,3.35-17.52-7.98-22.93
			c-2.49-1.19-5.54-1.34-7.91-1.34c-1.22,0-2.47,0.04-3.7,0.09c-1.22,0.04-2.42,0.09-3.58,0.09c-2.64,0-5.59-0.21-7.43-1.75
			c-5-4.2-5.89-9.79-6.1-15.2c-0.06-1.59-0.11-3.33-0.17-5.2l-0.01-0.28c-0.66-23.23-1.9-66.47-29.87-75.49
			c-2.67-0.86-5.42-1.28-8.39-1.28c-6.63,0-13.19,2.09-20.13,4.3c-7.12,2.27-14.47,4.61-22.17,4.61c-0.6,0-1.19-0.01-1.79-0.04
			c-7.92-0.4-11.98-8.48-16.28-17.04c-5.45-10.86-11.63-23.17-27.3-23.17h-0.57v2.21h0.57c14.02,0,19.59,11.11,24.99,21.85
			c4.62,9.2,8.98,17.88,18.44,18.35c0.68,0.04,1.36,0.05,2.03,0.05c8.04,0,15.56-2.39,22.83-4.71c6.82-2.17,13.17-4.19,19.39-4.19
			c2.68,0,5.13,0.37,7.5,1.13c26.37,8.51,27.58,50.77,28.23,73.47c0.06,1.99,0.11,3.83,0.17,5.5c0.23,5.88,1.22,11.98,6.87,16.73
			c2.48,2.08,6.05,2.36,9.22,2.36c1.2,0,2.42-0.04,3.64-0.09c1.19-0.04,2.4-0.09,3.58-0.09c2.08,0,4.72,0.12,6.71,1.07
			c9.76,4.66,8.48,11.32,6.72,20.54c-0.32,1.68-0.65,3.41-0.92,5.18c-0.94,6.21,0.9,10.9,5.31,13.57c2.51,1.52,5.71,2.29,9.5,2.29
			c3.29,0,6.93-0.59,10.82-1.75c6.29-1.88,11.01-2.71,15.3-2.71c7.61,0,13.98,2.82,20.04,8.89c4.48,4.49,4.33,13.76,4.16,23.58
			c-0.17,10.27-0.34,20.88,4.34,28.69c0.78,1.3,2.76,1.85,6.62,1.85c2.36,0,5.22-0.2,8.53-0.43c4.17-0.29,8.87-0.61,13.43-0.61
			c15.67,0,23.84,4.06,25.7,12.78c6.24,29.13-23.27,70.26-46.32,85.77l-0.6,0.41l1.78,1.6L1277.41,784.46z"/>
		<path class="st12" d="M280.62,783.07l-0.62-0.41c-13.78-9.01-37.4-28.65-38.54-45.09c-0.37-5.43,1.81-10.11,6.5-13.89
			c2.65-2.14,7.58-3.18,15.07-3.18c5.54,0,11.86,0.54,17.97,1.07c6.38,0.55,12.4,1.07,17.77,1.07c6.19,0,10.48-0.7,13.5-2.2
			c7.04-3.49,9.05-12.79,11.17-22.63c2.82-13.08,5.74-26.61,20.01-29.24c2.06-0.38,4.14-0.57,6.17-0.57
			c16.45,0,29.13,12.59,40.31,23.7c9.65,9.59,18.73,18.61,29.06,18.61c2.41,0,4.83-0.51,7.2-1.51c5.13-2.16,1.92-14.44-4.7-37.77
			c-7.91-27.91-18.75-66.13-5.13-77.08c2.61-2.1,5.95-3.12,10.2-3.12c1.2,0,2.49,0.08,3.84,0.25c17.1,2.1,28.23,13.67,38.06,23.87
			c8.69,9.03,16.19,16.82,26.07,16.82c3.28,0,6.58-0.86,10.09-2.64c11.14-5.62,12.94-22.56,14.67-38.93
			c1.49-14.05,2.89-27.32,9.86-31.83c4.26-2.76,8.86-4.1,14.06-4.1c4.25,0,8.3,0.86,12.22,1.68c3.5,0.74,6.8,1.43,9.96,1.43
			c5.12,0,8.82-1.91,11.63-6.02c5.25-7.67-5.98-16.9-16.85-25.82c-7.62-6.26-15.5-12.73-13.84-16.27c0.64-1.36,3.19-3.17,11.73-4.06
			c13.04-1.36,13.82-9.19,14.57-16.77c0.72-7.27,1.47-14.78,11.57-19.28c3.43-1.53,7.36-2.27,12.03-2.27
			c11.29,0,24.76,4.45,37.79,8.76c13.31,4.4,27.07,8.94,38.91,8.94c5.87,0,10.78-1.09,15-3.34c5.79-3.08,7.19-8.97,8.82-15.79
			c2.34-9.79,4.98-20.87,22.17-26.03l0.65-0.2l-1.07-2.08l-0.45,0.13c-18.59,5.58-21.52,17.85-23.87,27.71
			c-1.5,6.31-2.8,11.75-7.64,14.33c-3.79,2.01-8.24,2.99-13.62,2.99c-11.37,0-24.88-4.47-37.96-8.79
			c-13.27-4.38-26.98-8.91-38.74-8.91c-5.1,0-9.43,0.83-13.24,2.53c-11.37,5.07-12.21,13.58-12.96,21.08
			c-0.75,7.59-1.35,13.58-12.28,14.72c-8.1,0.85-12.49,2.58-13.84,5.45c-2.34,4.99,5.44,11.38,14.45,18.77
			c9.65,7.93,20.58,16.9,16.4,23.01c-2.33,3.41-5.22,4.93-9.37,4.93c-2.78,0-5.96-0.67-9.33-1.38c-4.12-0.87-8.38-1.77-12.91-1.77
			c-5.72,0-10.82,1.49-15.57,4.57c-7.89,5.11-9.34,18.87-10.89,33.43c-1.67,15.81-3.4,32.15-13.39,37.19
			c-3.07,1.55-5.94,2.3-8.76,2.3c-8.67,0-15.8-7.41-24.06-15.99c-10.13-10.52-21.6-22.44-39.7-24.66c-1.44-0.18-2.84-0.27-4.15-0.27
			c-4.93,0-8.99,1.25-12.06,3.71c-14.74,11.85-4.14,49.24,4.38,79.28c4.48,15.81,9.56,33.72,6.08,35.19
			c-2.02,0.85-4.07,1.28-6.1,1.28c-9.07,0-17.38-8.25-27-17.81c-11.57-11.5-24.67-24.51-42.25-24.51c-2.23,0-4.52,0.21-6.79,0.63
			c-15.96,2.94-19.18,17.86-22.03,31.03c-2.01,9.31-3.91,18.11-9.91,21.09c-2.55,1.27-6.56,1.88-12.25,1.88
			c-5.32,0-11.48-0.53-17.43-1.04c-6.16-0.53-12.52-1.08-18.18-1.08c-8.35,0-13.73,1.2-16.92,3.78c-5.28,4.26-7.74,9.54-7.32,15.69
			c1.19,17.27,25.43,37.52,39.56,46.76l0.36,0.24L280.62,783.07z"/>
		<polygon class="st12" points="1328.19,527.94 1328.19,525.2 1275.44,525.2 1275.44,423.43 1206.39,423.43 1206.4,454.96 
			1186.62,454.96 1186.62,397.79 1130.39,397.81 1130.41,505.28 1132.98,505.28 1132.97,400.55 1184.05,400.54 1184.05,457.54 
			1208.97,457.54 1208.96,426.18 1272.86,426.18 1272.86,527.94 		"/>
		<polygon class="st12" points="611.07,461.91 611.07,399.15 668.59,399.14 668.59,444.75 688.1,444.75 688.1,358.68 718.25,358.68 
			718.25,355.84 685.65,355.84 685.65,441.91 671.04,441.91 671.04,396.29 608.61,396.31 608.61,461.91 		"/>
		<polygon class="st12" points="438.61,606.51 438.61,545.01 483.4,545.01 483.38,481.7 527.84,481.69 527.84,529.63 555.63,529.63 
			555.63,527.18 530.3,527.18 530.3,479.24 480.93,479.25 480.95,542.56 436.16,542.56 436.16,606.51 		"/>
		<polygon class="st12" points="1112.74,505.28 1112.74,324.43 1049.8,324.43 1049.8,390.14 1038.45,390.14 1038.45,392.63 
			1052.25,392.63 1052.25,327.17 1110.29,327.17 1110.29,505.28 		"/>
	</g>
	<g>
		<path class="st13" d="M1009.49,843.54H747.21c-16.31,0-29.53-13.22-29.53-29.53v-558.9c0-16.31,13.22-29.53,29.53-29.53h262.28
			c16.31,0,29.53,13.22,29.53,29.53v558.9C1039.02,830.32,1025.8,843.54,1009.49,843.54z"/>
		<path class="st14" d="M1005.71,831.18H750.99c-11.57,0-20.95-9.38-20.95-20.95V258.89c0-11.57,9.38-20.95,20.95-20.95h254.73
			c11.57,0,20.95,9.38,20.95,20.95v551.35C1026.66,821.8,1017.28,831.18,1005.71,831.18z"/>
		<path class="st15" d="M1026.66,258.88v38.12H730.04v-38.12c0-11.56,9.38-20.95,20.95-20.95h254.73
			C1017.28,237.94,1026.66,247.32,1026.66,258.88z"/>
		<g>
			<rect x="752.31" y="384.79" class="st16" width="252.08" height="1.76"/>
			<path class="st16" d="M988.4,357.34c-0.71,0-1.29-0.58-1.29-1.29v-1.65c-2.34-0.13-4.81-0.7-6.37-1.48
				c-0.57-0.29-0.84-0.96-0.63-1.57l0.63-1.85c0.18-0.52,0.67-0.87,1.22-0.87c0.2,0,0.39,0.05,0.57,0.13
				c1.74,0.84,3.86,1.32,5.8,1.32c3.2,0,5.18-1.34,5.18-3.5c0-1.65-0.79-2.88-4.85-4.25c-3.48-1.09-8.14-3.1-8.14-7.95
				c0-3.49,2.51-6.25,6.58-7.27v-1.62c0-0.71,0.58-1.29,1.29-1.29h2.09c0.71,0,1.29,0.58,1.29,1.29v1.24
				c2.46,0.13,4.14,0.66,5.13,1.08c0.63,0.27,0.93,0.99,0.68,1.64l-0.69,1.79c-0.19,0.51-0.66,0.83-1.2,0.83
				c-0.17,0-0.34-0.03-0.51-0.1c-1-0.43-2.62-0.94-4.69-0.94c-3.17,0-4.58,1.49-4.58,2.97c0,1.78,1.25,2.77,5.15,4.1
				c3.9,1.32,7.88,3.34,7.88,8.21c0,3.8-2.74,6.74-7.17,7.72v2c0,0.71-0.58,1.29-1.29,1.29H988.4z"/>
			<rect x="800.94" y="325.14" class="st16" width="159.29" height="7.05"/>
			<rect x="800.94" y="337.25" class="st16" width="77.41" height="7.05"/>
			<rect x="800.94" y="349.36" class="st16" width="114.6" height="7.05"/>
			<rect x="752.31" y="470.3" class="st16" width="252.08" height="1.76"/>
			<path class="st16" d="M988.4,442.86c-0.71,0-1.29-0.58-1.29-1.29v-1.65c-2.34-0.13-4.81-0.7-6.37-1.48
				c-0.57-0.29-0.84-0.96-0.63-1.57l0.63-1.85c0.18-0.52,0.67-0.87,1.22-0.87c0.2,0,0.39,0.05,0.57,0.13
				c1.74,0.84,3.86,1.32,5.8,1.32c3.2,0,5.18-1.34,5.18-3.5c0-1.65-0.78-2.93-4.85-4.25c-3.47-1.13-8.14-3.1-8.14-7.95
				c0-3.49,2.51-6.25,6.58-7.27v-1.62c0-0.71,0.58-1.29,1.29-1.29h2.09c0.71,0,1.29,0.58,1.29,1.29v1.24
				c2.46,0.13,4.14,0.66,5.13,1.08c0.63,0.27,0.93,0.99,0.68,1.64l-0.69,1.79c-0.19,0.51-0.66,0.83-1.2,0.83
				c-0.17,0-0.34-0.03-0.51-0.1c-1-0.43-2.62-0.94-4.69-0.94c-3.17,0-4.58,1.49-4.58,2.97c0,1.78,1.25,2.77,5.15,4.1
				c3.9,1.32,7.88,3.33,7.88,8.21c0,3.8-2.74,6.74-7.17,7.72v2c0,0.71-0.58,1.29-1.29,1.29H988.4z"/>
			<rect x="800.94" y="410.65" class="st16" width="159.29" height="7.05"/>
			<rect x="800.94" y="422.77" class="st16" width="159.29" height="7.05"/>
			<rect x="800.94" y="434.88" class="st16" width="132.26" height="7.05"/>
			<rect x="752.31" y="555.82" class="st16" width="252.08" height="1.76"/>
			<path class="st16" d="M988.4,528.37c-0.71,0-1.29-0.58-1.29-1.29v-1.65c-2.34-0.13-4.81-0.7-6.37-1.48
				c-0.57-0.29-0.84-0.96-0.63-1.57l0.63-1.85c0.18-0.52,0.67-0.87,1.22-0.87c0.2,0,0.39,0.05,0.57,0.13
				c1.74,0.84,3.86,1.32,5.8,1.32c3.2,0,5.18-1.34,5.18-3.5c0-1.65-0.78-2.93-4.85-4.25c-3.47-1.13-8.14-3.1-8.14-7.95
				c0-3.49,2.51-6.25,6.58-7.27v-1.62c0-0.71,0.58-1.29,1.29-1.29h2.09c0.71,0,1.29,0.58,1.29,1.29v1.24
				c2.46,0.13,4.14,0.66,5.13,1.08c0.63,0.27,0.93,0.99,0.68,1.64l-0.69,1.79c-0.19,0.51-0.66,0.83-1.2,0.83
				c-0.17,0-0.34-0.03-0.51-0.1c-1-0.43-2.62-0.94-4.69-0.94c-3.17,0-4.58,1.49-4.58,2.97c0,1.78,1.25,2.77,5.15,4.1
				c3.9,1.32,7.88,3.34,7.88,8.21c0,3.8-2.74,6.74-7.17,7.72v2c0,0.71-0.58,1.29-1.29,1.29H988.4z"/>
			<rect x="800.94" y="496.17" class="st16" width="159.29" height="7.05"/>
			<rect x="800.94" y="508.28" class="st16" width="102.9" height="7.05"/>
			<rect x="800.94" y="520.39" class="st16" width="146.64" height="7.05"/>
			<rect x="752.31" y="641.34" class="st16" width="252.08" height="1.76"/>
			<path class="st16" d="M988.46,613.06c-0.68,0-1.23-0.55-1.23-1.23v-1.56c-2.22-0.12-4.57-0.66-6.05-1.41
				c-0.54-0.27-0.8-0.91-0.6-1.49l0.6-1.76c0.17-0.5,0.64-0.83,1.16-0.83c0.19,0,0.37,0.04,0.54,0.12c1.66,0.8,3.67,1.26,5.51,1.26
				c3.04,0,4.92-1.27,4.92-3.32c0-1.57-0.74-2.78-4.61-4.04c-3.3-1.07-7.73-2.95-7.73-7.55c0-3.31,2.39-5.94,6.25-6.91v-1.54
				c0-0.68,0.55-1.23,1.23-1.23h1.99c0.68,0,1.23,0.55,1.23,1.23v1.17c2.33,0.12,3.93,0.62,4.87,1.03c0.6,0.26,0.88,0.94,0.65,1.56
				l-0.65,1.7c-0.18,0.48-0.63,0.79-1.14,0.79c-0.17,0-0.33-0.03-0.48-0.1c-0.95-0.41-2.49-0.89-4.45-0.89
				c-3.01,0-4.36,1.42-4.36,2.82c0,1.69,1.19,2.63,4.89,3.9c3.7,1.26,7.49,3.17,7.49,7.8c0,3.61-2.6,6.4-6.81,7.33v1.9
				c0,0.68-0.55,1.23-1.23,1.23H988.46z"/>
			<rect x="800.94" y="581.69" class="st16" width="159.29" height="7.05"/>
			<rect x="800.94" y="593.8" class="st16" width="159.29" height="7.05"/>
			<rect x="800.94" y="605.91" class="st16" width="88.22" height="7.05"/>
			<rect x="752.31" y="726.86" class="st16" width="252.08" height="1.76"/>
			<path class="st16" d="M988.4,699.41c-0.71,0-1.29-0.58-1.29-1.29v-1.65c-2.34-0.13-4.81-0.7-6.37-1.48
				c-0.57-0.29-0.84-0.96-0.63-1.57l0.63-1.85c0.18-0.52,0.67-0.87,1.22-0.87c0.2,0,0.39,0.05,0.57,0.13
				c1.74,0.84,3.86,1.32,5.8,1.32c3.2,0,5.18-1.34,5.18-3.5c0-1.65-0.78-2.93-4.85-4.25c-3.47-1.13-8.14-3.1-8.14-7.95
				c0-3.49,2.51-6.25,6.58-7.27v-1.62c0-0.71,0.58-1.29,1.29-1.29h2.09c0.71,0,1.29,0.58,1.29,1.29v1.24
				c2.46,0.13,4.14,0.66,5.13,1.08c0.63,0.27,0.93,0.99,0.68,1.64l-0.69,1.79c-0.19,0.5-0.66,0.83-1.2,0.83
				c-0.17,0-0.34-0.03-0.51-0.1c-1-0.43-2.62-0.94-4.69-0.94c-3.17,0-4.58,1.49-4.58,2.97c0,1.78,1.25,2.77,5.15,4.1
				c3.9,1.32,7.88,3.34,7.88,8.21c0,3.8-2.74,6.74-7.17,7.72v2c0,0.71-0.58,1.29-1.29,1.29H988.4z"/>
			<rect x="800.94" y="667.2" class="st16" width="132.47" height="7.05"/>
			<rect x="800.94" y="679.32" class="st16" width="159.29" height="7.05"/>
			<rect x="800.94" y="691.43" class="st16" width="115.91" height="7.05"/>
			<path class="st16" d="M988.4,784.92c-0.71,0-1.29-0.58-1.29-1.29v-1.65c-2.34-0.13-4.81-0.7-6.37-1.48
				c-0.57-0.29-0.84-0.96-0.63-1.57l0.63-1.85c0.18-0.52,0.67-0.87,1.22-0.87c0.2,0,0.39,0.05,0.57,0.13
				c1.74,0.84,3.86,1.32,5.8,1.32c3.2,0,5.18-1.34,5.18-3.5c0-1.65-0.79-2.88-4.85-4.25c-3.48-1.09-8.14-3.1-8.14-7.95
				c0-3.49,2.51-6.25,6.58-7.27v-1.62c0-0.71,0.58-1.29,1.29-1.29h2.09c0.71,0,1.29,0.58,1.29,1.29v1.24
				c2.46,0.13,4.14,0.66,5.13,1.08c0.63,0.27,0.93,0.99,0.68,1.64l-0.69,1.79c-0.19,0.51-0.66,0.83-1.2,0.83
				c-0.17,0-0.34-0.03-0.51-0.1c-1-0.43-2.62-0.94-4.69-0.94c-3.17,0-4.58,1.49-4.58,2.97c0,1.78,1.25,2.77,5.15,4.1
				c3.9,1.32,7.88,3.34,7.88,8.21c0,3.8-2.74,6.74-7.17,7.72v2c0,0.71-0.58,1.29-1.29,1.29H988.4z"/>
			<rect x="800.94" y="752.72" class="st16" width="144.25" height="7.05"/>
			<rect x="800.94" y="764.83" class="st16" width="159.29" height="7.05"/>
			<rect x="800.94" y="776.95" class="st16" width="72.12" height="7.05"/>
		</g>
		<g>
			<defs>
				<filter id="Adobe_OpacityMaskFilter_4_" filterUnits="userSpaceOnUse" x="753.24" y="320.19" width="32.12" height="41.16">
					<feFlood  style="flood-color:white;flood-opacity:1" result="back"/>
					<feBlend  in="SourceGraphic" in2="back" mode="normal"/>
				</filter>
			</defs>
			<mask maskUnits="userSpaceOnUse" x="753.24" y="320.19" width="32.12" height="41.16" id="SVGID_7_">
				<g class="st17">
					<defs>
						<filter id="Adobe_OpacityMaskFilter_5_" filterUnits="userSpaceOnUse" x="753.24" y="320.19" width="32.12" height="41.16">
							<feFlood  style="flood-color:white;flood-opacity:1" result="back"/>
							<feBlend  in="SourceGraphic" in2="back" mode="normal"/>
						</filter>
					</defs>
					<mask maskUnits="userSpaceOnUse" x="753.24" y="320.19" width="32.12" height="41.16" id="SVGID_7_">
						<g class="st18">
						</g>
					</mask>
					
						<linearGradient id="SVGID_8_" gradientUnits="userSpaceOnUse" x1="152.0478" y1="340.7714" x2="184.1724" y2="340.7714" gradientTransform="matrix(1 0 0 1 601.1936 0)">
						<stop  offset="0" style="stop-color:#B3B3B3"/>
						<stop  offset="1" style="stop-color:#999999"/>
					</linearGradient>
					<path class="st19" d="M769.3,345.36c-5.03,0-9.11-4.08-9.11-9.11c0-5.03,4.08-9.11,9.11-9.11s9.11,4.08,9.11,9.11
						C778.41,341.28,774.33,345.36,769.3,345.36z M769.3,320.19c-8.87,0-16.06,7.19-16.06,16.06c0,4.04,1.49,7.72,3.95,10.55l0,0.01
						l12.11,14.55l12.11-14.55l0-0.01c2.46-2.82,3.95-6.51,3.95-10.55C785.37,327.38,778.17,320.19,769.3,320.19z"/>
				</g>
			</mask>
			
				<linearGradient id="SVGID_9_" gradientUnits="userSpaceOnUse" x1="152.0478" y1="340.7714" x2="184.1724" y2="340.7714" gradientTransform="matrix(1 0 0 1 601.1936 0)">
				<stop  offset="0" style="stop-color:#3ECBFA"/>
				<stop  offset="1" style="stop-color:#3ECBFA"/>
			</linearGradient>
			<path class="st20" d="M769.3,345.36c-5.03,0-9.11-4.08-9.11-9.11c0-5.03,4.08-9.11,9.11-9.11s9.11,4.08,9.11,9.11
				C778.41,341.28,774.33,345.36,769.3,345.36z M769.3,320.19c-8.87,0-16.06,7.19-16.06,16.06c0,4.04,1.49,7.72,3.95,10.55l0,0.01
				l12.11,14.55l12.11-14.55l0-0.01c2.46-2.82,3.95-6.51,3.95-10.55C785.37,327.38,778.17,320.19,769.3,320.19z"/>
			<defs>
				<filter id="Adobe_OpacityMaskFilter_6_" filterUnits="userSpaceOnUse" x="753.24" y="405.71" width="32.12" height="41.16">
					<feFlood  style="flood-color:white;flood-opacity:1" result="back"/>
					<feBlend  in="SourceGraphic" in2="back" mode="normal"/>
				</filter>
			</defs>
			<mask maskUnits="userSpaceOnUse" x="753.24" y="405.71" width="32.12" height="41.16" id="SVGID_10_">
				<g class="st21">
					<defs>
						<filter id="Adobe_OpacityMaskFilter_7_" filterUnits="userSpaceOnUse" x="753.24" y="405.71" width="32.12" height="41.16">
							<feFlood  style="flood-color:white;flood-opacity:1" result="back"/>
							<feBlend  in="SourceGraphic" in2="back" mode="normal"/>
						</filter>
					</defs>
					<mask maskUnits="userSpaceOnUse" x="753.24" y="405.71" width="32.12" height="41.16" id="SVGID_10_">
						<g class="st22">
						</g>
					</mask>
					
						<linearGradient id="SVGID_11_" gradientUnits="userSpaceOnUse" x1="152.0478" y1="426.2885" x2="184.1724" y2="426.2885" gradientTransform="matrix(1 0 0 1 601.1936 0)">
						<stop  offset="0" style="stop-color:#B3B3B3"/>
						<stop  offset="1" style="stop-color:#999999"/>
					</linearGradient>
					<path class="st23" d="M769.3,430.88c-5.03,0-9.11-4.08-9.11-9.11c0-5.03,4.08-9.11,9.11-9.11s9.11,4.08,9.11,9.11
						C778.41,426.8,774.33,430.88,769.3,430.88z M769.3,405.71c-8.87,0-16.06,7.19-16.06,16.06c0,4.04,1.49,7.72,3.95,10.55l0,0.01
						l12.11,14.55l12.11-14.55l0-0.01c2.46-2.82,3.95-6.51,3.95-10.55C785.37,412.9,778.17,405.71,769.3,405.71z"/>
				</g>
			</mask>
			
				<linearGradient id="SVGID_12_" gradientUnits="userSpaceOnUse" x1="152.0478" y1="426.2885" x2="184.1724" y2="426.2885" gradientTransform="matrix(1 0 0 1 601.1936 0)">
				<stop  offset="0" style="stop-color:#3ECBFA"/>
				<stop  offset="1" style="stop-color:#3ECBFA"/>
			</linearGradient>
			<path class="st24" d="M769.3,430.88c-5.03,0-9.11-4.08-9.11-9.11c0-5.03,4.08-9.11,9.11-9.11s9.11,4.08,9.11,9.11
				C778.41,426.8,774.33,430.88,769.3,430.88z M769.3,405.71c-8.87,0-16.06,7.19-16.06,16.06c0,4.04,1.49,7.72,3.95,10.55l0,0.01
				l12.11,14.55l12.11-14.55l0-0.01c2.46-2.82,3.95-6.51,3.95-10.55C785.37,412.9,778.17,405.71,769.3,405.71z"/>
			<defs>
				<filter id="Adobe_OpacityMaskFilter_8_" filterUnits="userSpaceOnUse" x="753.24" y="491.23" width="32.12" height="41.16">
					<feFlood  style="flood-color:white;flood-opacity:1" result="back"/>
					<feBlend  in="SourceGraphic" in2="back" mode="normal"/>
				</filter>
			</defs>
			<mask maskUnits="userSpaceOnUse" x="753.24" y="491.23" width="32.12" height="41.16" id="SVGID_13_">
				<g class="st25">
					<defs>
						<filter id="Adobe_OpacityMaskFilter_9_" filterUnits="userSpaceOnUse" x="753.24" y="491.23" width="32.12" height="41.16">
							<feFlood  style="flood-color:white;flood-opacity:1" result="back"/>
							<feBlend  in="SourceGraphic" in2="back" mode="normal"/>
						</filter>
					</defs>
					<mask maskUnits="userSpaceOnUse" x="753.24" y="491.23" width="32.12" height="41.16" id="SVGID_13_">
						<g class="st26">
						</g>
					</mask>
					
						<linearGradient id="SVGID_14_" gradientUnits="userSpaceOnUse" x1="152.0478" y1="511.8056" x2="184.1724" y2="511.8056" gradientTransform="matrix(1 0 0 1 601.1936 0)">
						<stop  offset="0" style="stop-color:#B3B3B3"/>
						<stop  offset="1" style="stop-color:#999999"/>
					</linearGradient>
					<path class="st27" d="M769.3,516.39c-5.03,0-9.11-4.08-9.11-9.11c0-5.03,4.08-9.11,9.11-9.11s9.11,4.08,9.11,9.11
						C778.41,512.32,774.33,516.39,769.3,516.39z M769.3,491.23c-8.87,0-16.06,7.19-16.06,16.06c0,4.04,1.49,7.72,3.95,10.55l0,0.01
						l12.11,14.55l12.11-14.55l0-0.01c2.46-2.82,3.95-6.51,3.95-10.55C785.37,498.42,778.17,491.23,769.3,491.23z"/>
				</g>
			</mask>
			
				<linearGradient id="SVGID_15_" gradientUnits="userSpaceOnUse" x1="152.0478" y1="511.8056" x2="184.1724" y2="511.8056" gradientTransform="matrix(1 0 0 1 601.1936 0)">
				<stop  offset="0" style="stop-color:#3ECBFA"/>
				<stop  offset="1" style="stop-color:#3ECBFA"/>
			</linearGradient>
			<path class="st28" d="M769.3,516.39c-5.03,0-9.11-4.08-9.11-9.11c0-5.03,4.08-9.11,9.11-9.11s9.11,4.08,9.11,9.11
				C778.41,512.32,774.33,516.39,769.3,516.39z M769.3,491.23c-8.87,0-16.06,7.19-16.06,16.06c0,4.04,1.49,7.72,3.95,10.55l0,0.01
				l12.11,14.55l12.11-14.55l0-0.01c2.46-2.82,3.95-6.51,3.95-10.55C785.37,498.42,778.17,491.23,769.3,491.23z"/>
			<defs>
				<filter id="Adobe_OpacityMaskFilter_10_" filterUnits="userSpaceOnUse" x="753.24" y="576.74" width="32.12" height="41.16">
					<feFlood  style="flood-color:white;flood-opacity:1" result="back"/>
					<feBlend  in="SourceGraphic" in2="back" mode="normal"/>
				</filter>
			</defs>
			<mask maskUnits="userSpaceOnUse" x="753.24" y="576.74" width="32.12" height="41.16" id="SVGID_16_">
				<g class="st29">
					<defs>
						<filter id="Adobe_OpacityMaskFilter_11_" filterUnits="userSpaceOnUse" x="753.24" y="576.74" width="32.12" height="41.16">
							<feFlood  style="flood-color:white;flood-opacity:1" result="back"/>
							<feBlend  in="SourceGraphic" in2="back" mode="normal"/>
						</filter>
					</defs>
					<mask maskUnits="userSpaceOnUse" x="753.24" y="576.74" width="32.12" height="41.16" id="SVGID_16_">
						<g class="st30">
						</g>
					</mask>
					
						<linearGradient id="SVGID_17_" gradientUnits="userSpaceOnUse" x1="152.0478" y1="597.3226" x2="184.1724" y2="597.3226" gradientTransform="matrix(1 0 0 1 601.1936 0)">
						<stop  offset="0" style="stop-color:#B3B3B3"/>
						<stop  offset="1" style="stop-color:#999999"/>
					</linearGradient>
					<path class="st31" d="M769.3,601.91c-5.03,0-9.11-4.08-9.11-9.11c0-5.03,4.08-9.11,9.11-9.11s9.11,4.08,9.11,9.11
						C778.41,597.83,774.33,601.91,769.3,601.91z M769.3,576.74c-8.87,0-16.06,7.19-16.06,16.06c0,4.04,1.49,7.72,3.95,10.55l0,0.01
						l12.11,14.55l12.11-14.55l0-0.01c2.46-2.82,3.95-6.51,3.95-10.55C785.37,583.93,778.17,576.74,769.3,576.74z"/>
				</g>
			</mask>
			
				<linearGradient id="SVGID_18_" gradientUnits="userSpaceOnUse" x1="152.0478" y1="597.3226" x2="184.1724" y2="597.3226" gradientTransform="matrix(1 0 0 1 601.1936 0)">
				<stop  offset="0" style="stop-color:#3ECBFA"/>
				<stop  offset="1" style="stop-color:#3ECBFA"/>
			</linearGradient>
			<path class="st32" d="M769.3,601.91c-5.03,0-9.11-4.08-9.11-9.11c0-5.03,4.08-9.11,9.11-9.11s9.11,4.08,9.11,9.11
				C778.41,597.83,774.33,601.91,769.3,601.91z M769.3,576.74c-8.87,0-16.06,7.19-16.06,16.06c0,4.04,1.49,7.72,3.95,10.55l0,0.01
				l12.11,14.55l12.11-14.55l0-0.01c2.46-2.82,3.95-6.51,3.95-10.55C785.37,583.93,778.17,576.74,769.3,576.74z"/>
			<defs>
				<filter id="Adobe_OpacityMaskFilter_12_" filterUnits="userSpaceOnUse" x="753.24" y="662.26" width="32.12" height="41.16">
					<feFlood  style="flood-color:white;flood-opacity:1" result="back"/>
					<feBlend  in="SourceGraphic" in2="back" mode="normal"/>
				</filter>
			</defs>
			<mask maskUnits="userSpaceOnUse" x="753.24" y="662.26" width="32.12" height="41.16" id="SVGID_19_">
				<g class="st33">
					<defs>
						<filter id="Adobe_OpacityMaskFilter_13_" filterUnits="userSpaceOnUse" x="753.24" y="662.26" width="32.12" height="41.16">
							<feFlood  style="flood-color:white;flood-opacity:1" result="back"/>
							<feBlend  in="SourceGraphic" in2="back" mode="normal"/>
						</filter>
					</defs>
					<mask maskUnits="userSpaceOnUse" x="753.24" y="662.26" width="32.12" height="41.16" id="SVGID_19_">
						<g class="st34">
						</g>
					</mask>
					
						<linearGradient id="SVGID_20_" gradientUnits="userSpaceOnUse" x1="152.0478" y1="682.8397" x2="184.1724" y2="682.8397" gradientTransform="matrix(1 0 0 1 601.1936 0)">
						<stop  offset="0" style="stop-color:#B3B3B3"/>
						<stop  offset="1" style="stop-color:#999999"/>
					</linearGradient>
					<path class="st35" d="M769.3,687.43c-5.03,0-9.11-4.08-9.11-9.11c0-5.03,4.08-9.11,9.11-9.11s9.11,4.08,9.11,9.11
						C778.41,683.35,774.33,687.43,769.3,687.43z M769.3,662.26c-8.87,0-16.06,7.19-16.06,16.06c0,4.04,1.49,7.72,3.95,10.55l0,0.01
						l12.11,14.55l12.11-14.55l0-0.01c2.46-2.82,3.95-6.51,3.95-10.55C785.37,669.45,778.17,662.26,769.3,662.26z"/>
				</g>
			</mask>
			
				<linearGradient id="SVGID_21_" gradientUnits="userSpaceOnUse" x1="152.0478" y1="682.8397" x2="184.1724" y2="682.8397" gradientTransform="matrix(1 0 0 1 601.1936 0)">
				<stop  offset="0" style="stop-color:#3ECBFA"/>
				<stop  offset="1" style="stop-color:#3ECBFA"/>
			</linearGradient>
			<path class="st36" d="M769.3,687.43c-5.03,0-9.11-4.08-9.11-9.11c0-5.03,4.08-9.11,9.11-9.11s9.11,4.08,9.11,9.11
				C778.41,683.35,774.33,687.43,769.3,687.43z M769.3,662.26c-8.87,0-16.06,7.19-16.06,16.06c0,4.04,1.49,7.72,3.95,10.55l0,0.01
				l12.11,14.55l12.11-14.55l0-0.01c2.46-2.82,3.95-6.51,3.95-10.55C785.37,669.45,778.17,662.26,769.3,662.26z"/>
			<defs>
				<filter id="Adobe_OpacityMaskFilter_14_" filterUnits="userSpaceOnUse" x="753.24" y="747.78" width="32.12" height="41.16">
					<feFlood  style="flood-color:white;flood-opacity:1" result="back"/>
					<feBlend  in="SourceGraphic" in2="back" mode="normal"/>
				</filter>
			</defs>
			<mask maskUnits="userSpaceOnUse" x="753.24" y="747.78" width="32.12" height="41.16" id="SVGID_22_">
				<g class="st37">
					<defs>
						<filter id="Adobe_OpacityMaskFilter_15_" filterUnits="userSpaceOnUse" x="753.24" y="747.78" width="32.12" height="41.16">
							<feFlood  style="flood-color:white;flood-opacity:1" result="back"/>
							<feBlend  in="SourceGraphic" in2="back" mode="normal"/>
						</filter>
					</defs>
					<mask maskUnits="userSpaceOnUse" x="753.24" y="747.78" width="32.12" height="41.16" id="SVGID_22_">
						<g class="st38">
						</g>
					</mask>
					
						<linearGradient id="SVGID_23_" gradientUnits="userSpaceOnUse" x1="152.0478" y1="768.3568" x2="184.1724" y2="768.3568" gradientTransform="matrix(1 0 0 1 601.1936 0)">
						<stop  offset="0" style="stop-color:#B3B3B3"/>
						<stop  offset="1" style="stop-color:#999999"/>
					</linearGradient>
					<path class="st39" d="M769.3,772.95c-5.03,0-9.11-4.08-9.11-9.11c0-5.03,4.08-9.11,9.11-9.11s9.11,4.08,9.11,9.11
						C778.41,768.87,774.33,772.95,769.3,772.95z M769.3,747.78c-8.87,0-16.06,7.19-16.06,16.06c0,4.04,1.49,7.72,3.95,10.55l0,0.01
						l12.11,14.55l12.11-14.55l0-0.01c2.46-2.82,3.95-6.51,3.95-10.55C785.37,754.97,778.17,747.78,769.3,747.78z"/>
				</g>
			</mask>
			
				<linearGradient id="SVGID_24_" gradientUnits="userSpaceOnUse" x1="152.0478" y1="768.3568" x2="184.1724" y2="768.3568" gradientTransform="matrix(1 0 0 1 601.1936 0)">
				<stop  offset="0" style="stop-color:#3ECBFA"/>
				<stop  offset="1" style="stop-color:#3ECBFA"/>
			</linearGradient>
			<path class="st40" d="M769.3,772.95c-5.03,0-9.11-4.08-9.11-9.11c0-5.03,4.08-9.11,9.11-9.11s9.11,4.08,9.11,9.11
				C778.41,768.87,774.33,772.95,769.3,772.95z M769.3,747.78c-8.87,0-16.06,7.19-16.06,16.06c0,4.04,1.49,7.72,3.95,10.55l0,0.01
				l12.11,14.55l12.11-14.55l0-0.01c2.46-2.82,3.95-6.51,3.95-10.55C785.37,754.97,778.17,747.78,769.3,747.78z"/>
		</g>
		<g>
			<rect x="976.49" y="258.71" class="st41" width="29.62" height="4.78"/>
			<rect x="976.49" y="267.33" class="st41" width="29.62" height="4.78"/>
			<rect x="976.49" y="275.96" class="st41" width="29.62" height="4.78"/>
		</g>
	</g>
	<g>
		
			<linearGradient id="SVGID_25_" gradientUnits="userSpaceOnUse" x1="1985.6868" y1="963.2493" x2="2450.5298" y2="694.872" gradientTransform="matrix(-1 0 0 1 2942.8154 0)">
			<stop  offset="0" style="stop-color:#B9E3FF"/>
			<stop  offset="0.3539" style="stop-color:#D4EDFF"/>
			<stop  offset="0.7539" style="stop-color:#ECF7FF"/>
			<stop  offset="1" style="stop-color:#F5FAFF"/>
		</linearGradient>
		<path class="st42" d="M353.03,843.54h457.9c5.24,0,9.49-4.25,9.49-9.49V659.26c0-5.24-4.25-9.49-9.49-9.49h-457.9
			c-5.24,0-9.49,4.25-9.49,9.49v174.79C343.55,839.29,347.79,843.54,353.03,843.54z"/>
		<path class="st43" d="M820.42,692.94v-33.92c0-5.11-4.14-9.25-9.25-9.25H352.79c-5.11,0-9.25,4.14-9.25,9.25v33.92H820.42z"/>
		<g>
			<path class="st44" d="M688.01,843.54h-3.06v-11.4h3.06V843.54z M688.01,820.75h-3.06v-11.4h3.06V820.75z M688.01,797.95h-3.06
				v-11.4h3.06V797.95z M688.01,775.15h-3.06v-11.4h3.06V775.15z M688.01,752.36h-3.06v-11.4h3.06V752.36z M688.01,729.56h-3.06
				v-11.4h3.06V729.56z M688.01,706.77h-3.06v-11.4h3.06V706.77z M688.01,683.97h-3.06v-11.4h3.06V683.97z M688.14,661.19
				l-3.06-0.03c0.01-1.4,0.01-2.92,0.01-4.51c0-2.2-0.01-4.54-0.03-6.86l3.06-0.03c0.02,2.34,0.03,4.68,0.03,6.89
				C688.15,658.25,688.15,659.78,688.14,661.19z"/>
		</g>
		<path class="st14" d="M510.22,677.21H371.87c-1.08,0-1.95-0.88-1.95-1.95v-7.8c0-1.08,0.88-1.95,1.95-1.95h138.35
			c1.08,0,1.95,0.88,1.95,1.95v7.8C512.18,676.34,511.3,677.21,510.22,677.21z"/>
		<g>
			<rect x="517.85" y="723.29" class="st45" width="140.22" height="9.18"/>
			<rect x="517.85" y="742.06" class="st45" width="117.87" height="9.18"/>
			<rect x="517.85" y="769.4" class="st45" width="140.22" height="9.18"/>
			<rect x="517.85" y="788.17" class="st45" width="104.53" height="9.18"/>
		</g>
		<g>
			<rect x="711.1" y="723.29" class="st45" width="85.92" height="9.18"/>
			<rect x="711.1" y="742.06" class="st45" width="48.36" height="9.18"/>
			<rect x="711.1" y="769.4" class="st45" width="85.92" height="9.18"/>
			<rect x="711.1" y="788.17" class="st45" width="72.66" height="9.18"/>
		</g>
		
			<ellipse transform="matrix(0.7071 -0.7071 0.7071 0.7071 -416.7084 528.7717)" class="st44" cx="429.93" cy="767.4" rx="60.02" ry="60.02"/>
		<path class="st14" d="M446.17,802.84c-0.19,0-0.38-0.03-0.56-0.1c-4.01-1.51-11.24-4.75-12.93-5.52c-0.24,0-0.62-0.01-1.16-0.01
			v4.03c0,0.88-0.72,1.6-1.6,1.6c-0.88,0-1.6-0.72-1.6-1.6v-4.03c-0.53,0-0.91,0.01-1.15,0.01c-2.18,0.99-9.03,4.05-12.93,5.52
			c-0.18,0.07-0.37,0.1-0.56,0.1c-0.33,0-0.64-0.1-0.91-0.28c-0.43-0.3-0.69-0.79-0.69-1.31v-4.85c0-0.43,0.18-0.84,0.48-1.14
			l11-10.82c-0.2-2.39-0.82-9.77-1.11-13.57c-5.81,1.87-13.58,4.51-19.87,6.65c-4.54,1.54-9,3.05-12.87,4.34
			c-0.17,0.05-0.34,0.08-0.5,0.08c-0.34,0-0.67-0.1-0.94-0.3c-0.41-0.3-0.66-0.78-0.66-1.29v-5.54c0-0.55,0.27-1.05,0.73-1.34
			l33.96-21.95v-12.91c0-5.89,3.16-12.07,6.91-13.5l0.4,0.44l-0.2-0.54l0.09-0.03l0.15-0.01c0.04-0.02,0.16-0.03,0.28-0.03
			c0.12,0,0.24,0.01,0.36,0.04l0.29,0.1c0.03,0.01,0.09,0.04,0.15,0.08c3.66,1.39,6.82,7.57,6.82,13.46v12.91l33.96,21.95
			c0.46,0.29,0.73,0.8,0.73,1.34v5.54c0,0.51-0.25,1-0.66,1.3c-0.27,0.2-0.59,0.3-0.94,0.3c0,0,0,0,0,0c-0.17,0-0.33-0.03-0.49-0.08
			c-3.88-1.29-8.33-2.8-12.87-4.34c-6.67-2.26-14.19-4.82-19.88-6.65c-0.3,3.8-0.91,11.18-1.11,13.57l11,10.82
			c0.3,0.3,0.48,0.71,0.48,1.14v4.85c0,0.52-0.26,1.01-0.69,1.31C446.81,802.74,446.5,802.84,446.17,802.84z M415.29,798.89
			c4.55-1.85,10.81-4.69,10.87-4.72c0.2-0.09,0.41-0.14,0.62-0.14c0,0,0.49-0.01,1.56-0.02v-10.59c0-0.88,0.72-1.6,1.6-1.6
			c0.88,0,1.6,0.72,1.6,1.6v10.59c1.07,0.01,1.56,0.02,1.56,0.02c0.22,0.01,0.42,0.05,0.62,0.14c0.07,0.03,6.32,2.87,10.87,4.72
			v-1.83l-11.06-10.88c-0.34-0.34-0.51-0.8-0.47-1.27c0.01-0.14,1.19-14.2,1.32-16.28c0.03-0.5,0.28-0.94,0.69-1.22
			c0.27-0.18,0.58-0.28,0.9-0.28c0.17,0,0.33,0.02,0.48,0.08c5.73,1.81,13.7,4.52,21.42,7.13l1.35,0.46
			c3.42,1.16,6.77,2.3,9.84,3.33v-2.45l-33.96-21.95c-0.46-0.29-0.73-0.8-0.73-1.34v-13.79c0-4.44-2.33-9.03-4.43-10.3
			c-2.1,1.26-4.43,5.86-4.43,10.3v13.79c0,0.55-0.27,1.05-0.73,1.34l-33.96,21.95v2.45c3.15-1.06,6.6-2.23,10.12-3.42l0.63-0.22
			c7.95-2.7,16.05-5.45,21.86-7.29c0.15-0.05,0.32-0.07,0.48-0.07c0.32,0,0.63,0.1,0.9,0.28c0.41,0.28,0.66,0.72,0.69,1.22
			c0.13,2.09,1.31,16.15,1.32,16.29c0.04,0.47-0.13,0.94-0.47,1.27l-11.06,10.88V798.89z"/>
	</g>
	<g>
		<path class="st13" d="M571.88,835.87c-3.52-2.18-7.07-2.22-9.92-5.46c-2.28-2.59-3.67-5.74-4.63-9.01
			c-1.67-5.67-1.42-13.56-4.85-18.56c-1.85-2.7-5.88-4.22-8.61-6.16c-1.98-1.4-6.8-5.85-9.42-3.7c-0.82,0.67-1.02,2.65-1.43,3.67
			c-0.9,2.21-1.94,4.19-3.47,6.02c-2.38,2.85-12.37,9.26-13.28,15.17c-0.5,3.27,3.43,6.08,5.56,7.71c6.1,4.65,9.22,5.2,15.71,9.19
			c2.9,1.78,8.15,6.7,11.46,7.69c4.18,1.25,9.83,1.55,14.14,1.55c5.22,0,9.23,0.16,10.92-1.24
			C576.5,840.72,574.52,837.51,571.88,835.87z"/>
		<path class="st13" d="M719.59,834.47c-0.3-6.79-8.47-6.8-13.53-8.11c-7.39-1.92-14.5-4.55-20.77-9.07
			c-5.14-3.71-10.8-9.83-17.38-10.59c-3.25-0.38-7.87,1.06-10.02,3.4c-2.2,2.4-1.08,6.04-0.86,9.18c0.26,3.62-1.63,16.91-0.12,20.9
			c0.78,2.05,2.68,3.36,5.75,3.36c4.15,0,15.88,0,20.03,0C696.78,843.54,719.84,839.93,719.59,834.47z"/>
		<path class="st46" d="M677.77,810.08c0.71-4.99-4.81-12.4-6.44-17.61c-2.57-8.21-8.77-36.07-9.61-43.19
			c-0.97-8.23-1.16-16.93-0.3-24.36c2.37-20.5,0.82-53.49-4.15-68c-2.05-5.99-5.57-14.06-8.76-18.88
			c-2.83-4.28-12.24-1.27-16.17,0.41c-5.8,2.47-8.73,7.64-9.88,13.72c-1.26,6.64-1.17,13.48-3.28,19.9
			c-2.12,6.43-7.86,11.44-4.93,18.36c5.69,13.45,16.91,26.29,18.33,40.94c0.71,7.33,0.13,19.87,1.69,27.51
			c2.84,14,12.85,31.91,15.15,40.46c1.17,4.34,2.28,15.14,7.37,17.59C662.21,819.55,677.3,813.39,677.77,810.08z"/>
		<path class="st46" d="M641.1,635.71c0.07-3.78-10.63-8.83-13.39-10.5c-6.95-4.21-14.89-8.89-22.42-11.94
			c-13.02-5.27-23.42,3.91-26.53,15.91c-2.29,8.85,2.92,21.81,3.85,23.96c2.08,4.84,4.22,7.09,2.87,12.36
			c-4.45,17.47,1.37,36.69-10.15,51.88c-5.08,6.7-9.98,13.01-13.96,20.3c-4.9,8.98-16.42,37.67-24.8,46.26
			c-2.23,2.29-4.27,5.59-5.13,9.06c-1.07,4.35,3.34,7.84,5.6,9.81c3.39,2.96,14.83,8.52,19.01,4.77c2.11-1.89,4.51-11.27,9.26-19.41
			c6.36-10.9,30.13-46.76,40.93-56.54c3.73-3.37,7.39-7.56,9.31-12.39c4.08-10.23,12.69-41.83,14.56-47.07
			c1.33-3.72,2.17-7.14,4.89-10.13c2.85-3.13,5.85-5.49,6.87-9.83C643.14,646.76,641,641.2,641.1,635.71z"/>
		<path class="st13" d="M634.15,636.79c-0.1,2.92-1.33,6.99-3.88,8.65c-2.71,1.76-6.16,1.09-9.13,0.56
			c-4.39-0.77-8.71-1.92-12.97-3.23c-1.19-0.36-1.67,1.49-0.48,1.85c6.04,1.84,14.18,5.04,20.58,3.59c5.26-1.19,7.63-6.35,7.8-11.43
			C636.11,635.55,634.19,635.56,634.15,636.79z"/>
		<path class="st47" d="M694.66,580.5c-0.96-3.15-9.92-3.04-12.3-3.29c-6.24-0.67-10.22-0.93-15.67,1.93
			c-5.44,2.85-10.64,2.99-16.42,4.66c-4.47,1.29-8.7,3.95-7.2,9.12c1.81,6.24,7.81,0.09,12.38,0.42c6.07,0.44,10.9,5.13,17.34,3.73
			c6.97-1.52,6.32-7.39,10.64-11.46C684.91,584.22,695.27,582.5,694.66,580.5z"/>
		<path class="st48" d="M666.73,473.62c-4.59-11.2-22.84-21.08-33.74-14.94c-15.54,8.75-5.33,23.5-15.58,35.59
			c-4.31,5.08-9.95,7.08-3.15,16.44c2.15,2.96,3.81,6.12,6.49,8.56c2.68,2.43,4.09,2.44,7.16,0.18c2.03-1.49,3.97-6.21,6.68-6.42
			c3.18-0.24,4.66,3.57,8.11,2.36c3.11-1.09,5.41-4.72,8.22-6.03c2.4-1.12,5.1,1.02,5.93-2.41c0.69-2.87,0.98-6.62,3.17-8.7
			c1.83-1.75,3.16-2.26,4.91-4.73C669.61,486.94,670.16,481.97,666.73,473.62z"/>
		<path class="st46" d="M680.57,474.35c-5.3-9.66-8.54-15.01-19.43-19.77c-4.78-2.09-10.25-1.62-15.51-1.62
			c-3.25,0-4.55-2.59-12.7-0.94c-10.09,2.04-11.45,15.83-12.13,25.5c-0.21,2.99-1.85,13.15,4.48,11.83c2.41-0.5,7.91-3.58,9.48-8.6
			c0.85-2.72,4.79-3.9,7.21-1.34c1.8,1.89,1.12,4.38,3.71,5.05c3.89,1.01,7.22-4.94,10.56-6.07c7.44-2.51,7.88,10.21,11.61,11.99
			C669.43,491.12,687.17,486.37,680.57,474.35z"/>
		<path class="st14" d="M632.78,510.23c0.2-2.2-8.66-6.62-10.43-7.84c-4.09-2.83-8.01-5.6-13.04-6.28
			c-3.88-0.52-7.54-0.51-7.08,4.38c0.3,3.17,2.9,5.08,5.42,6.63c2.64,1.62,5.62,2.76,7.94,4.86c3.06,2.78,4.22,6.8,6.79,9.95
			c1.95,2.38,6.97,6.48,8.31,2.62c0.67-1.91,0.05-4.94,0.43-7.04C631.57,515.07,632.56,512.72,632.78,510.23z"/>
		<path class="st14" d="M647.44,628.01c-1.19-3.03-2.6-6.06-2.51-9.37c0.08-3.02,1.47-5.8,1.87-8.77
			c0.97-7.24-3.43-14.69-4.72-21.78c-2.63-14.42,0.38-29.02-2.66-43.49c-2.43-11.54-8.03-27.42-17.76-35.52
			c-10.2-8.49-23.88-6.88-31.37,3.8c-6.59,9.4-8.39,24.28-9.43,35.44c-1.47,15.66,2.14,30.16,4.36,45.56
			c0.96,6.65-0.8,12.65-2.99,18.98c-1.93,5.56-5.56,11.76-5.8,17.76c-0.44,10.81,11.01-3.19,17.05-4.81
			c12.56-3.38,23.23,6.82,32.94,11.24c4.85,2.21,14.24,5.5,19.55,3.53C652.02,638.32,648.97,631.9,647.44,628.01z"/>
		<path class="st13" d="M631.1,532.93c-0.65-8.74-5.88-18.53-13.02-23.55c-6.06-4.25-14.56-4.6-20.55-0.7
			c-3.04,1.98-8.06,6.83-8.8,9.58c-0.58,2.14,0.71,3.05,2.12,2.13c2.91-1.9,7.17-7.36,10.61-8.55c3.11-1.08,6.31-1.61,9.48-0.64
			c19.23,5.91,13.28,30.56,12.42,45.63c-0.14,2.41,0.15,5.1-0.77,7.38c-0.34,0.86-3.18,3.64-3.22,4.36
			c-0.34,5.15,4.96-1.11,5.57-2.57C628.79,556.8,631.88,543.39,631.1,532.93z"/>
		<g>
			<path class="st46" d="M612.33,612.01c1.32-8.78-6.61-22.29-9.3-31.94c-2.73-9.79-2.17-21.89-2.15-32.46
				c0.02-9.91,0.48-21.97-5.05-30.07c-3.7-5.42-12.09-3.12-15.7,0.59c-6.05,6.24-8.68,15.5-12.21,24.53
				c-1.71,4.39-4.16,8.71-6.05,13.11c-2.19,5.11-3.55,9.32-6.26,14.25c-2.39,4.36-4.22,8.17-4.75,16.41
				c-0.44,6.91-1.18,11.1-1.94,15.81c-0.71,4.48-1.51,12.9,2,15.66c1.86,1.46,3.21,2.5,5.35,3.51c8.57,4.05,20.88,6.12,30.26,4.42
				C595.29,624.25,611.09,620.3,612.33,612.01z"/>
			<path class="st15" d="M585.9,609.55c-0.32-8.49-2.75-16.92-3.42-26.5c-0.52-7.52-2.83-9.8-7.2-11.57
				c-4.51-1.83-10.01-1.99-15.56-1.18c-2.28,0.33-6.08,1.05-7.84,3.5c-1.45,2.03-1.41,10.72-1.8,14.7
				c-1.13,11.55-3.79,14.46-3.46,21.76c0.14,2.99,0.29,5.17,2.25,6.54c2.9,2.03,7.86,2.63,11.21,3.35
				C568.96,622.03,587.26,623.94,585.9,609.55z"/>
			<path class="st13" d="M594.79,563.13c-2.24-10.25-5.79-24.67-16.58-27.85c-0.07-0.02-0.14,0-0.21,0.01
				c-0.13-0.04-0.27-0.05-0.42,0c-1.65,0.58-1.95,2.43-2.22,4.67c-0.52,4.24-0.54,8.16-4.34,9.6c-1.95,0.74-3.67,0.63-5.6,2.24
				c-1.5,1.25-2.66,2.8-3.65,4.49c-0.71,1.21,1.06,1.72,1.75,0.52c3.13-5.39,7.54-3.36,10.81-6.72c1.01-1.04,1.62-2.56,2.01-4.09
				c0.51-1.99,0.33-7.56,1.97-8.34c10.31,4.15,12.68,16.58,14.66,26C593.23,564.87,595.06,564.35,594.79,563.13z"/>
			<path class="st49" d="M573.12,588.63c0.31,0,0.61-0.04,0.88-0.11c0.9-0.25,1.68-0.98,2.5-1.72c1.09-0.97,2.34-2.13,3.95-2
				c0.49,0.04,0.96-1.38,0.23-1.47c-1.58-0.19-2.54,0.44-3.94,1.49c-1.65,1.24-2.56,1.89-3.66,1.89c-0.52,0-1.1-0.11-1.81-0.25
				c-0.61-0.12-0.92-0.18-1.54-0.3c-1.63-0.31-3.28-1.06-4.92-1.62c-2.21-0.75-4.18-2.48-6.17-3.78c-2.79-1.83-5.64-2.88-8.95-3.09
				c-0.31-0.02-0.42,0.55-0.42,0.57c-0.03,0.19-0.04,0.69,0.26,0.72c3.7,0.3,6.79,2.22,9.75,4.17c2.38,1.57,4.84,3.24,7.41,3.86
				c0.6,0.14,1.3,0.38,2.05,0.63C570.17,588.11,571.8,588.65,573.12,588.63z"/>
		</g>
		<polygon class="st13" points="708.1,573.13 666.58,589.5 664.84,585.36 706.37,568.99 		"/>
		<path class="st48" d="M693.08,583.95c-0.99-1.87-8.13-4.34-10.25-4.86c-3.57-0.87-5.8-1.86-8.75-3.85
			c-4.65-3.13-5.59-3.52-12.41-0.56c-2.55,1.11-3.42,2.01-5.99,2.47c-2.62,0.47-5.66,0.18-8.33,0.27c-5.22,0.17-8.36-0.26-13.24-2.3
			c-4.25-1.78-9.17-4.54-13.94-4.23c-4.04,0.27-9.33,2.27-13.36,3.48c-3.52,1.06-7.1,2.45-7.48,6.49
			c-0.36,3.82,2.75,8.89,4.83,11.96c2.56,3.81,7.98,3.32,12.36,3.71c5.59,0.51,11.48,0.81,17.02-0.15c5.17-0.9,9.87-3.24,14.78-4.93
			c4.74-1.63,7.7-3.14,11.52-0.06c3.01,2.44,7.09,3.13,12.46,1.83c2.06-0.5,4.36-1.84,5.88-3.28c1.37-1.3,2.31-3.67,3.87-4.68
			c2.33-1.5,3.49,0.06,6.07,0.4C688.73,585.75,694.49,586.58,693.08,583.95z"/>
		<path class="st14" d="M621.85,548.92c0.74-9.37,3.88-17.48,0.52-26.83c-2.85-7.92-8.85-13.04-17.19-11.95
			c-6.61,0.86-11.33,3.99-13.68,10.63c-1.95,5.52-1.76,11.81-1.12,17.59c0.44,3.99,1.53,7.83,2.14,11.79
			c0.73,4.73,0.11,9.44,0.61,14.17c0.51,4.83,2.08,9.5,3.86,14.01c1.85,4.71,2.12,5.63,7.28,5.4c6.89-0.3,14.29-2.93,18.43-8.66
			c2.45-3.4,1.67-6.01,0.91-9.96C622.57,559.77,621.42,554.4,621.85,548.92z"/>
	</g>
	<g>
		<defs>
			<filter id="Adobe_OpacityMaskFilter_16_" filterUnits="userSpaceOnUse" x="833.21" y="489.42" width="90.28" height="90.28">
				<feFlood  style="flood-color:white;flood-opacity:1" result="back"/>
				<feBlend  in="SourceGraphic" in2="back" mode="normal"/>
			</filter>
		</defs>
		<mask maskUnits="userSpaceOnUse" x="833.21" y="489.42" width="90.28" height="90.28" id="SVGID_26_">
			<g class="st50">
				<defs>
					<filter id="Adobe_OpacityMaskFilter_17_" filterUnits="userSpaceOnUse" x="833.21" y="489.42" width="90.28" height="90.28">
						<feFlood  style="flood-color:white;flood-opacity:1" result="back"/>
						<feBlend  in="SourceGraphic" in2="back" mode="normal"/>
					</filter>
				</defs>
				<mask maskUnits="userSpaceOnUse" x="833.21" y="489.42" width="90.28" height="90.28" id="SVGID_26_">
					<g class="st51">
					</g>
				</mask>
				
					<linearGradient id="SVGID_27_" gradientUnits="userSpaceOnUse" x1="250.1151" y1="602.6215" x2="250.1151" y2="472.2524" gradientTransform="matrix(1 0 0 1 628.2336 0)">
					<stop  offset="0" style="stop-color:#B3B3B3"/>
					<stop  offset="1" style="stop-color:#999999"/>
				</linearGradient>
				<circle class="st52" cx="878.35" cy="534.56" r="45.14"/>
			</g>
		</mask>
		
			<linearGradient id="SVGID_28_" gradientUnits="userSpaceOnUse" x1="250.1151" y1="602.6215" x2="250.1151" y2="472.2524" gradientTransform="matrix(1 0 0 1 628.2336 0)">
			<stop  offset="0" style="stop-color:#3ECBFA"/>
			<stop  offset="1" style="stop-color:#3ECBFA"/>
		</linearGradient>
		<circle class="st53" cx="878.35" cy="534.56" r="45.14"/>
		<path class="st14" d="M899.5,554.48l-11.99-11.99c2.71-3.48,4.19-7.72,4.19-12.2c0-5.32-2.07-10.33-5.84-14.09
			c-7.77-7.77-20.42-7.77-28.19,0c-3.77,3.76-5.84,8.77-5.84,14.09c0,5.32,2.07,10.33,5.84,14.09c3.76,3.77,8.77,5.84,14.09,5.84
			c4.48,0,8.72-1.48,12.2-4.19l11.99,11.99L899.5,554.48z M861.21,540.84c-2.82-2.82-4.37-6.56-4.37-10.55
			c0-3.98,1.55-7.73,4.37-10.55c2.91-2.91,6.73-4.36,10.55-4.36c3.82,0,7.64,1.45,10.55,4.36c2.82,2.82,4.37,6.56,4.37,10.55
			c0,3.98-1.55,7.73-4.37,10.55c-2.82,2.82-6.56,4.37-10.55,4.37C867.77,545.21,864.03,543.66,861.21,540.84z"/>
	</g>
	<path class="st46" d="M1170.34,725.01l2.92-1.76c0.53-0.32,0.86-0.76,0.72-0.99l-5.75-9.57c-0.14-0.22-0.68-0.15-1.21,0.17
		l-2.92,1.76c-0.53,0.32-0.86,0.76-0.72,0.99l5.75,9.57C1169.27,725.41,1169.81,725.34,1170.34,725.01z"/>
	<g>
		<path class="st46" d="M970.3,694.65c3.37,1.11,7.21,1.57,10.66,1.74c5.3,0.27,11.4,0.68,16.62,1.73
			c9.61,1.94,19.07,6.44,28.15,10.04c8.1,3.21,15.97,6.52,24.74,7.23c8.41,0.68,16.87,0.32,25.14-1.34
			c7.19-1.44,14.27-3.4,20.32-7.72c3.87-2.77,7.25-4.68,6.97-9.86c-0.28-5.33-3.97-9.37-6.53-13.13
			c-10.3-15.14-12.43-28.17-17.1-41.81c-2.25-6.58-6.95-13.62-9.35-15.86c-3.19-2.98-6.83-6.31-8.95-9.84
			c-0.28-0.47-1.29-1.19-1.87-1.21c-3.41-0.09-6.51,0.96-9.84,1.56c-3.03,0.54-6.01,0.96-8.96,1.88
			c-6.94,2.16-13.26,5.83-19.33,9.76c-0.19,0.12-2.08,0.81-2.08,1.42c-0.04,4.96-0.69,8.75-4.3,12.39
			c-3.72,3.75-7.96,7.42-11.56,10.07c-7.82,5.74-29.26,23.18-32.09,26.16c-2.22,2.34-4.5,4.2-6.22,6.97
			C961.93,689.28,963.65,692.46,970.3,694.65z"/>
		<path class="st13" d="M1079.72,712.94c-0.35-0.64-1.01-1.79-1.35-2.85c-0.24-0.75-0.58-1.29-0.21-1.33c2.38-0.29,6.27-0.99,9-1.59
			c4.34-0.96,10.41-3.99,11.11-3.8c2.82,0.74-7.64,6.34-9.81,7.15c-1.85,0.69-6.45,2.14-8.14,2.58
			C1079.99,713.18,1079.79,713.06,1079.72,712.94z"/>
		<path class="st13" d="M1020.38,706.13c-1.72-0.75,5.03-4.63,6-5.86c1.07-1.36,1.38-1.4,4.09-0.1c6.21,2.99,14.75,6.14,21.41,7.88
			c0.9,0.23,0.92,0.35,1.26,1.18c0.28,0.69,2.16,4.31,3.76,6.28c0.06,0.08,0.19,0.41-0.79,0.38c-5.49-0.16-10.35-0.64-16.42-2.28
			C1037.56,713.04,1023.61,707.55,1020.38,706.13z"/>
		<path class="st13" d="M966.56,693.43c3.62,1.93,7.72,2.56,11.69,2.89c5.02,0.42,11.74,0.56,16.44,1.3
			c0.52,0.08,1.08-0.36,1.15-0.9c0.51-3.93,1.8-7.46,3.07-9.39c0.37-0.56,0.61-1.06-0.79-1.55c-8.43-2.92-19.31-3.92-27.16-2.45
			c-3.13,0.59-6.68,1.28-7.51,3.37C962.48,689.09,963.77,691.95,966.56,693.43z"/>
		<path class="st15" d="M965.65,570.06c3.9,6.99,8.55,17.75,15.13,25.5c4.76,5.61,9.91,11.06,14.99,8.55
			c3.34-1.65,12.31-8.68,15.23-12.81c1.87-2.65,1.63-3.14-1.21-4.72c-5.93-3.3-7.02-6.83-8-13.29c-0.46-3.03-2.51,0.46-3.61,3.38
			c-0.84,2.24-2.22,7.58-5.76,5.68c-0.36-0.19-26.27-31.95-28.27-34.15c-1.05-1.16-7.15,3-6.49,6.24
			C958.23,557.22,964.04,567.18,965.65,570.06z"/>
		<path class="st54" d="M1020.22,558.51c6.85-0.56,13.01-4.21,17.32-14.78c2.75-6.75,5.07-8.38,11.25-12.69
			c2.92-2.04,5.53-0.99,3.1-3.4c-1.96-1.94-5.43-5.19-5.61-10.95c-0.14-4.7-0.43-10.92-0.54-15.6c-0.08-3.56,1.12-8.24-3.46-6.86
			c-3.25,0.98-3.68,6.47-4.53,9.2c-1.46,4.7-4.56,5.75-7.56,8.46c-2.94,2.67-0.73,3.58-0.26,7.71c0.37,3.25,0.5,6.91-1.06,9.82
			c-3.74,6.98-11.73,9.92-15.11,17.66C1010.68,554.17,1009.41,559.4,1020.22,558.51z"/>
		<path class="st48" d="M1011.1,498.32c-0.37,5.48-0.59,5.17,2.43,6.68c0.76,0.38,2.69,2.71,3.17,3.53
			c1.97,3.39,3.73,7.72,7.97,7.45c4.41-0.28,8.96-3.73,11.01-6.98c1.6-2.54,2.44-5.54,3.14-8.4c1.03-4.22,2-2.94,4.95-5.43
			c3.97-3.36,3.96-15.66-3.85-11.78c-2.89,1.43-2.73,4.51-4.74,6.57c-1.58,1.62-5.52,1.06-7.5-0.42c-5.2-3.89-5.61-9.74-12.15-12.31
			c-2.37-0.93-5.27-1.42-6.34,0.52c-1.1,2-2.69,8.04-1.09,11.56C1009.58,492.58,1011.35,494.6,1011.1,498.32z"/>
		<path class="st54" d="M948.43,836.52c5.97-2.44,9.12-8.71,13.73-12.94c4.47-4.11,11.15-2.29,13.71-5.46
			c1.81-2.24,0.13-8.16-0.23-10.58c-0.49-3.3-0.98-7.64,0.2-11.47c3.87-12.49,14.91-26.12,23.33-39.03
			c4.51-6.91,5.99-16.94,6.65-25.07c0.53-6.57,0.27-11.44,4.65-16.71c3.89-4.69,8.89-8.27,13.4-12.32c3.39-3.05,5.73-3.17,0.61-5.99
			c-5.15-2.84-17.11-8.54-24.73-10.6c-2.51-0.68-4.43,10.47-5.02,14.46c-0.84,5.65-3.77,9.7-6.77,14.43
			c-4,6.32-5.46,12.64-6.86,19.89c-1.38,7.18-4.06,13.63-6.89,20.34c-3.23,7.69-6.16,16-8.1,24.12c-1.73,7.24-3.12,14.36-5.24,21.5
			c-2.13,7.19-5.42,11.84-9.3,18.13c-1.92,3.11-3.89,7.65-6.14,10.55c-1.97,2.53-4.78,4.36-6.24,7.28
			C937.97,839.45,947.51,836.9,948.43,836.52z"/>
		<path class="st15" d="M926.8,841.56c1.93-1.65,14.92-6.24,19.2-7.03c9.55-1.76,22.77-20.09,25.29-22.19
			c3.45-2.87,5.88,0.24,6.32,2.97c0.73,4.47-1.95,7.7-2.8,11.72c-0.86,4.04-2.1,13.4-1.26,17.36h-2.72
			c0.08-2.34-0.64-8.7-1.35-10.21c-3.07-6.53-7.09-2.17-11.1,1.79c-4.25,4.19-6.69,8.37-14.5,8.37
			C941.72,844.35,922.55,845.19,926.8,841.56z"/>
		<path class="st47" d="M1004.51,713.89c-1.94,7.42-1.88,16.57-1.19,22.03c0.2,1.59,0.69,4.22,1.52,4.36
			c0.45-2.85,0.76-5.69,0.97-8.32c0.53-6.56,0.27-11.44,4.66-16.71c3.9-4.69,8.9-8.27,13.39-12.33c3.39-3.04,5.73-3.16,0.61-5.98
			c-5.15-2.84-17.12-8.54-24.72-10.61c-2.52-0.68-4.44,10.47-5.03,14.46c-0.15,0.95-0.34,1.84-0.6,2.7
			c0.06,0.02,0.12,0.05,0.17,0.09C999,706.44,1007.08,704.03,1004.51,713.89z"/>
		<path class="st55" d="M1054.66,712.84c3.13,4.99,10.3,12.94,14.06,17.43c8.65,10.36,12.6,19.82,19.24,31.82
			c5.59,10.1,10.42,20.78,12.45,32.19c1.96,11.01,4.99,24.52,2.18,35.65c-0.64,2.54-3.11,8.18,0.1,7.41
			c3.95-0.94,7.87-7.35,9.57-10.71c2.76-5.45,4.59-8.96,7.56-14.59c1.99-3.78,3.6-7.97-1.15-13.73c-2.33-2.83-5.35-6.5-7.1-12.2
			c-1.47-4.79-2.97-12.39-3.83-17.32c-2.1-12.01-4.1-24.81-9.8-35.75c-4.32-8.28-13.61-12.15-18.11-20.21
			c-0.83-1.5-1.46-4.12-1.89-4.06c-4.36,0.56-16.06,1.84-25.33-0.51C1052.08,708.13,1054.19,712.09,1054.66,712.84z"/>
		<path class="st56" d="M1054.66,712.84c3.13,4.99,10.3,12.94,14.06,17.44c6.73,8.05,10.62,15.57,15.13,24.16
			c0.32-1.59-0.48-5.64-1.23-7.23c-1.92-4.02-3.29-8.54-4.89-12.69c-1.33-3.47-3.86-7.51-3.87-11.33c-0.01-2.33,1.38-4.28,3.5-4.52
			c1.87-0.22,3.79,0.27,5.67,0.15c0.32-0.01,0.77-0.21,1.03-0.48c-1.62-1.65-3.08-3.44-4.23-5.49c-0.84-1.5-1.46-4.13-1.88-4.07
			c-4.36,0.55-16.06,1.84-25.34-0.52C1052.08,708.12,1054.19,712.09,1054.66,712.84z"/>
		<path class="st54" d="M941.11,534.61c1.5,3.56,2.33,7.31,4.63,9.08c2.32,1.78,5.17,2.76,7.46,4.59c1.67,1.33,3.16,3.67,4.44,5.25
			c1.19,1.45,3.93,0.74,5.21-0.7c1.81-2.03,1.93-3.44,0.58-6.05c-1.36-2.65-3.03-4.56-3.76-7.74c-0.63-2.73-0.51-5.34-1.2-8
			c-0.94-3.64-4.1-5.75-5.63-8.09c-2.22-3.38-4.17-5.3-5.48-4.76c-1.19,0.49,5.68,9,6.28,10.71c1,2.82,0.76,2.47-1.95,3.79
			c-2,0.98-6.26,2.98-7.33,1.19c-1.06-1.79-4.03-9.64-4.61-5.96C939.58,529.12,940,531.98,941.11,534.61z"/>
		<polygon class="st46" points="944.98,536.34 956.05,531.54 941.45,506.81 930.37,510.84 		"/>
		<path class="st15" d="M1086.52,842.68c0.82-2.41,4.98-4.05,7.2-4.57c4.07-0.94,7.44-1.93,10.64-4.88
			c5.39-4.97,9.8-13.09,11.54-20.05c0.69-2.77,0.58-8.16,2.51-10.41c2.35-2.73,5.53,0.38,7.48,2.54c3.03,3.37,2.12,6.99,2.77,11.04
			c0.66,4.07,3.47,10.96,5.68,14.35l-1.8,1.4c-1.94-2.03-4.59-5.57-5.79-6.72c-5.22-4.98-7.87,0.11-10.18,5.25
			c-2.45,5.45-4.13,11.19-10.5,13.05C1104.01,844.29,1085.57,845.45,1086.52,842.68z"/>
		<path class="st54" d="M1096.67,666.9c2.27-2,2.77-4.38,6.18-2.24c0.9,0.56,1.59,1.07,2.72,1.21c3.1,0.39,5.65-1.99,7.77-3.97
			c2.6-2.43,2.81-5.19,2.31-7.87c-0.44-2.33-1.72-6.09-3.5-8.1c-0.01-0.05-0.01-0.09-0.03-0.14c-0.93-2.14-4.44-2.03-6.34-1.77
			c-2.8,0.39-5.01,1.8-5.61,4.53c-1.54,7-3.66,8.2-5.06,14.57C1093.91,668.59,1095.7,667.75,1096.67,666.9z"/>
		<path class="st46" d="M1106.49,525.58c-0.72-6.31-5.28-12.01-10.57-15.26c-4.5-2.77-7.71-3.96-9.66-9.09
			c-2.63-6.93-0.63-14.78-9.61-19.16c-4.94-2.41-9.49-1.16-14.29-4.07c-5.75-3.49-7.33-7.39-12.2-12.22
			c-4.67-4.62-13.1-8.15-19.16-8.26c-10.52-0.2-23.57,3.99-26.78,17.77c-0.87,3.72-1.76,10.94,2.89,11.5
			c1.36,0.16,0.74-5.85,3.35-7.4c1.97-1.16,5.29-0.5,7.39,1.66c2.65,2.73,5.62,11.87,14.95,11.98c0.76,0.01,1.41-0.42,1.79-1.25
			c0.36-0.8,0.99-2.17,2.06-3.16c1.05-0.98,3.02-0.82,3.91-0.31c1.05,0.6,1.53,1.63,1.81,2.75c0.54,2.12,0.25,4.39-0.37,6.46
			c-1.25,4.4-8.22,27.01,6.52,31.53c13.38,4.1,20.36,6.05,21.52,22.28c0.23,3.23,0.53,13.56,5.39,13.59
			c7.55,0.05,8.78-8.44,10.12-11.72c2.27-5.56,7.76-7.94,13.68-11.36C1104.59,538.75,1107.21,531.94,1106.49,525.58z"/>
		<path class="st44" d="M1005.91,584.83c4.91,2.7,7.98,5.75,8.91,11.81c1.21,7.89-0.41,14.45,0.67,22.42
			c0.79,5.81,1.47,11.82,5.39,9.26c6.01-3.92,14.79-8.98,21.96-10.57c11.69-2.58,17.06-1.01,17.58-4.22
			c0.35-2.19-1.95-4.76-4.1-8.24c-1.47-2.39-3.95-9.88-4.05-14.18c-0.16-7.74-0.05-14.44,1.79-14.95c2.67-0.74,4.25,4.35,6.43,6.81
			c6.61,7.47,9.1,6.92,13.35,13.14c4.2,6.15,3.93,9.01,6.64,15.77c2.69,6.7,12.38,18.76,17.88,28.23c1.48,2.56,1.3,6,2.68,6.42
			c1.07,0.32,2.42-1.86,6.23-1.04c1.3,0.28,3.42,1.14,4.21,0.66c3.62-2.2-4.34-12.07-5.18-14.95c-2.14-7.28-4.27-15.53-7.37-22.47
			c-5.58-12.49-11.52-22.97-18.89-34.37c-4.57-7.05-7.34-14.45-8.32-22.73c-0.77-6.52-2.44-14.09-8.08-17.87
			c-2.67-1.79-6.16-2.78-11.33-4.13c-1.32-0.35-3.1,0.29-4.83,1.83c-2.69,2.38-7.06,6.44-8.86,9.29
			c-3.58,5.69-5.82,12.71-12.34,15.74c-2.81,1.3-9.97,3.14-12.74,0.72c-3.55-3.1,0.39-10.03,2.34-13.21
			c1.07-1.74,9.29-8.53,3.36-6.88c-4.32,1.2-7.7,10.36-9.25,14.01c-3.48,8.19-7.73,11.91-10.29,18.23
			C996.91,576.21,999.25,581.16,1005.91,584.83z"/>
		<path class="st15" d="M1000.18,579.98c1.23,1.83,3.15,3.44,5.73,4.85c3.31,1.82,5.79,3.8,7.31,6.75h0.01
			c1.88,0.47,3.75,0.42,6.11,0.09c3.85-0.52,7.02-3.53,11.17-3.88c3.77-0.32,7.18,0.49,10.09,2.94c2.63,2.19,13.9,18.38,15.16,13.64
			c0.01-0.01,0.04-0.02,0.05-0.04c-1.47-3.04-3.45-9.39-3.54-13.22c-0.16-7.74-0.05-14.43,1.79-14.94c0.84-0.23,1.56,0.11,2.24,0.76
			c-0.07-0.64-0.2-1.22-0.39-1.67c-0.87-2.08-3.75-8.04-4.02-8.53c-1.16-2.15-2.52-4.34-5.03-3.77c-2.88,0.66-7.13,7.12-10.06,10
			c-4.52,4.45-10.33,8.1-18.52,6.12c-3.38-0.81-7.46-0.84-10.13,0.01C1005.53,579.93,1003.34,582.15,1000.18,579.98z"/>
		<g>
			<path class="st14" d="M1020.68,548.9c7.94,0,19.77-8.5,23.56-13.12c0.91-1.11,2.04-2.61,2.65-4.34c0.67-1.88,0.62-3.78-0.14-5.34
				c-0.19-0.34-0.57-0.69-1.1-0.69c-0.13,0-0.26,0.02-0.39,0.07c-0.32,0.11-0.55,0.31-0.69,0.59c-0.21,0.44-0.06,0.89-0.03,0.97
				c0.52,1.07,0.53,2.34,0.07,3.65c-0.5,1.39-1.47,2.68-2.26,3.65c-3.94,4.82-15.03,12.24-21.67,12.24c-0.3,0-0.59-0.01-0.87-0.05
				c-0.83-0.09-1.06-0.46-1.18-0.8c-0.64-1.86,1.39-6.42,5.06-9.73c0.1-0.11,0.24-0.28,0.33-0.52c0.16-0.45,0.03-0.9-0.33-1.19
				c-0.22-0.18-0.49-0.27-0.78-0.27c-0.38,0-0.68,0.17-0.76,0.22c-3.72,3.35-6.93,8.93-5.8,12.24c0.46,1.36,1.6,2.21,3.19,2.38
				C1019.9,548.88,1020.29,548.9,1020.68,548.9z"/>
		</g>
	</g>
	<g>
		<path class="st46" d="M1209.31,833.78l33.61-20.2c4.49-2.7,5.95-8.53,3.25-13.03l-48.59-80.83c-2.7-4.49-8.53-5.95-13.03-3.24
			l-33.61,20.2L1209.31,833.78z"/>
		<path class="st46" d="M1209.28,833.74l-3.57,2.14l-105.18-174.96c-0.59-0.98-0.27-2.26,0.71-2.86l0,0
			c0.98-0.59,2.26-0.27,2.86,0.71L1209.28,833.74z"/>
		
			<rect x="1180.05" y="728.32" transform="matrix(0.8571 -0.5151 0.5151 0.8571 -235.6723 720.3351)" class="st9" width="1.04" height="113.29"/>
		<path class="st9" d="M1209.94,788.1l0.47-0.28c1.21-0.73,1.6-2.3,0.88-3.52l-15.73-26.16c-0.73-1.21-2.3-1.6-3.52-0.88l-0.47,0.28
			c-1.21,0.73-1.6,2.3-0.88,3.52l15.73,26.16C1207.15,788.44,1208.73,788.83,1209.94,788.1z"/>
		<path class="st46" d="M1206.95,785.9l2.92-1.76c0.53-0.32,0.71-1.01,0.39-1.55l-13.67-22.75c-0.32-0.53-1.01-0.71-1.55-0.39
			l-2.92,1.76c-0.53,0.32-0.71,1.01-0.39,1.55l13.67,22.75C1205.72,786.05,1206.41,786.23,1206.95,785.9z"/>
		<path class="st46" d="M1199.68,839.52c2.9,4.82,9.15,6.37,13.96,3.48c4.82-2.9,6.37-9.15,3.48-13.96
			c-2.9-4.82-9.15-6.37-13.96-3.48C1198.34,828.45,1196.79,834.7,1199.68,839.52z"/>
		<path class="st9" d="M1208.74,833.46c3.59,2.15-0.1,7.35,2.61,5.72c2.71-1.63,3.58-5.14,1.96-7.85c-1.63-2.71-5.14-3.58-7.85-1.96
			c-1.46,0.88-1.28,2.15-0.29,2.82C1206.01,832.76,1207.48,832.71,1208.74,833.46z"/>
		<path class="st13" d="M1123.18,688.62l-5.24,3.15l-18.17-30.23c-0.87-1.45-0.4-3.33,1.05-4.2l0,0c1.45-0.87,3.33-0.4,4.2,1.05
			L1123.18,688.62z"/>
	</g>
	<g>
		<path class="st46" d="M813.3,40.28c1.46-1.82-0.12-7.11-0.11-9.38c0.04-7.33,15.08-13.46,15.72-18.52
			c0.58-4.55-2.42-7.41-8.95-10.7c-5.54-2.79-15.13-2.26-18.78,2.5c-2.7,3.52-2.11,7.99-1.11,14.13c1.17,7.2-4.9,11-11.69,14.8
			c-6.67,3.73-12.54,8-15.42,14.18c-3.08,6.61-2.29,14.71,1.42,20.62c2.22,3.54,6.86,8.87,14.3,9.47c4.55,0.37,7.81,0.74,13.79-4.23
			c7.58-6.3,4.37-12.3,6.09-20.4C809.55,48.1,810.18,44.18,813.3,40.28z"/>
		<g>
			<path class="st46" d="M878.21,194.02c-7.32-7.76-20.39-6.25-29.93-7.37c-9.07-1.06-18.76-3.84-27.8-1.14
				c-7.28,2.18-18.31,11.1-16.55,20.05c1.99,10.09,17.79,13.22,25.2,15.26c5.87,1.61,11.68,3.79,16.69,7.35
				c3.29,2.33,5.4,2.52,4.2,6.69c-1.02,3.55-2.85,8.15-4.12,11.6c-5.07,13.69-1.9,32.52-4.66,46.47
				c-3.61,18.25-6.31,22.96,1.17,26.25c2.83,1.24,8.81,0.11,11.28-2.03c4.14-3.59,4.52-18.33,5.83-23.3
				c4.16-15.75,8.77-31.81,14.02-47.32C881.82,222.18,887.8,204.18,878.21,194.02z"/>
			<path class="st57" d="M859.26,342.39c-2.07-3.22-5.5-11.06-4.87-16.12c0.82-6.55-1.76-10.62-5.77-11.8
				c-2.48-0.73-7.31,0.95-9.73,1.85c-3.44,1.28-7,6.05-8.57,8.72c-3.27,5.55,0.45,5.46,1.98,10.54c1.24,4.13,2.36,8.44,5.47,10.88
				c3.66,2.87,14.45,5.75,19.05,5.18C860.8,351.15,862.09,346.79,859.26,342.39z"/>
			<path class="st58" d="M899.93,342.57c-3.19-4.06-10.37-8.13-13.96-11.75c-3.54-3.57-5.92-11.95-10.29-13.61
				c-4.38-1.66-8.68,2.7-13.02,2.48c-3.88-0.2-6.2-5-6.94,0.77c-0.93,7.29,4.67,13.26,8.27,17.87c3.71,4.76,6.87,9.88,12.31,11.68
				C880.56,351.42,911,356.65,899.93,342.57z"/>
			<path class="st46" d="M859.7,256.24c-2.83-10.69-7.66-46.6-11.8-54.97c-2.28-4.61-8.75-8.74-13.53-10.07
				c-7.17-2.01-15.59-3.01-22.83-4.88c-13.33-3.46-34.99-7.26-39.43-1.27c-8.6,11.57-11.75,32.37,2.92,41.07
				c11.72,6.95,48.89-5.72,50.61,10.57c3.08,29.26,23.82,45.72,27.24,58.27c1.98,7.29,0.69,19.64,2.98,22.99
				c2.08,3.05,5.76,3.91,9.97,3.11c4.95-0.94,8.14-3.29,8.86-8.34C875.14,309.38,864.25,273.44,859.7,256.24z"/>
			<path class="st14" d="M843.88,128.54c-0.15-12.72-2.1-26.62-5.08-37.52c-1.1-4.03-6.49-16-8.69-11.58
				c-2.48,4.97-0.48,9.85-3.33,16.42c-2.67,6.15-13.15,7.19-20.03-0.42c-2.64-2.91-9.51-12.5-11.56-18.25
				c-1.64-4.62-6.99,6.5-6.29,15.34c0.5,6.25-0.36,12.5-1.11,18.72c-1.43,11.84-1.16,23.55,0.69,35.34
				c0.8,5.05,2.02,10.52,1.12,15.63c-0.8,4.56-3.45,8.56-5.02,12.83c-5.15,14.04,12.68,10.98,27.16,10.98
				c21.09,0,22.1-18.08,22.55-23.84C835.21,150.32,844.02,140.67,843.88,128.54z"/>
			<path class="st59" d="M846.96,132.5c0,21.2-10.17,8.26-25.66,8.26c-15.49,0-39.55,11.97-39.55-8.26
				c0-11.54,24.06-0.65,39.55-0.65C836.78,131.86,846.96,119.74,846.96,132.5z"/>
			<path class="st57" d="M852.29,99.74c-2.76-11.23-7.31-16.57-16.61-22.16c-2.46-1.48-8.56-3.83-10.3-3.63
				c-4.81,0.56,5.48,6.62,6.92,8.73c3.91,5.77,5.6,14.72,6.5,21.54c1.2,9.06,1.65,17.31,1.03,26.17c-0.4,5.74-0.38,15.37,8.12,12.93
				c6.56-1.88,4.43-9.55,4.72-14.98C853.2,118.6,854.64,109.32,852.29,99.74z"/>
			<path class="st48" d="M835.34,52.06c0.54-5.72,3.16-12.31,0.17-17.77c-2.82-5.14-12.08-10.72-21.35-8.22
				C802,29.35,803.24,41.8,803.11,43.11c-0.56,0.03-1.03,0.24-1.4,0.63c-1.73,3.18-1.28,15.82,3.94,14.33
				c-0.61,4.48,1,8.48-2.74,11.62c-2.87,2.4-7.13,2.73-8.58,6.58c-1.52,4.04,0.84,7.84,3.21,10.87c2.81,3.6,6.03,8.1,9.01,11.53
				c6.39,7.37,16.1,7.65,21.38-0.85c2.5-4.02,4.31-8.79,4.06-13.64c-0.21-4.11-1.69-7.52-6.02-9.84
				C831.77,68.46,835.12,62.49,835.34,52.06z"/>
			<path class="st58" d="M858.25,113.97c-1.25-12.21-5.62-19.32-9.96-25.5c-3.66-5.21-7.12-8.38-8.79-8.42
				c-1.91-0.05,0.79,2.91,3.01,7.41c3.62,7.33,7.37,15.51,7.85,30.25c0.16,4.75-3.74,20.53,2.22,22.83c2.06,0.79,6.67-2,7.34-4.46
				c0.66-2.43-0.39-4.84-0.83-6.97C858.33,125.37,858.61,117.49,858.25,113.97z"/>
			<path class="st60" d="M826.78,74.08c0,2.07-2.61,10.51-8.31,10.51c-5.7,0-11.55-12.05-10.41-13.77
				c1.21-1.82,3.42,6.76,10.41,6.76C825.64,77.58,826.78,72.01,826.78,74.08z"/>
			<path class="st57" d="M800.9,70.5c-8.26,2.21-17.5,5.92-23.14,9.78c-7.19,4.94-11.14,15.03-12.34,23.92
				c-3.43,25.5,2.44,49.77-2.79,74.94c-1.53,7.35-5.9,17.25-0.25,25.54c7.35,10.77,14.01-11.64,16.78-16.28
				c4.91-8.23,13.29-15.19,14.5-25.34c0.68-5.69-1.77-11.12-2.7-16.64c-1.11-6.63-1.26-13.33-1.01-20.04
				c0.27-7.32,0.87-14.62,1.2-21.93c0.3-6.57,1.6-26.88,6.5-30.08C798.42,73.9,804.13,69.64,800.9,70.5z"/>
			<path class="st58" d="M788.05,162.7c-0.45-3.64-7.35-6.86-9.6-9.1c-2.46-2.46,0.58-4.06,1.63-10.21
				c1.5-8.77-2.46-14.04-3.15-20.02c-0.63-5.49,0.99-10.7,2.06-16.01c1.12-5.57,3.58-12.47,2.74-18.17
				c-0.26-1.79-1.61-6.14-3.61-6.67c-7.87-2.08-17.68,20.33-20.54,33.83c-1.52,7.17-0.92,13.1-0.87,20.16
				c0.05,5.7-2.32,11.65-1.89,17.41c0.93,12.18,7.33,14.2,16.73,19.48c3.86,2.17,9.71,5.85,13.33,1.66
				C787.71,171.82,788.56,166.83,788.05,162.7z"/>
			<path class="st48" d="M807.42,172.29c-3.66-1.54-11.33-6.12-14.9-7.83c-3.07-1.47-5.74-4.03-8.9-3.7
				c-7.45,0.77-10.83,12.1-3.73,15.58c3.83,1.88,9.14,2.93,13.19,4.03c3.21,0.88,12.45,3.7,14.1,4.17
				C815.68,186.92,830.27,181.9,807.42,172.29z"/>
			<g>
				<polygon class="st61" points="890.32,185.99 813.39,185.99 835.55,133.52 912.47,133.52 				"/>
				<path class="st62" d="M868.92,160.91c-1.22,2.91-4.58,5.27-7.5,5.27c-2.92,0-4.3-2.36-3.08-5.27c1.22-2.91,4.58-5.27,7.5-5.27
					C868.76,155.64,870.14,157.99,868.92,160.91z"/>
				<polygon class="st62" points="811.94,185.99 813.39,185.99 835.63,133.52 834.18,133.52 				"/>
				<rect x="811.94" y="185.99" class="st63" width="74.87" height="2.85"/>
				
					<rect x="781.44" y="185.99" transform="matrix(-1 -1.224647e-16 1.224647e-16 -1 1593.3815 374.8327)" class="st62" width="30.5" height="2.85"/>
			</g>
		</g>
		<path class="st46" d="M798.16,37.22c0.09-5.22,2.65-11.94,6.97-15.07c4.87-3.53,13.83-7.23,15.11-9.65
			c1.47-2.79,1.48-7.27-6.67-10.51c-2.2-0.88-0.25-1.5,2.38-0.84c3.43,0.85,8.41,2.78,10.71,5.18c5.33,5.55,1.01,9.6-0.88,11.17
			c-0.58,0.48-1.15,1.94,0.71,2.57c3.26,1.1,7.21,2.86,10.35,5.18c7.48,5.51,9.26,12.77,7.04,20.93
			c-1.22,4.51-4.85,11.44-8.78,12.97c-0.96,0.37,4.22-11.09-11.43-19.83c-4.48-2.51-10.58-3.27-13.37,6.1
			c-0.53,1.78-2.69,7.71-4.68,6.17c-0.66-0.51-0.1-4.62-2.26-5.59c-2.12-0.95-2.55,2.03-3.93,0.44
			C798.83,45.73,798.12,39.8,798.16,37.22z"/>
	</g>
</g>
</svg>
