<?xml version="1.0" encoding="utf-8"?>
<!-- Generator: Adobe Illustrator 24.3.0, SVG Export Plug-In . SVG Version: 6.00 Build 0)  -->
<svg version="1.1" id="design" xmlns="http://www.w3.org/2000/svg" xmlns:xlink="http://www.w3.org/1999/xlink" x="0px" y="0px"
	 viewBox="0 0 697.37 1074.34" style="enable-background:new 0 0 697.37 1074.34;" xml:space="preserve">
<style type="text/css">
	.st0{fill:#304969;}
	.st1{fill:url(#SVGID_1_);}
	.st2{fill:url(#SVGID_2_);}
	.st3{fill:url(#SVGID_3_);}
	.st4{fill:url(#SVGID_4_);}
	.st5{fill:url(#SVGID_5_);}
	.st6{fill:url(#SVGID_6_);}
	.st7{fill:url(#SVGID_7_);}
	.st8{fill:#00263F;}
</style>
<g>
	<g>
		<path class="st0" d="M199.53,492.86c0,0,72.25,103.44,83.24,129.51c11,26.07,55.45,158.4,55.45,158.4l17.41-0.88
			c0,0-53.55-144.56-61.48-162.91c-7.34-16.97-80.83-117.68-80.83-117.68L199.53,492.86z"/>
		<g>
			<radialGradient id="SVGID_1_" cx="123.9096" cy="417.7623" r="107.0004" gradientUnits="userSpaceOnUse">
				<stop  offset="0" style="stop-color:#83C0E4"/>
				<stop  offset="0.0621" style="stop-color:#80BDE2"/>
				<stop  offset="0.9955" style="stop-color:#5893BF"/>
			</radialGradient>
			<path class="st1" d="M240.63,501.56c9.04-6.62,9.2-56.56,2.46-68.81c-5.76-10.46-21.79-21.63-29.63-24.89
				c-46.98-19.53-80.74-49.01-90.31-62.72c-8.45-12.11-48.56-7.83-67.44-7.73c-18.87,0.11-29.16-6.66-34.03-6.51
				c-6.62,0.21-14.08,1.87-21.69,3.27c5.62,2.08,32.29,16.96,38.04,18.59c4.11,1.16,48.99,28.2,60.03,36.54
				c11.04,8.34,29.63,38.59,36.44,46.39c13.42,15.36,46.68,38.79,58.22,50.43c10.59,10.68,16.9,16.29,18.62,16.97
				C213.38,503.89,233.46,506.81,240.63,501.56z"/>
		</g>
		<path class="st0" d="M179.5,464.89c-9.81-7.31-8.92-18.43-13.99-28.88c-5.07-10.45-18.62-12.86-32.55-22.68
			c-13.93-9.83-22.19-30.77-28.37-35.78c-6.18-5.01-17.85-8.45-23.75-15.05c-5.9-6.6-17.92-19.98-23.84-20.94
			c-4.66-0.76-8.65,0.59-20.12,1.17c-5.88,0.3-15.74-0.94-23.95-2.22c9.71,5.02,21.52,11.24,25.12,12.26
			c4.11,1.16,48.99,28.2,60.03,36.54c11.04,8.34,29.63,38.59,36.44,46.39c13.42,15.36,46.68,38.79,58.22,50.43
			c10.41,10.5,16.67,16.09,18.52,16.92C200.05,466.27,189.13,472.07,179.5,464.89z"/>
	</g>
	<g>
		<g>
			<radialGradient id="SVGID_2_" cx="253.1169" cy="289.438" r="142.2555" gradientUnits="userSpaceOnUse">
				<stop  offset="0" style="stop-color:#83C0E4"/>
				<stop  offset="0.0621" style="stop-color:#80BDE2"/>
				<stop  offset="0.9955" style="stop-color:#5893BF"/>
			</radialGradient>
			<path class="st2" d="M366.67,288.29c-6.65-20.53-24.91-58.29-40.79-73.02c-15.87-14.72-22.09-34.33-36.83-42.78
				c-7.85-4.5-30.27-5.74-39.55-5.98c-9.29-0.24-35.09-20.32-39.1-22.12c-13.44-6.04-22.89-7.29-36.8-9.94
				c-9.61-1.83-35.84-9.84-35.84-9.84s17.42,18.66,20.47,25.77c2.29,5.33,29.02,68.59,34.31,75.68
				c10.79,14.47,64.4,49.91,66.56,53.94c2.16,4.03,7.96,23.55,13.83,38.2c5.87,14.66,18.02,35.4,23.67,45.27
				c3.74,6.52,10.19,57.19,14.13,90.78c2.78-1.54,6.21-3.5,9.82-5.69c11.07-6.68,23.84-15.44,24.63-20.72
				c0.14-0.92-1.59-4.07-4.25-8.27c2.69-2.56,5.19-4.71,7.13-6.18c8.67-6.58,8.41-60.38,9.98-75.58
				C359.62,322.63,373.31,308.81,366.67,288.29z"/>
		</g>
		<path class="st0" d="M310.73,454.26c0-0.01,0-0.03-0.01-0.04c2.02,17.23,29.86,342.29,29.86,342.29l13.3-0.67
			c0,0-32.4-336.22-33.33-345.99c-0.04-0.4-0.03-0.83,0-1.27C316.94,450.76,313.51,452.71,310.73,454.26z"/>
		<path class="st0" d="M179.69,153.86c-1.07,0.72,85.29,84.7,102.89,107.33c17.57,22.59,41.5,140.17,41.5,140.17l6.77,3.75
			c0,0-28.75-125.82-44.61-146.36C272.56,241.01,180.61,153.77,179.69,153.86z"/>
		<path class="st0" d="M321.16,390.69c-7.78-11.18-35.25-76.48-38.99-80.82c-3.74-4.34-17.69-26.48-23.07-29.86
			c2.16,4.03,7.96,23.55,13.83,38.2c5.87,14.66,18.02,35.4,23.67,45.27c3.74,6.52,10.19,57.19,14.13,90.78
			c2.78-1.54,6.21-3.5,9.82-5.69c11.07-6.68,22.87-15.68,24.63-20.72C348.47,418.49,326.37,398.18,321.16,390.69z"/>
	</g>
	<g>
		<g>
			<radialGradient id="SVGID_3_" cx="433.7646" cy="236.8441" r="171.7854" gradientUnits="userSpaceOnUse">
				<stop  offset="0" style="stop-color:#83C0E4"/>
				<stop  offset="0.0621" style="stop-color:#80BDE2"/>
				<stop  offset="0.9955" style="stop-color:#5893BF"/>
			</radialGradient>
			<path class="st3" d="M408.92,466.88c0,0,19.2-157.23,8.56-261.25S355.62,6.81,355.62,6.81c10.13,11.65,20.65,8.23,26.98,18.9
				c5.62,9.47,9.88,31.07,9.88,31.07s14.54,12.96,22.89,22.18c19.36,21.38,70.01,81.07,68,94.32
				c-2.56,16.86,22.83,97.84,27.27,112.45c5.75,18.92-9.75,73.86-16.68,88.72C487.05,389.32,408.92,466.88,408.92,466.88z"/>
		</g>
		<path class="st0" d="M443.46,410.19c0.49-6.56,28.05-31.61,31.11-53.07c3.07-21.46-22.64-82.33-29.55-100.14
			c-2.48-6.37,5.2-62.27-3.68-75.01c-8.88-12.75-48.85-125.18-48.85-125.18s-4.26-21.61-9.88-31.07
			C376.27,15.05,362.94,11.65,352.81,0c0,0,54.03,101.62,64.67,205.63s-8.56,261.25-8.56,261.25s11.83-11.75,26.7-26.98l0,0
			C438.28,434.65,442.33,425.41,443.46,410.19z"/>
		<path class="st0" d="M411.23,445.85c0,0-32.19,168.38-43.4,227.34c-11.21,58.96-13.31,135.28-13.31,135.28l17.25,2.47
			c0,0-1.41-56.01,9.09-136.97c10.81-83.32,41.08-230.33,41.08-230.33L411.23,445.85z"/>
	</g>
	<g>
		<path class="st0" d="M691.2,450.88c-2.99-12.66-26.28-33.83-31.64-36.44c-5.36-2.6-64.48-8.63-76.75-8.28
			c-35.76,1.02-63.58,9.23-63.58,9.23c24.52-3.59,94.51,15.61,94.51,15.61c16.72,2.29,58.48,32.07,65.39,39.57
			c6.91,7.49,18.25,35.15,18.25,35.15S694.2,463.54,691.2,450.88z"/>
		<path class="st0" d="M463.78,512.48c0,0-22.93,36.51-29.06,52.09c-7.32,18.62-25.53,80.97-28.89,93.27
			c-10.92,40.03-28.79,168.19-28.79,168.19l16.95,0.7c0,0,20.37-155.21,23.12-170.64c2.75-15.43,17.17-71.03,23.57-85.65
			c8.3-18.97,40.55-76.91,46.14-81.65L463.78,512.48z"/>
		<g>
			<radialGradient id="SVGID_4_" cx="533.9911" cy="472.4612" r="69.524" gradientUnits="userSpaceOnUse">
				<stop  offset="0" style="stop-color:#83C0E4"/>
				<stop  offset="0.0621" style="stop-color:#80BDE2"/>
				<stop  offset="0.9955" style="stop-color:#5893BF"/>
			</radialGradient>
			<path class="st4" d="M460.02,518.56c-0.2-3.91-7.9-46.43-5.19-53.28c8.25-20.89,40.89-41.77,64.4-49.89
				c24.52-3.59,94.51,15.61,94.51,15.61s-114.2,47.04-125.71,59.22c-10.91,11.53-26.42,39.75-26.42,39.75L460.02,518.56z"/>
		</g>
	</g>
	<g>
		<g>
			<radialGradient id="SVGID_5_" cx="341.5186" cy="514.0886" r="79.5087" gradientUnits="userSpaceOnUse">
				<stop  offset="0" style="stop-color:#83C0E4"/>
				<stop  offset="0.0621" style="stop-color:#80BDE2"/>
				<stop  offset="0.9955" style="stop-color:#5893BF"/>
			</radialGradient>
			<path class="st5" d="M267.54,497.9c-0.04-0.84-2.8-22.06-2.8-22.06s-6.3-28.11-4.78-31.38c1.52-3.27,30-8.75,44.38-7.29
				c14.37,1.46,57.36,10.05,62.34,15.35c4.98,5.3,22.07,17.39,26.27,20.54s28.86,21.92,29.36,35.02c0.49,13.1,3.96,28.55-5.71,38.38
				c-18.1,18.4-37.18,38.14-43.09,41.12s-3.91,10.88-23.29-13.12c-19.38-24-42.49-51.85-51.52-70.82
				c-9.03-18.97-17.46-25.86-17.46-25.86L267.54,497.9z"/>
		</g>
		<path class="st0" d="M297.7,462.23c4.16-0.8,31.39-4.61,39.38-4.68c5.51-0.05,38.05,10.41,57.67,16.88
			c-0.77-0.59-1.39-1.06-1.8-1.37c-4.2-3.15-21.29-15.24-26.27-20.54c-4.98-5.3-47.97-13.89-62.34-15.35
			c-14.37-1.46-42.86,4.02-44.38,7.29c-1.52,3.27,4.78,31.38,4.78,31.38s2.75,21.22,2.8,22.06l13.7-20.12
			C287.29,472.68,293.53,463.03,297.7,462.23z"/>
		<path class="st0" d="M332.38,486.05c0,0,30.28,103.26,31.12,109.95c0.84,6.69,28.48,207.81,28.48,207.81l16.2-0.82
			c0,0-37.96-202.29-37.98-207.58C370.17,590.11,332.38,486.05,332.38,486.05z"/>
	</g>
	<g>
		<path class="st0" d="M252.33,650.67c0,0,14.06,9.72,18.36,13.96c4.3,4.24,69.05,135.14,69.05,135.14l-11.38,3.25
			c-1.4-0.67-59.85-131.93-63.84-134.95c-3.99-3.02-21.16-16.95-21.16-16.95L252.33,650.67z"/>
		<g>
			<radialGradient id="SVGID_6_" cx="152.0855" cy="623.5757" r="82.7428" gradientUnits="userSpaceOnUse">
				<stop  offset="0" style="stop-color:#83C0E4"/>
				<stop  offset="0.0621" style="stop-color:#80BDE2"/>
				<stop  offset="0.9955" style="stop-color:#5893BF"/>
			</radialGradient>
			<path class="st6" d="M262.29,657.83c0,0-19.24-30.86-23.99-36.72c-4.75-5.86-36.67-23.72-45.66-25.25
				c-8.99-1.53-14.27-1.59-21.29-3.38c-7.02-1.79-10.6-7.9-20.19-8.24c-9.59-0.34-64.21,4.83-69.4,6.66
				c-5.19,1.83-12.64,1.22-15.53,1.28c-2.88,0.06-24.67,8.01-24.35,7.91c0.33-0.1,16.29-2.47,20.19-0.44s40.2,22.36,56,32.21
				c10.48,6.53,25,19.84,28.93,22.12c10.09,5.84,39,9.44,49.97,8.89c5.87-0.3,22.08-7.8,32.12-8.3
				C239.13,654.06,262.29,657.83,262.29,657.83z"/>
		</g>
		<path class="st0" d="M87.24,599.86c0.07-0.27,75.69,13.76,92.83,17.83c17.15,4.08,70.5,31.17,70.5,31.17l-9.22,0.67
			c0,0-57.59-27.62-62.28-28.5C174.41,620.15,87.25,600.34,87.24,599.86z"/>
	</g>
	<g>
		<path class="st0" d="M463.53,575.52c-1.64,1.91,1.09,20.56,2.47,27.7c1.37,7.14-2.65,23.18-2.65,23.18l32.93-36.57
			c0,0-18.12-9.32-27.21-16.72C466.44,573.69,464.44,574.45,463.53,575.52z"/>
		<g>
			<radialGradient id="SVGID_7_" cx="543.0509" cy="610.2564" r="61.3642" gradientUnits="userSpaceOnUse">
				<stop  offset="0" style="stop-color:#83C0E4"/>
				<stop  offset="0.0621" style="stop-color:#80BDE2"/>
				<stop  offset="0.9955" style="stop-color:#5893BF"/>
			</radialGradient>
			<path class="st7" d="M598.93,610.61c-1.8-4.3-30.25-40.91-33.28-43.06c-3.03-2.15-44.74-1.93-51.41-2.55
				c-6.67-0.62-6.07,1.35-14.28,4.13c-6.31,2.14-22.12,2.04-30.88,3.98c9.09,7.4,26.22,16.57,26.22,16.57s2.98,1.51,10.21,3.13
				c7.23,1.62,11.59-2.31,15.79-1.56c4.21,0.75,23.24,25.13,25.9,30.77c2.66,5.64,45.23,19.24,52.93,21.75
				c7.7,2.51,16.86,12.33,16.9,11.85C617.07,655.13,600.74,614.91,598.93,610.61z"/>
		</g>
		<path class="st0" d="M523.18,566.12c0,0,35.65,23.35,45.89,30.57c10.3,7.26,26.04,31.55,25.83,31.67
			c-0.16,0.09-22.42-26.83-27.14-30c-3.64-2.44-51.53-32.5-51.53-32.5L523.18,566.12z"/>
		<path class="st0" d="M473.47,613.86c0,0-25.41,56.76-30,68.78c-4.59,12.02-29.22,95.69-29.22,95.69l-12.73-1.16
			c0,0,33.09-92.06,35.84-98.88c4.68-11.62,29.81-67.03,29.81-67.03L473.47,613.86z"/>
	</g>
	<path class="st8" d="M451.33,1074.34c-57.44,0-114.88,0-172.32,0c-10.54-111.19-20.18-222.39-27.65-333.58
		c75.87,0,151.74,0,227.61,0C471.51,851.95,461.87,963.15,451.33,1074.34z"/>
</g>
</svg>
