<?xml version="1.0" encoding="utf-8"?>
<!-- Generator: Adobe Illustrator 24.3.0, SVG Export Plug-In . SVG Version: 6.00 Build 0)  -->
<svg version="1.1" id="_x2014_ÎÓÈ_x5F_1" xmlns="http://www.w3.org/2000/svg" xmlns:xlink="http://www.w3.org/1999/xlink"
	 x="0px" y="0px" viewBox="0 0 616.83 492.12" style="enable-background:new 0 0 616.83 492.12;" xml:space="preserve">
<style type="text/css">
	.st0{fill:#D0E7F2;}
	.st1{fill:#2F4869;}
	.st2{fill:#FFFFFF;}
	.st3{fill:#00C2FF;}
</style>
<g>
	<g>
		<rect x="5.01" y="457.94" class="st0" width="606.82" height="29.18"/>
		<path class="st1" d="M611.82,492.12H5.01c-2.76,0-5.01-2.24-5.01-5.01v-29.18c0-2.76,2.24-5.01,5.01-5.01h606.82
			c2.76,0,5.01,2.24,5.01,5.01v29.18C616.83,489.88,614.59,492.12,611.82,492.12z M10.01,482.11h596.81v-19.17H10.01V482.11z"/>
	</g>
	<g>
		<g>
			<g>
				<rect x="27.37" y="67" class="st2" width="153.14" height="390.94"/>
				<path class="st1" d="M180.51,462.95H27.37c-2.76,0-5.01-2.24-5.01-5.01V67c0-2.76,2.24-5,5.01-5h153.14c2.76,0,5.01,2.24,5.01,5
					v390.94C185.52,460.7,183.27,462.95,180.51,462.95z M32.38,452.93H175.5V72.01H32.38V452.93z"/>
			</g>
			<g>
				<path class="st0" d="M199.78,104.63h-187l9.59-50.25c1.45-7.57,8.06-13.05,15.77-13.05h149.56L199.78,104.63z"/>
				<path class="st1" d="M199.78,109.63h-187c-1.49,0-2.91-0.67-3.86-1.82c-0.95-1.15-1.34-2.66-1.06-4.13l9.59-50.25
					c1.89-9.92,10.59-17.11,20.69-17.11h149.56c2.4,0,4.47,1.71,4.92,4.07l12.08,63.29c0.28,1.47-0.11,2.98-1.06,4.13
					C202.68,108.97,201.27,109.63,199.78,109.63z M18.83,99.62h174.9l-10.17-53.28H38.14c-5.3,0-9.86,3.78-10.85,8.98L18.83,99.62z"
					/>
			</g>
			<g>
				<path class="st2" d="M82.74,457.94H50.27v-43.31c0-8.96,7.27-16.23,16.23-16.23h0c8.96,0,16.23,7.27,16.23,16.23V457.94z"/>
				<path class="st1" d="M82.74,462.95H50.27c-2.76,0-5.01-2.24-5.01-5.01v-43.31c0-11.71,9.53-21.24,21.24-21.24
					s21.24,9.53,21.24,21.24v43.31C87.74,460.7,85.5,462.95,82.74,462.95z M55.28,452.93h22.45v-38.3c0-6.19-5.04-11.23-11.23-11.23
					s-11.23,5.04-11.23,11.23V452.93z"/>
			</g>
			<g>
				<path class="st2" d="M141.94,457.94h-32.46v-43.31c0-8.96,7.27-16.23,16.23-16.23h0c8.96,0,16.23,7.27,16.23,16.23V457.94z"/>
				<path class="st1" d="M141.94,462.95h-32.46c-2.76,0-5.01-2.24-5.01-5.01v-43.31c0-11.71,9.53-21.24,21.24-21.24
					s21.24,9.53,21.24,21.24v43.31C146.94,460.7,144.7,462.95,141.94,462.95z M114.48,452.93h22.45v-38.3
					c0-6.19-5.04-11.23-11.23-11.23s-11.23,5.04-11.23,11.23V452.93z"/>
			</g>
			<g>
				<g>
					<rect x="50.27" y="344.6" class="st2" width="32.14" height="32.14"/>
					<path class="st1" d="M82.41,381.75H50.27c-2.76,0-5.01-2.24-5.01-5.01V344.6c0-2.76,2.24-5.01,5.01-5.01h32.14
						c2.76,0,5.01,2.24,5.01,5.01v32.14C87.42,379.51,85.18,381.75,82.41,381.75z M55.28,371.74h22.13v-22.13H55.28V371.74z"/>
				</g>
				<g>
					<rect x="50.27" y="292.76" class="st2" width="32.14" height="32.14"/>
					<path class="st1" d="M82.41,329.91H50.27c-2.76,0-5.01-2.24-5.01-5.01v-32.14c0-2.76,2.24-5.01,5.01-5.01h32.14
						c2.76,0,5.01,2.24,5.01,5.01v32.14C87.42,327.67,85.18,329.91,82.41,329.91z M55.28,319.9h22.13v-22.13H55.28V319.9z"/>
				</g>
				<g>
					<rect x="50.27" y="240.92" class="st2" width="32.14" height="32.14"/>
					<path class="st1" d="M82.41,278.07H50.27c-2.76,0-5.01-2.24-5.01-5.01v-32.14c0-2.76,2.24-5.01,5.01-5.01h32.14
						c2.76,0,5.01,2.24,5.01,5.01v32.14C87.42,275.82,85.18,278.07,82.41,278.07z M55.28,268.05h22.13v-22.13H55.28V268.05z"/>
				</g>
				<g>
					<rect x="50.27" y="189.08" class="st2" width="32.14" height="32.14"/>
					<path class="st1" d="M82.41,226.22H50.27c-2.76,0-5.01-2.24-5.01-5.01v-32.14c0-2.76,2.24-5.01,5.01-5.01h32.14
						c2.76,0,5.01,2.24,5.01,5.01v32.14C87.42,223.98,85.18,226.22,82.41,226.22z M55.28,216.21h22.13v-22.13H55.28V216.21z"/>
				</g>
				<g>
					<rect x="50.27" y="137.23" class="st2" width="32.14" height="32.14"/>
					<path class="st1" d="M82.41,174.38H50.27c-2.76,0-5.01-2.24-5.01-5.01v-32.14c0-2.76,2.24-5.01,5.01-5.01h32.14
						c2.76,0,5.01,2.24,5.01,5.01v32.14C87.42,172.14,85.18,174.38,82.41,174.38z M55.28,164.37h22.13v-22.13H55.28V164.37z"/>
				</g>
				<g>
					<rect x="109.63" y="344.6" class="st2" width="32.14" height="32.14"/>
					<path class="st1" d="M141.78,381.75h-32.14c-2.76,0-5.01-2.24-5.01-5.01V344.6c0-2.76,2.24-5.01,5.01-5.01h32.14
						c2.76,0,5.01,2.24,5.01,5.01v32.14C146.78,379.51,144.54,381.75,141.78,381.75z M114.64,371.74h22.13v-22.13h-22.13V371.74z"/>
				</g>
				<g>
					<rect x="109.63" y="292.76" class="st2" width="32.14" height="32.14"/>
					<path class="st1" d="M141.78,329.91h-32.14c-2.76,0-5.01-2.24-5.01-5.01v-32.14c0-2.76,2.24-5.01,5.01-5.01h32.14
						c2.76,0,5.01,2.24,5.01,5.01v32.14C146.78,327.67,144.54,329.91,141.78,329.91z M114.64,319.9h22.13v-22.13h-22.13V319.9z"/>
				</g>
				<g>
					<rect x="109.63" y="240.92" class="st2" width="32.14" height="32.14"/>
					<path class="st1" d="M141.78,278.07h-32.14c-2.76,0-5.01-2.24-5.01-5.01v-32.14c0-2.76,2.24-5.01,5.01-5.01h32.14
						c2.76,0,5.01,2.24,5.01,5.01v32.14C146.78,275.82,144.54,278.07,141.78,278.07z M114.64,268.05h22.13v-22.13h-22.13V268.05z"/>
				</g>
				<g>
					<rect x="109.63" y="189.08" class="st2" width="32.14" height="32.14"/>
					<path class="st1" d="M141.78,226.22h-32.14c-2.76,0-5.01-2.24-5.01-5.01v-32.14c0-2.76,2.24-5.01,5.01-5.01h32.14
						c2.76,0,5.01,2.24,5.01,5.01v32.14C146.78,223.98,144.54,226.22,141.78,226.22z M114.64,216.21h22.13v-22.13h-22.13V216.21z"/>
				</g>
				<g>
					<rect x="109.63" y="137.23" class="st2" width="32.14" height="32.14"/>
					<path class="st1" d="M141.78,174.38h-32.14c-2.76,0-5.01-2.24-5.01-5.01v-32.14c0-2.76,2.24-5.01,5.01-5.01h32.14
						c2.76,0,5.01,2.24,5.01,5.01v32.14C146.78,172.14,144.54,174.38,141.78,174.38z M114.64,164.37h22.13v-22.13h-22.13V164.37z"/>
				</g>
			</g>
		</g>
		<g>
			<g>
				<rect x="444.09" y="67" class="st2" width="153.14" height="390.94"/>
				<path class="st1" d="M597.23,462.95H444.09c-2.76,0-5.01-2.24-5.01-5.01V67c0-2.76,2.24-5,5.01-5h153.14
					c2.76,0,5.01,2.24,5.01,5v390.94C602.23,460.7,599.99,462.95,597.23,462.95z M449.09,452.93h143.13V72.01H449.09V452.93z"/>
			</g>
			<g>
				<path class="st0" d="M424.82,104.63h187l-9.59-50.25c-1.45-7.57-8.06-13.05-15.77-13.05H436.9L424.82,104.63z"/>
				<path class="st1" d="M611.82,109.63h-187c-1.49,0-2.91-0.67-3.86-1.82c-0.95-1.15-1.34-2.66-1.06-4.13l12.08-63.29
					c0.45-2.36,2.51-4.07,4.92-4.07h149.56c10.09,0,18.79,7.2,20.69,17.11l9.59,50.25c0.28,1.47-0.11,2.98-1.06,4.13
					C614.73,108.97,613.32,109.63,611.82,109.63z M430.87,99.62h174.9l-8.46-44.3c-0.99-5.2-5.56-8.98-10.85-8.98H441.04
					L430.87,99.62z"/>
			</g>
			<g>
				<path class="st2" d="M541.86,457.94h32.46V418.1c0-8.96-7.27-16.23-16.23-16.23l0,0c-8.96,0-16.23,7.27-16.23,16.23V457.94z"/>
				<path class="st1" d="M574.33,462.95h-32.46c-2.76,0-5.01-2.24-5.01-5.01V418.1c0-11.71,9.53-21.24,21.24-21.24
					s21.24,9.53,21.24,21.24v39.84C579.33,460.7,577.09,462.95,574.33,462.95z M546.87,452.93h22.45V418.1
					c0-6.19-5.04-11.23-11.23-11.23s-11.23,5.04-11.23,11.23V452.93z"/>
			</g>
			<g>
				<path class="st2" d="M482.66,457.94h32.46V418.1c0-8.96-7.27-16.23-16.23-16.23l0,0c-8.96,0-16.23,7.27-16.23,16.23V457.94z"/>
				<path class="st1" d="M515.13,462.95h-32.46c-2.76,0-5.01-2.24-5.01-5.01V418.1c0-11.71,9.53-21.24,21.24-21.24
					s21.24,9.53,21.24,21.24v39.84C520.13,460.7,517.89,462.95,515.13,462.95z M487.67,452.93h22.45V418.1
					c0-6.19-5.04-11.23-11.23-11.23s-11.23,5.04-11.23,11.23V452.93z"/>
			</g>
			<g>
				<g>
					
						<rect x="542.19" y="344.6" transform="matrix(-1 -1.224647e-16 1.224647e-16 -1 1116.5116 721.3494)" class="st2" width="32.14" height="32.14"/>
					<path class="st1" d="M574.33,381.75h-32.14c-2.76,0-5.01-2.24-5.01-5.01V344.6c0-2.76,2.24-5.01,5.01-5.01h32.14
						c2.76,0,5.01,2.24,5.01,5.01v32.14C579.33,379.51,577.09,381.75,574.33,381.75z M547.19,371.74h22.13v-22.13h-22.13V371.74z"/>
				</g>
				<g>
					
						<rect x="542.19" y="292.76" transform="matrix(-1 -1.224647e-16 1.224647e-16 -1 1116.5116 617.6636)" class="st2" width="32.14" height="32.14"/>
					<path class="st1" d="M574.33,329.91h-32.14c-2.76,0-5.01-2.24-5.01-5.01v-32.14c0-2.76,2.24-5.01,5.01-5.01h32.14
						c2.76,0,5.01,2.24,5.01,5.01v32.14C579.33,327.67,577.09,329.91,574.33,329.91z M547.19,319.9h22.13v-22.13h-22.13V319.9z"/>
				</g>
				<g>
					
						<rect x="542.19" y="240.92" transform="matrix(-1 -1.224647e-16 1.224647e-16 -1 1116.5116 513.978)" class="st2" width="32.14" height="32.14"/>
					<path class="st1" d="M574.33,278.07h-32.14c-2.76,0-5.01-2.24-5.01-5.01v-32.14c0-2.76,2.24-5.01,5.01-5.01h32.14
						c2.76,0,5.01,2.24,5.01,5.01v32.14C579.33,275.82,577.09,278.07,574.33,278.07z M547.19,268.05h22.13v-22.13h-22.13V268.05z"/>
				</g>
				<g>
					
						<rect x="542.19" y="189.08" transform="matrix(-1 -1.224647e-16 1.224647e-16 -1 1116.5116 410.2921)" class="st2" width="32.14" height="32.14"/>
					<path class="st1" d="M574.33,226.22h-32.14c-2.76,0-5.01-2.24-5.01-5.01v-32.14c0-2.76,2.24-5.01,5.01-5.01h32.14
						c2.76,0,5.01,2.24,5.01,5.01v32.14C579.33,223.98,577.09,226.22,574.33,226.22z M547.19,216.21h22.13v-22.13h-22.13V216.21z"/>
				</g>
				<g>
					
						<rect x="542.19" y="137.23" transform="matrix(-1 -1.224647e-16 1.224647e-16 -1 1116.5116 306.6064)" class="st2" width="32.14" height="32.14"/>
					<path class="st1" d="M574.33,174.38h-32.14c-2.76,0-5.01-2.24-5.01-5.01v-32.14c0-2.76,2.24-5.01,5.01-5.01h32.14
						c2.76,0,5.01,2.24,5.01,5.01v32.14C579.33,172.14,577.09,174.38,574.33,174.38z M547.19,164.37h22.13v-22.13h-22.13V164.37z"/>
				</g>
				<g>
					
						<rect x="482.82" y="344.6" transform="matrix(-1 -1.224647e-16 1.224647e-16 -1 997.7889 721.3494)" class="st2" width="32.14" height="32.14"/>
					<path class="st1" d="M514.97,381.75h-32.14c-2.76,0-5.01-2.24-5.01-5.01V344.6c0-2.76,2.24-5.01,5.01-5.01h32.14
						c2.76,0,5.01,2.24,5.01,5.01v32.14C519.97,379.51,517.73,381.75,514.97,381.75z M487.83,371.74h22.13v-22.13h-22.13V371.74z"/>
				</g>
				<g>
					
						<rect x="482.82" y="292.76" transform="matrix(-1 -1.224647e-16 1.224647e-16 -1 997.7889 617.6636)" class="st2" width="32.14" height="32.14"/>
					<path class="st1" d="M514.97,329.91h-32.14c-2.76,0-5.01-2.24-5.01-5.01v-32.14c0-2.76,2.24-5.01,5.01-5.01h32.14
						c2.76,0,5.01,2.24,5.01,5.01v32.14C519.97,327.67,517.73,329.91,514.97,329.91z M487.83,319.9h22.13v-22.13h-22.13V319.9z"/>
				</g>
				<g>
					
						<rect x="482.82" y="240.92" transform="matrix(-1 -1.224647e-16 1.224647e-16 -1 997.7889 513.978)" class="st2" width="32.14" height="32.14"/>
					<path class="st1" d="M514.97,278.07h-32.14c-2.76,0-5.01-2.24-5.01-5.01v-32.14c0-2.76,2.24-5.01,5.01-5.01h32.14
						c2.76,0,5.01,2.24,5.01,5.01v32.14C519.97,275.82,517.73,278.07,514.97,278.07z M487.83,268.05h22.13v-22.13h-22.13V268.05z"/>
				</g>
				<g>
					
						<rect x="482.82" y="189.08" transform="matrix(-1 -1.224647e-16 1.224647e-16 -1 997.7889 410.2921)" class="st2" width="32.14" height="32.14"/>
					<path class="st1" d="M514.97,226.22h-32.14c-2.76,0-5.01-2.24-5.01-5.01v-32.14c0-2.76,2.24-5.01,5.01-5.01h32.14
						c2.76,0,5.01,2.24,5.01,5.01v32.14C519.97,223.98,517.73,226.22,514.97,226.22z M487.83,216.21h22.13v-22.13h-22.13V216.21z"/>
				</g>
				<g>
					
						<rect x="482.82" y="137.23" transform="matrix(-1 -1.224647e-16 1.224647e-16 -1 997.7889 306.6064)" class="st2" width="32.14" height="32.14"/>
					<path class="st1" d="M514.97,174.38h-32.14c-2.76,0-5.01-2.24-5.01-5.01v-32.14c0-2.76,2.24-5.01,5.01-5.01h32.14
						c2.76,0,5.01,2.24,5.01,5.01v32.14C519.97,172.14,517.73,174.38,514.97,174.38z M487.83,164.37h22.13v-22.13h-22.13V164.37z"/>
				</g>
			</g>
		</g>
		<g>
			<rect x="165.65" y="58.31" class="st2" width="290.92" height="399.63"/>
			<path class="st1" d="M456.58,462.94H165.65c-2.76,0-5.01-2.24-5.01-5V58.31c0-2.76,2.24-5.01,5.01-5.01h290.92
				c2.76,0,5.01,2.24,5.01,5.01v399.63C461.58,460.7,459.34,462.94,456.58,462.94z M170.66,452.93h280.91V63.32H170.66V452.93z"/>
		</g>
		<g>
			<path class="st3" d="M196.48,304.83h229.26c-20.9-42.18-64.37-71.19-114.63-71.19S217.38,262.64,196.48,304.83z"/>
			<path class="st1" d="M425.74,309.83H196.48c-1.73,0-3.34-0.9-4.25-2.37c-0.91-1.47-1-3.31-0.23-4.86
				c10.83-21.87,27.47-40.34,48.11-53.42c21.22-13.45,45.77-20.56,71.01-20.56s49.79,7.11,71.01,20.56
				c20.64,13.08,37.27,31.55,48.11,53.42c0.77,1.55,0.68,3.39-0.23,4.86C429.08,308.94,427.47,309.83,425.74,309.83z M204.85,299.82
				h212.52c-9.93-17.07-23.84-31.55-40.61-42.18c-19.61-12.43-42.31-19-65.65-19s-46.04,6.57-65.65,19
				C228.69,268.27,214.78,282.75,204.85,299.82z"/>
		</g>
		<g>
			<path class="st1" d="M457.21,462.95c-1.09,0-2.19-0.36-3.11-1.09l-95.27-75.77h-94.65l-94.77,75.76
				c-2.16,1.73-5.31,1.37-7.03-0.78c-1.73-2.16-1.38-5.31,0.78-7.03l96.14-76.86c0.89-0.71,1.99-1.1,3.13-1.1h98.15
				c1.13,0,2.23,0.38,3.12,1.09l96.64,76.86c2.16,1.72,2.52,4.87,0.8,7.03C460.14,462.3,458.68,462.95,457.21,462.95z"/>
		</g>
		<g>
			<rect x="260.15" y="304.83" class="st2" width="101.92" height="76.25"/>
			<path class="st1" d="M362.08,386.09H260.15c-2.76,0-5.01-2.24-5.01-5.01v-76.25c0-2.76,2.24-5.01,5.01-5.01h101.92
				c2.76,0,5.01,2.24,5.01,5.01v76.25C367.08,383.84,364.84,386.09,362.08,386.09z M265.16,376.07h91.91v-66.24h-91.91V376.07z"/>
		</g>
		<g>
			<line class="st2" x1="311.11" y1="304.83" x2="311.11" y2="381.08"/>
			<path class="st1" d="M311.11,386.09c-2.76,0-5.01-2.24-5.01-5.01v-76.25c0-2.76,2.24-5.01,5.01-5.01s5.01,2.24,5.01,5.01v76.25
				C316.12,383.84,313.88,386.09,311.11,386.09z"/>
		</g>
		<g>
			<path class="st1" d="M456.57,427.98c-1.14,0-2.29-0.39-3.23-1.19l-93.1-78.84h-98.34l-93.13,74.4c-2.16,1.73-5.31,1.37-7.03-0.79
				c-1.73-2.16-1.37-5.31,0.79-7.03l94.5-75.49c0.89-0.71,1.99-1.09,3.12-1.09h101.92c1.18,0,2.33,0.42,3.23,1.19l94.5,80.02
				c2.11,1.79,2.37,4.94,0.59,7.05C459.41,427.38,457.99,427.98,456.57,427.98z"/>
		</g>
		<g>
			<polygon class="st3" points="477.79,115.74 372.34,74.17 244.77,74.17 143.7,115.74 185.28,5.01 436.21,5.01 			"/>
			<path class="st1" d="M477.79,120.74c-0.62,0-1.24-0.11-1.83-0.35L371.39,79.17H245.76L145.6,120.37
				c-1.84,0.76-3.96,0.35-5.39-1.04c-1.43-1.39-1.9-3.49-1.2-5.35L180.6,3.25c0.73-1.95,2.6-3.25,4.69-3.25h250.92
				c2.09,0,3.95,1.29,4.69,3.25l41.59,110.73c0.7,1.85,0.23,3.94-1.18,5.33C480.35,120.24,479.08,120.74,477.79,120.74z
				 M244.77,69.16h127.58c0.63,0,1.25,0.12,1.84,0.35l94.96,37.44l-36.4-96.94H188.75l-36.33,96.73l90.44-37.2
				C243.47,69.29,244.12,69.16,244.77,69.16z"/>
		</g>
		<g>
			<g>
				<g>
					
						<rect x="266.2" y="158.37" transform="matrix(-1 -1.224647e-16 1.224647e-16 -1 564.5379 348.8748)" class="st2" width="32.14" height="32.14"/>
					<path class="st1" d="M298.34,195.51H266.2c-2.76,0-5.01-2.24-5.01-5.01v-32.14c0-2.76,2.24-5.01,5.01-5.01h32.14
						c2.76,0,5.01,2.24,5.01,5.01v32.14C303.35,193.27,301.1,195.51,298.34,195.51z M271.2,185.5h22.13v-22.13H271.2V185.5z"/>
				</g>
				<g>
					
						<rect x="266.2" y="106.52" transform="matrix(-1 -1.224647e-16 1.224647e-16 -1 564.5379 245.1892)" class="st2" width="32.14" height="32.14"/>
					<path class="st1" d="M298.34,143.67H266.2c-2.76,0-5.01-2.24-5.01-5.01v-32.14c0-2.76,2.24-5.01,5.01-5.01h32.14
						c2.76,0,5.01,2.24,5.01,5.01v32.14C303.35,141.43,301.1,143.67,298.34,143.67z M271.2,133.66h22.13v-22.13H271.2V133.66z"/>
				</g>
				<g>
					
						<rect x="206.84" y="186.08" transform="matrix(-1 -1.224647e-16 1.224647e-16 -1 445.8151 404.3035)" class="st2" width="32.14" height="32.14"/>
					<path class="st1" d="M238.98,223.23h-32.14c-2.76,0-5.01-2.24-5.01-5.01v-32.14c0-2.76,2.24-5.01,5.01-5.01h32.14
						c2.76,0,5.01,2.24,5.01,5.01v32.14C243.98,220.99,241.74,223.23,238.98,223.23z M211.84,213.22h22.13v-22.13h-22.13V213.22z"/>
				</g>
				<g>
					
						<rect x="206.84" y="134.24" transform="matrix(-1 -1.224647e-16 1.224647e-16 -1 445.8151 300.6178)" class="st2" width="32.14" height="32.14"/>
					<path class="st1" d="M238.98,171.38h-32.14c-2.76,0-5.01-2.24-5.01-5.01v-32.14c0-2.76,2.24-5.01,5.01-5.01h32.14
						c2.76,0,5.01,2.24,5.01,5.01v32.14C243.98,169.14,241.74,171.38,238.98,171.38z M211.84,161.37h22.13v-22.13h-22.13V161.37z"/>
				</g>
			</g>
			<g>
				<g>
					
						<rect x="383.25" y="182.62" transform="matrix(-1 -1.224647e-16 1.224647e-16 -1 798.6403 397.3748)" class="st2" width="32.14" height="32.14"/>
					<path class="st1" d="M415.39,219.76h-32.14c-2.76,0-5.01-2.24-5.01-5.01v-32.14c0-2.76,2.24-5.01,5.01-5.01h32.14
						c2.76,0,5.01,2.24,5.01,5.01v32.14C420.4,217.52,418.15,219.76,415.39,219.76z M388.25,209.75h22.13v-22.13h-22.13V209.75z"/>
				</g>
				<g>
					
						<rect x="383.25" y="130.77" transform="matrix(-1 -1.224647e-16 1.224647e-16 -1 798.6403 293.6891)" class="st2" width="32.14" height="32.14"/>
					<path class="st1" d="M415.39,167.92h-32.14c-2.76,0-5.01-2.24-5.01-5.01v-32.14c0-2.76,2.24-5.01,5.01-5.01h32.14
						c2.76,0,5.01,2.24,5.01,5.01v32.14C420.4,165.68,418.15,167.92,415.39,167.92z M388.25,157.91h22.13v-22.13h-22.13V157.91z"/>
				</g>
				<g>
					
						<rect x="323.89" y="158.37" transform="matrix(-1 -1.224647e-16 1.224647e-16 -1 679.9175 348.8748)" class="st2" width="32.14" height="32.14"/>
					<path class="st1" d="M356.03,195.51h-32.14c-2.76,0-5.01-2.24-5.01-5.01v-32.14c0-2.76,2.24-5.01,5.01-5.01h32.14
						c2.76,0,5.01,2.24,5.01,5.01v32.14C361.03,193.27,358.79,195.51,356.03,195.51z M328.89,185.5h22.13v-22.13h-22.13V185.5z"/>
				</g>
				<g>
					
						<rect x="323.89" y="106.52" transform="matrix(-1 -1.224647e-16 1.224647e-16 -1 679.9175 245.1892)" class="st2" width="32.14" height="32.14"/>
					<path class="st1" d="M356.03,143.67h-32.14c-2.76,0-5.01-2.24-5.01-5.01v-32.14c0-2.76,2.24-5.01,5.01-5.01h32.14
						c2.76,0,5.01,2.24,5.01,5.01v32.14C361.03,141.43,358.79,143.67,356.03,143.67z M328.89,133.66h22.13v-22.13h-22.13V133.66z"/>
				</g>
			</g>
		</g>
	</g>
	<g>
		<line class="st2" x1="244.77" y1="74.17" x2="256.31" y2="5.01"/>
		<path class="st1" d="M244.77,79.17c-0.27,0-0.55-0.02-0.83-0.07c-2.73-0.46-4.57-3.03-4.11-5.76l11.54-69.16
			c0.45-2.73,3.03-4.57,5.76-4.11c2.73,0.46,4.57,3.03,4.11,5.76l-11.54,69.16C249.3,77.44,247.18,79.17,244.77,79.17z"/>
	</g>
	<g>
		<line class="st2" x1="372.34" y1="74.17" x2="358.5" y2="5.01"/>
		<path class="st1" d="M372.34,79.17c-2.34,0-4.43-1.65-4.9-4.02L353.59,5.99c-0.54-2.71,1.21-5.35,3.93-5.89
			c2.71-0.54,5.35,1.21,5.89,3.93l13.84,69.16c0.54,2.71-1.21,5.35-3.93,5.89C373,79.14,372.67,79.17,372.34,79.17z"/>
	</g>
	<g>
		<line class="st2" x1="189.51" y1="439.37" x2="433.87" y2="439.37"/>
		<path class="st1" d="M433.87,444.38H189.51c-2.76,0-5.01-2.24-5.01-5.01s2.24-5.01,5.01-5.01h244.35c2.76,0,5.01,2.24,5.01,5.01
			S436.63,444.38,433.87,444.38z"/>
	</g>
	<g>
		<line class="st2" x1="214.89" y1="419.51" x2="408.49" y2="419.51"/>
		<path class="st1" d="M408.49,424.52h-193.6c-2.76,0-5.01-2.24-5.01-5.01s2.24-5.01,5.01-5.01h193.6c2.76,0,5.01,2.24,5.01,5.01
			S411.26,424.52,408.49,424.52z"/>
	</g>
	<g>
		<line class="st2" x1="239.2" y1="399.65" x2="383.92" y2="399.65"/>
		<path class="st1" d="M383.92,404.65H239.2c-2.76,0-5.01-2.24-5.01-5.01s2.24-5.01,5.01-5.01h144.72c2.76,0,5.01,2.24,5.01,5.01
			S386.69,404.65,383.92,404.65z"/>
	</g>
</g>
</svg>
