<?xml version="1.0" encoding="utf-8"?>
<!-- Generator: Adobe Illustrator 24.3.0, SVG Export Plug-In . SVG Version: 6.00 Build 0)  -->
<svg version="1.1" id="Layer_1" xmlns="http://www.w3.org/2000/svg" xmlns:xlink="http://www.w3.org/1999/xlink" x="0px" y="0px"
	 viewBox="0 0 4554.13 2339.43" style="enable-background:new 0 0 4554.13 2339.43;" xml:space="preserve">
<style type="text/css">
	.st0{fill:#A2DFFF;}
	.st1{fill:#E0F4FC;}
</style>
<g>
	<path class="st0" d="M4522.68,1364.52l-16.16-1.69c0,0-0.01,0-0.01,0c-89.97-9.88-154.93,10.02-193.58,28.46
		c-19.53,9.32-34.48,19.16-45.03,27.17v-186.29c1.23,0.46,2.53,0.69,3.84,0.69c2.09,0,4.19-0.59,6.06-1.83
		c5.07-3.35,6.45-10.18,3.1-15.24c-4.07-6.15-9.64-11.89-16.48-17.17c-0.28-0.27-0.58-0.52-0.89-0.76
		c-24.52-18.54-64.17-30.65-108.82-33.67c-0.06,0-0.13-0.01-0.19-0.01c-1.46-0.1-2.92-0.19-4.39-0.26c-0.6-0.03-1.2-0.07-1.8-0.1
		c-0.65-0.03-1.31-0.06-1.96-0.09c-0.91-0.04-1.82-0.07-2.74-0.1c-0.45-0.01-0.89-0.03-1.34-0.05c-1.37-0.04-2.74-0.07-4.11-0.09
		c-0.38-0.01-0.75-0.01-1.13-0.02c-1.46-0.02-2.92-0.03-4.39-0.03s-2.93,0.01-4.39,0.03c-0.38,0.01-0.75,0.01-1.13,0.02
		c-1.37,0.02-2.74,0.05-4.11,0.09c-0.45,0.01-0.89,0.03-1.34,0.05c-0.91,0.03-1.82,0.06-2.73,0.1c-0.65,0.03-1.31,0.05-1.96,0.09
		c-0.61,0.03-1.23,0.06-1.84,0.1c-1.45,0.08-2.9,0.16-4.35,0.26c-0.07,0-0.14,0.01-0.21,0.01c-44.65,3.02-84.3,15.12-108.81,33.67
		c-0.31,0.24-0.61,0.49-0.89,0.76c-6.84,5.27-12.41,11.02-16.48,17.17c-3.35,5.07-1.97,11.89,3.1,15.24
		c1.87,1.24,3.98,1.83,6.06,1.83c1.31,0,2.61-0.24,3.84-0.69v186.29c-10.55-8.01-25.5-17.85-45.03-27.17
		c-38.65-18.44-103.62-38.34-193.58-28.46c0,0-0.01,0-0.01,0l-16.16,1.69c-6.04,0.63-10.43,6.04-9.79,12.09
		c0.59,5.65,5.37,9.86,10.93,9.86c0.38,0,0.77-0.02,1.16-0.06l4.01-0.42v153.96h-119.3v-54.35v-45.02v-42.79v-45.02v-42.79v-45.02
		v-133.07c0-6.08-4.92-11-11-11h-70.03l-106.59-87.11c-1.96-1.61-4.42-2.48-6.96-2.48h-102.58c-2.39,0-4.71,0.78-6.62,2.22
		l-115.92,87.38h-70.28c-6.08,0-11,4.92-11,11v133.07v45.02v42.79v45.02v42.79v45.02v54.35h-113.68v-207.07c0-6.08-4.92-11-11-11
		h-142.61v-130.05c0-6.08-4.92-11-11-11h-88.19l-38.28-59.51v-109.49c0-2.99-1.22-5.85-3.37-7.92l-93.48-90.04v-61.87
		c0-6.08-4.92-11-11-11s-11,4.92-11,11v61.87l-93.48,90.04c-2.15,2.07-3.37,4.93-3.37,7.92v104.32c-0.95,0.8-1.78,1.74-2.43,2.85
		l-36.16,61.83h-87.88c-6.08,0-11,4.92-11,11v130.05h-131.61v-530.1c0-5.54-4.13-10.22-9.63-10.91
		c-55.53-6.98-108.92-5.36-158.7,4.82c-39.95,8.17-77.67,21.84-112.1,40.62c-31.67,17.28-54.6,35.61-69.25,49.11V522.74
		c0-3.19-1.39-6.23-3.8-8.32c-39.44-34.12-107.49-54.49-182.03-54.49s-142.59,20.37-182.03,54.49c-2.42,2.09-3.8,5.12-3.8,8.32
		V875.4c-14.64-13.5-37.58-31.83-69.25-49.11c-34.43-18.79-72.15-32.46-112.1-40.62c-49.78-10.18-103.18-11.8-158.7-4.82
		c-5.5,0.69-9.63,5.37-9.63,10.91v1175h-49.72v-160.79v-68.24v-221.92v-68.24v-221.92v-68.24V985.63c0-6.08-4.92-11-11-11h-94.17
		V854.79c0-6.08-4.92-11-11-11H955.9V729.89c0-6.08-4.92-11-11-11H827.58V571.32c0-6.08-4.92-11-11-11s-11,4.92-11,11v147.57H688.27
		c-6.08,0-11,4.92-11,11v113.89h-46.33c-6.08,0-11,4.92-11,11v119.85h-94.17c-6.08,0-11,4.92-11,11v171.79v68.24v221.92v68.24
		v221.92v68.24v160.79h-57.63c-6.08,0-11,4.92-11,11v350.66c0,6.08,4.92,11,11,11h68.63h110.78h124.64h110.79h124.64h110.79h68.63
		h3.09h349.67h94.77h160.13h94.77h349.67h775.84h750.34c0.97,0,1.91-0.14,2.81-0.38c0.9,0.24,1.84,0.38,2.81,0.38h248.48h248.48
		h248.48c6.08,0,11-4.92,11-11v-942.46l4.01,0.42c0.39,0.04,0.78,0.06,1.16,0.06c5.56,0,10.33-4.2,10.93-9.86
		C4533.11,1370.56,4528.73,1365.15,4522.68,1364.52z M4019.42,1212.32c0.08-0.05,0.16-0.11,0.24-0.16c0.54-0.36,1.09-0.71,1.65-1.06
		c0.39-0.25,0.79-0.49,1.19-0.73c0.48-0.29,0.95-0.58,1.44-0.86c0.6-0.35,1.22-0.7,1.84-1.05c0.33-0.19,0.66-0.37,0.99-0.56
		c1.01-0.55,2.03-1.09,3.08-1.63c0.14-0.07,0.28-0.14,0.42-0.21c0.93-0.47,1.88-0.93,2.84-1.39c0.29-0.14,0.59-0.27,0.88-0.41
		c0.83-0.39,1.67-0.77,2.52-1.14c0.35-0.15,0.7-0.31,1.05-0.46c0.83-0.36,1.67-0.71,2.52-1.06c0.37-0.15,0.73-0.31,1.1-0.46
		c1.09-0.44,2.19-0.87,3.31-1.29c0.79-0.3,1.59-0.59,2.39-0.87c0.34-0.12,0.68-0.25,1.02-0.37c0.92-0.32,1.85-0.64,2.78-0.95
		c0.2-0.07,0.4-0.13,0.61-0.2c20.71-6.84,45.61-11.05,71.79-11.88c0.81-0.02,1.62-0.05,2.43-0.07c0.72-0.02,1.44-0.03,2.16-0.05
		c1.65-0.03,3.31-0.04,4.97-0.04s3.32,0.02,4.97,0.04c0.72,0.01,1.44,0.03,2.16,0.05c0.81,0.02,1.62,0.04,2.43,0.07
		c26.19,0.83,51.1,5.04,71.82,11.89c0.18,0.06,0.36,0.12,0.54,0.18c0.95,0.32,1.9,0.64,2.83,0.97c0.31,0.11,0.62,0.22,0.93,0.33
		c0.92,0.33,1.83,0.66,2.74,1c1.02,0.39,2.04,0.78,3.03,1.18c0.4,0.16,0.78,0.32,1.18,0.49c0.82,0.34,1.64,0.68,2.44,1.02
		c0.37,0.16,0.73,0.32,1.1,0.48c0.83,0.37,1.65,0.74,2.46,1.12c0.31,0.14,0.62,0.29,0.93,0.43c0.94,0.45,1.86,0.9,2.77,1.35
		c0.16,0.08,0.33,0.16,0.49,0.24c1.04,0.53,2.06,1.07,3.06,1.61c0.36,0.2,0.7,0.4,1.05,0.59c0.6,0.33,1.19,0.67,1.77,1.01
		c0.5,0.29,0.99,0.59,1.48,0.89c0.39,0.24,0.77,0.47,1.15,0.71c0.57,0.36,1.13,0.71,1.68,1.08c0.08,0.05,0.15,0.1,0.22,0.15v42.13
		h-226.48V1212.32z M3607.64,1253.94h-111.26c-6.08,0-11,4.92-11,11s4.92,11,11,11h111.26v34.02v31.79h-111.26
		c-6.08,0-11,4.92-11,11s4.92,11,11,11h111.26v34.02v31.79h-111.26c-6.08,0-11,4.92-11,11s4.92,11,11,11h111.26v34.02v54.35h-170.86
		v-331.17h170.86V1253.94z M3336.16,1053.28h94.97l82.71,67.59h-267.36L3336.16,1053.28z M3213.62,1142.88h331.07h62.96v43.89
		h-181.86c-6.08,0-11,4.92-11,11v342.17h-71.26v-342.17c0-6.08-4.92-11-11-11h-181.86v-43.89H3213.62z M3150.66,1485.58v-34.02
		h111.26c6.08,0,11-4.92,11-11s-4.92-11-11-11h-111.26v-31.79v-34.02h111.26c6.08,0,11-4.92,11-11s-4.92-11-11-11h-111.26v-31.79
		v-34.02h111.26c6.08,0,11-4.92,11-11s-4.92-11-11-11h-111.26v-45.18h170.86v331.17h-170.86V1485.58z M3139.66,1561.94h478.98
		h124.68v55.67h-317.54c-6.08,0-11,4.92-11,11v688.83h-71.26v-688.83c0-6.08-4.92-11-11-11h-317.54v-55.67H3139.66z
		 M2736.03,1180.82h-108.97v-45.28h79.85L2736.03,1180.82z M2701.91,1016.5v97.04h-74.85V944.4L2701.91,1016.5z M2530.21,1016.5
		l74.85-72.1v169.14h-74.85V1016.5z M2521.59,1135.54h83.47v45.28h-109.95L2521.59,1135.54z M2392.75,1202.82h83.19h280.24h83.19
		v119.05h-446.63V1202.82z M1970.24,845.07c32.46-17.58,68.03-30.36,105.73-38c44.33-8.98,91.77-10.83,141.16-5.51v531.31v874.87
		h-327.67v-181.59V906.67C1897.25,897.92,1924.05,870.09,1970.24,845.07z M1539.8,902.6V628.44h327.67V902.6v1112.55H1539.8V902.6z
		 M1703.63,481.93c65.97,0,128.09,17.52,163.84,45.97v78.53H1539.8V527.9C1575.54,499.45,1637.66,481.93,1703.63,481.93z
		 M1331.28,807.07c37.7,7.63,73.27,20.42,105.73,38c46.21,25.02,73.01,52.87,80.78,61.6v1119.48v181.59h-327.67V801.56
		C1239.51,796.25,1286.95,798.1,1331.28,807.07z M536.76,1168.42h84.67v46.24h-84.67V1168.42z M643.43,996.63H744.2v149.79H643.43
		V996.63z M866.97,996.63v149.79H766.2V996.63H866.97z M989.73,996.63v149.79H888.97V996.63H989.73z M536.76,1458.58h84.67v46.24
		h-84.67V1458.58z M643.43,1458.58H744.2v46.24H643.43V1458.58z M866.97,1236.66v199.92H766.2v-199.92H866.97z M766.2,1214.66
		v-46.24h100.77v46.24H766.2z M1011.73,1526.82h84.67v199.92h-84.67V1526.82z M989.73,1726.74H888.97v-199.92h100.77V1726.74z
		 M1096.4,1504.82h-84.67v-46.24h84.67V1504.82z M989.73,1504.82H888.97v-46.24h100.77V1504.82z M866.97,1504.82H766.2v-46.24
		h100.77V1504.82z M888.97,1436.58v-199.92h100.77v199.92H888.97z M744.2,1436.58H643.43v-199.92H744.2V1436.58z M744.2,1526.82
		v199.92H643.43v-199.92H744.2z M766.2,1526.82h100.77v199.92H766.2V1526.82z M866.97,1748.74v46.24H766.2v-46.24H866.97z
		 M888.97,1748.74h100.77v46.24H888.97V1748.74z M1011.73,1748.74h84.67v46.24h-84.67V1748.74z M1096.4,1436.58h-84.67v-199.92
		h84.67V1436.58z M1096.4,1214.66h-84.67v-46.24h84.67V1214.66z M989.73,1214.66H888.97v-46.24h100.77V1214.66z M744.2,1168.42
		v46.24H643.43v-46.24H744.2z M621.43,1236.66v199.92h-84.67v-199.92H621.43z M536.76,1526.82h84.67v199.92h-84.67V1526.82z
		 M536.76,1748.74h84.67v46.24h-84.67V1748.74z M643.43,1748.74H744.2v46.24H643.43V1748.74z M744.2,1816.98v149.79H643.43v-149.79
		H744.2z M766.2,1816.98h100.77v149.79H766.2V1816.98z M888.97,1816.98h100.77v149.79H888.97V1816.98z M1011.73,1816.98h84.67
		v149.79h-84.67V1816.98z M1096.4,1146.42h-84.67V996.63h84.67V1146.42z M699.27,740.89H933.9v102.89H699.27V740.89z M641.94,865.79
		h46.33H944.9h46.33v108.85H641.94V865.79z M621.43,996.63v149.79h-84.67V996.63H621.43z M536.76,1816.98h84.67v149.79h-84.67
		V1816.98z M468.14,1988.77h57.63h581.64h57.63v229.96v98.7h-46.63v-254.72c0-6.08-4.92-11-11-11H996.62c-6.08,0-11,4.92-11,11
		v254.72H882.98v-254.72c0-6.08-4.92-11-11-11H761.19c-6.08,0-11,4.92-11,11v254.72H647.55v-254.72c0-6.08-4.92-11-11-11H525.76
		c-6.08,0-11,4.92-11,11v254.72h-46.63V1988.77z M536.76,2317.43v-243.72h88.78v243.72H536.76z M772.19,2317.43v-243.72h88.79
		v243.72H772.19z M1007.62,2317.43v-243.72h88.79v243.72H1007.62z M1190.12,2229.74h327.67v87.7h-327.67V2229.74z M1539.8,2218.74
		v-181.59h327.67v181.59v98.7h-72.77V2088.5c0-6.08-4.92-11-11-11h-160.13c-6.08,0-11,4.92-11,11v228.93h-72.77V2218.74z
		 M1634.57,2317.43V2099.5h138.13v217.93H1634.57z M1889.47,2229.74h327.67v87.7h-327.67V2229.74z M2239.14,2218.74v-874.87h142.61
		h468.63h142.61v207.07v216.38v45.96v43.12v45.96v43.12v45.96v43.12v45.96v43.12v45.96v43.12v45.96v58.77h-753.84V2218.74z
		 M3014.98,2258.67v-34.96h251.41c6.08,0,11-4.92,11-11s-4.92-11-11-11h-251.41v-32.12v-34.96h251.41c6.08,0,11-4.92,11-11
		s-4.92-11-11-11h-251.41v-32.12v-34.96h251.41c6.08,0,11-4.92,11-11s-4.92-11-11-11h-251.41v-32.12v-34.96h251.41
		c6.08,0,11-4.92,11-11s-4.92-11-11-11h-251.41v-32.12v-34.96h251.41c6.08,0,11-4.92,11-11s-4.92-11-11-11h-251.41v-32.12v-34.96
		h251.41c6.08,0,11-4.92,11-11s-4.92-11-11-11h-251.41v-116.7h306.54v677.83h-306.54V2258.67z M3743.33,2317.43h-306.54v-677.83
		h306.54v116.7h-251.41c-6.08,0-11,4.92-11,11s4.92,11,11,11h251.41v34.96v32.12h-251.41c-6.08,0-11,4.92-11,11s4.92,11,11,11
		h251.41v34.96v32.12h-251.41c-6.08,0-11,4.92-11,11s4.92,11,11,11h251.41v34.96v32.12h-251.41c-6.08,0-11,4.92-11,11s4.92,11,11,11
		h251.41v34.96v32.12h-251.41c-6.08,0-11,4.92-11,11s4.92,11,11,11h251.41v34.96v32.12h-251.41c-6.08,0-11,4.92-11,11s4.92,11,11,11
		h251.41v34.96V2317.43z M3770.94,1383.74c79.15-6.87,136.36,10.61,170.88,26.89c30.45,14.36,48.91,30.23,55.6,36.56v870.25h-226.48
		V1383.74z M4019.42,1442.62v-166.17h226.48v166.17v874.81h-226.48V1442.62z M4494.38,2317.43H4267.9v-870.25
		c6.7-6.34,25.16-22.21,55.6-36.56c34.52-16.28,91.73-33.76,170.88-26.89V2317.43z"/>
	<path class="st0" d="M4090.52,1604.05c-6.08,0-11,4.92-11,11v675.89c0,6.08,4.92,11,11,11c6.07,0,11-4.92,11-11v-675.89
		C4101.52,1608.98,4096.59,1604.05,4090.52,1604.05z"/>
	<path class="st0" d="M4174.8,1604.05c-6.08,0-11,4.92-11,11v675.89c0,6.08,4.92,11,11,11s11-4.92,11-11v-675.89
		C4185.8,1608.98,4180.88,1604.05,4174.8,1604.05z"/>
	<path class="st0" d="M3882.77,1436.54c-6.08,0-11,4.92-11,11v843.41c0,6.08,4.92,11,11,11s11-4.92,11-11v-843.41
		C3893.77,1441.46,3888.84,1436.54,3882.77,1436.54z"/>
	<path class="st0" d="M4390.12,1436.54c-6.08,0-11,4.92-11,11v843.41c0,6.08,4.92,11,11,11s11-4.92,11-11v-843.41
		C4401.12,1441.46,4396.19,1436.54,4390.12,1436.54z"/>
	<path class="st0" d="M1584.93,862.8h47.42c6.08,0,11-4.92,11-11V710.35c0-6.08-4.92-11-11-11h-47.42c-6.08,0-11,4.92-11,11V851.8
		C1573.93,857.88,1578.85,862.8,1584.93,862.8z M1595.93,721.35h25.42V840.8h-25.42V721.35z"/>
	<path class="st0" d="M1727.34,699.35h-47.42c-6.08,0-11,4.92-11,11V851.8c0,6.08,4.92,11,11,11h47.42c6.08,0,11-4.92,11-11V710.35
		C1738.34,704.27,1733.42,699.35,1727.34,699.35z M1716.34,840.8h-25.42V721.35h25.42V840.8z"/>
	<path class="st0" d="M1822.34,699.35h-47.42c-6.08,0-11,4.92-11,11V851.8c0,6.08,4.92,11,11,11h47.42c6.08,0,11-4.92,11-11V710.35
		C1833.34,704.27,1828.41,699.35,1822.34,699.35z M1811.34,840.8h-25.42V721.35h25.42V840.8z"/>
	<path class="st0" d="M1643.35,1092.29V950.84c0-6.08-4.92-11-11-11h-47.42c-6.08,0-11,4.92-11,11v141.46c0,6.08,4.92,11,11,11
		h47.42C1638.42,1103.29,1643.35,1098.37,1643.35,1092.29z M1621.35,1081.29h-25.42V961.84h25.42V1081.29z"/>
	<path class="st0" d="M1727.34,939.84h-47.42c-6.08,0-11,4.92-11,11v141.46c0,6.08,4.92,11,11,11h47.42c6.08,0,11-4.92,11-11V950.84
		C1738.34,944.76,1733.42,939.84,1727.34,939.84z M1716.34,1081.29h-25.42V961.84h25.42V1081.29z"/>
	<path class="st0" d="M1822.34,939.84h-47.42c-6.08,0-11,4.92-11,11v141.46c0,6.08,4.92,11,11,11h47.42c6.08,0,11-4.92,11-11V950.84
		C1833.34,944.76,1828.41,939.84,1822.34,939.84z M1811.34,1081.29h-25.42V961.84h25.42V1081.29z"/>
	<path class="st0" d="M1647.64,1201.18h-37.25c-6.08,0-11,4.92-11,11v60.41c0,6.08,4.92,11,11,11h37.25c6.08,0,11-4.92,11-11v-60.41
		C1658.64,1206.1,1653.72,1201.18,1647.64,1201.18z M1636.64,1261.59h-15.25v-38.41h15.25V1261.59z"/>
	<path class="st0" d="M1722.26,1201.18h-37.25c-6.08,0-11,4.92-11,11v60.41c0,6.08,4.92,11,11,11h37.25c6.08,0,11-4.92,11-11v-60.41
		C1733.26,1206.1,1728.33,1201.18,1722.26,1201.18z M1711.26,1261.59h-15.25v-38.41h15.25V1261.59z"/>
	<path class="st0" d="M1796.87,1201.18h-37.25c-6.08,0-11,4.92-11,11v60.41c0,6.08,4.92,11,11,11h37.25c6.08,0,11-4.92,11-11v-60.41
		C1807.87,1206.1,1802.95,1201.18,1796.87,1201.18z M1785.87,1261.59h-15.25v-38.41h15.25V1261.59z"/>
	<path class="st0" d="M1647.64,1364.31h-37.25c-6.08,0-11,4.92-11,11v60.41c0,6.08,4.92,11,11,11h37.25c6.08,0,11-4.92,11-11v-60.41
		C1658.64,1369.23,1653.72,1364.31,1647.64,1364.31z M1636.64,1424.72h-15.25v-38.41h15.25V1424.72z"/>
	<path class="st0" d="M1722.26,1364.31h-37.25c-6.08,0-11,4.92-11,11v60.41c0,6.08,4.92,11,11,11h37.25c6.08,0,11-4.92,11-11v-60.41
		C1733.26,1369.23,1728.33,1364.31,1722.26,1364.31z M1711.26,1424.72h-15.25v-38.41h15.25V1424.72z"/>
	<path class="st0" d="M1796.87,1364.31h-37.25c-6.08,0-11,4.92-11,11v60.41c0,6.08,4.92,11,11,11h37.25c6.08,0,11-4.92,11-11v-60.41
		C1807.87,1369.23,1802.95,1364.31,1796.87,1364.31z M1785.87,1424.72h-15.25v-38.41h15.25V1424.72z"/>
	<path class="st0" d="M1647.64,1527.44h-37.25c-6.08,0-11,4.92-11,11v60.41c0,6.08,4.92,11,11,11h37.25c6.08,0,11-4.92,11-11v-60.41
		C1658.64,1532.37,1653.72,1527.44,1647.64,1527.44z M1636.64,1587.85h-15.25v-38.41h15.25V1587.85z"/>
	<path class="st0" d="M1722.26,1527.44h-37.25c-6.08,0-11,4.92-11,11v60.41c0,6.08,4.92,11,11,11h37.25c6.08,0,11-4.92,11-11v-60.41
		C1733.26,1532.37,1728.33,1527.44,1722.26,1527.44z M1711.26,1587.85h-15.25v-38.41h15.25V1587.85z"/>
	<path class="st0" d="M1796.87,1527.44h-37.25c-6.08,0-11,4.92-11,11v60.41c0,6.08,4.92,11,11,11h37.25c6.08,0,11-4.92,11-11v-60.41
		C1807.87,1532.37,1802.95,1527.44,1796.87,1527.44z M1785.87,1587.85h-15.25v-38.41h15.25V1587.85z"/>
	<path class="st0" d="M1647.64,1690.57h-37.25c-6.08,0-11,4.92-11,11v60.41c0,6.08,4.92,11,11,11h37.25c6.08,0,11-4.92,11-11v-60.41
		C1658.64,1695.5,1653.72,1690.57,1647.64,1690.57z M1636.64,1750.98h-15.25v-38.41h15.25V1750.98z"/>
	<path class="st0" d="M1722.26,1690.57h-37.25c-6.08,0-11,4.92-11,11v60.41c0,6.08,4.92,11,11,11h37.25c6.08,0,11-4.92,11-11v-60.41
		C1733.26,1695.5,1728.33,1690.57,1722.26,1690.57z M1711.26,1750.98h-15.25v-38.41h15.25V1750.98z"/>
	<path class="st0" d="M1796.87,1690.57h-37.25c-6.08,0-11,4.92-11,11v60.41c0,6.08,4.92,11,11,11h37.25c6.08,0,11-4.92,11-11v-60.41
		C1807.87,1695.5,1802.95,1690.57,1796.87,1690.57z M1785.87,1750.98h-15.25v-38.41h15.25V1750.98z"/>
	<path class="st0" d="M1647.64,1853.7h-37.25c-6.08,0-11,4.92-11,11v60.41c0,6.08,4.92,11,11,11h37.25c6.08,0,11-4.92,11-11v-60.41
		C1658.64,1858.63,1653.72,1853.7,1647.64,1853.7z M1636.64,1914.11h-15.25v-38.41h15.25V1914.11z"/>
	<path class="st0" d="M1722.26,1853.7h-37.25c-6.08,0-11,4.92-11,11v60.41c0,6.08,4.92,11,11,11h37.25c6.08,0,11-4.92,11-11v-60.41
		C1733.26,1858.63,1728.33,1853.7,1722.26,1853.7z M1711.26,1914.11h-15.25v-38.41h15.25V1914.11z"/>
	<path class="st0" d="M1796.87,1853.7h-37.25c-6.08,0-11,4.92-11,11v60.41c0,6.08,4.92,11,11,11h37.25c6.08,0,11-4.92,11-11v-60.41
		C1807.87,1858.63,1802.95,1853.7,1796.87,1853.7z M1785.87,1914.11h-15.25v-38.41h15.25V1914.11z"/>
	<path class="st0" d="M1262.41,1446.72h37.25c6.08,0,11-4.92,11-11v-60.41c0-6.08-4.92-11-11-11h-37.25c-6.08,0-11,4.92-11,11v60.41
		C1251.41,1441.79,1256.34,1446.72,1262.41,1446.72z M1273.41,1386.31h15.25v38.41h-15.25V1386.31z"/>
	<path class="st0" d="M1337.03,1446.72h37.25c6.08,0,11-4.92,11-11v-60.41c0-6.08-4.92-11-11-11h-37.25c-6.08,0-11,4.92-11,11v60.41
		C1326.03,1441.79,1330.95,1446.72,1337.03,1446.72z M1348.03,1386.31h15.25v38.41h-15.25V1386.31z"/>
	<path class="st0" d="M1411.64,1446.72h37.25c6.08,0,11-4.92,11-11v-60.41c0-6.08-4.92-11-11-11h-37.25c-6.08,0-11,4.92-11,11v60.41
		C1400.64,1441.79,1405.57,1446.72,1411.64,1446.72z M1422.64,1386.31h15.25v38.41h-15.25V1386.31z"/>
	<path class="st0" d="M1262.41,1609.85h37.25c6.08,0,11-4.92,11-11v-60.41c0-6.08-4.92-11-11-11h-37.25c-6.08,0-11,4.92-11,11v60.41
		C1251.41,1604.92,1256.34,1609.85,1262.41,1609.85z M1273.41,1549.44h15.25v38.41h-15.25V1549.44z"/>
	<path class="st0" d="M1337.03,1609.85h37.25c6.08,0,11-4.92,11-11v-60.41c0-6.08-4.92-11-11-11h-37.25c-6.08,0-11,4.92-11,11v60.41
		C1326.03,1604.92,1330.95,1609.85,1337.03,1609.85z M1348.03,1549.44h15.25v38.41h-15.25V1549.44z"/>
	<path class="st0" d="M1411.64,1609.85h37.25c6.08,0,11-4.92,11-11v-60.41c0-6.08-4.92-11-11-11h-37.25c-6.08,0-11,4.92-11,11v60.41
		C1400.64,1604.92,1405.57,1609.85,1411.64,1609.85z M1422.64,1549.44h15.25v38.41h-15.25V1549.44z"/>
	<path class="st0" d="M1262.41,1772.98h37.25c6.08,0,11-4.92,11-11v-60.41c0-6.08-4.92-11-11-11h-37.25c-6.08,0-11,4.92-11,11v60.41
		C1251.41,1768.05,1256.34,1772.98,1262.41,1772.98z M1273.41,1712.57h15.25v38.41h-15.25V1712.57z"/>
	<path class="st0" d="M1337.03,1772.98h37.25c6.08,0,11-4.92,11-11v-60.41c0-6.08-4.92-11-11-11h-37.25c-6.08,0-11,4.92-11,11v60.41
		C1326.03,1768.05,1330.95,1772.98,1337.03,1772.98z M1348.03,1712.57h15.25v38.41h-15.25V1712.57z"/>
	<path class="st0" d="M1411.64,1772.98h37.25c6.08,0,11-4.92,11-11v-60.41c0-6.08-4.92-11-11-11h-37.25c-6.08,0-11,4.92-11,11v60.41
		C1400.64,1768.05,1405.57,1772.98,1411.64,1772.98z M1422.64,1712.57h15.25v38.41h-15.25V1712.57z"/>
	<path class="st0" d="M1262.41,1936.11h37.25c6.08,0,11-4.92,11-11v-60.41c0-6.08-4.92-11-11-11h-37.25c-6.08,0-11,4.92-11,11v60.41
		C1251.41,1931.19,1256.34,1936.11,1262.41,1936.11z M1273.41,1875.7h15.25v38.41h-15.25V1875.7z"/>
	<path class="st0" d="M1337.03,1936.11h37.25c6.08,0,11-4.92,11-11v-60.41c0-6.08-4.92-11-11-11h-37.25c-6.08,0-11,4.92-11,11v60.41
		C1326.03,1931.19,1330.95,1936.11,1337.03,1936.11z M1348.03,1875.7h15.25v38.41h-15.25V1875.7z"/>
	<path class="st0" d="M1411.64,1936.11h37.25c6.08,0,11-4.92,11-11v-60.41c0-6.08-4.92-11-11-11h-37.25c-6.08,0-11,4.92-11,11v60.41
		C1400.64,1931.19,1405.57,1936.11,1411.64,1936.11z M1422.64,1875.7h15.25v38.41h-15.25V1875.7z"/>
	<path class="st0" d="M1262.41,2099.24h37.25c6.08,0,11-4.92,11-11v-60.41c0-6.08-4.92-11-11-11h-37.25c-6.08,0-11,4.92-11,11v60.41
		C1251.41,2094.32,1256.34,2099.24,1262.41,2099.24z M1273.41,2038.83h15.25v38.41h-15.25V2038.83z"/>
	<path class="st0" d="M1337.03,2099.24h37.25c6.08,0,11-4.92,11-11v-60.41c0-6.08-4.92-11-11-11h-37.25c-6.08,0-11,4.92-11,11v60.41
		C1326.03,2094.32,1330.95,2099.24,1337.03,2099.24z M1348.03,2038.83h15.25v38.41h-15.25V2038.83z"/>
	<path class="st0" d="M1411.64,2099.24h37.25c6.08,0,11-4.92,11-11v-60.41c0-6.08-4.92-11-11-11h-37.25c-6.08,0-11,4.92-11,11v60.41
		C1400.64,2094.32,1405.57,2099.24,1411.64,2099.24z M1422.64,2038.83h15.25v38.41h-15.25V2038.83z"/>
	<path class="st0" d="M1262.41,1120.46h37.25c6.08,0,11-4.92,11-11v-60.41c0-6.08-4.92-11-11-11h-37.25c-6.08,0-11,4.92-11,11v60.41
		C1251.41,1115.53,1256.34,1120.46,1262.41,1120.46z M1273.41,1060.05h15.25v38.41h-15.25V1060.05z"/>
	<path class="st0" d="M1337.03,1120.46h37.25c6.08,0,11-4.92,11-11v-60.41c0-6.08-4.92-11-11-11h-37.25c-6.08,0-11,4.92-11,11v60.41
		C1326.03,1115.53,1330.95,1120.46,1337.03,1120.46z M1348.03,1060.05h15.25v38.41h-15.25V1060.05z"/>
	<path class="st0" d="M1411.64,1120.46h37.25c6.08,0,11-4.92,11-11v-60.41c0-6.08-4.92-11-11-11h-37.25c-6.08,0-11,4.92-11,11v60.41
		C1400.64,1115.53,1405.57,1120.46,1411.64,1120.46z M1422.64,1060.05h15.25v38.41h-15.25V1060.05z"/>
	<path class="st0" d="M1262.41,1283.59h37.25c6.08,0,11-4.92,11-11v-60.41c0-6.08-4.92-11-11-11h-37.25c-6.08,0-11,4.92-11,11v60.41
		C1251.41,1278.66,1256.34,1283.59,1262.41,1283.59z M1273.41,1223.18h15.25v38.41h-15.25V1223.18z"/>
	<path class="st0" d="M1337.03,1283.59h37.25c6.08,0,11-4.92,11-11v-60.41c0-6.08-4.92-11-11-11h-37.25c-6.08,0-11,4.92-11,11v60.41
		C1326.03,1278.66,1330.95,1283.59,1337.03,1283.59z M1348.03,1223.18h15.25v38.41h-15.25V1223.18z"/>
	<path class="st0" d="M1411.64,1283.59h37.25c6.08,0,11-4.92,11-11v-60.41c0-6.08-4.92-11-11-11h-37.25c-6.08,0-11,4.92-11,11v60.41
		C1400.64,1278.66,1405.57,1283.59,1411.64,1283.59z M1422.64,1223.18h15.25v38.41h-15.25V1223.18z"/>
	<path class="st0" d="M1958.37,1446.72h37.25c6.08,0,11-4.92,11-11v-60.41c0-6.08-4.92-11-11-11h-37.25c-6.08,0-11,4.92-11,11v60.41
		C1947.37,1441.79,1952.29,1446.72,1958.37,1446.72z M1969.37,1386.31h15.25v38.41h-15.25V1386.31z"/>
	<path class="st0" d="M2032.98,1446.72h37.25c6.08,0,11-4.92,11-11v-60.41c0-6.08-4.92-11-11-11h-37.25c-6.08,0-11,4.92-11,11v60.41
		C2021.98,1441.79,2026.91,1446.72,2032.98,1446.72z M2043.98,1386.31h15.25v38.41h-15.25V1386.31z"/>
	<path class="st0" d="M2107.6,1446.72h37.25c6.08,0,11-4.92,11-11v-60.41c0-6.08-4.92-11-11-11h-37.25c-6.08,0-11,4.92-11,11v60.41
		C2096.6,1441.79,2101.52,1446.72,2107.6,1446.72z M2118.6,1386.31h15.25v38.41h-15.25V1386.31z"/>
	<path class="st0" d="M1958.37,1609.85h37.25c6.08,0,11-4.92,11-11v-60.41c0-6.08-4.92-11-11-11h-37.25c-6.08,0-11,4.92-11,11v60.41
		C1947.37,1604.92,1952.29,1609.85,1958.37,1609.85z M1969.37,1549.44h15.25v38.41h-15.25V1549.44z"/>
	<path class="st0" d="M2032.98,1609.85h37.25c6.08,0,11-4.92,11-11v-60.41c0-6.08-4.92-11-11-11h-37.25c-6.08,0-11,4.92-11,11v60.41
		C2021.98,1604.92,2026.91,1609.85,2032.98,1609.85z M2043.98,1549.44h15.25v38.41h-15.25V1549.44z"/>
	<path class="st0" d="M2107.6,1609.85h37.25c6.08,0,11-4.92,11-11v-60.41c0-6.08-4.92-11-11-11h-37.25c-6.08,0-11,4.92-11,11v60.41
		C2096.6,1604.92,2101.52,1609.85,2107.6,1609.85z M2118.6,1549.44h15.25v38.41h-15.25V1549.44z"/>
	<path class="st0" d="M1958.37,1772.98h37.25c6.08,0,11-4.92,11-11v-60.41c0-6.08-4.92-11-11-11h-37.25c-6.08,0-11,4.92-11,11v60.41
		C1947.37,1768.05,1952.29,1772.98,1958.37,1772.98z M1969.37,1712.57h15.25v38.41h-15.25V1712.57z"/>
	<path class="st0" d="M2032.98,1772.98h37.25c6.08,0,11-4.92,11-11v-60.41c0-6.08-4.92-11-11-11h-37.25c-6.08,0-11,4.92-11,11v60.41
		C2021.98,1768.05,2026.91,1772.98,2032.98,1772.98z M2043.98,1712.57h15.25v38.41h-15.25V1712.57z"/>
	<path class="st0" d="M2107.6,1772.98h37.25c6.08,0,11-4.92,11-11v-60.41c0-6.08-4.92-11-11-11h-37.25c-6.08,0-11,4.92-11,11v60.41
		C2096.6,1768.05,2101.52,1772.98,2107.6,1772.98z M2118.6,1712.57h15.25v38.41h-15.25V1712.57z"/>
	<path class="st0" d="M1958.37,1936.11h37.25c6.08,0,11-4.92,11-11v-60.41c0-6.08-4.92-11-11-11h-37.25c-6.08,0-11,4.92-11,11v60.41
		C1947.37,1931.19,1952.29,1936.11,1958.37,1936.11z M1969.37,1875.7h15.25v38.41h-15.25V1875.7z"/>
	<path class="st0" d="M2032.98,1936.11h37.25c6.08,0,11-4.92,11-11v-60.41c0-6.08-4.92-11-11-11h-37.25c-6.08,0-11,4.92-11,11v60.41
		C2021.98,1931.19,2026.91,1936.11,2032.98,1936.11z M2043.98,1875.7h15.25v38.41h-15.25V1875.7z"/>
	<path class="st0" d="M2107.6,1936.11h37.25c6.08,0,11-4.92,11-11v-60.41c0-6.08-4.92-11-11-11h-37.25c-6.08,0-11,4.92-11,11v60.41
		C2096.6,1931.19,2101.52,1936.11,2107.6,1936.11z M2118.6,1875.7h15.25v38.41h-15.25V1875.7z"/>
	<path class="st0" d="M1958.37,2099.24h37.25c6.08,0,11-4.92,11-11v-60.41c0-6.08-4.92-11-11-11h-37.25c-6.08,0-11,4.92-11,11v60.41
		C1947.37,2094.32,1952.29,2099.24,1958.37,2099.24z M1969.37,2038.83h15.25v38.41h-15.25V2038.83z"/>
	<path class="st0" d="M2032.98,2099.24h37.25c6.08,0,11-4.92,11-11v-60.41c0-6.08-4.92-11-11-11h-37.25c-6.08,0-11,4.92-11,11v60.41
		C2021.98,2094.32,2026.91,2099.24,2032.98,2099.24z M2043.98,2038.83h15.25v38.41h-15.25V2038.83z"/>
	<path class="st0" d="M2107.6,2099.24h37.25c6.08,0,11-4.92,11-11v-60.41c0-6.08-4.92-11-11-11h-37.25c-6.08,0-11,4.92-11,11v60.41
		C2096.6,2094.32,2101.52,2099.24,2107.6,2099.24z M2118.6,2038.83h15.25v38.41h-15.25V2038.83z"/>
	<path class="st0" d="M1958.37,1120.46h37.25c6.08,0,11-4.92,11-11v-60.41c0-6.08-4.92-11-11-11h-37.25c-6.08,0-11,4.92-11,11v60.41
		C1947.37,1115.53,1952.29,1120.46,1958.37,1120.46z M1969.37,1060.05h15.25v38.41h-15.25V1060.05z"/>
	<path class="st0" d="M2032.98,1120.46h37.25c6.08,0,11-4.92,11-11v-60.41c0-6.08-4.92-11-11-11h-37.25c-6.08,0-11,4.92-11,11v60.41
		C2021.98,1115.53,2026.91,1120.46,2032.98,1120.46z M2043.98,1060.05h15.25v38.41h-15.25V1060.05z"/>
	<path class="st0" d="M2107.6,1120.46h37.25c6.08,0,11-4.92,11-11v-60.41c0-6.08-4.92-11-11-11h-37.25c-6.08,0-11,4.92-11,11v60.41
		C2096.6,1115.53,2101.52,1120.46,2107.6,1120.46z M2118.6,1060.05h15.25v38.41h-15.25V1060.05z"/>
	<path class="st0" d="M1958.37,1283.59h37.25c6.08,0,11-4.92,11-11v-60.41c0-6.08-4.92-11-11-11h-37.25c-6.08,0-11,4.92-11,11v60.41
		C1947.37,1278.66,1952.29,1283.59,1958.37,1283.59z M1969.37,1223.18h15.25v38.41h-15.25V1223.18z"/>
	<path class="st0" d="M2032.98,1283.59h37.25c6.08,0,11-4.92,11-11v-60.41c0-6.08-4.92-11-11-11h-37.25c-6.08,0-11,4.92-11,11v60.41
		C2021.98,1278.66,2026.91,1283.59,2032.98,1283.59z M2043.98,1223.18h15.25v38.41h-15.25V1223.18z"/>
	<path class="st0" d="M2107.6,1283.59h37.25c6.08,0,11-4.92,11-11v-60.41c0-6.08-4.92-11-11-11h-37.25c-6.08,0-11,4.92-11,11v60.41
		C2096.6,1278.66,2101.52,1283.59,2107.6,1283.59z M2118.6,1223.18h15.25v38.41h-15.25V1223.18z"/>
	<path class="st0" d="M2318.31,1506.1h66.84c6.08,0,11-4.92,11-11v-86.12c0-6.08-4.92-11-11-11h-66.84c-6.08,0-11,4.92-11,11v86.12
		C2307.31,1501.18,2312.23,1506.1,2318.31,1506.1z M2329.31,1419.98h44.84v64.12h-44.84V1419.98z"/>
	<path class="st0" d="M2450.47,1506.1h66.84c6.08,0,11-4.92,11-11v-86.12c0-6.08-4.92-11-11-11h-66.84c-6.08,0-11,4.92-11,11v86.12
		C2439.47,1501.18,2444.4,1506.1,2450.47,1506.1z M2461.47,1419.98h44.84v64.12h-44.84V1419.98z"/>
	<path class="st0" d="M2582.64,1506.1h66.84c6.08,0,11-4.92,11-11v-86.12c0-6.08-4.92-11-11-11h-66.84c-6.08,0-11,4.92-11,11v86.12
		C2571.64,1501.18,2576.56,1506.1,2582.64,1506.1z M2593.64,1419.98h44.84v64.12h-44.84V1419.98z"/>
	<path class="st0" d="M2714.8,1506.1h66.84c6.08,0,11-4.92,11-11v-86.12c0-6.08-4.92-11-11-11h-66.84c-6.08,0-11,4.92-11,11v86.12
		C2703.8,1501.18,2708.73,1506.1,2714.8,1506.1z M2725.8,1419.98h44.84v64.12h-44.84V1419.98z"/>
	<path class="st0" d="M2913.81,1397.98h-66.84c-6.08,0-11,4.92-11,11v86.12c0,6.08,4.92,11,11,11h66.84c6.08,0,11-4.92,11-11v-86.12
		C2924.81,1402.91,2919.89,1397.98,2913.81,1397.98z M2902.81,1484.1h-44.84v-64.12h44.84V1484.1z"/>
	<path class="st0" d="M2318.31,1652.22h66.84c6.08,0,11-4.92,11-11v-86.12c0-6.08-4.92-11-11-11h-66.84c-6.08,0-11,4.92-11,11v86.12
		C2307.31,1647.29,2312.23,1652.22,2318.31,1652.22z M2329.31,1566.09h44.84v64.12h-44.84V1566.09z"/>
	<path class="st0" d="M2450.47,1652.22h66.84c6.08,0,11-4.92,11-11v-86.12c0-6.08-4.92-11-11-11h-66.84c-6.08,0-11,4.92-11,11v86.12
		C2439.47,1647.29,2444.4,1652.22,2450.47,1652.22z M2461.47,1566.09h44.84v64.12h-44.84V1566.09z"/>
	<path class="st0" d="M2582.64,1652.22h66.84c6.08,0,11-4.92,11-11v-86.12c0-6.08-4.92-11-11-11h-66.84c-6.08,0-11,4.92-11,11v86.12
		C2571.64,1647.29,2576.56,1652.22,2582.64,1652.22z M2593.64,1566.09h44.84v64.12h-44.84V1566.09z"/>
	<path class="st0" d="M2714.8,1652.22h66.84c6.08,0,11-4.92,11-11v-86.12c0-6.08-4.92-11-11-11h-66.84c-6.08,0-11,4.92-11,11v86.12
		C2703.8,1647.29,2708.73,1652.22,2714.8,1652.22z M2725.8,1566.09h44.84v64.12h-44.84V1566.09z"/>
	<path class="st0" d="M2913.81,1544.09h-66.84c-6.08,0-11,4.92-11,11v86.12c0,6.08,4.92,11,11,11h66.84c6.08,0,11-4.92,11-11v-86.12
		C2924.81,1549.02,2919.89,1544.09,2913.81,1544.09z M2902.81,1630.22h-44.84v-64.12h44.84V1630.22z"/>
	<path class="st0" d="M2318.31,1944.44h66.84c6.08,0,11-4.92,11-11v-86.12c0-6.08-4.92-11-11-11h-66.84c-6.08,0-11,4.92-11,11v86.12
		C2307.31,1939.52,2312.23,1944.44,2318.31,1944.44z M2329.31,1858.32h44.84v64.12h-44.84V1858.32z"/>
	<path class="st0" d="M2517.32,1944.44c6.08,0,11-4.92,11-11v-86.12c0-6.08-4.92-11-11-11h-66.84c-6.08,0-11,4.92-11,11v86.12
		c0,6.08,4.92,11,11,11H2517.32z M2461.47,1858.32h44.84v64.12h-44.84V1858.32z"/>
	<path class="st0" d="M2649.48,1944.44c6.08,0,11-4.92,11-11v-86.12c0-6.08-4.92-11-11-11h-66.84c-6.08,0-11,4.92-11,11v86.12
		c0,6.08,4.92,11,11,11H2649.48z M2593.64,1858.32h44.84v64.12h-44.84V1858.32z"/>
	<path class="st0" d="M2781.65,1944.44c6.08,0,11-4.92,11-11v-86.12c0-6.08-4.92-11-11-11h-66.84c-6.08,0-11,4.92-11,11v86.12
		c0,6.08,4.92,11,11,11H2781.65z M2725.8,1858.32h44.84v64.12h-44.84V1858.32z"/>
	<path class="st0" d="M2913.81,1836.32h-66.84c-6.08,0-11,4.92-11,11v86.12c0,6.08,4.92,11,11,11h66.84c6.08,0,11-4.92,11-11v-86.12
		C2924.81,1841.24,2919.89,1836.32,2913.81,1836.32z M2902.81,1922.44h-44.84v-64.12h44.84V1922.44z"/>
	<path class="st0" d="M2385.15,2128.54h-66.84c-6.08,0-11,4.92-11,11v86.12c0,6.08,4.92,11,11,11h66.84c6.08,0,11-4.92,11-11v-86.12
		C2396.15,2133.47,2391.22,2128.54,2385.15,2128.54z M2374.15,2214.67h-44.84v-64.12h44.84V2214.67z"/>
	<path class="st0" d="M2517.32,2128.54h-66.84c-6.08,0-11,4.92-11,11v86.12c0,6.08,4.92,11,11,11h66.84c6.08,0,11-4.92,11-11v-86.12
		C2528.32,2133.47,2523.39,2128.54,2517.32,2128.54z M2506.32,2214.67h-44.84v-64.12h44.84V2214.67z"/>
	<path class="st0" d="M2649.48,2128.54h-66.84c-6.08,0-11,4.92-11,11v86.12c0,6.08,4.92,11,11,11h66.84c6.08,0,11-4.92,11-11v-86.12
		C2660.48,2133.47,2655.56,2128.54,2649.48,2128.54z M2638.48,2214.67h-44.84v-64.12h44.84V2214.67z"/>
	<path class="st0" d="M2781.65,2128.54h-66.84c-6.08,0-11,4.92-11,11v86.12c0,6.08,4.92,11,11,11h66.84c6.08,0,11-4.92,11-11v-86.12
		C2792.65,2133.47,2787.72,2128.54,2781.65,2128.54z M2770.65,2214.67h-44.84v-64.12h44.84V2214.67z"/>
	<path class="st0" d="M2913.81,2128.54h-66.84c-6.08,0-11,4.92-11,11v86.12c0,6.08,4.92,11,11,11h66.84c6.08,0,11-4.92,11-11v-86.12
		C2924.81,2133.47,2919.89,2128.54,2913.81,2128.54z M2902.81,2214.67h-44.84v-64.12h44.84V2214.67z"/>
	<path class="st0" d="M2913.81,1690.21h-595.51c-6.08,0-11,4.92-11,11s4.92,11,11,11h595.51c6.08,0,11-4.92,11-11
		S2919.89,1690.21,2913.81,1690.21z"/>
	<path class="st0" d="M2913.81,1776.33h-595.51c-6.08,0-11,4.92-11,11s4.92,11,11,11h595.51c6.08,0,11-4.92,11-11
		S2919.89,1776.33,2913.81,1776.33z"/>
	<path class="st0" d="M2913.81,1733.27h-595.51c-6.08,0-11,4.92-11,11s4.92,11,11,11h595.51c6.08,0,11-4.92,11-11
		S2919.89,1733.27,2913.81,1733.27z"/>
	<path class="st0" d="M2776.09,1229.81h-320.06c-6.08,0-11,4.92-11,11s4.92,11,11,11h320.06c6.08,0,11-4.92,11-11
		S2782.17,1229.81,2776.09,1229.81z"/>
	<path class="st0" d="M2776.09,1272.87h-320.06c-6.08,0-11,4.92-11,11s4.92,11,11,11h320.06c6.08,0,11-4.92,11-11
		S2782.17,1272.87,2776.09,1272.87z"/>
	<path class="st0" d="M2913.81,1982.43h-595.51c-6.08,0-11,4.92-11,11s4.92,11,11,11h595.51c6.08,0,11-4.92,11-11
		S2919.89,1982.43,2913.81,1982.43z"/>
	<path class="st0" d="M2913.81,2068.55h-595.51c-6.08,0-11,4.92-11,11s4.92,11,11,11h595.51c6.08,0,11-4.92,11-11
		S2919.89,2068.55,2913.81,2068.55z"/>
	<path class="st0" d="M2913.81,2025.49h-595.51c-6.08,0-11,4.92-11,11s4.92,11,11,11h595.51c6.08,0,11-4.92,11-11
		S2919.89,2025.49,2913.81,2025.49z"/>
</g>
<g>
	<path class="st1" d="M2489.78,260.58c-54.27,0-100.28,35.2-116.55,84.01h233.09C2590.07,295.79,2544.05,260.58,2489.78,260.58z"/>
</g>
<g>
	<g>
		<path class="st1" d="M376.73,11c-97.67,0-180.49,63.36-209.76,151.2h419.52C557.22,74.36,474.4,11,376.73,11z"/>
	</g>
	<g>
		<g>
			<path class="st1" d="M145.17,65.49C82.69,65.49,29.72,106.02,11,162.2h268.33C260.61,106.02,207.64,65.49,145.17,65.49z"/>
		</g>
		<g>
			<path class="st1" d="M608.29,65.49c-62.47,0-115.44,40.53-134.17,96.71h268.33C723.74,106.02,670.77,65.49,608.29,65.49z"/>
		</g>
	</g>
</g>
<g>
	<path class="st1" d="M2958.97,63.31c-22.37,0-43.26,6.3-61.02,17.21c-29.57-30.11-70.73-48.8-116.27-48.8
		c-72.02,0-133.09,46.72-154.68,111.5h221.12h88.24h133.46C3054.35,96.79,3010.59,63.31,2958.97,63.31z"/>
</g>
<g>
	<g>
		<path class="st1" d="M3415.54,353.17c-72.02,0-133.1,46.72-154.68,111.5h309.36C3548.63,399.89,3487.56,353.17,3415.54,353.17z"/>
	</g>
	<g>
		<path class="st1" d="M3592.83,384.76c-51.62,0-95.38,33.48-110.85,79.91h221.71C3688.21,418.24,3644.44,384.76,3592.83,384.76z"/>
	</g>
</g>
<g>
	<path class="st1" d="M4340.11,119.62c-59.77,0-113.79,24.52-152.59,64.04c-23.31-14.32-50.73-22.58-80.1-22.58
		c-67.75,0-125.19,43.95-145.49,104.88h175.17h115.82h290.21C4514.8,180.94,4434.64,119.62,4340.11,119.62z"/>
</g>
</svg>
