<?xml version="1.0" encoding="utf-8"?>
<!-- Generator: Adobe Illustrator 24.3.0, SVG Export Plug-In . SVG Version: 6.00 Build 0)  -->
<svg version="1.1" id="Modo_de_aislamiento" xmlns="http://www.w3.org/2000/svg" xmlns:xlink="http://www.w3.org/1999/xlink"
	 x="0px" y="0px" viewBox="0 0 265.24 296.91" style="enable-background:new 0 0 265.24 296.91;" xml:space="preserve">
<style type="text/css">
	.st0{fill:#D0E7F2;}
	.st1{fill:#2F4869;}
	.st2{fill:#00C2FF;}
	.st3{fill:#FFFFFF;}
</style>
<g>
	<g>
		<rect x="63.28" y="114.94" class="st0" width="143.46" height="166.83"/>
		<path class="st1" d="M206.73,284.39H63.28c-1.44,0-2.61-1.17-2.61-2.61V114.94c0-1.44,1.17-2.61,2.61-2.61h143.46
			c1.44,0,2.61,1.17,2.61,2.61v166.83C209.34,283.22,208.17,284.39,206.73,284.39z M65.88,279.17h138.24V117.55H65.88V279.17z"/>
	</g>
	<g>
		<rect x="75.36" y="89.3" class="st2" width="119.28" height="192.48"/>
		<path class="st1" d="M194.64,284.39H75.36c-1.44,0-2.61-1.17-2.61-2.61V89.3c0-1.44,1.17-2.61,2.61-2.61h119.28
			c1.44,0,2.61,1.17,2.61,2.61v192.48C197.25,283.22,196.08,284.39,194.64,284.39z M77.97,279.17h114.06V91.91H77.97V279.17z"/>
	</g>
	<g>
		<rect x="101.6" y="55.07" class="st2" width="66.81" height="18.09"/>
		<path class="st1" d="M168.41,75.76H101.6c-1.44,0-2.61-1.17-2.61-2.61V55.07c0-1.44,1.17-2.61,2.61-2.61h66.81
			c1.44,0,2.61,1.17,2.61,2.61v18.09C171.02,74.6,169.85,75.76,168.41,75.76z M104.2,70.55h61.6V57.68h-61.6V70.55z"/>
	</g>
	<g>
		<rect x="34.32" y="122.28" class="st3" width="28.95" height="9.04"/>
		<path class="st1" d="M63.28,133.93H34.32c-1.44,0-2.61-1.17-2.61-2.61v-9.04c0-1.44,1.17-2.61,2.61-2.61h28.95
			c1.44,0,2.61,1.17,2.61,2.61v9.04C65.88,132.76,64.72,133.93,63.28,133.93z M36.93,128.72h23.74v-3.83H36.93V128.72z"/>
	</g>
	<g>
		<path class="st0" d="M116.2,55.07l17.23-51.09c0.4-1.83,2.74-1.83,3.14,0l17.23,51.09H116.2z"/>
		<path class="st1" d="M153.8,57.68h-37.6c-0.84,0-1.63-0.4-2.12-1.09c-0.49-0.68-0.62-1.56-0.35-2.35l17.19-50.98
			C131.42,1.33,133.08,0,135,0s3.58,1.33,4.08,3.25l17.19,50.98c0.27,0.8,0.14,1.67-0.35,2.35
			C155.43,57.27,154.64,57.68,153.8,57.68z M119.84,52.46h30.34L135,7.48L119.84,52.46z"/>
	</g>
	<g>
		<g>
			<rect x="87.77" y="73.16" class="st3" width="94.47" height="208.62"/>
			<path class="st1" d="M182.24,284.39H87.77c-1.44,0-2.61-1.17-2.61-2.61V73.16c0-1.44,1.17-2.61,2.61-2.61h94.47
				c1.44,0,2.61,1.17,2.61,2.61v208.62C184.84,283.22,183.68,284.39,182.24,284.39z M90.38,279.17h89.25V75.76H90.38V279.17z"/>
		</g>
		<g>
			<path class="st1" d="M140.33,235.54c-1.44,0-2.61-1.17-2.61-2.61v-10.31c0-1.44,1.17-2.61,2.61-2.61h10.31
				c1.44,0,2.61,1.17,2.61,2.61s-1.17,2.61-2.61,2.61h-7.7v7.7C142.94,234.37,141.77,235.54,140.33,235.54z"/>
		</g>
		<g>
			<path class="st1" d="M160.33,235.54c-1.44,0-2.61-1.17-2.61-2.61v-10.31c0-1.44,1.17-2.61,2.61-2.61h10.31
				c1.44,0,2.61,1.17,2.61,2.61s-1.17,2.61-2.61,2.61h-7.7v7.7C162.93,234.37,161.77,235.54,160.33,235.54z"/>
		</g>
		<g>
			<path class="st1" d="M100.35,235.54c-1.44,0-2.61-1.17-2.61-2.61v-10.31c0-1.44,1.17-2.61,2.61-2.61h10.31
				c1.44,0,2.61,1.17,2.61,2.61s-1.17,2.61-2.61,2.61h-7.7v7.7C102.96,234.37,101.79,235.54,100.35,235.54z"/>
		</g>
		<g>
			<path class="st1" d="M120.34,235.54c-1.44,0-2.61-1.17-2.61-2.61v-10.31c0-1.44,1.17-2.61,2.61-2.61h10.31
				c1.44,0,2.61,1.17,2.61,2.61s-1.17,2.61-2.61,2.61h-7.7v7.7C122.95,234.37,121.78,235.54,120.34,235.54z"/>
		</g>
		<g>
			<g>
				<path class="st1" d="M100.35,267.43c-1.44,0-2.61-1.17-2.61-2.61v-10.31c0-1.44,1.17-2.61,2.61-2.61h10.31
					c1.44,0,2.61,1.17,2.61,2.61c0,1.44-1.17,2.61-2.61,2.61h-7.7v7.7C102.96,266.27,101.79,267.43,100.35,267.43z"/>
			</g>
		</g>
		<g>
			<g>
				<path class="st1" d="M160.33,267.43c-1.44,0-2.61-1.17-2.61-2.61v-10.31c0-1.44,1.17-2.61,2.61-2.61h10.31
					c1.44,0,2.61,1.17,2.61,2.61c0,1.44-1.17,2.61-2.61,2.61h-7.7v7.7C162.93,266.27,161.77,267.43,160.33,267.43z"/>
			</g>
		</g>
		<g>
			<path class="st1" d="M140.33,171.76c-1.44,0-2.61-1.17-2.61-2.61v-10.31c0-1.44,1.17-2.61,2.61-2.61h10.31
				c1.44,0,2.61,1.17,2.61,2.61c0,1.44-1.17,2.61-2.61,2.61h-7.7v7.7C142.94,170.59,141.77,171.76,140.33,171.76z"/>
		</g>
		<g>
			<path class="st1" d="M160.33,171.76c-1.44,0-2.61-1.17-2.61-2.61v-10.31c0-1.44,1.17-2.61,2.61-2.61h10.31
				c1.44,0,2.61,1.17,2.61,2.61c0,1.44-1.17,2.61-2.61,2.61h-7.7v7.7C162.93,170.59,161.77,171.76,160.33,171.76z"/>
		</g>
		<g>
			<path class="st1" d="M140.33,203.65c-1.44,0-2.61-1.17-2.61-2.61v-10.31c0-1.44,1.17-2.61,2.61-2.61h10.31
				c1.44,0,2.61,1.17,2.61,2.61c0,1.44-1.17,2.61-2.61,2.61h-7.7v7.7C142.94,202.48,141.77,203.65,140.33,203.65z"/>
		</g>
		<g>
			<path class="st1" d="M160.33,203.65c-1.44,0-2.61-1.17-2.61-2.61v-10.31c0-1.44,1.17-2.61,2.61-2.61h10.31
				c1.44,0,2.61,1.17,2.61,2.61c0,1.44-1.17,2.61-2.61,2.61h-7.7v7.7C162.93,202.48,161.77,203.65,160.33,203.65z"/>
		</g>
		<g>
			<path class="st1" d="M100.35,171.76c-1.44,0-2.61-1.17-2.61-2.61v-10.31c0-1.44,1.17-2.61,2.61-2.61h10.31
				c1.44,0,2.61,1.17,2.61,2.61c0,1.44-1.17,2.61-2.61,2.61h-7.7v7.7C102.96,170.59,101.79,171.76,100.35,171.76z"/>
		</g>
		<g>
			<path class="st1" d="M120.34,171.76c-1.44,0-2.61-1.17-2.61-2.61v-10.31c0-1.44,1.17-2.61,2.61-2.61h10.31
				c1.44,0,2.61,1.17,2.61,2.61c0,1.44-1.17,2.61-2.61,2.61h-7.7v7.7C122.95,170.59,121.78,171.76,120.34,171.76z"/>
		</g>
		<g>
			<path class="st1" d="M100.35,203.65c-1.44,0-2.61-1.17-2.61-2.61v-10.31c0-1.44,1.17-2.61,2.61-2.61h10.31
				c1.44,0,2.61,1.17,2.61,2.61c0,1.44-1.17,2.61-2.61,2.61h-7.7v7.7C102.96,202.48,101.79,203.65,100.35,203.65z"/>
		</g>
		<g>
			<path class="st1" d="M120.34,203.65c-1.44,0-2.61-1.17-2.61-2.61v-10.31c0-1.44,1.17-2.61,2.61-2.61h10.31
				c1.44,0,2.61,1.17,2.61,2.61c0,1.44-1.17,2.61-2.61,2.61h-7.7v7.7C122.95,202.48,121.78,203.65,120.34,203.65z"/>
		</g>
		<g>
			<path class="st1" d="M140.33,107.97c-1.44,0-2.61-1.17-2.61-2.61V95.06c0-1.44,1.17-2.61,2.61-2.61h10.31
				c1.44,0,2.61,1.17,2.61,2.61c0,1.44-1.17,2.61-2.61,2.61h-7.7v7.7C142.94,106.8,141.77,107.97,140.33,107.97z"/>
		</g>
		<g>
			<path class="st1" d="M160.33,107.97c-1.44,0-2.61-1.17-2.61-2.61V95.06c0-1.44,1.17-2.61,2.61-2.61h10.31
				c1.44,0,2.61,1.17,2.61,2.61c0,1.44-1.17,2.61-2.61,2.61h-7.7v7.7C162.93,106.8,161.77,107.97,160.33,107.97z"/>
		</g>
		<g>
			<path class="st1" d="M140.33,139.86c-1.44,0-2.61-1.17-2.61-2.61v-10.31c0-1.44,1.17-2.61,2.61-2.61h10.31
				c1.44,0,2.61,1.17,2.61,2.61c0,1.44-1.17,2.61-2.61,2.61h-7.7v7.7C142.94,138.7,141.77,139.86,140.33,139.86z"/>
		</g>
		<g>
			<path class="st1" d="M160.33,139.86c-1.44,0-2.61-1.17-2.61-2.61v-10.31c0-1.44,1.17-2.61,2.61-2.61h10.31
				c1.44,0,2.61,1.17,2.61,2.61c0,1.44-1.17,2.61-2.61,2.61h-7.7v7.7C162.93,138.7,161.77,139.86,160.33,139.86z"/>
		</g>
		<g>
			<path class="st1" d="M100.35,107.97c-1.44,0-2.61-1.17-2.61-2.61V95.06c0-1.44,1.17-2.61,2.61-2.61h10.31
				c1.44,0,2.61,1.17,2.61,2.61c0,1.44-1.17,2.61-2.61,2.61h-7.7v7.7C102.96,106.8,101.79,107.97,100.35,107.97z"/>
		</g>
		<g>
			<path class="st1" d="M120.34,107.97c-1.44,0-2.61-1.17-2.61-2.61V95.06c0-1.44,1.17-2.61,2.61-2.61h10.31
				c1.44,0,2.61,1.17,2.61,2.61c0,1.44-1.17,2.61-2.61,2.61h-7.7v7.7C122.95,106.8,121.78,107.97,120.34,107.97z"/>
		</g>
		<g>
			<path class="st1" d="M100.35,139.86c-1.44,0-2.61-1.17-2.61-2.61v-10.31c0-1.44,1.17-2.61,2.61-2.61h10.31
				c1.44,0,2.61,1.17,2.61,2.61c0,1.44-1.17,2.61-2.61,2.61h-7.7v7.7C102.96,138.7,101.79,139.86,100.35,139.86z"/>
		</g>
		<g>
			<path class="st1" d="M120.34,139.86c-1.44,0-2.61-1.17-2.61-2.61v-10.31c0-1.44,1.17-2.61,2.61-2.61h10.31
				c1.44,0,2.61,1.17,2.61,2.61c0,1.44-1.17,2.61-2.61,2.61h-7.7v7.7C122.95,138.7,121.78,139.86,120.34,139.86z"/>
		</g>
	</g>
	<g>
		<g>
			<rect x="14.82" y="131.32" class="st3" width="48.45" height="150.45"/>
			<path class="st1" d="M63.28,284.39H14.82c-1.44,0-2.61-1.17-2.61-2.61V131.32c0-1.44,1.17-2.61,2.61-2.61h48.45
				c1.44,0,2.61,1.17,2.61,2.61v150.45C65.88,283.22,64.72,284.39,63.28,284.39z M17.43,279.17h43.24V133.93H17.43V279.17z"/>
		</g>
		<g>
			<g>
				<path class="st1" d="M27.04,233.18c-1.44,0-2.61-1.17-2.61-2.61v-10.31c0-1.44,1.17-2.61,2.61-2.61h10.31
					c1.44,0,2.61,1.17,2.61,2.61c0,1.44-1.17,2.61-2.61,2.61h-7.7v7.7C29.64,232.01,28.48,233.18,27.04,233.18z"/>
			</g>
			<g>
				<path class="st1" d="M44.19,233.18c-1.44,0-2.61-1.17-2.61-2.61v-10.31c0-1.44,1.17-2.61,2.61-2.61h10.31
					c1.44,0,2.61,1.17,2.61,2.61c0,1.44-1.17,2.61-2.61,2.61h-7.7v7.7C46.79,232.01,45.63,233.18,44.19,233.18z"/>
			</g>
		</g>
		<g>
			<g>
				<path class="st1" d="M27.04,268.86c-1.44,0-2.61-1.17-2.61-2.61v-10.31c0-1.44,1.17-2.61,2.61-2.61h10.31
					c1.44,0,2.61,1.17,2.61,2.61c0,1.44-1.17,2.61-2.61,2.61h-7.7v7.7C29.64,267.7,28.48,268.86,27.04,268.86z"/>
			</g>
			<g>
				<path class="st1" d="M44.19,268.86c-1.44,0-2.61-1.17-2.61-2.61v-10.31c0-1.44,1.17-2.61,2.61-2.61h10.31
					c1.44,0,2.61,1.17,2.61,2.61c0,1.44-1.17,2.61-2.61,2.61h-7.7v7.7C46.79,267.7,45.63,268.86,44.19,268.86z"/>
			</g>
		</g>
		<g>
			<g>
				<path class="st1" d="M27.04,162.25c-1.44,0-2.61-1.17-2.61-2.61v-10.31c0-1.44,1.17-2.61,2.61-2.61h10.31
					c1.44,0,2.61,1.17,2.61,2.61c0,1.44-1.17,2.61-2.61,2.61h-7.7v7.7C29.64,161.09,28.48,162.25,27.04,162.25z"/>
			</g>
			<g>
				<path class="st1" d="M44.19,162.25c-1.44,0-2.61-1.17-2.61-2.61v-10.31c0-1.44,1.17-2.61,2.61-2.61h10.31
					c1.44,0,2.61,1.17,2.61,2.61c0,1.44-1.17,2.61-2.61,2.61h-7.7v7.7C46.79,161.09,45.63,162.25,44.19,162.25z"/>
			</g>
		</g>
		<g>
			<g>
				<path class="st1" d="M27.04,196.55c-1.44,0-2.61-1.17-2.61-2.61v-10.31c0-1.44,1.17-2.61,2.61-2.61h10.31
					c1.44,0,2.61,1.17,2.61,2.61c0,1.44-1.17,2.61-2.61,2.61h-7.7v7.7C29.64,195.39,28.48,196.55,27.04,196.55z"/>
			</g>
			<g>
				<path class="st1" d="M44.19,196.55c-1.44,0-2.61-1.17-2.61-2.61v-10.31c0-1.44,1.17-2.61,2.61-2.61h10.31
					c1.44,0,2.61,1.17,2.61,2.61c0,1.44-1.17,2.61-2.61,2.61h-7.7v7.7C46.79,195.39,45.63,196.55,44.19,196.55z"/>
			</g>
		</g>
	</g>
	<g>
		
			<rect x="206.73" y="122.28" transform="matrix(-1 -1.224647e-16 1.224647e-16 -1 442.4164 253.6053)" class="st3" width="28.95" height="9.04"/>
		<path class="st1" d="M235.68,133.93h-28.95c-1.44,0-2.61-1.17-2.61-2.61v-9.04c0-1.44,1.17-2.61,2.61-2.61h28.95
			c1.44,0,2.61,1.17,2.61,2.61v9.04C238.29,132.76,237.12,133.93,235.68,133.93z M209.34,128.72h23.74v-3.83h-23.74V128.72z"/>
	</g>
	<g>
		<g>
			
				<rect x="206.73" y="131.32" transform="matrix(-1 -1.224647e-16 1.224647e-16 -1 461.9157 413.1031)" class="st3" width="48.45" height="150.45"/>
			<path class="st1" d="M255.18,284.39h-48.45c-1.44,0-2.61-1.17-2.61-2.61V131.32c0-1.44,1.17-2.61,2.61-2.61h48.45
				c1.44,0,2.61,1.17,2.61,2.61v150.45C257.79,283.22,256.62,284.39,255.18,284.39z M209.34,279.17h43.24V133.93h-43.24V279.17z"/>
		</g>
		<g>
			<g>
				<path class="st1" d="M242.97,233.18c-1.44,0-2.61-1.17-2.61-2.61v-7.7h-7.7c-1.44,0-2.61-1.17-2.61-2.61
					c0-1.44,1.17-2.61,2.61-2.61h10.31c1.44,0,2.61,1.17,2.61,2.61v10.31C245.58,232.01,244.41,233.18,242.97,233.18z"/>
			</g>
			<g>
				<path class="st1" d="M225.82,233.18c-1.44,0-2.61-1.17-2.61-2.61v-7.7h-7.7c-1.44,0-2.61-1.17-2.61-2.61
					c0-1.44,1.17-2.61,2.61-2.61h10.31c1.44,0,2.61,1.17,2.61,2.61v10.31C228.43,232.01,227.26,233.18,225.82,233.18z"/>
			</g>
		</g>
		<g>
			<g>
				<path class="st1" d="M242.97,268.86c-1.44,0-2.61-1.17-2.61-2.61v-7.7h-7.7c-1.44,0-2.61-1.17-2.61-2.61
					c0-1.44,1.17-2.61,2.61-2.61h10.31c1.44,0,2.61,1.17,2.61,2.61v10.31C245.58,267.7,244.41,268.86,242.97,268.86z"/>
			</g>
			<g>
				<path class="st1" d="M225.82,268.86c-1.44,0-2.61-1.17-2.61-2.61v-7.7h-7.7c-1.44,0-2.61-1.17-2.61-2.61
					c0-1.44,1.17-2.61,2.61-2.61h10.31c1.44,0,2.61,1.17,2.61,2.61v10.31C228.43,267.7,227.26,268.86,225.82,268.86z"/>
			</g>
		</g>
		<g>
			<g>
				<path class="st1" d="M242.97,162.25c-1.44,0-2.61-1.17-2.61-2.61v-7.7h-7.7c-1.44,0-2.61-1.17-2.61-2.61
					c0-1.44,1.17-2.61,2.61-2.61h10.31c1.44,0,2.61,1.17,2.61,2.61v10.31C245.58,161.09,244.41,162.25,242.97,162.25z"/>
			</g>
			<g>
				<path class="st1" d="M225.82,162.25c-1.44,0-2.61-1.17-2.61-2.61v-7.7h-7.7c-1.44,0-2.61-1.17-2.61-2.61
					c0-1.44,1.17-2.61,2.61-2.61h10.31c1.44,0,2.61,1.17,2.61,2.61v10.31C228.43,161.09,227.26,162.25,225.82,162.25z"/>
			</g>
		</g>
		<g>
			<g>
				<path class="st1" d="M242.97,196.55c-1.44,0-2.61-1.17-2.61-2.61v-7.7h-7.7c-1.44,0-2.61-1.17-2.61-2.61
					c0-1.44,1.17-2.61,2.61-2.61h10.31c1.44,0,2.61,1.17,2.61,2.61v10.31C245.58,195.39,244.41,196.55,242.97,196.55z"/>
			</g>
			<g>
				<path class="st1" d="M225.82,196.55c-1.44,0-2.61-1.17-2.61-2.61v-7.7h-7.7c-1.44,0-2.61-1.17-2.61-2.61
					c0-1.44,1.17-2.61,2.61-2.61h10.31c1.44,0,2.61,1.17,2.61,2.61v10.31C228.43,195.39,227.26,196.55,225.82,196.55z"/>
			</g>
		</g>
	</g>
	<g>
		<path class="st1" d="M135,57.68c-1.44,0-2.61-1.17-2.61-2.61V2.61C132.4,1.17,133.56,0,135,0s2.61,1.17,2.61,2.61v52.46
			C137.61,56.51,136.44,57.68,135,57.68z"/>
	</g>
	<g>
		<rect x="2.61" y="281.78" class="st0" width="260.03" height="12.53"/>
		<path class="st1" d="M262.63,296.91H2.61c-1.44,0-2.61-1.17-2.61-2.61v-12.53c0-1.44,1.17-2.61,2.61-2.61h260.03
			c1.44,0,2.61,1.17,2.61,2.61v12.53C265.24,295.74,264.07,296.91,262.63,296.91z M5.21,291.7h254.81v-7.31H5.21V291.7z"/>
	</g>
	<g>
		<rect x="124.3" y="258.2" class="st3" width="21.41" height="23.58"/>
		<path class="st1" d="M145.71,284.39H124.3c-1.44,0-2.61-1.17-2.61-2.61V258.2c0-1.44,1.17-2.61,2.61-2.61h21.41
			c1.44,0,2.61,1.17,2.61,2.61v23.58C148.31,283.22,147.15,284.39,145.71,284.39z M126.91,279.17h16.19V260.8h-16.19V279.17z"/>
	</g>
	<g>
		<path class="st3" d="M135,258.2v23.58V258.2z"/>
		<path class="st1" d="M135,284.39c-1.44,0-2.61-1.17-2.61-2.61V258.2c0-1.44,1.17-2.61,2.61-2.61s2.61,1.17,2.61,2.61v23.58
			C137.61,283.22,136.44,284.39,135,284.39z"/>
	</g>
</g>
</svg>
