<?xml version="1.0" encoding="utf-8"?>
<!-- Generator: Adobe Illustrator 24.3.0, SVG Export Plug-In . SVG Version: 6.00 Build 0)  -->
<svg version="1.1" id="Layer_1" xmlns="http://www.w3.org/2000/svg" xmlns:xlink="http://www.w3.org/1999/xlink" x="0px" y="0px"
	 viewBox="0 0 1098.68 454.95" style="enable-background:new 0 0 1098.68 454.95;" xml:space="preserve">
<style type="text/css">
	.st0{fill:#E0F4FC;}
</style>
<g>
	<path class="st0" d="M342.97,31.59c-20.74,0-41.06,5.02-59.28,14.57C251.47,16.33,209.88,0,165.68,0
		C90.64,0,24.29,47.83,0.56,119.02c-1.12,3.35-0.56,7.04,1.51,9.91c2.07,2.87,5.39,4.57,8.92,4.57h442.82c3.54,0,6.86-1.7,8.92-4.57
		c2.07-2.87,2.63-6.56,1.51-9.91C446.83,66.73,398.09,31.59,342.97,31.59z"/>
	<path class="st0" d="M1098.11,440.48c-17.42-52.29-66.17-87.43-121.29-87.43c-21.15,0-41.36,5.19-59.22,14.52
		c-31.41-28.99-73.18-46.11-118.07-46.11c-75.04,0-141.39,47.83-165.11,119.02c-1.12,3.35-0.56,7.04,1.51,9.91
		c2.07,2.87,5.39,4.57,8.92,4.57h221.12h88.24h133.46c3.54,0,6.86-1.7,8.92-4.57C1098.67,447.52,1099.23,443.83,1098.11,440.48z"/>
</g>
</svg>
