<?xml version="1.0" encoding="utf-8"?>
<!-- Generator: Adobe Illustrator 24.3.0, SVG Export Plug-In . SVG Version: 6.00 Build 0)  -->
<svg version="1.1" id="design" xmlns="http://www.w3.org/2000/svg" xmlns:xlink="http://www.w3.org/1999/xlink" x="0px" y="0px"
	 viewBox="0 0 988.17 1344.08" style="enable-background:new 0 0 988.17 1344.08;" xml:space="preserve">
<style type="text/css">
	.st0{fill:#FCFEFF;}
	.st1{fill:#FFFFFF;}
	.st2{fill:#A5BCF2;}
	.st3{fill:#001729;}
	.st4{fill:#00A6CC;}
	.st5{fill:#304969;}
	.st6{filter:url(#Adobe_OpacityMaskFilter);}
	.st7{filter:url(#Adobe_OpacityMaskFilter_1_);}
	.st8{mask:url(#SVGID_1_);fill:url(#SVGID_2_);}
	.st9{fill:#00263F;}
	.st10{fill:#01B7E6;}
	.st11{fill:url(#SVGID_3_);}
	.st12{fill:url(#SVGID_4_);}
	.st13{fill:#B8CBF2;}
	.st14{fill:#E0EAFC;}
	.st15{fill:#F6F8FC;}
	.st16{fill:#3D3F7C;}
	.st17{fill:#30CEF2;}
	.st18{fill:url(#SVGID_5_);}
	.st19{fill:url(#SVGID_6_);}
	.st20{fill:url(#SVGID_7_);}
</style>
<g>
	<g>
		<g>
			<path class="st0" d="M790.17,513.87c2.5,0.82,4.05,1.32,4.4,1.44c4.67,1.62,17.35,8.67,22.77,9.57c4.11,0.69,20,0.66,20,0.66
				s-1.31,6.08-3.51,6.85c-0.48,0.17-4.97,1.88-5.56,2.29c-0.72,0.51-1.91,2.33-1.56,4c0.41,1.92,19.4,7.76,21.15,7.38
				c2.69-0.59,22.18-13.21,21.58-16.59c-0.61-3.38-7.26-21.86-7.15-22.21c0.11-0.35,0.7-1.04,1.1-1.29s8.08,4.07,10.47,5.67
				s10.83,12.52,11.67,13.4c0.97,1.01,5.88,1.61,4.76-1.4c-0.34-0.91-7.54-13.81-9.86-16.73c-2.31-2.91-23.68-14.1-25.19-14.41
				c-7.29-1.52-34.6,4.54-42.55,2.98c-0.95-0.19-4.32-1.65-9.3-3.98L790.17,513.87z"/>
			<g>
				<g>
					<path class="st1" d="M843.3,537.43l25.81,25.81c0.78,0.78,2.05,0.78,2.83,0l73.03-73.03c0.78-0.78,0.78-2.05,0-2.83
						l-25.81-25.81c-0.78-0.78-2.05-0.78-2.83,0L843.3,534.6C842.52,535.38,842.52,536.65,843.3,537.43z"/>
					<path class="st2" d="M863.82,557.95l5.29,5.29c0.78,0.78,2.05,0.78,2.83,0l73.03-73.03c0.78-0.78,0.78-2.05,0-2.83l-5.29-5.29
						L863.82,557.95z"/>
				</g>
				<path class="st3" d="M887.99,480.8l35.19,35.19l-57.15,57.15l-35.19-35.19c-1.17-1.17-1.17-3.07,0-4.24l52.91-52.91
					C884.92,479.63,886.82,479.63,887.99,480.8z"/>
			</g>
			<path class="st0" d="M841.22,504.53c0,0,15.7,7.53,16.98,7.9c1.28,0.37,19.12,8.09,19.85,8.54c2.13,1.32,0.67,5.9-1.57,5.67
				c-4.02-0.41-21.19-4.66-23.65-4.89s-17.3,3.31-17.3,3.31L841.22,504.53z"/>
			<path class="st4" d="M685.16,422.78c33.77,19.58,93.98,55.17,127.42,71.25l-18.1,28.49c0,0-105.95-38.71-147.22-56.81
				L685.16,422.78z"/>
		</g>
		<g>
			<path class="st0" d="M374.54,1262.73C374.54,1262.73,374.55,1262.73,374.54,1262.73c11.58-11.08,15.05-25.62,14.87-26.58
				c1.04,1.07,27.09,18.66,27.09,18.66s-4.56,8.82-4.84,15.05c-0.4,8.9,22.36,37.03,34.87,51.79c3.64,4.29,8.56,7.18,13.98,8.68
				c8.24,2.27,19.97,3.83,25.83,5.12c0.16,1.84,0.11,8.64-5.4,8.64h-33.51c-5.15,0-10.33-1.35-14.42-4.49
				c-35.35-27.12-76.4-56.79-76.4-56.79S360.08,1274.89,374.54,1262.73z"/>
			<path class="st5" d="M374.54,1262.73C374.54,1262.73,374.55,1262.73,374.54,1262.73c0.04-0.04,0.07-0.07,0.11-0.11
				c14.17,9.67,50.05,52.63,56.92,58.3c7.18,5.93,15.7,10.64,22.31,6.64c4.02,1.9,13.66,3.94,32.47,7.88
				c0.16,1.84,0.11,8.64-5.4,8.64h-33.51c-5.15,0-10.27-1.44-14.42-4.49c-35.79-26.35-76.4-56.79-76.4-56.79
				S360.08,1274.89,374.54,1262.73z"/>
		</g>
		<g>
			<g>
				<path class="st0" d="M847.65,1317.18c0,0,0-0.01,0-0.01c1.08-15.98-6.17-29.06-6.94-29.65c1.49,0.09,32.59-4.49,32.59-4.49
					s2.58,9.59,6.57,14.38c7.85,9.43,72.97,14.56,72.97,14.56s25.02,2.19,35.01,2.99c0.41,1.8,0.98,9.48-4.48,10.22
					c-43.87,6.01-128.04,17.9-135.41,18.91C847.51,1344.14,845.17,1335.91,847.65,1317.18z"/>
				<path class="st1" d="M840.71,1287.52c-0.04,0-0.07-0.01-0.06-0.02C840.66,1287.49,840.68,1287.5,840.71,1287.52z"/>
			</g>
			<path class="st5" d="M987.84,1314.95c0.41,1.8,1.33,9.79-4.12,10.54c-43.87,6.01-128.4,17.58-135.77,18.59
				c-0.44,0.06-2.89-8.36-0.28-27.53c15.63-2.65,108.27,11.41,105.16-4.59C952.84,1311.96,977.85,1314.16,987.84,1314.95z"/>
		</g>
		<g>
			<path class="st3" d="M731.34,528.4c0,0-4.94,22.08-12.82,63.71c-32.76,100.2-98.75,275.13-132.75,326.65
				c-51.78,78.46-168.99,343.86-168.99,343.86l-31.02-21.65c0,0,40.71-203.26,70.34-272.72c8.45-19.8,49.85-82.74,62.4-111.94
				c10.88-25.3,49.43-191.51,48.23-203.96c-5.48-56.59,7.1-113.07,47.38-153.72C668.99,503.31,731.34,528.4,731.34,528.4z"/>
			<defs>
				<filter id="Adobe_OpacityMaskFilter" filterUnits="userSpaceOnUse" x="531.46" y="498.63" width="199.88" height="399.5">
					<feColorMatrix  type="matrix" values="1 0 0 0 0  0 1 0 0 0  0 0 1 0 0  0 0 0 1 0"/>
				</filter>
			</defs>
			<mask maskUnits="userSpaceOnUse" x="531.46" y="498.63" width="199.88" height="399.5" id="SVGID_1_">
				<g class="st6">
					<defs>
						<filter id="Adobe_OpacityMaskFilter_1_" filterUnits="userSpaceOnUse" x="531.46" y="498.63" width="199.88" height="399.5">
							<feFlood  style="flood-color:white;flood-opacity:1" result="back"/>
							<feBlend  in="SourceGraphic" in2="back" mode="normal"/>
						</filter>
					</defs>
					<mask maskUnits="userSpaceOnUse" x="531.46" y="498.63" width="199.88" height="399.5" id="SVGID_1_">
						<g class="st7">
						</g>
					</mask>
					
						<linearGradient id="SVGID_2_" gradientUnits="userSpaceOnUse" x1="301.1105" y1="476.8184" x2="441.3133" y2="844.0427" gradientTransform="matrix(-1 0 0 1 988.1697 0)">
						<stop  offset="0.4318" style="stop-color:#FFFFFF"/>
						<stop  offset="0.4919" style="stop-color:#ECECEC"/>
						<stop  offset="0.6138" style="stop-color:#BABABA"/>
						<stop  offset="0.7869" style="stop-color:#6B6B6B"/>
						<stop  offset="1" style="stop-color:#000000"/>
					</linearGradient>
					<path class="st8" d="M531.46,804.49c15.8-58.02,36.12-143.32,35.27-152.14c-5.48-56.59,7.1-113.07,47.38-153.72
						c54.89,4.68,117.23,29.77,117.23,29.77s-4.94,22.08-12.82,63.71c-29.25,89.44-84.96,238.41-120.77,306.02
						c-11.59-14.49-23.15-29.78-34.56-45.91C551.89,836.26,541.33,820.33,531.46,804.49z"/>
				</g>
			</mask>
			<path class="st3" d="M531.46,804.49c15.8-58.02,36.12-143.32,35.27-152.14c-5.48-56.59,7.1-113.07,47.38-153.72
				c54.89,4.68,117.23,29.77,117.23,29.77s-4.94,22.08-12.82,63.71c-29.25,89.44-84.96,238.41-120.77,306.02
				c-11.59-14.49-23.15-29.78-34.56-45.91C551.89,836.26,541.33,820.33,531.46,804.49z"/>
		</g>
		<path class="st9" d="M734.79,515.65c-2.19,39.2-1.98,58.16,0.5,87.27c1.39,16.27,69.47,201.62,83.95,317.77
			c10.41,115.02,58.33,366.8,58.33,366.8l-38.82,0.67c0,0-61.95-140.07-86.42-237.19c-14.16-56.19-7.46-98.12-18.91-131.74
			c-16.06-47.12-81.19-153.97-113.49-197.44c-25.68-34.57-53.39-73.62-54.26-105.25c-1.82-66.19,49.37-123.35,49.37-123.35
			L734.79,515.65z"/>
		<path class="st10" d="M745.22,606.81c-2.79-38.81-3-214.45,4.16-243.29c8.88-20.78,14.39-30.01,14.39-37.33
			c0-18.14-57.97-139.55-103.58-151.15c-49.84,13.71-75.51,44.02-55.45,122.67c13.93,54.62,11.84,152.72-2.33,184.55
			c-9.79,22-21.71,56.91-34.59,85.53C610.73,575.63,673.83,593.5,745.22,606.81z"/>
		<path class="st0" d="M650.9,89.21c0,0,1.86,14.24,4.17,35.94c1.76,16.56,5.5,33.92-8.96,54.42c24.66-2.53,58.44,69.34,77.84,60.14
			c-47.88-75.78-30.62-87.52-12.19-114.25L650.9,89.21z"/>
		<path class="st4" d="M656.17,258.05c-3.52,45.72-24.4,78.6-8.79,92.77c23.91,21.7-26.63,50.94-34.32,73.37c0,0,0,0,0,0
			c2.34-34.02,1.08-74.66-4.29-107C624.36,287.77,656.17,258.05,656.17,258.05z"/>
		<g>
			<path class="st0" d="M515.71,606.71c0,0-4.29,11.14-4,16.62c0.37,7.02,0.9,15.03,1.1,20.46c0.2,5.43-4.48,34.05-4.76,35.74
				c-0.23,1.38-3,1.74-4.51-0.98c-1.51-2.72-0.37-28.19-0.83-28.8c-2.84-3.82-12,9.66-16.28,18.01c-3.41,6.65,8.25,26.59,8.45,26.95
				c1.32,2.46-2.4,2.79-4.93,1.97c-2.53-0.82-15.22-21.65-16.23-25.55c-1.01-3.89-2.76-31.71-0.17-37.48
				c2.59-5.77,14.4-32.24,14.4-32.24L515.71,606.71z"/>
			<path class="st10" d="M661.9,252.62c-15.44,46.25-74.46,161.94-82.65,177.47c-8.19,15.53-44.43,142.41-59.54,178.12l-34.02-5.42
				c0,0,26.31-131.5,46.15-197.42c15.91-62.11,47.18-142.86,73.64-192.13C628.12,171.07,674.55,214.72,661.9,252.62z"/>
		</g>
		
			<linearGradient id="SVGID_3_" gradientUnits="userSpaceOnUse" x1="204.9625" y1="67.4075" x2="213.7356" y2="67.4075" gradientTransform="matrix(-0.9878 0.1554 0.1554 0.9878 965.1933 -44.7625)">
			<stop  offset="0" style="stop-color:#2F2463"/>
			<stop  offset="0.9911" style="stop-color:#26225A"/>
		</linearGradient>
		<path class="st11" d="M763.26,40.26l7.58-1.59c0,0,2.85,18.11-3.64,31.32C763.82,54.85,763.26,40.26,763.26,40.26z"/>
		
			<linearGradient id="SVGID_4_" gradientUnits="userSpaceOnUse" x1="216.7418" y1="108.6299" x2="327.9577" y2="46.9819" gradientTransform="matrix(-0.9833 0.1314 0.1683 0.9224 960.6561 -27.8839)">
			<stop  offset="0" style="stop-color:#FCFEFF"/>
			<stop  offset="1" style="stop-color:#F0FBFF"/>
		</linearGradient>
		<path class="st12" d="M767.68,44.04c0,0,7.14,56.45-24.12,108.1c-8.48,14.02-87.51-5.51-92.61-53.4
			c-2.75-25.85-5.16-66.14,19.51-85.34C691.5-2.97,747.64,15.17,767.68,44.04z"/>
		<path class="st13" d="M675.13,136.83c6.63,4.94,14.03,8.98,21.47,12.09c-4.53,10.16-5.57,21.96,1.09,40.6c0,0,0,0,0,0
			C685.9,170.28,679.15,149.88,675.13,136.83z"/>
		<path class="st9" d="M770.85,38.67c-0.06,3.09-0.04,7.57-2.79,7.81c-3.27,0.28-5.31,2.5-7.39,4.8
			c-16.33,17.96-45.34,37.3-62.96,38.35c0,0-6.12-16.49-14.92-9.09c-7.2,6.04-4.17,24.67-2.26,35.43
			c1.86,4.68-4.8,47.09-31.85,63.36c-19.78,11.89-36.89,20.33-64.42,77.75c-3.47-4.09-5.48-7.9-5.58-11.64
			c-1.14-42.59,45.44-78.91,43.9-136.52C620.91,47.03,642.51,4.4,680.91,0.54C739.12-5.32,770.85,38.67,770.85,38.67z"/>
	</g>
	<g>
		<g>
			<g>
				
					<rect x="82.22" y="916.27" transform="matrix(0.5 -0.866 0.866 0.5 -621.3236 768.782)" class="st14" width="545.8" height="12.41"/>
				
					<rect x="83.85" y="919.08" transform="matrix(0.5 -0.866 0.866 0.5 -621.3227 770.6519)" class="st15" width="545.8" height="8.66"/>
			</g>
			<path class="st5" d="M494.46,672.5l7.48,4.32c1.39,0.8,1.86,2.58,1.06,3.96l-27.09,46.92c-0.8,1.39-2.58,1.86-3.96,1.06
				l-7.48-4.32c-1.39-0.8-1.86-2.58-1.06-3.96l27.09-46.92C491.29,672.18,493.07,671.7,494.46,672.5z"/>
		</g>
		<g>
			<path class="st16" d="M138.64,1332.98c-6.13,10.62-19.71,14.26-30.33,8.13s-14.26-19.71-8.13-30.33
				c6.13-10.62,19.71-14.26,30.33-8.13C141.13,1308.78,144.77,1322.36,138.64,1332.98z"/>
			<path class="st5" d="M10.3,1264.33l107.27,61.93c9.64,5.56,21.97,2.47,27.8-7.01c67.75-109.99,132.35-221.89,193.73-335.55
				c5.29-9.79,1.8-22.02-7.83-27.58c-28.78-16.62-57.56-33.24-86.35-49.85c-21.31-12.3-48.57-5.41-61.39,15.58
				c-63.15,103.33-123.52,208.34-181.06,314.9C-2.82,1246.54,0.66,1258.77,10.3,1264.33z"/>
			
				<rect x="-47.59" y="1098.43" transform="matrix(0.5 -0.866 0.866 0.5 -876.0905 697.625)" class="st17" width="427.4" height="18.2"/>
			
				<linearGradient id="SVGID_5_" gradientUnits="userSpaceOnUse" x1="709.95" y1="958.6631" x2="761.8128" y2="958.6631" gradientTransform="matrix(-1 0 0 1 988.1697 0)">
				<stop  offset="0" style="stop-color:#FCFEFF"/>
				<stop  offset="1" style="stop-color:#F0FBFF"/>
			</linearGradient>
			<path class="st18" d="M237.26,996.44l40.96-70.95l-10.51-6.07l-40.96,70.95c-0.81,1.4-0.33,3.18,1.07,3.99l5.45,3.15
				C234.66,998.32,236.45,997.84,237.26,996.44z"/>
			
				<linearGradient id="SVGID_6_" gradientUnits="userSpaceOnUse" x1="882.2964" y1="1256.3937" x2="934.1593" y2="1256.3937" gradientTransform="matrix(-1 0 0 1 988.1697 0)">
				<stop  offset="0" style="stop-color:#FCFEFF"/>
				<stop  offset="1" style="stop-color:#F0FBFF"/>
			</linearGradient>
			<path class="st19" d="M64.52,1295.63l40.96-70.95c0.81-1.4,0.33-3.18-1.07-3.99l-5.45-3.15c-1.4-0.81-3.18-0.33-3.99,1.07
				l-40.96,70.95L64.52,1295.63z"/>
			
				<linearGradient id="SVGID_7_" gradientUnits="userSpaceOnUse" x1="466.8968" y1="793.6976" x2="490.0919" y2="793.6976" gradientTransform="matrix(-0.866 -0.5 -0.5 0.866 1109.5023 484.7685)">
				<stop  offset="0" style="stop-color:#7891D9"/>
				<stop  offset="1" style="stop-color:#6F8DE0"/>
			</linearGradient>
			<path class="st20" d="M295.22,926.89l9.76,5.64c1.38,0.79,2.16,2.32,2.02,3.9l-0.5,5.39l-20.09-11.6l4.42-3.13
				C292.13,926.17,293.84,926.09,295.22,926.89z"/>
		</g>
	</g>
</g>
</svg>
