<?xml version="1.0" encoding="utf-8"?>
<!-- Generator: Adobe Illustrator 24.3.0, SVG Export Plug-In . SVG Version: 6.00 Build 0)  -->
<svg version="1.1" id="Capa_1" xmlns="http://www.w3.org/2000/svg" xmlns:xlink="http://www.w3.org/1999/xlink" x="0px" y="0px"
	 viewBox="0 0 500 500" style="enable-background:new 0 0 500 500;" xml:space="preserve">
<style type="text/css">
	.st0{fill:#2F4869;}
</style>
<g>
	<g>
		<g>
			<g>
				<path class="st0" d="M256.91,331.23h-0.46v-28.85c7.87,1.12,15.19,4.1,21.95,8.91l9.98-14.13
					c-10.03-6.84-20.67-10.69-31.92-11.5v-7.83h-9.82v7.67c-9.92,0.51-17.99,3.59-24.17,9.22c-6.19,5.62-9.29,12.87-9.29,21.71
					c0,8.86,2.69,15.54,8.06,20.03c5.37,4.51,13.83,8.13,25.4,10.89v29.78c-9.11-1.42-17.95-5.88-26.55-13.35l-11.2,13.35
					c11.15,9.73,23.74,15.3,37.76,16.74v11.2h9.82V394c10.44-0.51,18.82-3.58,25.17-9.2c6.35-5.63,9.52-12.92,9.52-21.87
					c0-8.96-2.76-15.79-8.29-20.5C277.32,337.74,268.68,333.99,256.91,331.23z M246.63,328.47c-5.73-1.84-9.62-3.76-11.67-5.76
					c-2.05-2-3.07-4.7-3.07-8.13c0-3.42,1.31-6.3,3.91-8.59c2.61-2.3,6.22-3.66,10.82-4.07V328.47z M268.12,373.28
					c-2.87,2.36-6.76,3.78-11.67,4.3v-27.63c6.14,1.85,10.34,3.82,12.58,5.91c2.25,2.1,3.38,4.95,3.38,8.52
					C272.41,367.96,270.98,370.94,268.12,373.28z"/>
			</g>
		</g>
	</g>
	<g>
		<g>
			<g>
				<path class="st0" d="M416.13,191.98H381.5v-51.5c0-72.48-59.02-131.4-131.5-131.4c-72.47,0-131.5,58.92-131.5,131.4v51.5H83.87
					c-5.52,0-10.04,4.52-10.04,10.04v112.73c0,97.17,79,176.17,176.17,176.17s176.17-79,176.17-176.17V202.02
					C426.17,196.5,421.65,191.98,416.13,191.98z M178.73,140.49c0-39.25,32.02-71.17,71.27-71.17c39.25,0,71.27,31.92,71.27,71.17
					v51.5H178.73V140.49z M250,447.55c-58.52,0-106.1-47.58-106.1-106.1s47.58-106.1,106.1-106.1s106.1,47.58,106.1,106.1
					S308.52,447.55,250,447.55z"/>
			</g>
		</g>
	</g>
</g>
</svg>
