<svg width="53" height="59" viewBox="0 0 53 59" fill="none" xmlns="http://www.w3.org/2000/svg">
<path d="M17.8799 26.9204H12.0625V32.7378H17.8799V26.9204ZM29.5146 26.9204H23.6973V32.7378H29.5146V26.9204ZM41.1494 26.9204H35.332V32.7378H41.1494V26.9204ZM46.9668 6.55957H44.0581V0.742188H38.2407V6.55957H14.9712V0.742188H9.15381V6.55957H6.24512C3.01647 6.55957 0.456821 9.17739 0.456821 12.377L0.427734 53.0986C0.427734 56.2982 3.01647 58.916 6.24512 58.916H46.9668C50.1664 58.916 52.7842 56.2982 52.7842 53.0986V12.377C52.7842 9.17739 50.1664 6.55957 46.9668 6.55957ZM46.9668 53.0986H6.24512V21.103H46.9668V53.0986Z" fill="#00C2FF"/>
</svg>
