<svg width="9" height="9" viewBox="0 0 9 9" fill="none" xmlns="http://www.w3.org/2000/svg">
<path fill-rule="evenodd" clip-rule="evenodd" d="M4.48269 5.8491C4.45258 5.82709 4.40948 5.83112 4.39006 5.86296C4.34763 5.93256 4.32471 6.0068 4.32471 6.08387C4.32471 6.48082 4.93275 6.80261 5.6828 6.80261C6.43286 6.80261 7.04089 6.48082 7.04089 6.08387C7.04089 6.00677 7.01796 5.93251 6.97549 5.86288C6.95607 5.83104 6.91297 5.82702 6.88286 5.84903C6.61385 6.04567 6.17652 6.17359 5.68273 6.17359C5.189 6.17359 4.75171 6.0457 4.48269 5.8491Z" fill="#00C2FF"/>
<ellipse cx="5.6828" cy="5.20384" rx="1.35809" ry="0.718736" fill="#00C2FF"/>
<path d="M3.21313 4.36731C4.34238 4.36731 5.25781 3.88284 5.25781 3.28522C5.25781 2.68759 4.34238 2.20312 3.21313 2.20312C2.08389 2.20312 1.16846 2.68759 1.16846 3.28522C1.16846 3.88284 2.08389 4.36731 3.21313 4.36731Z" fill="#00C2FF"/>
<path d="M1.40607 4.15244C1.36091 4.11942 1.29627 4.12546 1.26712 4.1732C1.20306 4.27811 1.16846 4.39003 1.16846 4.50623C1.16846 5.10385 2.08389 5.58832 3.21313 5.58832C3.53662 5.58832 3.84257 5.54856 4.11447 5.47778V5.12855C4.11447 4.76129 4.52266 4.44691 5.10114 4.31737C5.16179 4.30379 5.19828 4.23989 5.16693 4.18623C5.16439 4.18188 5.16179 4.17753 5.15915 4.1732C5.13 4.12546 5.06535 4.11942 5.02019 4.15244C4.6152 4.44857 3.95668 4.64122 3.21313 4.64122C2.46959 4.64122 1.81107 4.44857 1.40607 4.15244Z" fill="#00C2FF"/>
<path d="M4.11447 5.78613V6.16081C4.11447 6.28162 4.15645 6.3948 4.23363 6.49659C4.27958 6.5572 4.26152 6.6511 4.18843 6.67213C3.89855 6.75555 3.5663 6.80293 3.21313 6.80293C2.08389 6.80293 1.16846 6.31846 1.16846 5.72084C1.16846 5.61336 1.19807 5.50954 1.25321 5.41153C1.28139 5.36144 1.34818 5.35469 1.39426 5.38904C1.7982 5.6901 2.46232 5.88654 3.21313 5.88654C3.53391 5.88654 3.83887 5.85069 4.11447 5.78613Z" fill="#00C2FF"/>
</svg>
