<?xml version="1.0" encoding="utf-8"?>
<!-- Generator: Adobe Illustrator 24.3.0, SVG Export Plug-In . SVG Version: 6.00 Build 0)  -->
<svg version="1.1" id="Layer_3" xmlns="http://www.w3.org/2000/svg" xmlns:xlink="http://www.w3.org/1999/xlink" x="0px" y="0px"
	 viewBox="0 0 225.67 225.67" style="enable-background:new 0 0 225.67 225.67;" xml:space="preserve">
<style type="text/css">
	.st0{fill:#00C2FF;}
	.st1{fill:#45525B;}
	.st2{fill:#FFFFFF;}
	.st3{fill:#4C5D6C;}
	.st4{opacity:0.6;}
	.st5{fill:#AFDFF9;}
	.st6{fill:#586C7A;}
	.st7{fill:#FF9975;}
</style>
<g>
	<g>
		<path class="st0" d="M225.67,112.83c0,62.06-50.78,112.84-112.83,112.84C50.78,225.67,0,174.89,0,112.83C0,50.78,50.78,0,112.84,0
			C174.89,0,225.67,50.78,225.67,112.83z"/>
	</g>
</g>
<g>
	<g>
		<path class="st1" d="M109.83,68.5V46.4c0-1.4,1.14-2.54,2.54-2.54h0.93c1.4,0,2.54,1.14,2.54,2.54v22.1H109.83z"/>
	</g>
	<g>
		<g>
			<g>
				
					<rect x="65.42" y="64.72" transform="matrix(0.7073 -0.7069 0.7069 0.7073 -36.2377 71.2245)" class="st1" width="4.94" height="29.3"/>
			</g>
		</g>
		<g>
			<path class="st1" d="M58.45,78.31l-3.89-3.88c-0.79-0.78-0.78-2.05,0-2.84l5.8-5.77c0.79-0.78,2.06-0.78,2.85,0l3.89,3.88
				L58.45,78.31z"/>
		</g>
	</g>
	<g>
		<g>
			<g>
				
					<rect x="142.96" y="76.9" transform="matrix(0.7069 -0.7073 0.7073 0.7069 -9.9457 134.7419)" class="st1" width="29.3" height="4.94"/>
			</g>
		</g>
		<g>
			<path class="st1" d="M167.05,78.31l3.89-3.88c0.79-0.78,0.79-2.05,0-2.84l-5.79-5.77c-0.79-0.78-2.06-0.78-2.85,0l-3.89,3.88
				L167.05,78.31z"/>
		</g>
	</g>
	<g>
		<path class="st1" d="M122.19,50.59h-17.47c-7.2,0-13.05-5.86-13.05-13.06s5.86-13.06,13.05-13.06h17.47
			c7.2,0,13.05,5.86,13.05,13.06S129.38,50.59,122.19,50.59z M104.72,27.48c-5.54,0-10.05,4.51-10.05,10.06s4.51,10.06,10.05,10.06
			h17.47c5.54,0,10.05-4.51,10.05-10.06s-4.51-10.06-10.05-10.06H104.72z"/>
	</g>
	<g>
		<g>
			<g>
				<path class="st1" d="M113.46,56c-37.65,0-68.29,30.63-68.29,68.29c0,37.66,30.64,68.29,68.29,68.29
					c37.66,0,68.29-30.63,68.29-68.29C181.75,86.63,151.11,56,113.46,56z M113.46,185.24c-33.61,0-60.96-27.35-60.96-60.96
					c0-33.61,27.35-60.96,60.96-60.96c33.61,0,60.96,27.35,60.96,60.96C174.41,157.9,147.07,185.24,113.46,185.24z"/>
			</g>
			<g>
				<g>
					<g>
						<g>
							<g>
								<g>
									<g>
										<g>
											<g>
												<path class="st2" d="M177.38,124.29c0-35.26-28.68-63.93-63.92-63.93c-0.32,0-0.62,0.02-0.94,0.02
													C77.7,60.9,49.53,89.35,49.53,124.29c0,34.92,28.17,63.39,62.99,63.89c0.31,0.01,0.62,0.03,0.94,0.03
													C148.7,188.21,177.38,159.53,177.38,124.29z"/>
											</g>
										</g>
										<g>
											<g>
												<g>
													<path class="st3" d="M117.29,124.29c0,2.11-1.72,3.82-3.83,3.82c-2.12,0-3.82-1.71-3.82-3.82
														c0-2.11,1.7-3.83,3.82-3.83C115.57,120.46,117.29,122.18,117.29,124.29z"/>
												</g>
											</g>
											<g class="st4">
												<g>
													<g>
														
															<rect x="64.43" y="148.74" transform="matrix(0.8664 -0.4994 0.4994 0.8664 -65.6738 54.1429)" class="st3" width="7.83" height="2.11"/>
													</g>
												</g>
												<g>
													<g>
														
															<rect x="153.42" y="97.36" transform="matrix(0.8662 -0.4996 0.4996 0.8662 -28.1246 91.7707)" class="st3" width="7.83" height="2.11"/>
													</g>
												</g>
												<g>
													<g>
														
															<rect x="59.29" y="136.34" transform="matrix(0.9659 -0.259 0.259 0.9659 -33.4356 21.0632)" class="st3" width="7.83" height="2.12"/>
													</g>
												</g>
												<g>
													<g>
														<polygon class="st3" points="166.53,110.81 158.96,112.83 158.41,110.8 165.97,108.77 														"/>
													</g>
												</g>
												<g>
													<g>
														<polygon class="st3" points="80.02,158.42 74.48,163.95 72.99,162.46 78.52,156.92 														"/>
													</g>
												</g>
												<g>
													<g>
														<polygon class="st3" points="152.68,85.75 147.15,91.29 145.65,89.79 151.19,84.25 														"/>
													</g>
												</g>
												<g>
													<g>
														<polygon class="st3" points="90.01,165.73 86.1,172.52 84.27,171.46 88.18,164.68 														"/>
													</g>
												</g>
												<g>
													<g>
														
															<rect x="134.61" y="78.55" transform="matrix(0.5006 -0.8657 0.8657 0.5006 0.2682 159.6686)" class="st3" width="7.83" height="2.11"/>
													</g>
												</g>
												<g>
													<g>
														
															<rect x="95.62" y="172.68" transform="matrix(0.259 -0.9659 0.9659 0.259 -94.0521 224.8674)" class="st3" width="7.83" height="2.11"/>
													</g>
												</g>
												<g>
													<g>
														<polygon class="st3" points="128.16,70.97 126.14,78.52 124.1,77.98 126.13,70.42 														"/>
													</g>
												</g>
												<g>
													<g>
														<rect x="111.78" y="68.81" class="st3" width="2.11" height="11.55"/>
													</g>
												</g>
												<g>
													<g>
														<polygon class="st3" points="99.54,70.42 101.57,77.98 99.53,78.52 97.5,70.97 														"/>
													</g>
												</g>
												<g>
													<g>
														
															<rect x="86.09" y="75.69" transform="matrix(0.8662 -0.4997 0.4997 0.8662 -28.1179 54.198)" class="st3" width="2.11" height="7.83"/>
													</g>
												</g>
												<g>
													<g>
														<polygon class="st3" points="74.48,84.26 80.02,89.79 78.52,91.29 72.99,85.75 														"/>
													</g>
												</g>
												<g>
													<g>
														<polygon class="st3" points="65.48,95.54 72.25,99.46 71.2,101.28 64.42,97.38 														"/>
													</g>
												</g>
												<g>
													<g>
														
															<rect x="62.15" y="106.89" transform="matrix(0.2589 -0.9659 0.9659 0.2589 -60.185 143.1643)" class="st3" width="2.11" height="7.83"/>
													</g>
												</g>
												<g>
													<g>
														<rect x="57.54" y="123.05" class="st3" width="11.56" height="2.11"/>
													</g>
												</g>
											</g>
										</g>
									</g>
								</g>
							</g>
						</g>
					</g>
				</g>
			</g>
			<g>
				<g>
					<path class="st5" d="M175.62,124.28c0-0.81-0.03-1.6-0.06-2.4h-64.37v64.5c0.75,0.03,1.51,0.06,2.27,0.06
						C147.74,186.45,175.62,158.56,175.62,124.28z"/>
				</g>
			</g>
			<g>
				<g>
					<path class="st6" d="M115.22,156.89c0,1.15-0.93,2.08-2.08,2.08l0,0c-1.15,0-2.08-0.93-2.08-2.08v-33.05
						c0-1.15,0.93-2.08,2.08-2.08l0,0c1.15,0,2.08,0.93,2.08,2.08V156.89z"/>
				</g>
				<g>
					<path class="st6" d="M166.87,121.89c1.15,0,2.08,0.93,2.08,2.08l0,0c0,1.15-0.93,2.08-2.08,2.08h-54
						c-1.15,0-2.08-0.93-2.08-2.08l0,0c0-1.15,0.93-2.08,2.08-2.08H166.87z"/>
				</g>
				<g>
					<g>
						<path class="st7" d="M108.61,124.24c0-2.67,2.17-4.85,4.85-4.85c2.68,0,4.85,2.18,4.85,4.85c0,2.68-2.17,4.85-4.85,4.85
							C110.78,129.09,108.61,126.93,108.61,124.24z"/>
					</g>
				</g>
				<g>
					<g>
						
							<rect x="96.73" y="75.08" transform="matrix(0.7071 -0.7071 0.7071 0.7071 -48.2193 101.1006)" class="st7" width="2.42" height="67.36"/>
					</g>
				</g>
			</g>
		</g>
	</g>
	<g class="st4">
		<path class="st1" d="M113.46,56c-37.65,0-68.29,30.63-68.29,68.29c0,37.66,30.64,68.29,68.29,68.29
			c37.66,0,68.29-30.63,68.29-68.29C181.75,86.63,151.11,56,113.46,56z M113.46,185.24c-33.61,0-60.96-27.35-60.96-60.96
			c0-33.61,27.35-60.96,60.96-60.96c33.61,0,60.96,27.35,60.96,60.96C174.41,157.9,147.07,185.24,113.46,185.24z"/>
	</g>
</g>
<g>
	<g>
		<rect x="111.78" y="167.85" class="st3" width="2.11" height="11.55"/>
	</g>
</g>
<g>
	<g>
		
			<rect x="125.08" y="169.82" transform="matrix(0.966 -0.2586 0.2586 0.966 -40.6413 38.5318)" class="st3" width="2.11" height="7.83"/>
	</g>
</g>
<g>
	<g>
		
			<rect x="137.47" y="164.69" transform="matrix(0.8656 -0.5007 0.5007 0.8656 -65.8008 92.0094)" class="st3" width="2.11" height="7.83"/>
	</g>
</g>
<g>
	<g>
		
			<rect x="156.28" y="145.88" transform="matrix(0.4998 -0.8661 0.8661 0.4998 -51.0461 211.1963)" class="st3" width="2.11" height="7.83"/>
	</g>
</g>
<g>
	<g>
		
			<rect x="161.41" y="133.48" transform="matrix(0.259 -0.9659 0.9659 0.259 -12.3263 258.7335)" class="st3" width="2.12" height="7.83"/>
	</g>
</g>
<g>
	<g>
		<rect x="156.57" y="123.05" class="st3" width="11.56" height="2.11"/>
	</g>
</g>
<g class="st4">
	<g>
		<polygon class="st3" points="147.15,156.92 152.68,162.45 151.19,163.95 145.65,158.42 		"/>
	</g>
</g>
</svg>
