<?xml version="1.0" encoding="utf-8"?>
<!-- Generator: Adobe Illustrator 24.3.0, SVG Export Plug-In . SVG Version: 6.00 Build 0)  -->
<svg version="1.1" id="_x2014_ÎÓÈ_x5F_3" xmlns="http://www.w3.org/2000/svg" xmlns:xlink="http://www.w3.org/1999/xlink"
	 x="0px" y="0px" viewBox="0 0 1869.54 1214" style="enable-background:new 0 0 1869.54 1214;" xml:space="preserve">
<style type="text/css">
	.st0{fill:#D3D8EF;}
	.st1{fill:#BBE7FF;}
	.st2{fill:#DEEEFF;}
	.st3{fill:#A7B3BF;}
	.st4{fill:#304969;}
	.st5{fill:#8B939D;}
	.st6{fill:#B9C4D1;}
	.st7{fill:#4A4DB5;}
	.st8{fill:#383A88;}
	.st9{fill:#001729;}
	.st10{fill:#203954;}
	.st11{fill:#A1E2FF;}
	.st12{fill:#B3F4FF;}
	.st13{fill:#769FCD;}
	.st14{fill:#66E2FF;}
	.st15{fill:#FFFFFF;}
	.st16{fill:#01B7E6;}
	.st17{fill:#59779A;}
	.st18{fill:#FFFFFE;}
	.st19{opacity:0.5;fill:#BFBFBF;}
	.st20{fill:#BFBFBF;}
	.st21{fill:url(#SVGID_1_);}
	.st22{fill:url(#SVGID_2_);}
	.st23{fill:#BC8877;}
	.st24{fill:url(#SVGID_3_);}
	.st25{fill:url(#SVGID_4_);}
	.st26{fill:#222831;}
	.st27{fill:#111419;}
	.st28{fill:#6479FA;}
	.st29{fill:#3F4650;}
	.st30{fill:url(#SVGID_5_);}
	.st31{fill:url(#SVGID_6_);}
	.st32{opacity:0.5;fill:#F6FAFE;}
	.st33{opacity:0.5;fill:#FFFFFF;}
	.st34{opacity:0.5;}
	.st35{opacity:0.7;}
	.st36{fill:#E9EBF8;}
	.st37{fill:url(#SVGID_7_);}
	.st38{fill:url(#SVGID_8_);}
	.st39{fill:url(#SVGID_9_);}
	.st40{fill:#009DC1;}
	.st41{fill:url(#SVGID_10_);}
	.st42{fill:url(#SVGID_11_);}
	.st43{fill:url(#SVGID_12_);}
	.st44{fill:url(#SVGID_13_);}
	.st45{fill:#222983;}
	.st46{fill:#7FD2E5;}
	.st47{fill:#E4E7FB;}
	.st48{opacity:0.3;}
	.st49{fill:#B7ECF6;}
</style>
<g>
	<path class="st0" d="M1866.44,1214H38.5c-1.71,0-3.1-1.39-3.1-3.1l0,0c0-1.71,1.39-3.1,3.1-3.1h1827.94c1.71,0,3.1,1.39,3.1,3.1
		l0,0C1869.54,1212.61,1868.15,1214,1866.44,1214z"/>
	<g>
		<path class="st1" d="M1734,561.19h-107.49c-5.11,0-9.25-4.14-9.25-9.25v-47.24c0-5.11,4.14-9.25,9.25-9.25H1734
			c5.11,0,9.25,4.14,9.25,9.25v47.24C1743.25,557.06,1739.11,561.19,1734,561.19z"/>
		<path class="st1" d="M1816.9,529.54h-107.49c-5.11,0-9.25-4.14-9.25-9.25v-47.24c0-5.11,4.14-9.25,9.25-9.25h107.49
			c5.11,0,9.25,4.14,9.25,9.25v47.24C1826.14,525.4,1822,529.54,1816.9,529.54z"/>
	</g>
	<path class="st1" d="M307.3,588.08H190.56c-5.55,0-10.04-4.5-10.04-10.04v-51.3c0-5.55,4.5-10.04,10.04-10.04H307.3
		c5.55,0,10.04,4.5,10.04,10.04v51.3C317.34,583.59,312.85,588.08,307.3,588.08z"/>
	<g>
		<g>
			<rect x="465.57" y="1088.8" class="st2" width="171.34" height="119.12"/>
			<rect x="400.3" y="1088.8" class="st3" width="65.27" height="27.74"/>
			<rect x="400.3" y="1121.44" class="st4" width="65.27" height="86.49"/>
			<rect x="400.3" y="1116.54" class="st5" width="65.27" height="4.9"/>
			<rect x="465.57" y="1116.54" class="st6" width="171.34" height="4.9"/>
			<path class="st5" d="M571.64,1141.02h-39.16c-1.8,0-3.26-1.46-3.26-3.26l0,0c0-1.8,1.46-3.26,3.26-3.26h39.16
				c1.8,0,3.26,1.46,3.26,3.26l0,0C574.9,1139.56,573.44,1141.02,571.64,1141.02z"/>
		</g>
		<g>
			<rect x="478.45" y="999.05" class="st4" width="129.09" height="89.75"/>
			<rect x="429.27" y="999.05" class="st7" width="49.18" height="20.9"/>
			<rect x="429.27" y="1023.64" class="st7" width="49.18" height="65.16"/>
			<rect x="429.27" y="1019.95" class="st8" width="49.18" height="3.69"/>
			<rect x="478.45" y="1019.95" class="st9" width="129.09" height="3.69"/>
			<path class="st9" d="M558.36,1038.39h-29.51c-1.36,0-2.46-1.1-2.46-2.46l0,0c0-1.36,1.1-2.46,2.46-2.46h29.51
				c1.36,0,2.46,1.1,2.46,2.46l0,0C560.82,1037.29,559.72,1038.39,558.36,1038.39z"/>
		</g>
	</g>
	<g>
		<g>
			<path class="st10" d="M387.3,693.23c0,0,43.86-13.61,77.13,0C464.43,693.23,426.62,705.33,387.3,693.23z"/>
			<path class="st11" d="M413.01,696.26c0,0-31.76-18.15-39.32-57.47c0,0,30.25,40.84,49.91,46.89l-6.47,6.47L413.01,696.26z"/>
			<path class="st9" d="M354.03,564.68c0,0,19.66,93.77,62.01,130.07h16.64C432.67,694.75,363.1,585.85,354.03,564.68z"/>
			<path class="st11" d="M413.01,696.26c0,0-36.3-102.85-37.81-142.17c0,0,49.91,140.66,60.5,137.63L413.01,696.26z"/>
			<path class="st11" d="M441.94,696.26c0,0,31.76-18.15,39.32-57.47c0,0-30.25,40.84-49.91,46.89l6.47,6.47L441.94,696.26z"/>
			<path class="st11" d="M497.9,564.68c0,0-19.66,93.77-62.01,130.07h-16.64C419.25,694.75,488.82,585.85,497.9,564.68z"/>
			<path class="st9" d="M438.91,696.26c0,0,36.3-102.85,37.81-142.17c0,0-48.59,134.61-59.18,142.17H438.91z"/>
			<path class="st11" d="M435.89,694.75c0,0,15.12-84.7,10.59-105.87c0,0-25.71,107.38-30.25,107.38L435.89,694.75z"/>
			<polygon class="st11" points="419.25,694.75 420.57,545.02 441.75,696.26 			"/>
			<path class="st9" d="M416.03,696.26c0,0-15.12-84.7-10.59-105.87c0,0,25.71,107.38,30.25,107.38L416.03,696.26z"/>
			<path class="st4" d="M459.9,767.34h-63.52c-11.19-8.71-14.2-53.22-14.93-68.76c-0.14-2.92,2.21-5.35,5.13-5.35h78.07
				c2.54,0,4.73,1.85,5.07,4.36C473.57,726.33,459.9,767.34,459.9,767.34z"/>
			<path class="st10" d="M459.9,767.34h-15.46c11.4-30.6,7.29-61.41,4.75-74.11h15.46c2.54,0,4.73,1.85,5.07,4.36
				C473.57,726.33,459.9,767.34,459.9,767.34z"/>
		</g>
		<g>
			<rect x="204.34" y="782.44" class="st12" width="299.6" height="389.96"/>
			<rect x="137.77" y="782.44" class="st13" width="66.58" height="0.75"/>
			<rect x="137.77" y="795.43" class="st14" width="66.58" height="376.97"/>
			<rect x="203.55" y="767.38" class="st12" width="309.11" height="15.85"/>
			<rect x="123.78" y="767.36" class="st14" width="80.85" height="15.85"/>
			<rect x="224.95" y="829.99" class="st15" width="126.82" height="57.07"/>
			<rect x="366.03" y="829.99" class="st15" width="126.82" height="57.07"/>
			<rect x="224.95" y="910.84" class="st15" width="126.82" height="57.07"/>
			<rect x="366.03" y="910.84" class="st15" width="126.82" height="57.07"/>
			<rect x="223.37" y="991.68" class="st15" width="126.82" height="57.07"/>
			<rect x="364.45" y="991.68" class="st15" width="126.82" height="57.07"/>
			<rect x="223.37" y="1072.53" class="st15" width="126.82" height="57.07"/>
			<rect x="364.45" y="1072.53" class="st15" width="126.82" height="57.07"/>
			<path class="st12" d="M316.02,860.89h-55.49c-1.22,0-2.21-0.99-2.21-2.21l0,0c0-1.22,0.99-2.21,2.21-2.21h55.49
				c1.22,0,2.21,0.99,2.21,2.21l0,0C318.23,859.9,317.24,860.89,316.02,860.89z"/>
			<path class="st12" d="M457.31,860.89h-55.49c-1.22,0-2.21-0.99-2.21-2.21l0,0c0-1.22,0.99-2.21,2.21-2.21h55.49
				c1.22,0,2.21,0.99,2.21,2.21l0,0C459.52,859.9,458.53,860.89,457.31,860.89z"/>
			<path class="st12" d="M315.34,941.57h-55.49c-1.22,0-2.21-0.99-2.21-2.21l0,0c0-1.22,0.99-2.21,2.21-2.21h55.49
				c1.22,0,2.21,0.99,2.21,2.21l0,0C317.55,940.58,316.56,941.57,315.34,941.57z"/>
			<path class="st12" d="M456.62,941.57h-55.49c-1.22,0-2.21-0.99-2.21-2.21l0,0c0-1.22,0.99-2.21,2.21-2.21h55.49
				c1.22,0,2.21,0.99,2.21,2.21l0,0C458.84,940.58,457.85,941.57,456.62,941.57z"/>
			<path class="st12" d="M311.25,1022.6h-55.49c-1.22,0-2.21-0.99-2.21-2.21l0,0c0-1.22,0.99-2.21,2.21-2.21h55.49
				c1.22,0,2.21,0.99,2.21,2.21l0,0C313.47,1021.61,312.48,1022.6,311.25,1022.6z"/>
			<path class="st12" d="M452.54,1022.6h-55.49c-1.22,0-2.21-0.99-2.21-2.21l0,0c0-1.22,0.99-2.21,2.21-2.21h55.49
				c1.22,0,2.21,0.99,2.21,2.21l0,0C454.75,1021.61,453.76,1022.6,452.54,1022.6z"/>
			<path class="st12" d="M311.25,1103.29h-55.49c-1.22,0-2.21-0.99-2.21-2.21l0,0c0-1.22,0.99-2.21,2.21-2.21h55.49
				c1.22,0,2.21,0.99,2.21,2.21l0,0C313.47,1102.29,312.48,1103.29,311.25,1103.29z"/>
			<path class="st12" d="M452.54,1103.29h-55.49c-1.22,0-2.21-0.99-2.21-2.21l0,0c0-1.22,0.99-2.21,2.21-2.21h55.49
				c1.22,0,2.21,0.99,2.21,2.21l0,0C454.75,1102.29,453.76,1103.29,452.54,1103.29z"/>
			<rect x="137.77" y="783.18" class="st16" width="66.58" height="12.24"/>
			<rect x="137.72" y="783.18" class="st17" width="0.05" height="12.24"/>
			<rect x="204.34" y="783.18" class="st16" width="299.56" height="12.24"/>
			<rect x="151.28" y="1172.4" class="st14" width="32.78" height="35.91"/>
			<rect x="151.28" y="1172.4" class="st4" width="32.78" height="16.76"/>
			<rect x="216.46" y="1172.4" class="st14" width="32.78" height="35.91"/>
			<rect x="216.46" y="1172.4" class="st4" width="32.78" height="16.76"/>
			<rect x="399.64" y="1172.4" class="st14" width="32.78" height="35.91"/>
			<rect x="399.64" y="1172.4" class="st4" width="32.78" height="16.76"/>
			<rect x="458.32" y="1172.4" class="st14" width="32.78" height="35.91"/>
			<rect x="458.32" y="1172.4" class="st4" width="32.78" height="16.76"/>
		</g>
	</g>
	<g>
		
			<rect x="1508.9" y="708.86" transform="matrix(-1 -1.224647e-16 1.224647e-16 -1 3255.7498 1917.1652)" class="st12" width="237.95" height="499.44"/>
		
			<rect x="1746.85" y="708.86" transform="matrix(-1 -1.224647e-16 1.224647e-16 -1 3593.0671 1917.1652)" class="st14" width="99.36" height="499.44"/>
		
			<rect x="1524.59" y="727.17" transform="matrix(-1 -1.224647e-16 1.224647e-16 -1 3250.5203 1595.5372)" class="st15" width="201.34" height="141.2"/>
		<path class="st12" d="M1582.11,803h78.45c4.33,0,7.84-3.51,7.84-7.84l0,0c0-4.33-3.51-7.84-7.84-7.84h-78.45
			c-4.33,0-7.84,3.51-7.84,7.84l0,0C1574.27,799.49,1577.78,803,1582.11,803z"/>
		
			<rect x="1524.59" y="891.9" transform="matrix(-1 -1.224647e-16 1.224647e-16 -1 3250.5203 1925.0096)" class="st15" width="201.34" height="141.2"/>
		<path class="st12" d="M1582.11,967.73h78.45c4.33,0,7.84-3.51,7.84-7.84v0c0-4.33-3.51-7.84-7.84-7.84h-78.45
			c-4.33,0-7.84,3.51-7.84,7.84v0C1574.27,964.22,1577.78,967.73,1582.11,967.73z"/>
		
			<rect x="1524.59" y="1048.8" transform="matrix(-1 -1.224647e-16 1.224647e-16 -1 3250.5203 2238.7932)" class="st15" width="201.34" height="141.2"/>
		<path class="st12" d="M1582.11,1124.63h78.45c4.33,0,7.84-3.51,7.84-7.84l0,0c0-4.33-3.51-7.84-7.84-7.84h-78.45
			c-4.33,0-7.84,3.51-7.84,7.84l0,0C1574.27,1121.11,1577.78,1124.63,1582.11,1124.63z"/>
	</g>
	<g>
		<g>
			<path class="st4" d="M119.3,1050.6c-2.25-11.07-8.91-20.89-15.73-29.08c-7.83-9.41-38.78-27.45-46.43-15.11
				c-7.65,12.34,13.12,22.93,28.01,26.47c11.81,2.8,26.78,15.44,32.49,20.56c2.12,4.03,5.15,13.87,3.3,36.02l2.83,0.23
				C125.88,1064.42,121.88,1054.36,119.3,1050.6z"/>
			<path class="st4" d="M115.38,1007.18c-4.13-14.58-14.21-26.92-24.31-37.02c-11.37-11.37-54.02-31.27-62.55-14.22
				c-8.53,17.06,19.9,28.43,39.8,31.27c16.68,2.38,39.35,18.75,46.25,23.98c5.67,9.28,14.32,31.11,11.1,75.43l2.83,0.21
				C132.11,1037.42,121.27,1015.33,115.38,1007.18z"/>
			<path class="st4" d="M107.7,953.54l0.44-0.44C96.76,910.46,56.96,879.18,20,884.87c-21.56,3.32-21.84,10.5-18.32,15.92
				c2.74,4.23,7.53,6.66,12.56,7.04c46.39,3.45,91.06,48.12,91.06,48.12l0.24-0.24c9.73,21.32,39.55,92.45,25.42,134.84l2.7,0.9
				C148.52,1046.83,117.19,973.92,107.7,953.54z"/>
			<path class="st4" d="M134.52,932.93c37.07-126.98-41.1-164.83-59.56-171.85c-2-0.76-4.23,0.41-4.71,2.49
				c-18.1,78.69,32.11,147.86,52.48,171.95c1.4,1.65,3.29,2.38,5.17,2.38c4.72,26.97,18.59,112.89,11.53,152.86l2.8,0.49
				c7.14-40.45-6.84-126.97-11.55-153.95C132.43,936.52,133.91,935.04,134.52,932.93z"/>
			<path class="st4" d="M227.81,819.82c-0.09-1.77-1.74-3.04-3.48-2.71c-16.05,3.04-85.18,22.53-73.4,131.29
				c0.14,1.32,0.73,2.41,1.53,3.27c-3.22,25.02-11.48,98.24-4.51,142.39l2.81-0.44c-6.8-43.08,1.05-114.32,4.36-140.35
				c1.66,0.46,3.52,0.21,5.04-1.05C180.24,935.56,231.14,886.52,227.81,819.82z"/>
			<path class="st4" d="M253.04,904.77c-36.96-5.69-76.76,25.59-88.14,68.24l0.67,0.67c-7.43,18.01-28.52,76.8-11.88,129.12
				l2.71-0.86c-16.06-50.48,3.7-107.26,11.35-126.1c0.23-0.23,44.78-44.67,91.05-48.11c5.03-0.37,9.81-2.81,12.56-7.04
				C274.88,915.27,274.6,908.09,253.04,904.77z"/>
			<path class="st4" d="M254.42,955.95c-8.53-17.06-51.18,2.84-62.55,14.22c-10.39,10.39-20.76,23.16-24.64,38.29
				c-6.17,12.35-17.17,42.71-10.75,94.09l2.82-0.36c-6.19-49.49,4.33-79.53,10.29-91.91c8.05-6,29.22-20.8,45.03-23.06
				C234.52,984.38,262.95,973.01,254.42,955.95z"/>
			<path class="st4" d="M234.94,997.88c-7.65-12.34-38.6,5.7-46.43,15.11c-6.92,8.32-13.68,18.33-15.82,29.61
				c-4.68,6-11.5,20.38-13.37,54.01l2.84,0.16c1.82-32.67,8.32-46.46,12.51-52.05c5.85-5.23,20.6-17.6,32.27-20.37
				C221.82,1020.81,242.59,1010.22,234.94,997.88z"/>
		</g>
		<g>
			<g>
				
					<rect x="66.85" y="1169.18" transform="matrix(0.2909 -0.9567 0.9567 0.2909 -1048.3292 926.6901)" class="st9" width="68.35" height="2.84"/>
			</g>
			<g>
				<rect x="143.68" y="1135.06" class="st9" width="2.84" height="68.24"/>
			</g>
			<g>
				
					<rect x="180.64" y="1136.81" transform="matrix(0.9676 -0.2524 0.2524 0.9676 -289.5893 83.8623)" class="st9" width="2.84" height="67.58"/>
			</g>
			<circle class="st9" cx="90.71" cy="1204.72" r="4.26"/>
			<circle class="st9" cx="145.46" cy="1204.72" r="4.26"/>
			<path class="st9" d="M195.22,1204.72c0,2.36-1.91,4.26-4.26,4.26c-2.36,0-4.26-1.91-4.26-4.26s1.91-4.26,4.26-4.26
				C193.31,1200.46,195.22,1202.36,195.22,1204.72z"/>
		</g>
		<polygon class="st9" points="91.08,1086.73 105.29,1143.59 179.21,1143.59 190.59,1086.73 		"/>
		<polygon class="st9" points="166.56,1143.59 162.16,1166.34 122.35,1166.34 119.48,1156.19 115.93,1143.59 		"/>
		<polygon class="st9" points="141.54,1143.59 119.48,1156.19 115.93,1143.59 		"/>
	</g>
	<path class="st1" d="M1513.95,178h134.86c2.52,0,4.57,2.05,4.57,4.57v59.86c0,2.52-2.05,4.57-4.57,4.57h-129.52l-9.9,13v-17.57V239
		v-56.43C1509.38,180.05,1511.43,178,1513.95,178z"/>
	<path class="st1" d="M668.81,196H533.95c-2.52,0-4.57,2.05-4.57,4.57v59.86c0,2.52,2.05,4.57,4.57,4.57h129.52l9.9,13v-17.57V257
		v-56.43C673.38,198.05,671.34,196,668.81,196z"/>
	<g>
		
			<ellipse transform="matrix(0.5257 -0.8507 0.8507 0.5257 -141.7531 436.6885)" class="st14" cx="320.75" cy="345.47" rx="42.53" ry="42.53"/>
		<g>
			<path class="st15" d="M338.77,337.54h-36.04c-1.59,0-2.88-1.29-2.88-2.88l0,0c0-1.59,1.29-2.88,2.88-2.88h36.04
				c1.59,0,2.88,1.29,2.88,2.88l0,0C341.65,336.25,340.36,337.54,338.77,337.54z"/>
			<path class="st15" d="M338.77,349.07h-36.04c-1.59,0-2.88-1.29-2.88-2.88l0,0c0-1.59,1.29-2.88,2.88-2.88h36.04
				c1.59,0,2.88,1.29,2.88,2.88l0,0C341.65,347.78,340.36,349.07,338.77,349.07z"/>
			<path class="st15" d="M320.03,360.61h-17.3c-1.59,0-2.88-1.29-2.88-2.88l0,0c0-1.59,1.29-2.88,2.88-2.88h17.3
				c1.59,0,2.88,1.29,2.88,2.88l0,0C322.91,359.32,321.62,360.61,320.03,360.61z"/>
		</g>
	</g>
	<g>
		<path class="st18" d="M1374.85,436.88c11.87,46.23,11.87,199.8,11.87,199.8h140.06c-7.48-56.19,14.45-121.78,30.3-166.47
			c9.39-26.44,16.64-45.56,14.43-51.1c-3.78-9.42-43.25-16.46-71.78-20.36c-16.65-2.27-29.56-3.49-29.56-3.49
			c-5.68-1.89-17.66,0.72-31.37,5.16c-20.35,6.61-44.56,17.26-57.57,23.23C1376.18,425.96,1373.49,431.51,1374.85,436.88z"/>
		<path class="st19" d="M1501.95,608.04c0,8.6-2.59,21.18,1.08,28.64h23.76c-7.48-56.19,14.45-121.78,30.3-166.47
			C1527.46,508.43,1501.95,555.77,1501.95,608.04z"/>
		<path class="st20" d="M1494.63,389.65c0,0,16.44,12.21,13.62,14.09c-2.82,1.88-26.31,39.46-26.31,39.46l-12.21-26.78
			L1494.63,389.65z"/>
		<path class="st20" d="M1464.1,417.05l-13.35,22.56l-15.65-34.99c0,0,11.97-13.81,14.73-13.81L1464.1,417.05z"/>
		<path class="st9" d="M1470.54,442.08v134l-13.9,26.3l-13.9-22.83c0,0-8.44-81.89,13.9-137.47l-6.45-18.86l15.39-9.43l17.37,10.92
			L1470.54,442.08z"/>
		<g>
			<path class="st9" d="M1441.73,321.95c0,0-24.34-7.38-19.63-31.25c4.71-23.88,27.99-11.87,32.2-10.06
				c4.21,1.81,22.6-0.94,26.44-1.88c3.84-0.94,17.09-2.21,20.07,13.01c2.97,15.22,2.98,49.09-12.51,54.19
				C1472.82,351.05,1441.73,321.95,1441.73,321.95z"/>
			
				<linearGradient id="SVGID_1_" gradientUnits="userSpaceOnUse" x1="1445.1598" y1="766.9725" x2="1464.0359" y2="833.2239" gradientTransform="matrix(0.9951 0.0994 -0.0994 0.9951 105.8455 -542.4053)">
				<stop  offset="0" style="stop-color:#FBB59E"/>
				<stop  offset="1" style="stop-color:#FFEBD1"/>
			</linearGradient>
			<path class="st21" d="M1488.63,345.91l6.23,60.67c0.39,3.84-1.39,7.56-4.52,9.4c-9.72,5.7-26.77,10.48-37.85-4.86
				c-1.79-2.48-1.49-6.1-1.2-9.23l4.87-52.81L1488.63,345.91z"/>
			
				<linearGradient id="SVGID_2_" gradientUnits="userSpaceOnUse" x1="1471.3934" y1="731.9642" x2="1385.016" y2="769.8547" gradientTransform="matrix(0.9951 0.0994 -0.0994 0.9951 105.8455 -542.4053)">
				<stop  offset="0" style="stop-color:#FBB59E"/>
				<stop  offset="1" style="stop-color:#FFEBD1"/>
			</linearGradient>
			<path class="st22" d="M1435.32,313.46c0,0-12.75,70.42,23.72,68.27c36.48-2.15,29.97-33.33,29.97-33.33s10.28-2.95,6.87-13.48
				c-3.41-10.53-14.46,4.19-14.46,4.19s1.36-28.3-12.45-27.76C1455.17,311.89,1447.43,321.21,1435.32,313.46z"/>
			<path class="st9" d="M1485.31,329.73c0.36-0.09-0.63,14.89-0.63,15.74c-0.1,11.32-2.29,28.02-12.92,33.49
				c-3.65,1.88-7.73,2.5-11.76,2.84c-5.1,0.43-10.28,0.43-15.29-0.71c-2.64-0.6-5.32-1.57-7.28-3.59
				c-3.52-3.61-4.78-14.28-4.24-19.31c1.25-11.53,16.51-8.4,24.46-9.63c6.11-0.95,12.52-1.13,18.69-1.32
				c0.44-5.12,6.16-17.54,6.6-22.65C1482.94,324.6,1485.31,329.74,1485.31,329.73z"/>
			<g>
				<path class="st23" d="M1446.46,348.7c-1.3-0.14-2.31-0.67-3.03-1.58c-2.31-2.91-0.54-8.61-0.46-8.85
					c0.11-0.35,0.46-0.54,0.79-0.42c0.32,0.12,0.5,0.5,0.39,0.86c-0.02,0.05-1.62,5.22,0.23,7.54c0.84,1.06,2.34,1.38,4.46,0.97
					c0.34-0.06,0.66,0.18,0.72,0.54c0.06,0.37-0.16,0.72-0.5,0.78C1448.1,348.73,1447.23,348.78,1446.46,348.7z"/>
			</g>
			<g>
				<path class="st23" d="M1454.33,363.79c-0.01,0-0.03,0.01-0.04,0.01c-2.76,0.5-4.86-1.29-4.94-1.37
					c-0.27-0.23-0.31-0.66-0.09-0.95c0.22-0.29,0.61-0.34,0.87-0.1c0.03,0.02,1.77,1.49,3.97,1.09c0.01,0,0.01,0,0.02,0
					c1.73-0.33,3.3-1.71,4.69-4.1c0.18-0.32,0.57-0.41,0.86-0.21c0.29,0.2,0.38,0.61,0.2,0.93
					C1458.28,361.81,1456.42,363.4,1454.33,363.79z"/>
			</g>
			<path class="st23" d="M1440.28,333.39c-0.1,1.11-0.74,1.95-1.42,1.88c-0.68-0.07-1.16-1.03-1.05-2.15
				c0.1-1.11,0.74-1.95,1.42-1.88C1439.91,331.32,1440.38,332.28,1440.28,333.39z"/>
			<path class="st23" d="M1458.92,334.73c-0.1,1.11-0.74,1.95-1.42,1.88c-0.68-0.07-1.16-1.03-1.05-2.15
				c0.1-1.11,0.74-1.95,1.42-1.88C1458.55,332.66,1459.02,333.62,1458.92,334.73z"/>
		</g>
		<path class="st18" d="M1493.54,388.19c0,0,15.72,11.68,13.03,13.47c-2.7,1.8-25.15,37.73-25.15,37.73l-11.68-25.6L1493.54,388.19z
			"/>
		<path class="st18" d="M1465.24,413.79l-13.03,22.01l-15.27-34.14c0,0,11.68-13.47,14.37-13.47L1465.24,413.79z"/>
		<g>
			
				<linearGradient id="SVGID_3_" gradientUnits="userSpaceOnUse" x1="-8031.2261" y1="1146.318" x2="-8036.6509" y2="1203.2803" gradientTransform="matrix(-1 0 0 1 -6464.4268 0)">
				<stop  offset="0" style="stop-color:#FBB59E"/>
				<stop  offset="1" style="stop-color:#FFEBD1"/>
			</linearGradient>
			<polygon class="st24" points="1582.33,1151.37 1583.76,1186.7 1555.59,1186.7 1555.59,1150.08 			"/>
			
				<linearGradient id="SVGID_4_" gradientUnits="userSpaceOnUse" x1="-7861.958" y1="1144.6776" x2="-7861.958" y2="1191.6943" gradientTransform="matrix(-1 0 0 1 -6464.4268 0)">
				<stop  offset="0" style="stop-color:#FBB59E"/>
				<stop  offset="1" style="stop-color:#FFEBD1"/>
			</linearGradient>
			<polygon class="st25" points="1412.41,1147.37 1410.82,1182.74 1382.65,1182.74 1382.65,1146.12 			"/>
			<path class="st26" d="M1320.68,1210h92.96v-34.26c0-1.29-1.07-2.32-2.36-2.27l-30.68,1.17c0,0-14.86,15.65-28.95,18.47
				c-12.3,2.46-24.56,2.77-29.37,12.15C1321.58,1206.64,1321.04,1208.21,1320.68,1210z"/>
			<path class="st26" d="M1547.98,1204.98c0.2,3.78,0.64,4.89,0.64,4.89h42.27c1.47,0,2.62-1.25,2.49-2.7
				c-0.05-0.64-0.13-1.37-0.2-2.18c-0.83-8.19-3.11-24.34-8.76-30.09c-8.85-9.01-34.13-9.15-35.8,10.83
				C1547.81,1195.44,1547.79,1201.42,1547.98,1204.98z"/>
			<path class="st27" d="M1320.68,1210h92.96v-4.74h-91.35C1321.58,1206.64,1321.04,1208.21,1320.68,1210z"/>
			<path class="st27" d="M1547.98,1204.98c0.2,3.78,0.64,4.89,0.64,4.89h42.27c1.47,0,2.62-1.25,2.49-2.7
				c-0.05-0.64-0.13-1.37-0.2-2.18H1547.98z"/>
			<g>
				<path class="st4" d="M1378.59,1154.32c-0.05,3.1,2.45,5.64,5.54,5.64h25.93c2.86,0,5.25-2.18,5.53-5.03l32.5-343.68l3.59-37.98
					l0.05-0.48l37.43,144.28l11.64,44.84l50.29,193.82c0.44,1.71,1.98,2.9,3.74,2.91l30.55,0.08c2.33,0.01,4.15-2.03,3.86-4.34
					l-64.26-522.45h-138.04l-4.55,284.71l-0.74,46.12L1378.59,1154.32z"/>
				<polygon class="st9" points="1437.65,696.73 1451.74,772.79 1438.85,907.62 				"/>
				<path class="st9" d="M1489.17,917.07l11.64,44.84c7.98-2.31,11.57-14.15,8.03-26.45
					C1505.47,923.76,1496.87,915.85,1489.17,917.07z"/>
				<path class="st9" d="M1381.65,962.76c0.5,0.04,1,0.04,1.52,0c8.29-0.59,14.27-11.42,13.36-24.22
					c-0.83-11.45-6.91-20.59-14.13-21.91L1381.65,962.76z"/>
				
					<rect x="1516.35" y="674.16" transform="matrix(-0.8902 0.4556 -0.4556 -0.8902 3189.9343 620.9807)" class="st28" width="7.55" height="41.58"/>
			</g>
			<g>
				<path class="st27" d="M1386.62,653.53c47.23,1.73,94.47,1.85,141.7,0v-13.65c-47.23,0-94.47,0-141.7,0V653.53z"/>
				
					<rect x="1434.82" y="639.88" transform="matrix(-1 -1.224647e-16 1.224647e-16 -1 2893.4563 1294.5658)" class="st15" width="23.81" height="14.81"/>
				
					<rect x="1506.84" y="639.88" transform="matrix(-1 -1.224647e-16 1.224647e-16 -1 3018.3167 1293.9851)" class="st29" width="4.65" height="14.23"/>
				
					<rect x="1483.32" y="639.88" transform="matrix(-1 -1.224647e-16 1.224647e-16 -1 2971.2766 1294.8563)" class="st29" width="4.65" height="15.1"/>
				
					<rect x="1418.56" y="639.88" transform="matrix(-1 -1.224647e-16 1.224647e-16 -1 2841.7693 1294.8563)" class="st29" width="4.65" height="15.1"/>
				
					<rect x="1396.78" y="639.88" transform="matrix(-1 -1.224647e-16 1.224647e-16 -1 2798.2136 1294.8563)" class="st29" width="4.65" height="15.1"/>
			</g>
		</g>
		<g>
			
				<linearGradient id="SVGID_5_" gradientUnits="userSpaceOnUse" x1="-7014.6206" y1="3159.573" x2="-7002.2124" y2="3100.634" gradientTransform="matrix(0.2509 -0.9681 0.9681 0.2509 233.2921 -6861.8286)">
				<stop  offset="0" style="stop-color:#FBB59E"/>
				<stop  offset="1" style="stop-color:#FFEBD1"/>
			</linearGradient>
			<path class="st30" d="M1530,688.94c0,0-4.17,28.35-30.81,41.47c-26.4,13,2.71-26.91,2.71-26.91s-12.12,12.37-11.73,3.17
				c0.38-9.2,26.92-24.47,26.92-24.47L1530,688.94z"/>
			<path class="st18" d="M1568.59,416.13c0,0-24.32,36.47-24.32,79.03l30.39,75.99l-63.83,112.46l15.23,20.55l92.86-112.81
				c4.64-5.04,6.42-12.06,4.73-18.69C1614.48,536.63,1583.97,421.26,1568.59,416.13z"/>
		</g>
		<polygon class="st4" points="1300.68,572.25 1423.66,572.25 1402.7,384.97 1275.52,394.76 		"/>
		
			<linearGradient id="SVGID_6_" gradientUnits="userSpaceOnUse" x1="-2629.0029" y1="887.7769" x2="-2583.2888" y2="887.7769" gradientTransform="matrix(-0.9947 0.1024 0.1024 0.9947 -1384.6431 -124.0696)">
			<stop  offset="0" style="stop-color:#FBB59E"/>
			<stop  offset="1" style="stop-color:#FFEBD1"/>
		</linearGradient>
		<path class="st31" d="M1276.63,500.48c1.04,5.05,5.03,8.95,10.11,9.86c14,2.5,39.92,4.17,34.48-19.29
			c-3.24-13.95-18.83-8.16-18.83-8.16s16.9-9.16,6.96-11.56c-6.98-1.68-21.09,9.49-28.87,16.29c-3.41,2.98-4.94,7.56-4.03,11.99
			L1276.63,500.48z"/>
	</g>
	<g>
		
			<ellipse transform="matrix(0.9871 -0.1602 0.1602 0.9871 -30.5483 279.6246)" class="st14" cx="1719.13" cy="329.29" rx="42.53" ry="42.53"/>
		<g>
			<path class="st15" d="M1706.75,321.36h-5.52c-1.66,0-3.01-1.35-3.01-3.01v-2.64c0-1.66,1.35-3.01,3.01-3.01h5.52
				c1.66,0,3.01,1.35,3.01,3.01v2.64C1709.76,320.02,1708.41,321.36,1706.75,321.36z"/>
			<path class="st15" d="M1721.17,321.36h-5.52c-1.66,0-3.01-1.35-3.01-3.01v-2.64c0-1.66,1.35-3.01,3.01-3.01h5.52
				c1.66,0,3.01,1.35,3.01,3.01v2.64C1724.17,320.02,1722.83,321.36,1721.17,321.36z"/>
			<path class="st15" d="M1735.58,321.36h-5.52c-1.66,0-3.01-1.35-3.01-3.01v-2.64c0-1.66,1.35-3.01,3.01-3.01h5.52
				c1.66,0,3.01,1.35,3.01,3.01v2.64C1738.59,320.02,1737.24,321.36,1735.58,321.36z"/>
			<path class="st15" d="M1706.75,332.9h-5.52c-1.66,0-3.01-1.35-3.01-3.01v-2.64c0-1.66,1.35-3.01,3.01-3.01h5.52
				c1.66,0,3.01,1.35,3.01,3.01v2.64C1709.76,331.55,1708.41,332.9,1706.75,332.9z"/>
			<path class="st15" d="M1721.17,332.9h-5.52c-1.66,0-3.01-1.35-3.01-3.01v-2.64c0-1.66,1.35-3.01,3.01-3.01h5.52
				c1.66,0,3.01,1.35,3.01,3.01v2.64C1724.17,331.55,1722.83,332.9,1721.17,332.9z"/>
			<path class="st15" d="M1735.58,332.9h-5.52c-1.66,0-3.01-1.35-3.01-3.01v-2.64c0-1.66,1.35-3.01,3.01-3.01h5.52
				c1.66,0,3.01,1.35,3.01,3.01v2.64C1738.59,331.55,1737.24,332.9,1735.58,332.9z"/>
			<path class="st15" d="M1706.75,344.43h-5.52c-1.66,0-3.01-1.35-3.01-3.01v-2.64c0-1.66,1.35-3.01,3.01-3.01h5.52
				c1.66,0,3.01,1.35,3.01,3.01v2.64C1709.76,343.08,1708.41,344.43,1706.75,344.43z"/>
			<path class="st15" d="M1721.17,344.43h-5.52c-1.66,0-3.01-1.35-3.01-3.01v-2.64c0-1.66,1.35-3.01,3.01-3.01h5.52
				c1.66,0,3.01,1.35,3.01,3.01v2.64C1724.17,343.08,1722.83,344.43,1721.17,344.43z"/>
			<path class="st15" d="M1735.58,344.43h-5.52c-1.66,0-3.01-1.35-3.01-3.01v-2.64c0-1.66,1.35-3.01,3.01-3.01h5.52
				c1.66,0,3.01,1.35,3.01,3.01v2.64C1738.59,343.08,1737.24,344.43,1735.58,344.43z"/>
		</g>
	</g>
	<g>
		<g>
			<g>
				<g>
					<path class="st14" d="M1224.44,200.05V436.3c0,9.96-8.07,18.05-18.05,18.05H842.57c-9.98,0-18.05-8.09-18.05-18.05V200.05
						c0-9.96,8.07-18.05,18.05-18.05h363.81C1216.36,182,1224.44,190.09,1224.44,200.05z"/>
				</g>
			</g>
		</g>
		<g>
			<g>
				<path class="st15" d="M969.13,325.75c-2.64,21.76-21.21,38.67-43.67,38.67c-24.26,0-44-19.74-44-44c0-24.26,19.74-44,44-44
					c4.02,0,7.91,0.55,11.62,1.57l12.44-24.02c-7.51-2.73-15.61-4.22-24.05-4.22c-38.97,0-70.67,31.7-70.67,70.67
					s31.7,70.67,70.67,70.67c37.17,0,67.71-28.85,70.45-65.34H969.13z"/>
				<path class="st32" d="M969.47,320.41c0,1.81-0.12,3.58-0.33,5.33h26.78c0.13-1.76,0.22-3.54,0.22-5.33
					c0-30.53-19.46-56.59-46.62-66.45l-12.44,24.02C955.72,283.09,969.47,300.17,969.47,320.41z"/>
			</g>
			<g>
				<path class="st15" d="M894.79,339.92c1.34,0.14,2.89,0,5-0.21c3.59-0.49,6.97-1.97,9.58-4.44c3.03-2.75,5.21-6.76,6.06-12.19
					h-0.21c-2.54,3.1-6.2,4.93-10.78,4.93c-8.24,0-13.53-6.2-13.53-14.02c0-8.66,6.27-16.27,15.64-16.27
					c9.37,0,15.14,7.61,15.14,19.3c0,10.07-3.38,17.12-7.89,21.49c-3.52,3.45-8.38,5.56-13.32,6.13c-2.25,0.35-4.23,0.42-5.71,0.35
					V339.92z M897.05,313.57c0,5.7,3.45,9.72,8.81,9.72c4.16,0,7.4-2.04,9.02-4.79c0.35-0.56,0.56-1.27,0.56-2.25
					c0-7.82-2.89-13.81-9.37-13.81C900.78,302.44,897.05,307.09,897.05,313.57z"/>
				<path class="st15" d="M957.77,320.9c0,15.57-5.78,24.16-15.92,24.16c-8.95,0-15-8.38-15.14-23.53
					c0-15.36,6.62-23.81,15.92-23.81C952.27,297.72,957.77,306.31,957.77,320.9z M932.9,321.6c0,11.91,3.66,18.67,9.3,18.67
					c6.34,0,9.37-7.4,9.37-19.09c0-11.27-2.89-18.67-9.3-18.67C936.84,302.51,932.9,309.13,932.9,321.6z"/>
			</g>
		</g>
		<g>
			<path class="st33" d="M1163.06,269.92h-110.94c-2.07,0-3.75,1.68-3.75,3.75v0.79c0,2.07,1.68,3.75,3.75,3.75h110.94
				c2.07,0,3.75-1.68,3.75-3.75v-0.79C1166.81,271.6,1165.13,269.92,1163.06,269.92z"/>
			<path class="st15" d="M1130.71,254.34h-78.59c-2.07,0-3.75,1.68-3.75,3.75v0.79c0,2.07,1.68,3.75,3.75,3.75h78.59
				c2.07,0,3.75-1.68,3.75-3.75v-0.79C1134.46,256.02,1132.78,254.34,1130.71,254.34z"/>
		</g>
		<g>
			<g class="st34">
				<path class="st15" d="M1101.26,378.04h-23.12v-63.81c0-2.64,2.14-4.78,4.78-4.78h13.56c2.64,0,4.78,2.14,4.78,4.78V378.04z"/>
				<path class="st15" d="M1131.56,378.04h-23.12v-63.81c0-2.64,2.14-4.78,4.78-4.78h13.56c2.64,0,4.78,2.14,4.78,4.78V378.04z"/>
				<path class="st15" d="M1161.86,378.04h-23.12v-63.81c0-2.64,2.14-4.78,4.78-4.78h13.56c2.64,0,4.78,2.14,4.78,4.78V378.04z"/>
				<path class="st15" d="M1192.56,378.04h-23.12v-63.81c0-2.64,2.14-4.78,4.78-4.78h13.56c2.64,0,4.78,2.14,4.78,4.78V378.04z"/>
			</g>
			<g>
				<path class="st15" d="M1071.05,378.04h-23.12v-63.81c0-2.64,2.14-4.78,4.78-4.78h13.56c2.64,0,4.78,2.14,4.78,4.78V378.04z"/>
				<path class="st15" d="M1101.36,378.04h-23.12v-48.87c0-2.32,1.88-4.21,4.21-4.21h14.71c2.32,0,4.21,1.88,4.21,4.21V378.04z"/>
				<path class="st15" d="M1131.66,378.04h-23.12v-37.45c0-2.05,1.66-3.71,3.71-3.71h15.71c2.05,0,3.71,1.66,3.71,3.71V378.04z"/>
				<path class="st15" d="M1161.96,378.04h-23.12v-25.78c0-1.71,1.39-3.1,3.1-3.1h16.92c1.71,0,3.1,1.39,3.1,3.1V378.04z"/>
				<path class="st15" d="M1192.66,378.04h-23.12v-14.32c0-1.3,1.06-2.36,2.36-2.36h18.41c1.3,0,2.36,1.06,2.36,2.36V378.04z"/>
			</g>
		</g>
		<g class="st35">
			<path class="st36" d="M1211.8,228.24c-18.59,0-33.72-15.13-33.72-33.72c0-4.43,0.85-8.65,2.43-12.52h-28.09
				c-0.87,4.05-1.31,8.23-1.31,12.52c0,33.47,27.23,60.69,60.69,60.69c4.34,0,8.55-0.46,12.64-1.33v-28.11
				C1220.54,227.38,1216.27,228.24,1211.8,228.24z"/>
		</g>
		<g>
			<path class="st15" d="M852.63,421.01c0,2.18-1.76,3.94-3.94,3.94c-2.18,0-3.94-1.76-3.94-3.94c0-2.18,1.76-3.94,3.94-3.94
				C850.86,417.07,852.63,418.83,852.63,421.01z"/>
			<path class="st15" d="M852.63,434.14c0,2.18-1.76,3.94-3.94,3.94c-2.18,0-3.94-1.76-3.94-3.94c0-2.18,1.76-3.94,3.94-3.94
				C850.86,430.2,852.63,431.97,852.63,434.14z"/>
			<path class="st15" d="M863.14,421.01c0,2.18-1.76,3.94-3.94,3.94c-2.18,0-3.94-1.76-3.94-3.94c0-2.18,1.76-3.94,3.94-3.94
				C861.37,417.07,863.14,418.83,863.14,421.01z"/>
			<path class="st15" d="M863.14,434.14c0,2.18-1.76,3.94-3.94,3.94c-2.18,0-3.94-1.76-3.94-3.94c0-2.18,1.76-3.94,3.94-3.94
				C861.37,430.2,863.14,431.97,863.14,434.14z"/>
			<path class="st15" d="M873.65,421.01c0,2.18-1.76,3.94-3.94,3.94c-2.18,0-3.94-1.76-3.94-3.94c0-2.18,1.76-3.94,3.94-3.94
				C871.88,417.07,873.65,418.83,873.65,421.01z"/>
			<path class="st15" d="M873.65,434.14c0,2.18-1.76,3.94-3.94,3.94c-2.18,0-3.94-1.76-3.94-3.94c0-2.18,1.76-3.94,3.94-3.94
				C871.88,430.2,873.65,431.97,873.65,434.14z"/>
		</g>
	</g>
	<g>
		<g>
			<path class="st14" d="M1228.38,502.75v105.89c0,6-4.87,10.87-10.87,10.87H841.39c-6.02,0-10.87-4.87-10.87-10.87V502.75
				c0-6,4.85-10.85,10.87-10.85h376.13C1223.51,491.9,1228.38,496.75,1228.38,502.75z"/>
			<g class="st35">
				<path class="st36" d="M1222.04,560.42c-31.57,0-57.24,25.68-57.24,57.24c0,0.62,0.02,1.24,0.04,1.84h25.46
					c-0.04-0.62-0.05-1.22-0.05-1.84c0-17.54,14.27-31.8,31.8-31.8c2.16,0,4.29,0.22,6.34,0.64v-25.73
					C1226.29,560.55,1224.18,560.42,1222.04,560.42z"/>
			</g>
			<g>
				<path class="st15" d="M933.69,562.13h-86.62c-1.62,0-2.93,1.31-2.93,2.93v0.62c0,1.62,1.31,2.93,2.93,2.93h86.62
					c1.62,0,2.93-1.31,2.93-2.93v-0.62C936.62,563.44,935.3,562.13,933.69,562.13z"/>
				<path class="st33" d="M908.43,549.96h-61.36c-1.62,0-2.93,1.31-2.93,2.93v0.62c0,1.62,1.31,2.93,2.93,2.93h61.36
					c1.62,0,2.93-1.31,2.93-2.93v-0.62C911.36,551.27,910.05,549.96,908.43,549.96z"/>
			</g>
		</g>
		<g>
			<g>
				<g>
					<path class="st15" d="M1040.29,595.25c-0.3,0-0.59-0.01-0.89-0.02c-9.05-0.46-16.99-7.9-23.59-22.11
						c-5.78-12.44-12.23-18.88-19.17-19.13c-0.14-0.01-0.29-0.01-0.43-0.01c-10.07,0-19.05,12.58-22.13,17.42
						c-0.66,1.04-2.02,1.38-3.09,0.78l0,0c-1.17-0.65-1.56-2.15-0.84-3.28c3.53-5.56,13.93-20.01,26.66-19.55
						c8.83,0.32,16.64,7.66,23.22,21.82c5.82,12.52,12.41,19.05,19.6,19.42c12.35,0.64,23.4-16.74,24.39-18.35
						c0.43-0.98,2.72-6.05,6.32-11.2c5.54-7.93,11.28-12,17.06-12.11c7.2-0.13,13.73,5.94,19.43,18.04
						c5.17,10.98,11.1,16.77,17.61,17.2c11.55,0.76,21.97-15.21,22.08-15.37l0.08-0.11c16.42-22.46,25.79-37,34.56-53.66l4.12,2.17
						c-8.88,16.86-18.34,31.55-34.88,54.18c-0.87,1.33-11.66,17.47-25.15,17.47c-0.36,0-0.73-0.01-1.1-0.04
						c-8.33-0.55-15.58-7.23-21.53-19.86c-3.31-7.03-8.59-15.37-14.99-15.37c-0.04,0-0.09,0-0.13,0
						c-8.63,0.16-16.83,14.96-19.26,20.65l-0.06,0.14l-0.08,0.13C1067.58,575.36,1055.55,595.25,1040.29,595.25z"/>
				</g>
			</g>
			<g>
				<path class="st15" d="M1189.67,514.62c0,3.04-2.46,5.51-5.51,5.51c-3.04,0-5.51-2.46-5.51-5.51c0-3.04,2.46-5.51,5.51-5.51
					C1187.21,509.12,1189.67,511.58,1189.67,514.62z"/>
				<path class="st15" d="M1093.72,550.8c0,3.04-2.46,5.51-5.51,5.51c-3.04,0-5.51-2.46-5.51-5.51c0-3.04,2.46-5.51,5.51-5.51
					C1091.26,545.29,1093.72,547.76,1093.72,550.8z"/>
				<path class="st15" d="M1130.68,585.4c0,3.04-2.46,5.51-5.51,5.51c-3.04,0-5.51-2.46-5.51-5.51c0-3.04,2.46-5.51,5.51-5.51
					C1128.22,579.9,1130.68,582.36,1130.68,585.4z"/>
				<path class="st15" d="M1044.96,592.48c0,3.04-2.46,5.51-5.51,5.51c-3.04,0-5.51-2.46-5.51-5.51c0-3.04,2.46-5.51,5.51-5.51
					C1042.49,586.98,1044.96,589.44,1044.96,592.48z"/>
				<path class="st15" d="M1001.7,550.8c0,3.04-2.46,5.51-5.51,5.51c-3.04,0-5.51-2.46-5.51-5.51c0-3.04,2.46-5.51,5.51-5.51
					C999.24,545.29,1001.7,547.76,1001.7,550.8z"/>
			</g>
		</g>
	</g>
	<g>
		<g>
			<path class="st14" d="M1228.38,669.78v105.89c0,6-4.87,10.85-10.87,10.85H841.39c-6.02,0-10.87-4.85-10.87-10.85V669.78
				c0-6,4.85-10.87,10.87-10.87h376.13C1223.51,658.92,1228.38,663.79,1228.38,669.78z"/>
			<g class="st35">
				<path class="st36" d="M1225.67,725.79c-31.57,0-57.24,25.68-57.24,57.24c0,1.16,0.04,2.33,0.11,3.49h25.53
					c-0.13-1.14-0.2-2.31-0.2-3.49c0-17.54,14.27-31.8,31.8-31.8c0.91,0,1.82,0.04,2.71,0.13v-25.5
					C1227.49,725.81,1226.58,725.79,1225.67,725.79z"/>
			</g>
			<g>
				<path class="st15" d="M1170.37,729.94h-143.26c-2.67,0-4.84,2.17-4.84,4.84v1.02c0,2.67,2.17,4.84,4.84,4.84h143.26
					c2.67,0,4.84-2.17,4.84-4.84v-1.02C1175.22,732.11,1173.05,729.94,1170.37,729.94z"/>
				<path class="st33" d="M1128.6,709.82h-101.49c-2.67,0-4.84,2.17-4.84,4.84v1.02c0,2.67,2.17,4.84,4.84,4.84h101.49
					c2.67,0,4.84-2.17,4.84-4.84v-1.02C1133.44,711.99,1131.28,709.82,1128.6,709.82z"/>
			</g>
		</g>
		<g>
			<path class="st15" d="M910.95,676.85c5.6-0.11,10.99,0.75,16,2.42c1.32,0.44,1.92,1.97,1.25,3.19l-0.84,1.54
				c-0.51,0.93-1.61,1.38-2.62,1.06c-4.21-1.35-8.7-2.06-13.37-2c-22.25,0.27-40.58,18.11-41.42,40.35
				c-0.9,23.92,18.22,43.59,41.94,43.59c10.61,0,20.31-3.94,27.7-10.44c0.53-0.47,1.3-0.52,1.9-0.15l1.86,1.17
				c0.91,0.57,1,1.85,0.2,2.56c-8.42,7.49-19.51,12.04-31.66,12.04c-26.1,0-47.3-20.98-47.67-46.99
				C863.85,699.08,884.84,677.35,910.95,676.85z"/>
			<path class="st33" d="M953.86,725.03c0-18.06-13.93-34.31-29.93-40.23l2.8-5.63c18.39,6.92,32.83,25.22,32.83,45.34
				c0,13.41-6.98,26.92-15.89,35.58l-4.15-3.45C947.76,748.98,953.86,737.18,953.86,725.03z"/>
		</g>
	</g>
	<g>
		<g>
			
				<linearGradient id="SVGID_7_" gradientUnits="userSpaceOnUse" x1="4166.4214" y1="1121.27" x2="4253.3667" y2="1121.27" gradientTransform="matrix(1 0 0 1 -3569.1057 0)">
				<stop  offset="0" style="stop-color:#FBB59E"/>
				<stop  offset="1" style="stop-color:#FFEBD1"/>
			</linearGradient>
			<path class="st37" d="M597.32,1048.39l10.42,112.97l-4.37,32.8h80.9l-43.22-24.53c-6.6-3.75-10.62-10.8-10.47-18.39l1.95-102.84
				H597.32z"/>
			<path class="st4" d="M602.12,1183.08c-1.75,7.14-3.66,21.17,7.07,24.92h74.34c0,0,14.37-8.98,4.04-17.71
				c-1.88-1.59-4.12-2.72-6.49-3.42l-13.29-3.94c-2.39-0.71-4.95-0.58-7.26,0.39c-7.99,3.35-29.44,9.96-53.53-2.46
				C605.05,1179.85,602.65,1180.93,602.12,1183.08z"/>
		</g>
		<g>
			
				<linearGradient id="SVGID_8_" gradientUnits="userSpaceOnUse" x1="-6017.9121" y1="1140.3595" x2="-5962.0479" y2="1140.3595" gradientTransform="matrix(-1 0 0 1 -5552.2764 0)">
				<stop  offset="0" style="stop-color:#FBB59E"/>
				<stop  offset="1" style="stop-color:#FFEBD1"/>
			</linearGradient>
			<path class="st38" d="M465.64,1088.29c0,0-15.96,87.79-11.97,99.76c0,0-11.97,13.97-43.89-7.98c0,0,17.96,0,31.92-91.78H465.64z"
				/>
			<path class="st4" d="M455.58,1186.37c2.52,3.12,5.36,9.74,0.08,21.63h-77.81c0,0-1.99-23.94,31.92-27.93c0,0,17.84,13,40.92,4.94
				C452.44,1184.4,454.42,1184.93,455.58,1186.37z"/>
		</g>
		<g>
			<g>
				
					<linearGradient id="SVGID_9_" gradientUnits="userSpaceOnUse" x1="7221.6792" y1="-7369.812" x2="7279.5361" y2="-7529.2715" gradientTransform="matrix(0.5118 0.8591 -0.8591 0.5118 -9269.5234 -1942.9976)">
					<stop  offset="0" style="stop-color:#FBB59E"/>
					<stop  offset="1" style="stop-color:#FFEBD1"/>
				</linearGradient>
				<path class="st39" d="M844.24,479.32l-72.08,43.8l-15.63-26.24l76.58-31.79c1.28-3.49,10.9-28.32,19.31-30.46
					c8.98-2.26-0.69,12.21-0.69,12.21s21.06-11.27,33.31-6.8c24.45,8.95-40.68,39.42-40.68,39.42L844.24,479.32z"/>
				<path class="st4" d="M638.97,445.43l59.28,93.68c1.71,2.7,3.97,4.87,6.54,6.47c5.74,3.55,13.06,4.15,19.52,1.1l53.47-25.26
					l-13.61-29.21l-41.21,13.27l-40.9-84.06c-2.36-4.85-6.04-8.51-10.36-10.86c-8.07-4.41-18.38-4.19-26.46,1.76
					C634.77,419.98,632.04,434.45,638.97,445.43z"/>
			</g>
			<path class="st10" d="M638.97,445.43l59.28,93.68c1.71,2.7,3.97,4.87,6.54,6.47c-3.28-4.57-6.63-10.27-9.64-15.83
				c-5.85-10.82-9.03-22.91-9.19-35.21c-0.08-6.06-1.19-11.26-2.68-15.56c-3.83-11.02-6.54-22.42-7.19-34.07
				c-0.42-7.48-1.42-15.65-2.5-22.87c-1.45-9.72-11.09-16.28-20.53-13.57c-2.73,0.78-5.38,2.06-7.82,3.85
				C634.77,419.98,632.04,434.45,638.97,445.43z"/>
			<path class="st10" d="M769.87,526.85l8.46-3.67c2.54-1.1,3.71-4.06,2.61-6.61l-10.57-24.36c-1.1-2.54-4.06-3.71-6.61-2.61
				l-8.46,3.67c-2.54,1.1-3.71,4.06-2.61,6.61l10.57,24.36C764.37,526.79,767.33,527.96,769.87,526.85z"/>
		</g>
		<path class="st4" d="M540.7,520.25c0,0,4.13,18.6,2.07,35.13c-2.07,16.54,82.67,37.19,103.32,0c0,0-4.13-12.39,4.13-33.06
			c0.53-1.33,0.52-3.18,1.74-3.84c26.78-14.6,30.67-39.89,14.8-60.22c0,0,11.98-41.91,0-49.58c-2.2-1.41-14.03-1.18-29.65-0.61
			c-21.45,0.81-50.29,2.73-72.27,4.32c-9.66,0.7-17.99,1.35-23.78,1.8c-1.1,0.09-2.11,0.17-3.02,0.24c-3.6,0.29-6.69,2.62-7.96,6.02
			C524.76,434.58,514.35,474.12,540.7,520.25z"/>
		<path class="st10" d="M540.7,520.25c0,0,4.13,18.6,2.07,35.13c-2.07,16.54,82.67,37.19,103.32,0c0,0-4.13-12.39,4.13-33.06
			c0.53-1.33,1.11-2.61,1.74-3.84c-31.84,4.39-87.54,18.25-96.93,4.49c-12.27-17.99,14.78-59.94-13.98-108.78
			c-1.1,0.09-2.11,0.17-3.02,0.24c-3.6,0.29-6.69,2.62-7.96,6.02C524.76,434.58,514.35,474.12,540.7,520.25z"/>
		<g>
			<g>
				<path class="st16" d="M429.72,1128.19h37.91c39.9-85.79,55.86-227.45,55.86-227.45l60.17-178.79l7.66-22.72v201.51
					c-9.98,49.88,6.03,227.48,6.03,227.48h40.16c0,0,9.68-207.53,11.67-227.48c2-19.95,23.94-141.66,31.92-197.52
					c7.98-55.86-34.87-150.68-34.87-150.68c-34.72,10.38-72.84,14.89-105.91,4c-10.47,14.39-17.26,23.37-25.85,38.25
					c-19.43,33.67-18.68,70.78-20.12,109.63l-18.75,196.33C441.69,984.54,429.72,1128.19,429.72,1128.19z"/>
				<path class="st40" d="M591.33,699.24v134.87c3.35-113.48,37.91-160.81,37.91-160.81c-10.79,1.74-30.24-0.2-30.24-0.2
					L591.33,699.24z"/>
			</g>
			<g>
				<g>
					<path class="st36" d="M548.39,561.6c0.93-1.48,1.45-2.27,1.46-2.27l-0.45-0.3c-0.01,0.01-0.54,0.8-1.47,2.29L548.39,561.6z"/>
				</g>
				<g>
					<path class="st36" d="M438.34,1120.36c0.1-1.79,0.21-3.59,0.33-5.39l-0.54-0.04c-0.12,1.81-0.23,3.61-0.33,5.4L438.34,1120.36z
						 M439.05,1109.58c0.14-1.79,0.29-3.59,0.45-5.39l-0.54-0.05c-0.16,1.8-0.31,3.6-0.45,5.39L439.05,1109.58z M440,1098.81
						c0.18-1.79,0.36-3.58,0.55-5.38l-0.54-0.06c-0.19,1.8-0.38,3.59-0.55,5.38L440,1098.81z M441.16,1088.07
						c0.21-1.79,0.42-3.58,0.65-5.37l-0.54-0.07c-0.22,1.79-0.44,3.58-0.65,5.37L441.16,1088.07z M442.51,1077.32
						c0.24-1.79,0.49-3.58,0.74-5.37l-0.54-0.08c-0.25,1.79-0.5,3.58-0.74,5.37L442.51,1077.32z M444.03,1066.6
						c0.27-1.78,0.54-3.57,0.82-5.34l-0.54-0.08c-0.28,1.78-0.55,3.56-0.82,5.35L444.03,1066.6z M445.7,1055.92
						c0.29-1.78,0.59-3.55,0.89-5.32l-0.54-0.09c-0.3,1.77-0.6,3.55-0.89,5.33L445.7,1055.92z M447.51,1045.29
						c0.31-1.78,0.63-3.55,0.96-5.32l-0.53-0.1c-0.32,1.77-0.64,3.54-0.96,5.32L447.51,1045.29z M449.45,1034.65
						c0.34-1.78,0.68-3.55,1.02-5.31l-0.53-0.1c-0.34,1.76-0.69,3.53-1.02,5.31L449.45,1034.65z M451.53,1024.04
						c0.36-1.77,0.72-3.54,1.08-5.3l-0.53-0.11c-0.36,1.76-0.72,3.53-1.08,5.3L451.53,1024.04z M453.72,1013.45
						c0.38-1.77,0.75-3.53,1.14-5.29l-0.53-0.12c-0.38,1.75-0.76,3.52-1.14,5.29L453.72,1013.45z M456.02,1002.89
						c0.39-1.77,0.79-3.53,1.19-5.27l-0.53-0.12c-0.4,1.75-0.8,3.51-1.19,5.28L456.02,1002.89z M458.42,992.34
						c0.41-1.77,0.83-3.52,1.24-5.26l-0.53-0.13c-0.41,1.74-0.83,3.5-1.24,5.27L458.42,992.34z M460.93,981.82
						c0.43-1.77,0.86-3.52,1.29-5.25l-0.53-0.13c-0.43,1.73-0.86,3.48-1.29,5.25L460.93,981.82z M463.53,971.32
						c0.45-1.77,0.89-3.52,1.34-5.24l-0.53-0.14c-0.44,1.72-0.89,3.47-1.34,5.24L463.53,971.32z M466.22,960.85
						c0.46-1.77,0.93-3.52,1.38-5.23l-0.52-0.14c-0.46,1.71-0.92,3.46-1.38,5.23L466.22,960.85z M469.01,950.39
						c0.48-1.78,0.96-3.52,1.43-5.22l-0.52-0.14c-0.47,1.7-0.95,3.44-1.43,5.22L469.01,950.39z M471.88,939.96
						c0.5-1.79,0.99-3.52,1.47-5.21l-0.52-0.15c-0.48,1.68-0.97,3.42-1.47,5.21L471.88,939.96z M474.85,929.56
						c0.53-1.81,1.03-3.54,1.52-5.19l-0.52-0.15c-0.49,1.65-1,3.39-1.52,5.2L474.85,929.56z M477.92,919.17
						c0.56-1.87,1.09-3.6,1.57-5.18l-0.52-0.16c-0.49,1.58-1.01,3.31-1.58,5.19L477.92,919.17z M481.1,908.81
						c0.75-2.39,1.31-4.14,1.65-5.17l-0.52-0.17c-0.33,1.03-0.9,2.78-1.65,5.17L481.1,908.81z M483.57,898.25l0.57-5.38l-0.54-0.06
						l-0.57,5.38L483.57,898.25z M484.7,887.5l0.57-5.37l-0.54-0.06l-0.56,5.37L484.7,887.5z M485.83,876.75l0.56-5.37l-0.54-0.06
						l-0.56,5.37L485.83,876.75z M486.96,866l0.57-5.37l-0.54-0.06l-0.57,5.37L486.96,866z M488.09,855.25l0.56-5.38l-0.54-0.06
						l-0.56,5.38L488.09,855.25z M489.22,844.5l0.57-5.37l-0.54-0.06l-0.57,5.37L489.22,844.5z M490.35,833.75l0.56-5.38l-0.54-0.06
						l-0.57,5.38L490.35,833.75z M491.48,823l0.57-5.37l-0.54-0.06l-0.57,5.37L491.48,823z M492.61,812.25l0.57-5.38l-0.54-0.06
						l-0.57,5.38L492.61,812.25z M493.74,801.5l0.57-5.37l-0.54-0.06l-0.57,5.37L493.74,801.5z M494.87,790.75l0.56-5.37l-0.54-0.06
						l-0.56,5.37L494.87,790.75z M496,780l0.57-5.37l-0.54-0.06l-0.57,5.37L496,780z M497.13,769.25l0.56-5.38l-0.54-0.06
						l-0.56,5.38L497.13,769.25z M498.26,758.5l0.56-5.37l-0.54-0.06l-0.57,5.38L498.26,758.5z M499.39,747.75l0.57-5.38l-0.54-0.06
						l-0.57,5.38L499.39,747.75z M500.52,737l0.56-5.37l-0.54-0.06l-0.57,5.37L500.52,737z M501.65,726.25l0.57-5.37l-0.54-0.06
						l-0.57,5.37L501.65,726.25z M502.78,715.5l0.57-5.38l-0.54-0.06l-0.57,5.37L502.78,715.5z M503.91,704.75l0.57-5.38l-0.54-0.06
						l-0.56,5.38L503.91,704.75z M505.04,694l0.33-3.16c0.08-0.74,0.17-1.48,0.25-2.21l-0.54-0.06c-0.09,0.74-0.17,1.47-0.25,2.22
						l-0.33,3.16L505.04,694z M506.3,683.28c0.24-1.77,0.5-3.57,0.77-5.34l-0.54-0.08c-0.27,1.78-0.53,3.58-0.77,5.35L506.3,683.28z
						 M507.92,672.6c0.3-1.76,0.62-3.55,0.95-5.32l-0.53-0.1c-0.33,1.77-0.65,3.56-0.95,5.33L507.92,672.6z M509.9,661.98
						c0.36-1.75,0.74-3.53,1.12-5.28l-0.53-0.12c-0.39,1.75-0.77,3.53-1.12,5.29L509.9,661.98z M512.23,651.44
						c0.41-1.72,0.85-3.49,1.29-5.24l-0.53-0.13c-0.45,1.76-0.89,3.53-1.3,5.25L512.23,651.44z M514.91,640.97
						c0.48-1.74,0.97-3.49,1.46-5.2l-0.52-0.15c-0.5,1.71-0.99,3.46-1.47,5.21L514.91,640.97z M517.92,630.6
						c0.53-1.72,1.08-3.45,1.63-5.15l-0.52-0.17c-0.55,1.7-1.1,3.43-1.63,5.16L517.92,630.6z M521.26,620.33
						c0.58-1.69,1.19-3.41,1.8-5.09l-0.51-0.18c-0.61,1.69-1.22,3.41-1.8,5.1L521.26,620.33z M524.93,610.17
						c0.63-1.67,1.29-3.36,1.96-5.03l-0.5-0.2c-0.67,1.67-1.33,3.37-1.96,5.04L524.93,610.17z M528.93,600.13
						c0.69-1.65,1.4-3.32,2.12-4.97l-0.5-0.22c-0.72,1.65-1.43,3.32-2.13,4.98L528.93,600.13z M533.26,590.23
						c0.75-1.65,1.53-3.3,2.29-4.89l-0.49-0.23c-0.77,1.6-1.54,3.25-2.29,4.9L533.26,590.23z M537.92,580.48
						c0.81-1.62,1.64-3.24,2.46-4.81l-0.48-0.25c-0.82,1.57-1.65,3.19-2.47,4.82L537.92,580.48z M542.95,570.92
						c0.89-1.61,1.78-3.19,2.66-4.7l-0.47-0.27c-0.88,1.51-1.78,3.1-2.67,4.71L542.95,570.92z"/>
				</g>
				<g>
					<path class="st36" d="M437.97,1128.2c0.03-0.9,0.07-1.8,0.11-2.71l-0.54-0.02c-0.04,0.91-0.08,1.81-0.11,2.71L437.97,1128.2z"
						/>
				</g>
			</g>
		</g>
		
			<linearGradient id="SVGID_10_" gradientUnits="userSpaceOnUse" x1="-6152.7271" y1="364.7852" x2="-6153.7588" y2="452.498" gradientTransform="matrix(-1 0 0 1 -5552.2764 0)">
			<stop  offset="0" style="stop-color:#FBB59E"/>
			<stop  offset="1" style="stop-color:#FFEBD1"/>
		</linearGradient>
		<path class="st41" d="M564.84,412.38c15.37,61.56,73.67,27.11,72.27-4.32C615.66,408.87,586.83,410.79,564.84,412.38z"/>
		<g>
			
				<linearGradient id="SVGID_11_" gradientUnits="userSpaceOnUse" x1="246.6674" y1="7495.418" x2="300.0947" y2="7348.1675" gradientTransform="matrix(-0.5056 0.8628 0.8628 0.5056 -5895.8037 -3512.2466)">
				<stop  offset="0" style="stop-color:#FBB59E"/>
				<stop  offset="1" style="stop-color:#FFEBD1"/>
			</linearGradient>
			<path class="st42" d="M366.77,481.65l66.85,39.96l14.26-24.33l-70.93-28.85c-1.21-3.21-10.26-26.08-18.04-28
				c-8.3-2.02,0.72,11.27,0.72,11.27s-19.52-10.27-30.81-6.06c-22.52,8.42,37.83,36.13,37.83,36.13L366.77,481.65z"/>
			<path class="st4" d="M550.1,418.43L550.1,418.43c9.71,7.02,12.33,20.36,5.99,30.53l-54.12,86.91
				c-5.05,8.11-15.35,11.18-24.01,7.16l-49.55-22.97l12.37-27.06l38.14,11.99l37.22-77.91C522.29,414.23,538.56,410.09,550.1,418.43
				z"/>
			<path class="st10" d="M426.06,522.79l8.31,3.99c2.5,1.2,5.5,0.15,6.7-2.35l11.5-23.93c1.2-2.5,0.15-5.5-2.35-6.7l-8.31-3.99
				c-2.5-1.2-5.5-0.15-6.7,2.35l-11.5,23.93C422.51,518.59,423.56,521.59,426.06,522.79z"/>
		</g>
		<g>
			<path class="st9" d="M642.5,336.37c0,0-31.63,17.67-47.81,28.32c-6.1,4.01-10.01,7.03-9.2,7.71c0.74,0.62,0.18,1.85-0.78,1.67
				c-7.49-1.35-24.01-8.56-22.64-46.14c0.02-0.83,0.07-1.67,0.12-2.54c0,0-2.02,1.26-4.45,1.92c-0.69,0.19-1.42,0.33-2.13,0.38
				c-1.98,0.14-3.95-0.4-5.13-2.49c-1.17-2.06-1.58-5.62-0.53-11.53c1.72-9.65,6.39-18.6,13.73-25.09
				c6.83-6.04,16.65-10.68,28.62-5.06c0,0,10.05,2.87,5.27,11.81c0,0-0.02,0.04-0.06,0.1c-0.23,0.45-0.51,0.91-0.83,1.39
				c-0.01,0.02-0.02,0.04-0.04,0.05c-0.23,0.34-0.48,0.69-0.75,1.04c0,0,0.05-0.01,0.15-0.03c2.36-0.48,31.56-5.93,47.19,15.25
				C643.23,313.15,654.49,327.32,642.5,336.37z"/>
			<path class="st9" d="M597.56,295.35c0,0-0.02,0.04-0.06,0.1c-0.12,0.19-0.41,0.67-0.83,1.39c-0.01,0.02-0.02,0.04-0.04,0.05
				c-0.18,0.3-0.37,0.64-0.59,1.01c-4.82,8.13-19.44,33.31-20.05,40.04c-0.38,4.22,9.34,16.24,18.69,26.75
				c-6.1,4.01-10.01,7.03-9.2,7.71c0.74,0.62,0.18,1.85-0.78,1.67c-7.49-1.35-24.01-8.56-22.64-46.14c0.02-0.83,0.07-1.67,0.12-2.54
				c0,0-2.02,1.26-4.45,1.92c-0.69,0.19-1.42,0.33-2.13,0.38C569.13,322.19,596.8,297.12,597.56,295.35z"/>
			<g>
				
					<linearGradient id="SVGID_12_" gradientUnits="userSpaceOnUse" x1="-6152.4502" y1="364.789" x2="-6153.4819" y2="452.501" gradientTransform="matrix(-1 0 0 1 -5552.2764 0)">
					<stop  offset="0" style="stop-color:#FBB59E"/>
					<stop  offset="1" style="stop-color:#FFEBD1"/>
				</linearGradient>
				<path class="st43" d="M585.79,370.13l-1,41.37c-0.06,2.62,2.34,7.39,4.39,9.03c5.85,4.68,22.63,5.17,26.87-8.65
					c0.63-2.04,0.73-4.21,0.34-6.31l-6.66-35.36L585.79,370.13z"/>
				
					<linearGradient id="SVGID_13_" gradientUnits="userSpaceOnUse" x1="2670.843" y1="1849.354" x2="2574.0073" y2="1891.832" gradientTransform="matrix(-0.9828 0.185 0.185 0.9828 2852.4473 -1967.2118)">
					<stop  offset="0" style="stop-color:#FBB59E"/>
					<stop  offset="1" style="stop-color:#FFEBD1"/>
				</linearGradient>
				<path class="st44" d="M640.32,319.16c0,0,15.57,70.94-21.44,76.49c-25.86,3.88-38.35-33.11-38.35-33.11s-12.36-2.15-9.34-13.92
					c3.01-11.77,17.38,3.07,17.38,3.07s4.36-6.59,20.37-9.61C633.78,337.4,626.83,328.8,640.32,319.16z"/>
				<g>
					<path class="st23" d="M631.28,366.88c1.51-0.28,2.65-0.96,3.41-2.02c2.44-3.39-0.18-9.4-0.29-9.65
						c-0.16-0.37-0.6-0.53-0.97-0.37c-0.37,0.16-0.54,0.6-0.37,0.97c0.02,0.05,2.39,5.49,0.44,8.2c-0.89,1.23-2.62,1.74-5.15,1.5
						c-0.4-0.03-0.76,0.26-0.8,0.66c-0.04,0.4,0.26,0.76,0.66,0.8C629.36,367.08,630.38,367.05,631.28,366.88z"/>
				</g>
				<g>
					<path class="st23" d="M626.69,380.76c0.02,0,0.03-0.01,0.05-0.01c3.24-0.63,4.87-3.33,4.93-3.45c0.21-0.35,0.09-0.8-0.26-1.01
						c-0.35-0.21-0.8-0.09-1,0.26c-0.02,0.03-1.39,2.26-3.97,2.76c-0.01,0-0.01,0-0.02,0c-2.03,0.38-4.3-0.37-6.75-2.24
						c-0.32-0.25-0.78-0.18-1.03,0.14c-0.25,0.32-0.18,0.78,0.14,1.03C621.57,380.37,624.23,381.22,626.69,380.76z"/>
				</g>
				<path class="st23" d="M638.47,346.1c0.16,1.21,0.94,2.1,1.75,1.99c0.8-0.11,1.32-1.17,1.16-2.38c-0.16-1.21-0.94-2.1-1.75-1.99
					C638.83,343.83,638.31,344.9,638.47,346.1z"/>
				<path class="st23" d="M618.77,348c0.1,1.21,0.83,2.14,1.64,2.07c0.81-0.07,1.38-1.1,1.28-2.31c-0.1-1.21-0.83-2.14-1.64-2.07
					C619.24,345.75,618.67,346.79,618.77,348z"/>
			</g>
			<g>
				<path class="st4" d="M574.13,365.54c0.08,0,0.17-0.02,0.24-0.07c0.18-0.13,0.22-0.38,0.1-0.56c-0.12-0.18-12.36-18-2.09-46.44
					c0.08-0.21-0.03-0.44-0.24-0.51c-0.21-0.08-0.44,0.03-0.51,0.24c-10.42,28.86,2.06,47,2.19,47.18
					C573.88,365.48,574,365.54,574.13,365.54z"/>
			</g>
			<path class="st45" d="M572.97,342.39c9.04-5.39,26.95,2.95,31.86,5.43c0.05-0.99,0.2-1.99,0.49-2.99
				c1.91-6.71,8.56-10.71,14.82-8.93c4.73,1.35,7.9,5.62,8.35,10.51c0.7-0.49,1.41-0.72,2.13-0.63c0.33,0.04,0.63,0.14,0.89,0.27
				c0.08-0.79,0.22-1.6,0.45-2.39c1.91-6.71,8.56-10.71,14.82-8.93c6.26,1.78,9.8,8.69,7.89,15.4c-1.91,6.71-8.56,10.71-14.82,8.93
				c-4.84-1.38-8.04-5.82-8.36-10.86c-0.16-0.22-0.55-0.68-1.05-0.73c-0.61-0.07-1.24,0.47-1.67,0.94
				c-0.07,0.08-0.17,0.11-0.26,0.16c-0.07,0.91-0.22,1.83-0.48,2.75c-1.91,6.71-8.56,10.71-14.82,8.93
				c-4.72-1.35-7.89-5.61-8.34-10.5c-3.01-1.56-22.24-11.13-31.02-5.89c-2.91,1.74-4.39,5.04-4.38,9.82c0,0.47-0.38,0.84-0.84,0.84
				c-0.08,0-0.16-0.01-0.23-0.03c-0.35-0.1-0.61-0.43-0.61-0.81C567.76,348.24,569.51,344.45,572.97,342.39z M640.3,357.43
				c5.37,1.53,11.08-1.96,12.73-7.77c1.66-5.81-1.36-11.79-6.73-13.31c-5.37-1.53-11.08,1.96-12.73,7.77
				C631.91,349.92,634.93,355.9,640.3,357.43z M613.66,358.6c5.37,1.53,11.08-1.96,12.73-7.77c1.66-5.81-1.36-11.79-6.73-13.31
				c-5.37-1.53-11.08,1.96-12.73,7.77C605.28,351.1,608.29,357.07,613.66,358.6z"/>
			<g>
				<path class="st4" d="M637.2,336.74c0.22-0.12,0.39-0.34,0.42-0.61c1.29-10.34-13.24-13.75-13.86-13.89
					c-0.43-0.1-0.86,0.17-0.96,0.61c-0.1,0.43,0.17,0.86,0.61,0.96c0.14,0.03,13.73,3.23,12.62,12.12c-0.06,0.44,0.26,0.84,0.7,0.9
					C636.9,336.84,637.06,336.81,637.2,336.74z"/>
			</g>
			<g>
				<path class="st4" d="M630.72,340.14c0.24-0.07,0.45-0.26,0.53-0.52c3.3-9.88-10.27-16.08-10.85-16.34
					c-0.41-0.18-0.88,0-1.06,0.41c-0.18,0.41,0,0.88,0.4,1.06c0.13,0.06,12.83,5.86,9.99,14.37c-0.14,0.42,0.09,0.88,0.51,1.02
					C630.4,340.19,630.57,340.19,630.72,340.14z"/>
			</g>
			<path class="st15" d="M581.86,360.3c0,1.42-1.15,2.57-2.57,2.57c-1.42,0-2.57-1.15-2.57-2.57c0-1.42,1.15-2.57,2.57-2.57
				C580.71,357.74,581.86,358.89,581.86,360.3z"/>
		</g>
	</g>
	<g>
		<g>
			<path class="st46" d="M720.11,37.72v103.57c0,7.03-5.7,12.72-12.72,12.72H603.83c-7.03,0-12.72-5.69-12.72-12.72V37.72
				c0-7.03,5.69-12.72,12.72-12.72H707.4C714.41,25,720.11,30.69,720.11,37.72z"/>
			<g>
				<path class="st47" d="M710.25,116.55c-15.49,0-28.09,12.6-28.09,28.09c0,3.28,0.56,6.43,1.61,9.36h14.01
					c-1.96-2.6-3.13-5.86-3.13-9.36c0-8.61,7-15.61,15.61-15.61c3.74,0,7.17,1.32,9.86,3.52v-14.22
					C717.04,117.18,713.72,116.55,710.25,116.55z"/>
			</g>
			<g>
				<path class="st15" d="M685.26,139.41h-81.08c-1.36,0-2.46,1.1-2.46,2.46l0,0c0,1.36,1.1,2.46,2.46,2.46h81.08
					c1.36,0,2.46-1.1,2.46-2.46l0,0C687.72,140.52,686.62,139.41,685.26,139.41z"/>
				<path class="st15" d="M661.77,130.32h-57.59c-1.36,0-2.46,1.1-2.46,2.46l0,0c0,1.36,1.1,2.46,2.46,2.46h57.59
					c1.36,0,2.46-1.1,2.46-2.46l0,0C664.23,131.42,663.13,130.32,661.77,130.32z"/>
			</g>
		</g>
		<g>
			<g class="st48">
				<rect x="602" y="38.07" class="st49" width="13.36" height="70.47"/>
				<rect x="633.49" y="38.07" class="st49" width="13.36" height="70.47"/>
				<rect x="664.96" y="38.07" class="st49" width="13.36" height="70.47"/>
				<rect x="697.09" y="38.07" class="st49" width="13.36" height="70.47"/>
			</g>
			<g>
				<polygon class="st15" points="640.92,95 616.23,93.89 600.96,80.3 602.15,79.36 616.97,92.55 640.43,93.61 661.69,80.93 
					676.61,80.98 693.35,54.08 710.37,73.91 709.04,74.71 693.58,56.69 677.6,82.35 662.21,82.31 				"/>
			</g>
		</g>
	</g>
	<g>
		<g>
			<path class="st46" d="M1414.34,12.73v103.69c0,6.78-5.29,12.32-11.98,12.69c-0.25,0.02-0.49,0.03-0.75,0.03h-103.69
				c-7.02,0-12.73-5.69-12.73-12.73V12.73c0-7.02,5.7-12.73,12.73-12.73h103.69C1408.65,0,1414.34,5.7,1414.34,12.73z"/>
			<g>
				<path class="st15" d="M1379.45,114.54h-81.17c-1.36,0-2.47,1.1-2.47,2.47l0,0c0,1.36,1.1,2.47,2.47,2.47h81.17
					c1.36,0,2.47-1.1,2.47-2.47l0,0C1381.92,115.65,1380.81,114.54,1379.45,114.54z"/>
				<path class="st15" d="M1355.94,105.44h-57.65c-1.36,0-2.47,1.1-2.47,2.47l0,0c0,1.36,1.1,2.47,2.47,2.47h57.65
					c1.36,0,2.47-1.1,2.47-2.47l0,0C1358.4,106.54,1357.3,105.44,1355.94,105.44z"/>
			</g>
		</g>
		<g>
			<g>
				<g>
					<path class="st15" d="M1330.79,67.13c-0.14,0-0.29,0-0.43-0.01c-4.39-0.22-8.23-3.83-11.43-10.71
						c-2.8-6.03-5.92-9.14-9.29-9.27c-0.07,0-0.14,0-0.21,0c-4.88,0-9.23,6.09-10.72,8.44c-0.32,0.5-0.98,0.67-1.5,0.38l0,0
						c-0.57-0.32-0.75-1.04-0.41-1.59c1.71-2.7,6.75-9.69,12.92-9.47c4.28,0.15,8.06,3.71,11.25,10.57c2.82,6.06,6.01,9.23,9.5,9.41
						c5.98,0.31,11.34-8.11,11.82-8.89c0.21-0.47,1.32-2.93,3.06-5.43c2.68-3.84,5.46-5.81,8.26-5.87c3.49-0.06,6.65,2.88,9.41,8.74
						c2.51,5.32,5.38,8.12,8.53,8.33c5.59,0.37,10.65-7.37,10.7-7.45l0.04-0.06c7.96-10.88,12.49-17.93,16.74-26l2,1.05
						c-4.3,8.17-8.88,15.29-16.9,26.25c-0.42,0.65-5.65,8.46-12.19,8.46c-0.18,0-0.35-0.01-0.53-0.02
						c-4.04-0.26-7.55-3.5-10.43-9.62c-1.6-3.4-4.16-7.45-7.26-7.45c-0.02,0-0.04,0-0.07,0c-4.18,0.08-8.15,7.25-9.33,10l-0.03,0.07
						l-0.04,0.07C1344.01,57.49,1338.18,67.13,1330.79,67.13z"/>
				</g>
			</g>
			<g>
				<path class="st15" d="M1403.16,28.07c0,1.47-1.19,2.67-2.67,2.67s-2.67-1.19-2.67-2.67c0-1.47,1.19-2.67,2.67-2.67
					S1403.16,26.6,1403.16,28.07z"/>
				<path class="st15" d="M1356.67,45.6c0,1.47-1.19,2.67-2.67,2.67c-1.47,0-2.67-1.19-2.67-2.67s1.19-2.67,2.67-2.67
					C1355.48,42.93,1356.67,44.13,1356.67,45.6z"/>
				<path class="st15" d="M1374.58,62.36c0,1.47-1.19,2.67-2.67,2.67c-1.47,0-2.67-1.19-2.67-2.67c0-1.47,1.19-2.67,2.67-2.67
					C1373.39,59.7,1374.58,60.89,1374.58,62.36z"/>
				<path class="st15" d="M1333.05,65.79c0,1.47-1.19,2.67-2.67,2.67s-2.67-1.19-2.67-2.67s1.19-2.67,2.67-2.67
					S1333.05,64.32,1333.05,65.79z"/>
				<path class="st15" d="M1312.09,45.6c0,1.47-1.19,2.67-2.67,2.67s-2.67-1.19-2.67-2.67s1.19-2.67,2.67-2.67
					S1312.09,44.13,1312.09,45.6z"/>
			</g>
		</g>
		<g>
			<path class="st47" d="M1385.21,118.25c0,3.85,0.75,7.54,2.12,10.89h14.29c0.26,0,0.5-0.01,0.75-0.03
				c-2.61-2.88-4.19-6.7-4.19-10.86c0-8.93,7.25-16.19,16.17-16.21V89.07C1398.28,89.09,1385.21,102.17,1385.21,118.25z"/>
		</g>
		<g class="st34">
			<path class="st15" d="M1301.16,10.7c0,1.39-1.12,2.51-2.51,2.51s-2.51-1.12-2.51-2.51c0-1.39,1.12-2.51,2.51-2.51
				S1301.16,9.32,1301.16,10.7z"/>
			<path class="st15" d="M1301.16,19.08c0,1.39-1.12,2.51-2.51,2.51s-2.51-1.12-2.51-2.51c0-1.39,1.12-2.51,2.51-2.51
				S1301.16,17.69,1301.16,19.08z"/>
			<path class="st15" d="M1307.86,10.7c0,1.39-1.12,2.51-2.51,2.51c-1.39,0-2.51-1.12-2.51-2.51c0-1.39,1.12-2.51,2.51-2.51
				C1306.74,8.19,1307.86,9.32,1307.86,10.7z"/>
			<path class="st15" d="M1307.86,19.08c0,1.39-1.12,2.51-2.51,2.51c-1.39,0-2.51-1.12-2.51-2.51c0-1.39,1.12-2.51,2.51-2.51
				C1306.74,16.57,1307.86,17.69,1307.86,19.08z"/>
			<path class="st15" d="M1314.56,10.7c0,1.39-1.12,2.51-2.51,2.51c-1.39,0-2.51-1.12-2.51-2.51c0-1.39,1.13-2.51,2.51-2.51
				C1313.44,8.19,1314.56,9.32,1314.56,10.7z"/>
			<path class="st15" d="M1314.56,19.08c0,1.39-1.12,2.51-2.51,2.51c-1.39,0-2.51-1.12-2.51-2.51c0-1.39,1.13-2.51,2.51-2.51
				C1313.44,16.57,1314.56,17.69,1314.56,19.08z"/>
		</g>
	</g>
</g>
</svg>
