<?xml version="1.0" encoding="utf-8"?>
<!-- Generator: Adobe Illustrator 24.3.0, SVG Export Plug-In . SVG Version: 6.00 Build 0)  -->
<svg version="1.1" id="_x2014_ÎÓÈ_x5F_3" xmlns="http://www.w3.org/2000/svg" xmlns:xlink="http://www.w3.org/1999/xlink"
	 x="0px" y="0px" viewBox="0 0 1939.78 1565.09" style="enable-background:new 0 0 1939.78 1565.09;" xml:space="preserve">
<style type="text/css">
	.st0{opacity:0.3;fill:url(#SVGID_1_);}
	.st1{opacity:0.3;fill:url(#SVGID_2_);}
	.st2{fill:#FFFFFF;}
	.st3{fill:#001729;}
	.st4{fill:#AFDFF9;}
	.st5{opacity:0.3;fill:#89D3F4;}
	.st6{fill:#89D3F4;}
	.st7{opacity:0.15;fill:#89D3F4;}
	.st8{fill:#C5EDFF;}
	.st9{opacity:0.25;fill:#89D3F4;}
	.st10{opacity:0.3;}
	.st11{fill:#262626;}
	.st12{fill:#4F4F4F;}
	.st13{fill:#373737;}
	.st14{fill:#203954;}
	.st15{fill:#EB8B8D;}
	.st16{fill:#01B7E6;}
	.st17{fill:#F2B9BF;}
	.st18{fill:#0E62A8;}
	.st19{opacity:0.5;fill:#4F4F4F;}
	.st20{fill:#1E7FF0;}
	.st21{fill:#009DC1;}
	.st22{fill:#304969;}
</style>
<g>
	<g id="Office">
		<linearGradient id="SVGID_1_" gradientUnits="userSpaceOnUse" x1="225.1969" y1="855.431" x2="1901.2476" y2="855.431">
			<stop  offset="0" style="stop-color:#B9E3FF"/>
			<stop  offset="0.3539" style="stop-color:#D4EDFF"/>
			<stop  offset="0.7539" style="stop-color:#ECF7FF"/>
			<stop  offset="1" style="stop-color:#F5FAFF"/>
		</linearGradient>
		<path class="st0" d="M1339.39,145.89c720.3-14.05,968.17,1196.94-615.14,1411.11c-518.66,70.16-692.69-330.95-233.46-605.46
			C820.18,754.63,781.26,156.78,1339.39,145.89z"/>
		<linearGradient id="SVGID_2_" gradientUnits="userSpaceOnUse" x1="0" y1="596.5314" x2="691.0018" y2="596.5314">
			<stop  offset="0" style="stop-color:#B9E3FF"/>
			<stop  offset="0.3539" style="stop-color:#D4EDFF"/>
			<stop  offset="0.7539" style="stop-color:#ECF7FF"/>
			<stop  offset="1" style="stop-color:#F5FAFF"/>
		</linearGradient>
		<path class="st1" d="M30.85,613.7c40.42-51.67,144.19-65.28,213.09-110.33s96.72-235.83,227.88-235.83
			c182.84,0,379.1,413.68,11.92,610.78C198.97,1031.19-97.66,777.98,30.85,613.7z"/>
		<g>
			<path class="st2" d="M1120.51,1460.63H983.7c-1.38,0-2.55-1.04-2.7-2.42l-26.09-236.04c-0.08-0.77,0.16-1.54,0.68-2.11
				c0.52-0.58,1.25-0.9,2.03-0.9h188.99c0.77,0,1.51,0.33,2.03,0.9c0.51,0.58,0.76,1.34,0.68,2.11l-26.09,236.04
				C1123.06,1459.58,1121.89,1460.63,1120.51,1460.63z M986.14,1455.19h131.94l25.49-230.6H960.64L986.14,1455.19z"/>
			<g>
				<path class="st2" d="M1139.81,1276.16H962.55c-1.5,0-2.72-1.22-2.72-2.72c0-1.5,1.22-2.72,2.72-2.72h177.25
					c1.5,0,2.72,1.22,2.72,2.72C1142.52,1274.95,1141.31,1276.16,1139.81,1276.16z"/>
			</g>
			<g>
				<path class="st2" d="M1098.05,1460.63c-0.1,0-0.19,0-0.29-0.02c-1.49-0.16-2.58-1.49-2.42-2.99l24.64-236.04
					c0.16-1.49,1.51-2.59,2.99-2.42c1.49,0.16,2.58,1.49,2.42,2.99l-24.64,236.04C1100.6,1459.59,1099.42,1460.63,1098.05,1460.63z"
					/>
			</g>
			<path class="st2" d="M1042.32,1440c0,0,0.12,15.52-3.87,15.33c-3.99-0.19-14.25-2.85-18.49-6.81
				c-4.24-3.96-10.79,9.39-10.79,9.39s-13.86-15.19-9.68-18.99c1.87-1.7,10.03-3.21,15.16-8.46c0.08-11.86,9.57-16.7,9.57-16.7
				l18,12.94L1042.32,1440z"/>
		</g>
	</g>
	<g id="Information">
		<g>
			<g>
				<path class="st3" d="M1366.96,96.74c-0.3-2.64,1.6-5.03,4.24-5.34c2.64-0.3,5.03,1.6,5.34,4.24c0.3,2.64-1.6,5.03-4.24,5.34
					C1369.65,101.28,1367.26,99.38,1366.96,96.74z"/>
			</g>
			<g>
				<path class="st3" d="M1394.33,93.61c-0.3-2.64,1.6-5.03,4.24-5.34c2.64-0.3,5.03,1.6,5.34,4.24s-1.6,5.03-4.24,5.34
					C1397.02,98.15,1394.63,96.25,1394.33,93.61z"/>
			</g>
			<g>
				<path class="st3" d="M1421.69,90.48c-0.3-2.64,1.6-5.03,4.24-5.34c2.64-0.3,5.03,1.6,5.34,4.24c0.3,2.64-1.6,5.03-4.24,5.34
					C1424.38,95.02,1421.99,93.12,1421.69,90.48z"/>
			</g>
			<g>
				<path class="st3" d="M1449.06,87.35c-0.3-2.64,1.6-5.03,4.24-5.34c2.64-0.3,5.03,1.6,5.34,4.24c0.3,2.64-1.6,5.03-4.24,5.34
					C1451.75,91.89,1449.36,89.99,1449.06,87.35z"/>
			</g>
			<g>
				<path class="st3" d="M1476.42,88.05c0.3-2.64,2.7-4.54,5.34-4.24c2.64,0.3,4.54,2.7,4.24,5.34c-0.3,2.64-2.7,4.54-5.34,4.24
					C1478.01,93.09,1476.12,90.7,1476.42,88.05z"/>
			</g>
			<g>
				<path class="st3" d="M1503.79,91.2c0.3-2.64,2.7-4.54,5.34-4.24c2.64,0.3,4.54,2.7,4.24,5.34c-0.3,2.64-2.7,4.54-5.34,4.24
					C1505.38,96.24,1503.48,93.85,1503.79,91.2z"/>
			</g>
			<g>
				<path class="st3" d="M1531.15,94.36c0.3-2.64,2.7-4.54,5.34-4.24c2.64,0.3,4.54,2.7,4.24,5.34c-0.3,2.64-2.7,4.54-5.34,4.24
					C1532.74,99.39,1530.84,97,1531.15,94.36z"/>
			</g>
			<g>
				<path class="st3" d="M1558.6,97.13c0.9-2.51,3.65-3.81,6.16-2.92c2.51,0.9,3.81,3.65,2.92,6.16c-0.9,2.51-3.65,3.81-6.16,2.92
					C1559.01,102.39,1557.7,99.64,1558.6,97.13z"/>
			</g>
			<g>
				<path class="st3" d="M1584.54,106.4c0.9-2.51,3.65-3.81,6.16-2.92c2.51,0.9,3.81,3.65,2.92,6.16c-0.9,2.51-3.65,3.81-6.16,2.92
					C1584.95,111.67,1583.64,108.91,1584.54,106.4z"/>
			</g>
			<g>
				<path class="st3" d="M1610.48,115.67c0.9-2.51,3.65-3.81,6.16-2.92c2.51,0.9,3.81,3.65,2.92,6.16c-0.9,2.51-3.65,3.81-6.16,2.92
					C1610.89,120.94,1609.58,118.18,1610.48,115.67z"/>
			</g>
			<g>
				<path class="st3" d="M1636.41,124.94c0.9-2.51,3.65-3.81,6.16-2.92c2.51,0.9,3.81,3.65,2.92,6.16c-0.9,2.51-3.65,3.81-6.16,2.92
					C1636.82,130.21,1635.52,127.45,1636.41,124.94z"/>
			</g>
			<g>
				<path class="st3" d="M1661.32,136.32c1.43-2.25,4.41-2.91,6.65-1.48c2.25,1.43,2.91,4.41,1.48,6.65s-4.41,2.91-6.65,1.48
					C1660.56,141.54,1659.89,138.56,1661.32,136.32z"/>
			</g>
			<g>
				<path class="st3" d="M1684.57,151.1c1.43-2.25,4.41-2.91,6.65-1.48c2.25,1.43,2.91,4.41,1.48,6.65s-4.41,2.91-6.65,1.48
					C1683.8,156.32,1683.14,153.34,1684.57,151.1z"/>
			</g>
			<g>
				<path class="st3" d="M1707.81,165.87c1.43-2.25,4.41-2.91,6.65-1.48c2.25,1.43,2.91,4.41,1.48,6.65
					c-1.43,2.25-4.41,2.91-6.65,1.48C1707.04,171.1,1706.38,168.12,1707.81,165.87z"/>
			</g>
			<g>
				<circle class="st3" cx="1734.91" cy="183.51" r="4.82"/>
			</g>
			<g>
				<path class="st3" d="M1750.97,199.58c1.88-1.88,4.93-1.88,6.82,0c1.88,1.88,1.88,4.93,0,6.82c-1.88,1.88-4.93,1.88-6.82,0
					C1749.09,204.51,1749.09,201.46,1750.97,199.58z"/>
			</g>
			<g>
				<path class="st3" d="M1770.45,219.05c1.88-1.88,4.93-1.88,6.82,0c1.88,1.88,1.88,4.93,0,6.82c-1.88,1.88-4.93,1.88-6.82,0
					C1768.57,223.99,1768.57,220.94,1770.45,219.05z"/>
			</g>
			<g>
				<path class="st3" d="M1789.93,238.53c1.88-1.88,4.93-1.88,6.82,0c1.88,1.88,1.88,4.93,0,6.82c-1.88,1.88-4.93,1.88-6.82,0
					C1788.05,243.46,1788.05,240.41,1789.93,238.53z"/>
			</g>
			<g>
				<path class="st3" d="M1807.53,259.51c2.25-1.43,5.23-0.77,6.65,1.48c1.43,2.25,0.77,5.23-1.48,6.65s-5.23,0.76-6.65-1.48
					C1804.62,263.91,1805.29,260.93,1807.53,259.51z"/>
			</g>
			<g>
				<path class="st3" d="M1822.31,282.75c2.25-1.43,5.23-0.76,6.65,1.48c1.43,2.25,0.76,5.23-1.48,6.65
					c-2.25,1.43-5.23,0.77-6.65-1.48C1819.4,287.16,1820.07,284.18,1822.31,282.75z"/>
			</g>
			<g>
				<path class="st3" d="M1837.09,306c2.25-1.43,5.23-0.76,6.65,1.48c1.43,2.25,0.77,5.23-1.48,6.65c-2.25,1.43-5.23,0.76-6.65-1.48
					C1834.18,310.4,1834.84,307.42,1837.09,306z"/>
			</g>
			<g>
				<path class="st3" d="M1852.43,328.97c2.51-0.9,5.27,0.41,6.16,2.92c0.9,2.51-0.41,5.27-2.92,6.16s-5.27-0.41-6.16-2.92
					C1848.62,332.62,1849.92,329.86,1852.43,328.97z"/>
			</g>
			<g>
				<path class="st3" d="M1861.7,354.9c2.51-0.9,5.27,0.41,6.16,2.92c0.9,2.51-0.41,5.27-2.92,6.16c-2.51,0.9-5.27-0.41-6.16-2.92
					C1857.89,358.56,1859.19,355.8,1861.7,354.9z"/>
			</g>
			<g>
				<path class="st3" d="M1870.97,380.84c2.51-0.9,5.27,0.41,6.16,2.92c0.9,2.51-0.41,5.27-2.92,6.16c-2.51,0.9-5.27-0.41-6.16-2.92
					C1867.16,384.49,1868.47,381.74,1870.97,380.84z"/>
			</g>
			<g>
				<path class="st3" d="M1880.24,406.78c2.51-0.9,5.27,0.41,6.16,2.92c0.9,2.51-0.41,5.27-2.92,6.16c-2.51,0.9-5.27-0.41-6.16-2.92
					C1876.43,410.43,1877.74,407.67,1880.24,406.78z"/>
			</g>
			<g>
				<path class="st3" d="M1887.42,433.2c2.64-0.3,5.04,1.59,5.34,4.24c0.3,2.64-1.59,5.04-4.24,5.34s-5.04-1.59-5.34-4.24
					C1882.88,435.9,1884.77,433.51,1887.42,433.2z"/>
			</g>
			<g>
				<path class="st3" d="M1890.57,460.57c2.64-0.3,5.04,1.59,5.34,4.24c0.3,2.64-1.59,5.04-4.24,5.34c-2.64,0.3-5.04-1.59-5.34-4.24
					C1886.03,463.26,1887.93,460.87,1890.57,460.57z"/>
			</g>
			<g>
				<path class="st3" d="M1893.72,487.93c2.64-0.3,5.04,1.59,5.34,4.24c0.3,2.64-1.59,5.04-4.24,5.34c-2.64,0.3-5.04-1.59-5.34-4.24
					C1889.18,490.63,1891.08,488.23,1893.72,487.93z"/>
			</g>
			<g>
				<path class="st3" d="M1896.88,515.29c2.64-0.3,5.04,1.59,5.34,4.24c0.3,2.64-1.59,5.04-4.24,5.34c-2.64,0.3-5.04-1.59-5.34-4.24
					C1892.33,517.99,1894.23,515.6,1896.88,515.29z"/>
			</g>
			<g>
				<path class="st3" d="M1896.05,542.68c2.65,0.27,4.58,2.63,4.31,5.28c-0.27,2.65-2.63,4.58-5.28,4.31
					c-2.65-0.27-4.58-2.63-4.31-5.28C1891.04,544.35,1893.4,542.42,1896.05,542.68z"/>
			</g>
			<g>
				<path class="st3" d="M1893.27,570.09c2.65,0.27,4.58,2.63,4.31,5.28c-0.27,2.65-2.63,4.58-5.28,4.31
					c-2.65-0.27-4.58-2.63-4.31-5.28C1888.26,571.75,1890.62,569.82,1893.27,570.09z"/>
			</g>
			<g>
				<path class="st3" d="M1890.5,597.49c2.65,0.27,4.58,2.63,4.31,5.28c-0.27,2.65-2.63,4.58-5.28,4.31
					c-2.65-0.27-4.58-2.63-4.31-5.28C1885.48,599.15,1887.85,597.22,1890.5,597.49z"/>
			</g>
			<g>
				<path class="st3" d="M1885.83,624.51c2.54,0.8,3.95,3.5,3.15,6.04c-0.8,2.54-3.5,3.95-6.04,3.15c-2.54-0.8-3.95-3.5-3.15-6.04
					S1883.29,623.71,1885.83,624.51z"/>
			</g>
			<g>
				<path class="st3" d="M1877.57,650.79c2.54,0.8,3.95,3.5,3.15,6.04c-0.8,2.54-3.5,3.95-6.04,3.15c-2.54-0.8-3.95-3.5-3.15-6.04
					C1872.33,651.4,1875.03,649.99,1877.57,650.79z"/>
			</g>
			<g>
				<path class="st3" d="M1869.31,677.06c2.54,0.8,3.95,3.5,3.15,6.04c-0.8,2.54-3.5,3.95-6.04,3.15c-2.54-0.8-3.95-3.5-3.15-6.04
					C1864.07,677.68,1866.77,676.27,1869.31,677.06z"/>
			</g>
			<g>
				<path class="st3" d="M1860.42,703.07c2.33,1.29,3.17,4.23,1.88,6.55c-1.29,2.33-4.23,3.17-6.55,1.88
					c-2.33-1.29-3.17-4.23-1.88-6.55C1855.16,702.62,1858.09,701.78,1860.42,703.07z"/>
			</g>
			<g>
				<path class="st3" d="M1847.06,727.15c2.33,1.29,3.17,4.23,1.88,6.55s-4.23,3.17-6.55,1.88c-2.33-1.29-3.17-4.23-1.88-6.55
					C1841.79,726.7,1844.73,725.86,1847.06,727.15z"/>
			</g>
			<g>
				<path class="st3" d="M1833.69,751.24c2.33,1.29,3.17,4.23,1.88,6.55c-1.29,2.33-4.23,3.17-6.55,1.88
					c-2.33-1.29-3.17-4.23-1.88-6.55C1828.43,750.79,1831.37,749.95,1833.69,751.24z"/>
			</g>
			<g>
				<path class="st3" d="M1820.49,775.44c2.02,1.73,2.26,4.77,0.53,6.8c-1.73,2.02-4.77,2.26-6.8,0.53
					c-2.02-1.73-2.26-4.77-0.53-6.8C1815.43,773.95,1818.47,773.71,1820.49,775.44z"/>
			</g>
			<g>
				<path class="st3" d="M1802.59,796.37c2.02,1.73,2.26,4.77,0.53,6.8c-1.73,2.02-4.77,2.26-6.8,0.53
					c-2.02-1.73-2.26-4.77-0.53-6.8C1797.53,794.88,1800.57,794.64,1802.59,796.37z"/>
			</g>
			<g>
				<path class="st3" d="M1784.69,817.31c2.02,1.73,2.26,4.77,0.53,6.8c-1.73,2.02-4.77,2.26-6.8,0.53
					c-2.02-1.73-2.26-4.77-0.53-6.8C1779.63,815.82,1782.67,815.58,1784.69,817.31z"/>
			</g>
			<g>
				<path class="st3" d="M1766.79,838.24c2.02,1.73,2.26,4.77,0.53,6.8c-1.73,2.02-4.77,2.26-6.8,0.53
					c-2.02-1.73-2.26-4.77-0.53-6.8C1761.73,836.75,1764.77,836.51,1766.79,838.24z"/>
			</g>
		</g>
		<g>
			<path class="st4" d="M1403.08,751.7h-147.31c-6.45,0-11.69-5.23-11.69-11.69v-72.84c0-6.45,5.23-11.69,11.69-11.69h147.31
				c6.45,0,11.69,5.23,11.69,11.69v72.84C1414.77,746.47,1409.54,751.7,1403.08,751.7z"/>
			<path class="st5" d="M1246.9,698.47c1.33-2.31,4.28-3.1,6.58-1.76c2.31,1.33,3.09,4.28,1.76,6.58c-1.33,2.31-4.28,3.1-6.58,1.76
				C1246.36,703.72,1245.57,700.78,1246.9,698.47z"/>
			<path class="st5" d="M1270.75,712.24c1.33-2.31,4.28-3.1,6.58-1.76c2.31,1.33,3.1,4.28,1.76,6.58c-1.33,2.31-4.28,3.1-6.58,1.76
				C1270.21,717.5,1269.42,714.55,1270.75,712.24z"/>
			<path class="st5" d="M1296.82,719.93c0.47-2.62,2.97-4.37,5.59-3.9s4.37,2.97,3.9,5.59c-0.47,2.62-2.97,4.37-5.59,3.9
				C1298.11,725.05,1296.36,722.55,1296.82,719.93z"/>
			<path class="st5" d="M1323.94,724.74c0.47-2.62,2.97-4.37,5.59-3.9c2.62,0.47,4.37,2.97,3.9,5.59c-0.47,2.62-2.97,4.37-5.59,3.9
				C1325.23,729.87,1323.48,727.36,1323.94,724.74z"/>
			<path class="st5" d="M1351.08,726.42c-0.44-2.63,1.33-5.11,3.95-5.55c2.63-0.44,5.11,1.33,5.55,3.95
				c0.44,2.63-1.33,5.11-3.95,5.55C1354.01,730.82,1351.52,729.05,1351.08,726.42z"/>
			<path class="st5" d="M1378.24,721.85c-0.44-2.63,1.33-5.11,3.95-5.55c2.63-0.44,5.11,1.33,5.55,3.95
				c0.44,2.63-1.33,5.11-3.95,5.55C1381.17,726.25,1378.68,724.48,1378.24,721.85z"/>
			<path class="st5" d="M1405.09,716.37c-1.27-2.34-0.4-5.27,1.94-6.54c2.34-1.27,5.27-0.4,6.54,1.94c1.27,2.34,0.4,5.27-1.94,6.54
				C1409.29,719.58,1406.36,718.71,1405.09,716.37z"/>
			<g>
				<g>
					<path class="st3" d="M1187.52,622.87c2.02-1.73,5.06-1.5,6.8,0.52c1.73,2.02,1.5,5.06-0.52,6.8c-2.02,1.73-5.06,1.5-6.8-0.52
						C1185.27,627.65,1185.5,624.61,1187.52,622.87z"/>
				</g>
				<g>
					<path class="st3" d="M1205.45,643.78c2.02-1.73,5.06-1.5,6.8,0.52c1.73,2.02,1.5,5.06-0.52,6.8c-2.02,1.73-5.06,1.5-6.8-0.52
						C1203.2,648.56,1203.43,645.51,1205.45,643.78z"/>
				</g>
				<g>
					<path class="st3" d="M1223.04,665.1c1.33-2.31,4.28-3.1,6.58-1.76c2.31,1.33,3.09,4.28,1.76,6.58
						c-1.33,2.31-4.28,3.1-6.58,1.76C1222.5,670.35,1221.71,667.4,1223.04,665.1z"/>
				</g>
				<g>
					<path class="st3" d="M1246.9,678.87c1.33-2.31,4.28-3.1,6.58-1.76c2.31,1.33,3.09,4.28,1.76,6.58
						c-1.33,2.31-4.28,3.1-6.58,1.76C1246.36,684.13,1245.57,681.18,1246.9,678.87z"/>
				</g>
				<g>
					<path class="st3" d="M1270.75,692.65c1.33-2.31,4.28-3.1,6.58-1.76c2.31,1.33,3.1,4.28,1.76,6.58
						c-1.33,2.31-4.28,3.1-6.58,1.76C1270.21,697.9,1269.42,694.95,1270.75,692.65z"/>
				</g>
				<g>
					<path class="st3" d="M1296.82,700.33c0.47-2.62,2.97-4.37,5.59-3.9c2.62,0.47,4.37,2.97,3.9,5.59
						c-0.47,2.62-2.97,4.37-5.59,3.9C1298.11,705.46,1296.36,702.95,1296.82,700.33z"/>
				</g>
				<g>
					<path class="st3" d="M1323.94,705.14c0.47-2.62,2.97-4.37,5.59-3.9c2.62,0.47,4.37,2.97,3.9,5.59
						c-0.47,2.62-2.97,4.37-5.59,3.9C1325.23,710.27,1323.48,707.77,1323.94,705.14z"/>
				</g>
				<g>
					<path class="st3" d="M1351.08,706.82c-0.44-2.63,1.33-5.11,3.95-5.55c2.63-0.44,5.11,1.33,5.55,3.95
						c0.44,2.63-1.33,5.11-3.95,5.55C1354.01,711.22,1351.52,709.45,1351.08,706.82z"/>
				</g>
				<g>
					<path class="st3" d="M1378.24,702.25c-0.44-2.63,1.33-5.11,3.95-5.55c2.63-0.44,5.11,1.33,5.55,3.95
						c0.44,2.63-1.33,5.11-3.95,5.55C1381.17,706.65,1378.68,704.88,1378.24,702.25z"/>
				</g>
				<g>
					<path class="st3" d="M1405.09,696.77c-1.27-2.34-0.4-5.27,1.94-6.54c2.34-1.27,5.27-0.4,6.54,1.94
						c1.27,2.34,0.4,5.27-1.94,6.54C1409.29,699.98,1406.36,699.11,1405.09,696.77z"/>
				</g>
				<g>
					<path class="st3" d="M1429.3,683.64c-1.27-2.34-0.4-5.27,1.94-6.54c2.34-1.27,5.27-0.4,6.54,1.94c1.27,2.34,0.4,5.27-1.94,6.54
						C1433.5,686.84,1430.57,685.98,1429.3,683.64z"/>
				</g>
				<g>
					<path class="st3" d="M1453.74,670.8c-1.94-1.82-2.04-4.87-0.22-6.81c1.82-1.94,4.87-2.04,6.81-0.22
						c1.94,1.82,2.04,4.87,0.22,6.81C1458.73,672.52,1455.68,672.62,1453.74,670.8z"/>
				</g>
				<g>
					<path class="st3" d="M1472.57,650.7c-1.94-1.82-2.04-4.87-0.22-6.81c1.82-1.94,4.87-2.04,6.81-0.22
						c1.94,1.82,2.04,4.87,0.22,6.81C1477.57,652.42,1474.52,652.52,1472.57,650.7z"/>
				</g>
				<g>
					<path class="st3" d="M1491.4,630.6c-1.94-1.82-2.04-4.87-0.22-6.81c1.82-1.94,4.87-2.04,6.81-0.22
						c1.94,1.82,2.04,4.87,0.22,6.81C1496.4,632.32,1493.35,632.42,1491.4,630.6z"/>
				</g>
			</g>
		</g>
		<g>
			<path class="st4" d="M1332.05,186.32h-217.98c-9.46,0-17.12-7.67-17.12-17.12V62.83c0-9.46,7.67-17.12,17.12-17.12h217.98
				c9.46,0,17.12,7.67,17.12,17.12v106.36C1349.18,178.65,1341.51,186.32,1332.05,186.32z"/>
			<rect x="1188.56" y="71.65" class="st6" width="22.43" height="92.27"/>
			<rect x="1236.78" y="71.65" class="st6" width="22.43" height="92.27"/>
			<rect x="1285" y="57.44" class="st6" width="22.43" height="106.47"/>
			<rect x="1140.34" y="127.86" class="st6" width="22.43" height="36.05"/>
			<path class="st5" d="M1205.09,47.63c1.82-1.94,4.87-2.04,6.82-0.22c1.94,1.82,2.04,4.87,0.22,6.82
				c-1.82,1.94-4.87,2.04-6.82,0.22C1203.37,52.63,1203.27,49.58,1205.09,47.63z"/>
			<path class="st5" d="M1225.19,66.49c1.82-1.94,4.87-2.04,6.82-0.22c1.94,1.82,2.04,4.87,0.22,6.82
				c-1.82,1.94-4.87,2.04-6.82,0.22C1223.46,71.48,1223.36,68.43,1225.19,66.49z"/>
			<path class="st5" d="M1241.95,88.09c2.25-1.42,5.23-0.74,6.65,1.52c1.42,2.25,0.74,5.23-1.52,6.65s-5.23,0.74-6.65-1.52
				C1239.01,92.48,1239.69,89.51,1241.95,88.09z"/>
			<path class="st5" d="M1256.61,111.42c2.25-1.42,5.23-0.74,6.65,1.52c1.42,2.25,0.74,5.23-1.52,6.65s-5.23,0.74-6.65-1.52
				S1254.36,112.83,1256.61,111.42z"/>
			<path class="st5" d="M1269.68,135.48c2.54-0.79,5.24,0.64,6.03,3.18s-0.64,5.24-3.18,6.03c-2.54,0.79-5.24-0.64-6.03-3.18
				C1265.71,138.96,1267.14,136.26,1269.68,135.48z"/>
			<path class="st5" d="M1277.82,161.8c2.54-0.79,5.24,0.64,6.03,3.18c0.79,2.54-0.64,5.24-3.18,6.03
				c-2.54,0.79-5.24-0.64-6.03-3.18C1273.85,165.29,1275.27,162.59,1277.82,161.8z"/>
		</g>
		<g>
			<g>
				<path class="st3" d="M785.84,181.22c-2.49-0.93-3.76-3.71-2.83-6.2c0.93-2.49,3.71-3.76,6.2-2.83s3.76,3.71,2.83,6.2
					C791.11,180.88,788.34,182.15,785.84,181.22z"/>
			</g>
			<g>
				<path class="st3" d="M795.46,155.41c-2.49-0.93-3.76-3.71-2.83-6.2c0.93-2.49,3.71-3.76,6.2-2.83c2.49,0.93,3.76,3.71,2.83,6.2
					C800.73,155.07,797.96,156.34,795.46,155.41z"/>
			</g>
			<g>
				<path class="st3" d="M806.49,130.35c-2.16-1.56-2.64-4.57-1.09-6.73c1.56-2.16,4.57-2.64,6.73-1.09
					c2.16,1.56,2.64,4.57,1.09,6.73C811.66,131.42,808.64,131.91,806.49,130.35z"/>
			</g>
			<g>
				<path class="st3" d="M822.61,108.02c-2.16-1.56-2.64-4.57-1.09-6.73c1.56-2.16,4.57-2.64,6.73-1.09
					c2.16,1.56,2.64,4.57,1.09,6.73C827.79,109.09,824.77,109.58,822.61,108.02z"/>
			</g>
			<g>
				<path class="st3" d="M838.74,85.69c-2.16-1.56-2.64-4.57-1.09-6.73c1.56-2.16,4.57-2.64,6.73-1.09
					c2.16,1.56,2.64,4.57,1.09,6.73C843.91,86.77,840.9,87.25,838.74,85.69z"/>
			</g>
			<g>
				<path class="st3" d="M859.16,67.42c-1.68-2.07-1.36-5.1,0.71-6.78c2.07-1.68,5.1-1.36,6.78,0.71c1.68,2.07,1.36,5.1-0.71,6.78
					C863.87,69.81,860.84,69.49,859.16,67.42z"/>
			</g>
			<g>
				<path class="st3" d="M880.56,50.09c-1.68-2.07-1.36-5.1,0.71-6.78c2.07-1.68,5.1-1.36,6.78,0.71c1.68,2.07,1.36,5.1-0.71,6.78
					S882.24,52.15,880.56,50.09z"/>
			</g>
			<g>
				<path class="st3" d="M903.55,35.34c-1.07-2.44,0.04-5.28,2.48-6.35c2.44-1.07,5.28,0.04,6.35,2.48s-0.04,5.28-2.48,6.35
					S904.62,37.78,903.55,35.34z"/>
			</g>
			<g>
				<path class="st3" d="M928.77,24.28c-1.07-2.44,0.04-5.28,2.48-6.35c2.44-1.07,5.28,0.04,6.35,2.48
					c1.07,2.44-0.04,5.28-2.48,6.35C932.68,27.82,929.84,26.71,928.77,24.28z"/>
			</g>
			<g>
				<path class="st3" d="M953.96,13.08c-0.37-2.64,1.47-5.07,4.11-5.44c2.64-0.37,5.07,1.47,5.44,4.11
					c0.37,2.64-1.47,5.07-4.11,5.44C956.76,17.56,954.33,15.72,953.96,13.08z"/>
			</g>
			<g>
				<path class="st3" d="M981.24,9.28c-0.37-2.64,1.47-5.07,4.11-5.44c2.64-0.37,5.07,1.47,5.44,4.11s-1.47,5.07-4.11,5.44
					C984.04,13.76,981.61,11.92,981.24,9.28z"/>
			</g>
			<g>
				<path class="st3" d="M1008.52,5.49c-0.37-2.64,1.47-5.07,4.11-5.44c2.64-0.37,5.07,1.47,5.44,4.11
					c0.37,2.64-1.47,5.07-4.11,5.44C1011.32,9.96,1008.89,8.12,1008.52,5.49z"/>
			</g>
			<g>
				<path class="st3" d="M1035.81,5.17c0.35-2.64,2.78-4.49,5.42-4.14c2.64,0.35,4.49,2.78,4.14,5.42
					c-0.35,2.64-2.78,4.49-5.42,4.14C1037.31,10.23,1035.46,7.81,1035.81,5.17z"/>
			</g>
			<g>
				<path class="st3" d="M1063.11,8.84c0.35-2.64,2.78-4.49,5.42-4.14c2.64,0.35,4.49,2.78,4.14,5.42
					c-0.35,2.64-2.78,4.49-5.42,4.14C1064.61,13.9,1062.76,11.48,1063.11,8.84z"/>
			</g>
			<g>
				<path class="st3" d="M1090.34,12.76c1.04-2.45,3.86-3.6,6.32-2.57c2.45,1.04,3.6,3.86,2.57,6.32c-1.04,2.45-3.86,3.6-6.32,2.57
					C1090.46,18.04,1089.31,15.21,1090.34,12.76z"/>
			</g>
			<g>
				<path class="st3" d="M1115.72,23.47c1.04-2.45,3.86-3.6,6.32-2.57c2.45,1.04,3.6,3.86,2.57,6.32c-1.04,2.45-3.86,3.6-6.32,2.57
					C1115.83,28.75,1114.68,25.92,1115.72,23.47z"/>
			</g>
			<g>
				<path class="st3" d="M1141.1,34.18c1.04-2.45,3.86-3.6,6.32-2.57c2.45,1.04,3.6,3.86,2.57,6.32s-3.86,3.6-6.32,2.57
					C1141.21,39.46,1140.06,36.63,1141.1,34.18z"/>
			</g>
			<g>
				<path class="st3" d="M1164.02,49.09c1.63-2.11,4.65-2.49,6.76-0.87c2.11,1.63,2.49,4.65,0.87,6.76
					c-1.63,2.11-4.65,2.5-6.76,0.87C1162.78,54.22,1162.39,51.2,1164.02,49.09z"/>
			</g>
			<g>
				<path class="st3" d="M1185.81,65.93c1.63-2.11,4.65-2.5,6.76-0.87c2.11,1.63,2.49,4.65,0.87,6.76
					c-1.63,2.11-4.66,2.49-6.76,0.87C1184.58,71.06,1184.19,68.04,1185.81,65.93z"/>
			</g>
			<g>
				<path class="st3" d="M1205.79,84.59c2.11-1.63,5.13-1.24,6.76,0.87c1.63,2.11,1.24,5.13-0.87,6.76
					c-2.11,1.63-5.13,1.24-6.76-0.87C1203.29,89.25,1203.68,86.22,1205.79,84.59z"/>
			</g>
			<g>
				<path class="st3" d="M1222.63,106.39c2.11-1.63,5.13-1.24,6.76,0.87c1.63,2.11,1.24,5.13-0.87,6.76
					c-2.11,1.63-5.13,1.24-6.76-0.87C1220.13,111.05,1220.52,108.02,1222.63,106.39z"/>
			</g>
			<g>
				<path class="st3" d="M1239.16,128.37c2.45-1.04,5.28,0.11,6.32,2.57c1.03,2.45-0.11,5.28-2.57,6.32
					c-2.45,1.04-5.28-0.11-6.32-2.57C1235.56,132.23,1236.71,129.4,1239.16,128.37z"/>
			</g>
			<g>
				<path class="st3" d="M1249.87,153.75c2.45-1.04,5.28,0.11,6.32,2.57c1.03,2.45-0.11,5.28-2.57,6.32
					c-2.45,1.04-5.28-0.11-6.32-2.57C1246.27,157.61,1247.42,154.78,1249.87,153.75z"/>
			</g>
			<g>
				<path class="st3" d="M1260.58,179.12c2.45-1.04,5.28,0.11,6.32,2.57c1.03,2.45-0.11,5.28-2.57,6.32
					c-2.45,1.04-5.28-0.11-6.32-2.57C1256.98,182.99,1258.12,180.16,1260.58,179.12z"/>
			</g>
			<g>
				<path class="st3" d="M1266.35,205.85c2.64-0.35,5.06,1.5,5.42,4.14c0.35,2.64-1.5,5.06-4.14,5.42c-2.64,0.35-5.06-1.5-5.42-4.14
					C1261.86,208.63,1263.72,206.2,1266.35,205.85z"/>
			</g>
			<g>
				<path class="st3" d="M1270.02,233.15c2.64-0.35,5.06,1.5,5.42,4.14c0.35,2.64-1.5,5.06-4.14,5.42c-2.64,0.35-5.06-1.5-5.42-4.14
					C1265.53,235.93,1267.38,233.5,1270.02,233.15z"/>
			</g>
			<g>
				<path class="st3" d="M1272.12,260.49c2.65,0.21,4.64,2.53,4.43,5.19c-0.21,2.65-2.53,4.64-5.18,4.43
					c-2.65-0.21-4.64-2.53-4.43-5.19C1267.14,262.26,1269.46,260.28,1272.12,260.49z"/>
			</g>
			<g>
				<path class="st3" d="M1269.95,287.95c2.65,0.21,4.64,2.53,4.43,5.19c-0.21,2.65-2.53,4.64-5.18,4.43
					c-2.65-0.21-4.64-2.53-4.43-5.19C1264.97,289.72,1267.29,287.74,1269.95,287.95z"/>
			</g>
		</g>
		<g>
			<path class="st4" d="M1314.28,596.42H926.15c-12.69,0-23.01-10.32-23.01-23.01V347.64c0-12.69,10.32-23.01,23.01-23.01h388.13
				c12.69,0,23.01,10.32,23.01,23.01v225.77C1337.29,586.1,1326.97,596.42,1314.28,596.42z M926.15,330.06
				c-9.69,0-17.58,7.89-17.58,17.58v225.77c0,9.69,7.89,17.58,17.58,17.58h388.13c9.69,0,17.58-7.88,17.58-17.58V347.64
				c0-9.69-7.88-17.58-17.58-17.58H926.15z"/>
			<path class="st4" d="M1296.63,342.64H908.5c-11.21,0-20.29,9.09-20.29,20.29v225.77c0,11.21,9.09,20.29,20.29,20.29h388.13
				c11.21,0,20.29-9.09,20.29-20.29V362.93C1316.92,351.73,1307.84,342.64,1296.63,342.64z"/>
			<g>
				<g>
					<path class="st3" d="M722.51,501.99c2.36-1.23,5.27-0.32,6.51,2.03c1.23,2.36,0.32,5.27-2.03,6.51
						c-2.36,1.23-5.27,0.32-6.51-2.03C719.24,506.14,720.15,503.22,722.51,501.99z"/>
				</g>
				<g>
					<path class="st3" d="M735.76,526.04c1.88-1.89,4.93-1.9,6.82-0.02c1.89,1.88,1.9,4.93,0.02,6.82c-1.88,1.89-4.93,1.9-6.82,0.02
						C733.89,530.98,733.88,527.93,735.76,526.04z"/>
				</g>
				<g>
					<path class="st3" d="M755.3,545.45c1.88-1.89,4.93-1.9,6.82-0.02c1.89,1.88,1.9,4.93,0.02,6.82c-1.88,1.89-4.93,1.9-6.82,0.02
						C753.44,550.39,753.43,547.34,755.3,545.45z"/>
				</g>
				<g>
					<path class="st3" d="M776.6,562.45c1.22-2.37,4.12-3.3,6.49-2.08c2.37,1.22,3.3,4.12,2.08,6.49c-1.22,2.37-4.12,3.3-6.49,2.08
						C776.31,567.72,775.38,564.82,776.6,562.45z"/>
				</g>
				<g>
					<path class="st3" d="M801.09,575.05c1.22-2.37,4.12-3.3,6.49-2.08c2.37,1.22,3.3,4.12,2.08,6.49c-1.22,2.37-4.12,3.3-6.49,2.08
						C800.81,580.32,799.87,577.42,801.09,575.05z"/>
				</g>
				<g>
					<path class="st3" d="M827.26,582.54c0.42-2.63,2.89-4.42,5.52-4c2.63,0.42,4.42,2.89,4,5.52c-0.42,2.63-2.89,4.42-5.52,4
						C828.63,587.64,826.84,585.17,827.26,582.54z"/>
				</g>
				<g>
					<path class="st3" d="M854.46,586.91c0.42-2.63,2.89-4.42,5.52-4c2.63,0.42,4.42,2.89,4,5.52s-2.89,4.42-5.52,4
						C855.83,592.01,854.04,589.54,854.46,586.91z"/>
				</g>
			</g>
			<path class="st6" d="M908.5,342.64c-11.21,0-20.29,9.09-20.29,20.29v125.19h156.93c12.21,0,22.11-9.9,22.11-22.11V342.64H908.5z"
				/>
			<path class="st4" d="M1035.44,206.38H587.78c-12.21,0-22.11,9.9-22.11,22.11v228.31c0,12.21,9.9,22.11,22.11,22.11h12.68
				c14.5,55.45,84.08,60.52,84.08,60.52s-31.53-23.65-32.25-60.52h383.15c12.21,0,22.11-9.9,22.11-22.11V228.48
				C1057.55,216.28,1047.65,206.38,1035.44,206.38z"/>
			<g>
				<path class="st6" d="M1289.62,533.01c-1.09,2.65-2.19,5.3-3.27,7.95c-1.11,2.72-2.19,5.45-3.29,8.18
					c-0.81,2.02-2.3,2.8-4.47,2.37c-3.23-0.63-6.46-1.23-9.68-1.87c-1.87-0.37-3.45,0.22-4.75,1.51c-2.34,2.31-4.62,4.68-6.9,7.05
					c-1.37,1.41-1.91,3.09-1.48,5.04c0.69,3.15,1.36,6.3,2.04,9.45c0.5,2.31-0.28,3.76-2.45,4.68c-4.95,2.09-9.88,4.2-14.82,6.32
					c-2.18,0.93-3.73,0.48-5.05-1.49c-1.78-2.65-3.58-5.29-5.37-7.93c-1.14-1.68-2.73-2.48-4.74-2.47
					c-3.16,0.03-6.32,0.07-9.49,0.11c-2.13,0.02-3.75,0.9-4.9,2.72c-1.69,2.67-3.45,5.3-5.11,7.99c-0.64,1.04-1.56,1.6-2.63,2.03
					c-0.44,0-0.89,0-1.33,0c-0.89-0.38-1.78-0.79-2.68-1.15c-4.57-1.84-9.15-3.66-13.72-5.51c-1.64-0.66-2.57-2.22-2.26-3.84
					c0.64-3.42,1.31-6.83,1.98-10.24c0.31-1.58,0.01-3.09-1.08-4.22c-2.6-2.7-5.26-5.37-8.04-7.89c-1.12-1.02-2.63-1.44-4.25-1.07
					c-3.3,0.75-6.6,1.45-9.91,2.16c-2.03,0.43-3.54-0.36-4.35-2.27c-2.16-5.05-4.32-10.11-6.48-15.17
					c-0.86-2.02-0.39-3.62,1.42-4.85c2.67-1.81,5.35-3.61,8.01-5.42c1.7-1.15,2.53-2.76,2.5-4.83c-0.05-3.16-0.06-6.33-0.1-9.49
					c-0.02-2.05-0.86-3.65-2.6-4.77c-2.8-1.79-5.59-3.58-8.37-5.39c-1.48-0.97-2.1-2.63-1.48-4.21c2.12-5.38,4.27-10.75,6.45-16.1
					c0.66-1.61,2.23-2.4,3.94-2.08c3.26,0.62,6.52,1.24,9.77,1.88c2.02,0.4,3.75-0.12,5.19-1.6c2.2-2.26,4.41-4.53,6.63-6.78
					c1.52-1.54,2.04-3.33,1.55-5.47c-0.71-3.08-1.36-6.17-2.02-9.26c-0.46-2.16,0.29-3.62,2.32-4.49c4.99-2.14,9.99-4.28,14.99-6.41
					c2.2-0.94,3.7-0.48,5.05,1.51c1.77,2.62,3.55,5.23,5.31,7.86c1.15,1.71,2.75,2.54,4.81,2.52c3.16-0.03,6.33-0.05,9.49-0.09
					c2.08-0.02,3.71-0.88,4.84-2.66c1.49-2.35,3-4.69,4.51-7.02c2.17-3.34,2.81-3.58,6.49-2.15c4.74,1.84,9.46,3.74,14.18,5.62
					c2.19,0.87,2.93,2.28,2.48,4.57c-0.63,3.23-1.25,6.45-1.86,9.68c-0.33,1.78,0.19,3.35,1.43,4.61c2.4,2.43,4.85,4.81,7.33,7.16
					c1.26,1.19,2.82,1.7,4.55,1.35c3.28-0.67,6.55-1.38,9.82-2.11c2.01-0.45,3.64,0.31,4.47,2.21c0.27,0.61,0.48,1.24,0.74,1.85
					c1.89,4.38,3.79,8.74,5.67,13.12c1.03,2.4,0.58,3.81-1.58,5.26c-2.62,1.77-5.24,3.53-7.86,5.31c-1.54,1.05-2.38,2.53-2.39,4.4
					c-0.02,3.35,0,6.71,0.08,10.06c0.05,1.91,0.89,3.45,2.55,4.51c2.45,1.57,4.87,3.19,7.34,4.71c1.24,0.76,2.34,1.59,2.83,3.02
					C1289.62,532,1289.62,532.5,1289.62,533.01z M1219.89,565.67c28.02,0.01,50.77-22.72,50.78-50.74
					c0.01-27.96-22.71-50.69-50.7-50.7c-28.16-0.02-50.73,22.71-50.75,50.82C1169.19,542.91,1191.97,565.66,1219.89,565.67z"/>
				<path class="st6" d="M1095.27,433.55c0.52-1.17,1.44-1.71,2.7-1.92c1.87-0.31,3.71-0.78,5.57-1.16c1.42-0.3,2.37-1.12,2.88-2.47
					c0.74-1.92,1.49-3.83,2.24-5.74c0.5-1.28,0.38-2.47-0.42-3.59c-1.19-1.67-2.38-3.35-3.57-5.03c-0.99-1.39-0.93-2.41,0.25-3.64
					c2.45-2.56,4.9-5.11,7.36-7.66c1.05-1.08,2.11-1.21,3.4-0.39c1.76,1.12,3.51,2.26,5.25,3.4c1.18,0.78,2.4,0.88,3.69,0.3
					c1.91-0.85,3.82-1.67,5.73-2.51c1.21-0.54,1.97-1.43,2.19-2.77c0.35-2.09,0.73-4.17,1.09-6.26c0.26-1.53,1.08-2.24,2.65-2.27
					c1.96-0.04,3.92-0.06,5.88-0.11c0.37-0.01,0.74-0.09,1.12-0.14c1.52,0,3.04,0,4.56,0c1.2,0.5,1.71,1.44,1.93,2.7
					c0.33,1.9,0.8,3.77,1.2,5.66c0.29,1.35,1.08,2.25,2.36,2.74c1.92,0.74,3.83,1.48,5.74,2.25c1.35,0.55,2.58,0.4,3.76-0.44
					c1.64-1.18,3.3-2.35,4.95-3.51c1.4-0.99,2.42-0.92,3.64,0.25c2.53,2.43,5.06,4.86,7.59,7.3c1.17,1.13,1.28,2.17,0.39,3.55
					c-1.13,1.75-2.27,3.5-3.41,5.25c-0.68,1.06-0.83,2.18-0.34,3.35c0.87,2.04,1.75,4.06,2.66,6.08c0.51,1.14,1.4,1.85,2.64,2.08
					c2.12,0.38,4.23,0.74,6.35,1.11c1.51,0.27,2.21,1.06,2.25,2.57c0.08,3.54,0.15,7.08,0.21,10.63c0.03,1.73-0.56,2.45-2.28,2.83
					c-2.04,0.45-4.08,0.88-6.12,1.31c-1.28,0.27-2.14,1.05-2.62,2.25c-0.78,1.93-1.51,3.89-2.29,5.82
					c-0.56,1.39-0.38,2.64,0.49,3.84c1.23,1.69,2.43,3.4,3.61,5.11c0.79,1.14,0.72,2.21-0.21,3.18c-2.53,2.65-5.07,5.29-7.63,7.93
					c-1.18,1.31-2.33,1.56-3.24,0.36c-1.81-1.16-3.61-2.34-5.42-3.5c-1.09-0.7-2.24-0.83-3.43-0.31c-2,0.86-4.01,1.72-5.99,2.62
					c-1.13,0.51-1.86,1.39-2.09,2.64c-0.38,2.15-0.75,4.3-1.13,6.44c-0.25,1.4-1.03,2.13-2.45,2.16c-3.67,0.09-7.34,0.16-11.01,0.22
					c-1.35,0.02-2.18-0.65-2.48-2c-0.46-2.07-0.91-4.14-1.33-6.21c-0.29-1.42-1.12-2.37-2.46-2.89c-1.86-0.72-3.72-1.41-5.56-2.17
					c-1.46-0.61-2.75-0.42-4.01,0.5c-1.66,1.21-3.34,2.39-5.03,3.56c-1.17,0.81-2.23,0.72-3.25-0.26c-2.63-2.51-5.25-5.03-7.87-7.56
					c-1.01-0.98-1.13-2.05-0.37-3.24c1.14-1.79,2.28-3.57,3.45-5.34c0.79-1.19,0.87-2.41,0.31-3.69c-0.83-1.91-1.67-3.82-2.52-5.73
					c-0.54-1.21-1.44-1.97-2.77-2.2c-2.09-0.36-4.17-0.73-6.26-1.09c-1.5-0.25-2.21-1.04-2.28-2.56c-0.02-0.44-0.01-0.89-0.02-1.33
					c-0.08-2.18-0.16-4.35-0.24-6.53C1095.27,436.08,1095.27,434.82,1095.27,433.55z M1115.38,438.82
					c0.02,14.99,12.22,27.21,27.14,27.19c15.02-0.02,27.2-12.24,27.16-27.25c-0.04-14.91-12.25-27.06-27.18-27.05
					C1127.6,411.72,1115.36,423.95,1115.38,438.82z"/>
				<path class="st6" d="M1174.03,515.06c-0.03-25.29,20.46-45.98,45.55-46.01c25.7-0.03,46.27,20.4,46.27,45.97
					c0.01,25.16-20.63,45.84-45.75,45.84C1194.65,560.85,1174.06,540.39,1174.03,515.06z M1219.82,539.9
					c13.84,0.03,25.02-11.05,25.08-24.86c0.05-13.83-11.11-25.04-24.99-25.09c-13.66-0.05-24.93,11.22-24.96,24.95
					C1194.91,528.63,1206.09,539.87,1219.82,539.9z"/>
				<path class="st6" d="M1160.73,438.89c0.01-10.09-8.13-18.23-18.21-18.23c-10.02,0.01-18.18,8.15-18.19,18.16
					c-0.01,10.07,8.16,18.24,18.22,18.24C1152.58,457.05,1160.72,448.91,1160.73,438.89z"/>
			</g>
			<g>
				<path class="st6" d="M1113.69,579.13H918.91c-4.2,0-7.61-3.41-7.61-7.61s3.41-7.61,7.61-7.61h194.78c4.2,0,7.61,3.41,7.61,7.61
					S1117.9,579.13,1113.69,579.13z"/>
			</g>
			<g>
				<path class="st6" d="M1113.69,544.91H918.91c-4.2,0-7.61-3.41-7.61-7.61s3.41-7.61,7.61-7.61h194.78c4.2,0,7.61,3.41,7.61,7.61
					S1117.9,544.91,1113.69,544.91z"/>
			</g>
			<g>
				<path class="st6" d="M757.25,264.36H597.98c-4.2,0-7.61-3.41-7.61-7.61c0-4.2,3.41-7.61,7.61-7.61h159.27
					c4.2,0,7.61,3.41,7.61,7.61C764.86,260.95,761.45,264.36,757.25,264.36z"/>
			</g>
			<g>
				<path class="st6" d="M757.25,302.17H597.98c-4.2,0-7.61-3.41-7.61-7.61s3.41-7.61,7.61-7.61h159.27c4.2,0,7.61,3.41,7.61,7.61
					S761.45,302.17,757.25,302.17z"/>
			</g>
			<g>
				<path class="st6" d="M757.25,339.98H597.98c-4.2,0-7.61-3.41-7.61-7.61s3.41-7.61,7.61-7.61h159.27c4.2,0,7.61,3.41,7.61,7.61
					S761.45,339.98,757.25,339.98z"/>
			</g>
			<g>
				<path class="st6" d="M1284.1,387.35h-83.18c-4.2,0-7.61-3.41-7.61-7.61c0-4.2,3.41-7.61,7.61-7.61h83.18
					c4.2,0,7.61,3.41,7.61,7.61C1291.71,383.94,1288.3,387.35,1284.1,387.35z"/>
			</g>
			<g>
				<path class="st6" d="M1284.1,416.97h-83.18c-4.2,0-7.61-3.41-7.61-7.61s3.41-7.61,7.61-7.61h83.18c4.2,0,7.61,3.41,7.61,7.61
					S1288.3,416.97,1284.1,416.97z"/>
			</g>
			<path class="st7" d="M1057.55,228.48c0-12.21-9.9-22.11-22.11-22.11H966L658.91,478.9H808.4l249.15-227.37V228.48z"/>
			<path class="st4" d="M859.5,400.21c0,0-90.27,7.7-104.81,78.71h208.54c0,0,32.69-18.01,15.18-36.25
				c-13.73-14.3-32.92-28.74-57.74-34.76C864.21,394.22,859.5,400.21,859.5,400.21z"/>
			<path class="st8" d="M939.41,414.41c-5.85-2.66-12.08-4.89-18.73-6.51c-56.47-13.69-61.17-7.7-61.17-7.7s-5.2,0.45-13.27,2.1
				c0,0.02,0,76.62,0,76.62h21.8L939.41,414.41z"/>
			<path class="st2" d="M815.1,288.46c-0.94,20.19-6.5,121.15,44.4,98.05v74.01l61.17-52.62l-1.43-45.63l-26.81-58.32l-19.68-36.36
				L815.1,288.46z"/>
			<path class="st6" d="M817.15,290.4c11.98,10.27,45.29-8.27,51.56-6.56c6.27,1.71-7.36,33.65,6.04,35.08
				c15.32,1.63,5.7,14.83,12.55,15.97c6.84,1.14,31.94,27.38,31.94,27.38s15.4-59.89,4.56-77.17c-6.59-10.5-23.5-6.01-24.81-7.25
				c-4.85-4.56-2.57-21.39-15.12-25.67c-9.19-3.13-18.82,9.13-23.96,5.7c-5.13-3.42,4.51-22.11-6.27-26.24
				C834.26,224.24,789.56,266.76,817.15,290.4z"/>
			<circle class="st2" cx="898.15" cy="334.75" r="14.12"/>
			<path class="st4" d="M859.5,386.52c0,0,10.91-2.99,32.37-13.69c-9.7,13.69-32.37,40.21-32.37,40.21V386.52z"/>
			<path class="st7" d="M1057.55,456.79V325.97L898.15,478.9h137.29C1047.65,478.9,1057.55,469,1057.55,456.79z"/>
			<path class="st2" d="M1034.96,395.26c-0.48-7.45-3.05-13.5-7.74-18.59c-3.24-3.52-7.82-3.45-12.09-3.77
				c-0.87-0.07-2.15,1.34-2.76,2.36c-3.29,5.54-6.42,11.18-9.62,16.78c-1.21,2.11-1.1,4.07,0.74,5.71c2.53,2.26,5.14,4.44,7.73,6.64
				c2.44,2.08,2.59,4.33,1.13,7.18c-6.69,13.06-16.48,22.98-29.43,29.87c-2.72,1.45-4.85,1.21-6.84-1.1
				c-2.07-2.4-4.19-4.76-6.3-7.12c-1.9-2.13-3.92-2.56-6.51-0.94c-5.27,3.29-10.63,6.42-16.04,9.49c-2.31,1.31-2.9,2.95-2.39,5.52
				c2.17,10.89,14.15,18.78,25.42,16.38c19.18-4.08,34.09-14.91,46.78-29.46c9.04-10.37,14.39-22.39,17.47-35.6
				C1034.8,397.35,1034.86,396.05,1034.96,395.26z"/>
			<circle class="st6" cx="643.96" cy="369.88" r="7.61"/>
			<circle class="st6" cx="679.38" cy="369.88" r="7.61"/>
			<circle class="st6" cx="711.27" cy="369.88" r="7.61"/>
		</g>
		<g>
			<path class="st4" d="M1242.57,916.73h-147.31c-7.94,0-14.41-6.46-14.41-14.41v-72.84c0-7.94,6.46-14.41,14.41-14.41h147.31
				c7.94,0,14.41,6.46,14.41,14.41v72.84C1256.98,910.27,1250.52,916.73,1242.57,916.73z M1095.26,820.51
				c-4.95,0-8.97,4.02-8.97,8.97v72.84c0,4.95,4.02,8.97,8.97,8.97h147.31c4.95,0,8.97-4.02,8.97-8.97v-72.84
				c0-4.95-4.02-8.97-8.97-8.97H1095.26z"/>
			<path class="st4" d="M1472.97,916.73h-147.31c-7.94,0-14.41-6.46-14.41-14.41v-72.84c0-7.94,6.46-14.41,14.41-14.41h147.31
				c7.94,0,14.41,6.46,14.41,14.41v72.84C1487.37,910.27,1480.91,916.73,1472.97,916.73z M1325.65,820.51
				c-4.95,0-8.97,4.02-8.97,8.97v72.84c0,4.95,4.02,8.97,8.97,8.97h147.31c4.95,0,8.97-4.02,8.97-8.97v-72.84
				c0-4.95-4.02-8.97-8.97-8.97H1325.65z"/>
			<path class="st4" d="M1703.36,916.73h-147.31c-7.94,0-14.41-6.46-14.41-14.41v-72.84c0-7.94,6.46-14.41,14.41-14.41h147.31
				c7.94,0,14.41,6.46,14.41,14.41v72.84C1717.77,910.27,1711.3,916.73,1703.36,916.73z M1556.05,820.51
				c-4.95,0-8.97,4.02-8.97,8.97v72.84c0,4.95,4.02,8.97,8.97,8.97h147.31c4.95,0,8.97-4.02,8.97-8.97v-72.84
				c0-4.95-4.02-8.97-8.97-8.97H1556.05z"/>
			<path class="st4" d="M1255.95,901.51h-147.31c-6.45,0-11.69-5.23-11.69-11.69v-72.84c0-6.45,5.23-11.69,11.69-11.69h147.31
				c6.45,0,11.69,5.23,11.69,11.69v72.84C1267.64,896.28,1262.41,901.51,1255.95,901.51z"/>
			<path class="st4" d="M1486.35,901.51h-147.31c-6.45,0-11.69-5.23-11.69-11.69v-72.84c0-6.45,5.23-11.69,11.69-11.69h147.31
				c6.45,0,11.69,5.23,11.69,11.69v72.84C1498.03,896.28,1492.8,901.51,1486.35,901.51z"/>
			<path class="st4" d="M1716.74,901.51h-147.31c-6.45,0-11.69-5.23-11.69-11.69v-72.84c0-6.45,5.23-11.69,11.69-11.69h147.31
				c6.45,0,11.69,5.23,11.69,11.69v72.84C1728.43,896.28,1723.19,901.51,1716.74,901.51z"/>
			<g>
				<path class="st6" d="M1362.34,886.82c-32.43,0-70.66-7.05-119.29-27.22c-79.76-33.08-121.1-15.68-164.88,2.76
					c-8.39,3.54-17.08,7.19-26.05,10.49c-1.4,0.51-2.97-0.21-3.49-1.62c-0.52-1.41,0.21-2.97,1.62-3.49
					c8.85-3.25,17.47-6.88,25.81-10.39c44.85-18.89,87.21-36.72,169.07-2.77c104.35,43.28,160,25.09,213.83,7.49
					c10.53-3.44,21.41-7,32.37-9.97c11.25-3.04,22.56-6.68,33.49-10.19c54-17.36,109.84-35.31,194.79,2.03
					c98.74,43.41,165.35-16.58,213.98-60.38l1.65-1.49c1.11-1,2.83-0.91,3.84,0.2c1,1.12,0.92,2.83-0.2,3.84l-1.65,1.49
					c-49.74,44.79-117.85,106.14-219.81,61.32c-83.06-36.51-137.9-18.88-190.94-1.83c-10.99,3.53-22.36,7.19-33.73,10.27
					c-10.82,2.93-21.64,6.46-32.1,9.88C1430.95,876.94,1400.72,886.82,1362.34,886.82z"/>
			</g>
			<circle class="st2" cx="1168.05" cy="839.2" r="9.78"/>
			<circle class="st2" cx="1361.57" cy="882.5" r="9.78"/>
			<circle class="st2" cx="1626.85" cy="824.28" r="9.78"/>
			<path class="st9" d="M1267.59,890.36c-10.12-3.3-20.74-7.22-31.93-11.86c-26.18-10.86-48.31-16.41-67.79-18.33
				c-1.26-3.95-4.91-6.83-9.28-6.83c-4.08,0-7.58,2.5-9.04,6.06c-19.59,0.31-36.52,4.33-52.6,9.88v5.77
				c15.92-5.6,32.65-9.72,52.04-10.12c0.85,4.54,4.82,7.97,9.6,7.97c4.5,0,8.25-3.05,9.39-7.19c18.87,1.91,40.3,7.31,65.6,17.8
				c11.38,4.72,22.18,8.71,32.48,12.07C1266.95,894.03,1267.5,892.26,1267.59,890.36z"/>
			<g class="st10">
				<path class="st9" d="M1498.03,870.97c-5.37,1.65-10.78,3.25-16.17,4.71c-10.96,2.97-21.85,6.53-32.38,9.97
					c-18.56,6.07-37.35,12.2-58.27,15.86h25c12.02-3.21,23.54-6.96,34.96-10.69c10.46-3.42,21.29-6.96,32.11-9.88
					c4.93-1.33,9.85-2.79,14.75-4.28V870.97z"/>
				<path class="st9" d="M1360.71,901.51c-1.63-3.1-4.85-5.22-8.6-5.22c-3.75,0-6.97,2.12-8.6,5.22H1360.71z"/>
			</g>
			<path class="st9" d="M1728.43,874.52c-5.97-1.94-12.06-4.27-18.29-7c-31.2-13.72-58.46-19.95-83.16-21.52
				c-0.87-4.51-4.83-7.93-9.6-7.93c-4.65,0-8.53,3.26-9.52,7.61c-17.79,0.55-34.3,3.39-50.12,7.29v5.62
				c15.93-3.98,32.55-6.88,50.48-7.42c1.36,3.76,4.93,6.46,9.17,6.46c4.12,0,7.63-2.56,9.08-6.17c24.23,1.5,50.95,7.59,81.49,21.02
				c6.98,3.07,13.8,5.62,20.47,7.74V874.52z"/>
		</g>
		<g>
			<path class="st4" d="M1649.88,609H1431.9c-9.46,0-17.12-7.67-17.12-17.12V485.51c0-9.46,7.67-17.12,17.12-17.12h217.98
				c9.46,0,17.12,7.67,17.12,17.12v106.36C1667,601.33,1659.33,609,1649.88,609z"/>
			<path class="st4" d="M1664.55,596.42h-217.98c-10.94,0-19.84-8.9-19.84-19.84V470.22c0-10.94,8.9-19.84,19.84-19.84h217.98
				c10.94,0,19.84,8.9,19.84,19.84v106.36C1684.39,587.52,1675.49,596.42,1664.55,596.42z M1446.57,455.81
				c-7.94,0-14.41,6.46-14.41,14.41v106.36c0,7.94,6.46,14.41,14.41,14.41h217.98c7.94,0,14.41-6.46,14.41-14.41V470.22
				c0-7.94-6.46-14.41-14.41-14.41H1446.57z"/>
			<rect x="1474.62" y="500.09" class="st2" width="131.85" height="77.02"/>
			<polygon class="st6" points="1614.44,589.49 1466.38,589.49 1466.38,530.84 1542.22,565.52 1614.44,530.84 			"/>
			<polygon class="st8" points="1614.44,589.49 1614.44,530.84 1492.28,589.49 			"/>
			<path class="st6" d="M1591.31,496.66c0,6.8,5.52,12.32,12.32,12.32s12.32-5.52,12.32-12.32s-5.52-12.32-12.32-12.32
				S1591.31,489.85,1591.31,496.66z"/>
		</g>
	</g>
	<g id="Girl">
		<polygon class="st11" points="217.73,719.83 349,719.83 461.46,993.49 398.18,1136.3 256.62,1113.42 294.7,1000.76 215.17,811.34 
					"/>
		<path class="st12" d="M238.14,1094.87l36.69-97.56c0,0-69.19-165.62-69.72-166.93l-0.4-0.98l-0.7-1.76l-0.04-0.13l-0.16-0.5
			l-0.32-1.01l-0.16-0.5l-0.29-1.05c-0.49-1.89-0.86-3.83-1.1-5.75l-0.15-2.19c-0.09-1.38-0.18-2.74-0.27-4.1
			c-0.18-2.71-3.27-87.93-3.28-90.52c0-3.13,2.88-5.47,5.94-4.82l16.48,3.47c1.89,0.4,3.37,1.85,3.79,3.74
			c0.1,0.46,0.21,0.96,0.34,1.51c0.66,3,14.83,85.31,15.03,86.68l0.3,1.94c0.02-0.55-0.1-1.12-0.33-1.64l-0.09-0.19
			c-0.05-0.1,0.04,0.11,0.05,0.15l0.19,0.49l0.38,0.98l0.19,0.49l0.05,0.12c-1.08-2.74-0.27-0.69-0.49-1.27l0.11,0.24l0.46,0.96
			c0.61,1.28,1.23,2.57,1.85,3.86c1.24,2.59,2.49,5.21,3.76,7.86c2.53,5.3,61.82,133.36,72.01,155.77c1.21,3.35,2.37,6.75,2.68,10.3
			l0.28,2.64l0.1,1.32c0.02,0.54-0.02,1.25-0.03,1.84c-0.06,2.05-0.23,4.09-0.61,6.1l-0.38,1.99l-0.14,0.54l-0.28,1.08l-0.28,1.08
			l-0.07,0.27l-0.76,2.36l-0.19,0.52c-0.51,1.39-1.02,2.78-1.53,4.16c-2.02,5.51-40.12,106.53-40.12,106.53L238.14,1094.87z"/>
		<path class="st13" d="M467.18,1126.38c-0.58,0-1.18-0.11-1.76-0.33c-2.48-0.97-3.71-3.77-2.74-6.25l49.02-125.29
			c0.03-0.08,0.07-0.17,0.11-0.25c3.59-7.85,2.95-16.88-1.72-24.15c-4.67-7.27-12.61-11.6-21.25-11.6H389.5
			c-17.99,0-33.83,10.84-40.35,27.6l-20.21,51.98c-0.96,2.49-3.76,3.71-6.25,2.75c-2.48-0.97-3.71-3.76-2.75-6.25l20.21-51.98
			c7.97-20.51,27.34-33.76,49.35-33.76h99.34c11.94,0,22.92,6,29.37,16.04c6.43,10,7.33,22.42,2.43,33.25l-48.97,125.16
			C470.93,1125.22,469.1,1126.38,467.18,1126.38z"/>
		<path class="st14" d="M339.17,508.39c21.34-12.13,68.12-1.28,84.09,0c15.97,1.28,101.67-13.08,112.6,36.56
			c16.15,73.33-52.38,96.21-44.68,109.68c7.7,13.47,28.22,11.22,33.35,25.3c4.33,11.89-12.19,42-6.41,51.64
			c5.77,9.64,38.48,19.91,33.35,60.95c-5.13,41.05-100.06,161.63-100.06,161.63l-63.67-10.26c0,0-36.71,53.24-91.87,46.19
			c-55.16-7.06-91.03-48-73.76-86.6c15.07-33.67,47.78-26.53,47.78-26.53s-43.93-23.41,0-45.11c0,0-84.02-22.64-60.72-100.27
			c20.7-68.95,106.04-56.2,106.04-56.2S264.34,550.94,339.17,508.39z"/>
		<path class="st15" d="M453.97,736.06l-36.32,192.68l-21.12-26.26l146.32,21.35c7.03,1.03,11.89,7.55,10.87,14.58
			c-0.94,6.43-6.48,11.05-12.8,11l-147.86-0.88c-11.93-0.07-21.54-9.8-21.47-21.73c0-0.63,0.03-1.26,0.09-1.87l0.25-2.66
			l18.54-195.19c1.68-17.65,17.34-30.6,34.99-28.92c17.65,1.68,30.6,17.34,28.92,34.99C454.29,734.11,454.14,735.12,453.97,736.06z"
			/>
		<path class="st15" d="M629.99,1228.79c-24.38,54.2-46.62,103.26-47.41,121.04c-1.8,40.45-2.25,83.6,27.19,100.45
			c0,0-42.47,14.16-54.61,0c-12.14-14.16-2.4-38.43-10.64-48.54c-8.24-10.11-22.73-16.85-20.37-36.74
			c1.81-15.3,32.36-39.44,32.36-39.44c9.58-40.94,8.43-84.88,14.35-126.85C576.32,1160.02,661.07,1159.69,629.99,1228.79z"/>
		<path class="st16" d="M453.97,735.1c0,0-1.96,12.15-5.14,30.33c-1.63,9.09-3.53,19.69-5.57,31.04
			c-2.05,11.36-4.32,23.46-6.62,35.56c-2.25,12.1-4.63,24.19-6.83,35.52c-2.19,11.34-4.27,21.91-6.11,30.97
			c-3.63,18.12-6.05,30.2-6.05,30.2c-2.51,12.52-14.7,20.64-27.22,18.13c-11.64-2.33-19.47-13.02-18.51-24.57
			c0,0,1.01-12.28,2.52-30.7c0.73-9.21,1.65-19.95,2.68-31.45c1.01-11.5,2.07-23.77,3.24-36.03c1.13-12.26,2.29-24.52,3.45-36
			c1.18-11.48,2.27-22.19,3.22-31.38c1.96-18.36,3.43-30.57,3.43-30.57c2.12-17.59,18.09-30.13,35.68-28.01
			c17.59,2.12,30.13,18.09,28.01,35.68C454.11,734.21,454.03,734.72,453.97,735.1z"/>
		<path class="st17" d="M305.47,1063.84c4.96-64.59,68.35-121.1,59.99-157.95c-8.36-36.86-85.87-213.48,27.58-205.72
			c87.96,73.97,87.96,87.66,85.27,165.86c-1.02,29.67-16.51,107.56,13.43,142.04C521.67,1042.54,305.47,1063.84,305.47,1063.84z"/>
		<path class="st3" d="M414.49,1014.48c43.14-8.04,275.51-20.62,279.1,36.01c2.6,40.93-56.45,157.59-88.77,234.94
			c-9.25,22.13-41.92,3.21-40.34-15.71c5.27-63.01,4.35-127.75,54.73-178.11c0,0-91.69,19.55-159.78,11.46
			S414.49,1014.48,414.49,1014.48z"/>
		<path class="st17" d="M406.69,669.87c-4.66,9.35-6.8,44.41-2.1,56.38c4.7,11.97-31.21,0-31.21,0s-14.05-50.68,7.09-87.13
			C401.6,602.67,406.69,669.87,406.69,669.87z"/>
		<path class="st3" d="M305.47,1063.84c2.4-31.27,18.49-60.64,33.51-86.8c16.01-27.89,130.57-44.49,136.73-7.59
			c2.51,15.02,7.36,28.63,16.02,38.61C491.74,1052.07,305.47,1063.84,305.47,1063.84z"/>
		<path class="st16" d="M339.94,974.4c15.16-26.84,28.65-50.21,24.47-68.64c-7.13-31.43-63.77-164.41-9.95-198.08
			c9.29-5.81,29.39,39.82,49.7,39.02c20.31-0.8,15.35-23.1,10.06-28.39c66.76,58.71,66.55,76.35,64.09,147.7
			c-0.73,21.08-8.42,66.47-2.6,103.43C480.27,998.41,324.78,1001.24,339.94,974.4z"/>
		<path class="st15" d="M382.77,635.47c-0.75,1.08-1.52,2.29-2.31,3.66c-12.14,20.93-12.72,46.02-10.97,64.04
			c13.1-3.74,27.49-10.2,35.28-27.49c0.57-2.4,1.22-4.4,1.92-5.81c0,0-0.7-9.23-2.66-18.99
			C398.87,643.6,389.85,638.55,382.77,635.47z"/>
		<path class="st17" d="M414.85,518.33c32-2.11,59.65,5.13,60.72,55.27c0.55,25.65-27.79,45.32,4.7,54.73
			c4.39,13.47-12.4,22.66-12.4,22.66s-5.99,30.36-17.1,31.64c-11.12,1.28-54.73,0-77.39-59.01
			C350.71,564.62,380.86,520.58,414.85,518.33z"/>
		<path class="st15" d="M453.52,524.31c3.67,9.74-17.98,44.85-26.96,48.7c0,17-14.84,37.03-27.86,40.56
			c-13.03,3.53,10.71-71.19,10.71-71.19L453.52,524.31z"/>
		<path class="st14" d="M454.62,520.15c-1.71,8.98-20.95,68.84-97.28,62.43s8.17-62.43,8.17-62.43l68.59-7.7L454.62,520.15z"/>
		<path class="st14" d="M503.2,652.22c0,2.48-2.01,4.49-4.49,4.49c-2.48,0-4.49-2.01-4.49-4.49c0-2.48,2.01-4.49,4.49-4.49
			C501.19,647.73,503.2,649.74,503.2,652.22z"/>
		<circle class="st14" cx="533.83" cy="724.22" r="11.54"/>
		<path class="st14" d="M418.85,569.55c0,42.1-39.45,50.63-38.38,69.57c1.07,18.94,15.15,72.43-32.96,66.98
			c-63.33-7.18-14.32-132.5-14.32-132.5L418.85,569.55z"/>
		<path class="st16" d="M456.15,760.29c17.28,16.62,29.05,33.77,35.97,48.16c9.1,18.91-2.39,37.77-13.16,45.52
			C468.19,861.72,456.15,760.29,456.15,760.29z"/>
		<rect x="334.18" y="1143.5" class="st12" width="142.81" height="29.5"/>
		<rect x="408.26" y="1141.68" class="st13" width="68.73" height="31.32"/>
		<rect x="349.31" y="1163.44" class="st12" width="114.06" height="23.56"/>
		<rect x="408.47" y="1161.99" class="st13" width="54.89" height="25.01"/>
		<path class="st12" d="M581.24,1154.13l-13.86-5.66c-1.59-0.65-3.31-0.95-5.02-0.86l-185.61,8.72c-1.04,0.05-2.09-0.04-3.11-0.27
			l-114.32-25.34c-6.37-1.41-10.39-7.72-8.98-14.1l1.55-6.98c1.41-6.37,7.72-10.39,14.1-8.98l110.31,24.45
			c1.02,0.23,2.07,0.32,3.11,0.27l188.3-8.85c1.72-0.08,3.43,0.21,5.02,0.86l20.15,8.23c6.04,2.47,8.94,9.37,6.47,15.41l-2.7,6.62
			C594.18,1153.7,587.28,1156.6,581.24,1154.13z"/>
		<polygon class="st18" points="476.99,1160.02 587.74,1154.82 571.07,1116.88 459.43,1121.83 		"/>
		<path class="st12" d="M470.71,1159.3l-13.86-5.66c-1.59-0.65-3.31-0.94-5.02-0.86l-75.08,3.53l-110.98-26.02
			c1.02,0.23,2.07,0.32,3.11,0.27l188.3-8.85c1.72-0.08,3.43,0.21,5.02,0.86l20.15,8.23c6.04,2.47,8.94,9.37,6.47,15.41l-2.7,6.62
			C483.65,1158.87,476.75,1161.77,470.71,1159.3z"/>
		<rect x="349.31" y="1173" class="st19" width="114.06" height="5.56"/>
		<rect x="381.64" y="1187" class="st12" width="43.51" height="133.3"/>
		<rect x="386.27" y="1320.3" class="st12" width="34.26" height="100.27"/>
		<path class="st12" d="M221.72,1446.23h15.82v-4.48l92.79-26.3l55.93-3.85v-30.79c-52.09,6.41-164.54,48.32-164.54,48.32V1446.23z"
			/>
		<rect x="225.15" y="1446.23" class="st12" width="8.34" height="11.97"/>
		<rect x="206.71" y="1455.63" class="st12" width="45.22" height="7.54"/>
		<path class="st12" d="M585.07,1446.23h-15.82v-4.48l-92.79-26.3l-55.93-3.85v-30.79c52.09,6.41,164.54,48.32,164.54,48.32V1446.23
			z"/>
		<rect x="573.31" y="1446.23" class="st20" width="8.34" height="11.97"/>
		<rect x="554.87" y="1455.63" class="st12" width="45.22" height="7.54"/>
		<path class="st12" d="M238.14,1094.87c-1.43,3.79-12.12,28.47,21.91,36.02c34.02,7.54,8.71-26.72,8.71-26.72L238.14,1094.87z"/>
		<path class="st2" d="M380.65,602.77c-0.32,0-0.65-0.03-0.98-0.09c-2.95-0.54-4.91-3.37-4.38-6.32c0.18-0.97,0.38-2.26,0.63-3.83
			c2.99-18.85,10.94-68.94,44.56-88.82c2.59-1.53,5.92-0.67,7.45,1.91c1.53,2.59,0.67,5.92-1.91,7.45
			c-29.22,17.28-36.85,65.36-39.36,81.16c-0.26,1.66-0.48,3.03-0.67,4.07C385.52,600.93,383.23,602.77,380.65,602.77z"/>
		<path class="st17" d="M579.77,1237.24c20.61,32.39,81.01,83.82,80.12,91.91c-0.9,8.09-21.46,62.14,2.76,69.5
			c39.4,11.97,51.15,34.88,66.45,41.52c38.09,16.52,54.83-8.99,54.83-8.99s-39.1-18.43-54.83-41.8
			c-5.48-8.14-32.68-40.02-51.24-84.95c-13.3-32.2-26.5-69.46-38.45-104.05C620.15,1144.58,556.17,1200.16,579.77,1237.24z"/>
		<path class="st17" d="M360.09,733.3l-68.05,198.74l-20.4-29.56l146.32,21.35c7.03,1.03,11.89,7.55,10.87,14.58
			c-0.94,6.43-6.48,11.05-12.8,11l-147.86-0.88c-12.04-0.07-21.74-9.89-21.67-21.93c0.01-1.73,0.22-3.42,0.62-5.04l0.65-2.59
			l50.82-203.83c4.29-17.2,21.71-27.67,38.91-23.38c17.2,4.29,27.67,21.71,23.38,38.91C360.65,731.54,360.38,732.46,360.09,733.3z"
			/>
		<path class="st2" d="M443.5,673.16c-0.03,0-0.07,0-0.1,0c-44.33-1.15-69.67-16.1-70.73-16.73c-1.28-0.77-2-2.22-1.84-3.71
			l2.57-23.73c0.23-2.11,2.11-3.64,4.24-3.41c2.11,0.23,3.64,2.13,3.41,4.24l-2.29,21.15c6.81,3.44,29.72,13.59,64.84,14.5
			c2.12,0.05,3.8,1.82,3.75,3.95C447.29,671.5,445.58,673.16,443.5,673.16z"/>
		
			<ellipse transform="matrix(0.2307 -0.973 0.973 0.2307 -310.5835 843.7297)" class="st16" cx="378.29" cy="618.28" rx="20.95" ry="20.95"/>
		<path class="st16" d="M443.5,674.44c-0.04,0-0.09,0-0.13,0c-5.37-0.14-10.73-0.49-15.95-1.05c-2.82-0.3-4.86-2.83-4.56-5.65
			c0.3-2.82,2.84-4.84,5.65-4.56c4.95,0.53,10.04,0.86,15.13,0.99c2.83,0.07,5.07,2.43,5,5.26
			C448.56,672.23,446.28,674.44,443.5,674.44z"/>
		<g>
			<path class="st17" d="M416.99,949.26c24.16,2.76,44.47-8.74,63.86-19.87c21.87-12.55-32.66-38.96-32.66-38.96
				s-13.35,19.87-15.85,22.51c-2.51,2.64-7.62,10.74-17.33,10.21C405.28,922.62,416.99,949.26,416.99,949.26z"/>
			<g>
				<path class="st12" d="M433.26,966.47c-0.68,0-1.36-0.25-1.88-0.76c-1.08-1.04-1.12-2.76-0.08-3.84l102.11-106.22
					c1.04-1.08,2.76-1.11,3.84-0.08c1.08,1.04,1.12,2.76,0.08,3.84L435.22,965.64C434.68,966.19,433.97,966.47,433.26,966.47z"/>
			</g>
			<path class="st17" d="M461.36,886.59c0,0,24.65-7.26,27.84-5.83c13.89,6.21,26.75,24.23,26.75,24.23s-5.65,4.36-12.08,0.66
				c-6.43-3.69-17.7-12.99-17.7-12.99l-7.63,4.21L461.36,886.59z"/>
			<path class="st17" d="M448.18,890.43c1.17-3.19,5.78-7.82,10.2-6.69c4.43,1.13,28.52,15.8,29.73,17.59
				c12.14,18,17.42,38.08,17.42,38.08s-5.17,2.68-9.22-0.36C492.26,936.02,448.18,890.43,448.18,890.43z"/>
			<path class="st17" d="M448.18,890.43c2.33-0.14,24.71,11.94,31.25,20.01c6.54,8.07,22.7,37.29,22.7,37.29s-7.12,4.46-11.37-2.07
				c-11.71-17.96-34.37-36.12-34.37-36.12L448.18,890.43z"/>
			<path class="st17" d="M446.48,902.22c4.12,1.55,18.35,10.04,20.22,13.97c8.94,18.9,6.28,32.44,6.28,32.44s-5.06,2.85-6.75-3.68
				c-3.95-15.24-14.39-25.61-14.39-25.61L446.48,902.22z"/>
		</g>
		<g>
			<path class="st15" d="M544.41,924.14c17.89,2.91,39.6-16.29,45.41-16.08c13.7,0.5,36.79-2.63,36.79-2.63s4.9,11.22-6.61,12.43
				c-14.57,1.53-20.27,6.89-20.27,6.89l-0.13,34.55c0,0-22.57,1.22-34.68-2.41c-12.11-3.63-23.23-8.19-23.23-8.19L544.41,924.14z"/>
			<path class="st15" d="M615.12,953.18c10.29-0.9,32.03-8.52,36.13-8.91c4.09-0.39,20.37-1.13,20.37-1.13s3.43-2.57,0.33-5.39
				c-3.1-2.83-18.7-3.27-23.14-2.48c-4.45,0.79-23.36,6.24-23.36,6.24L615.12,953.18z"/>
			<path class="st15" d="M599.6,959.3c5.28,0.3,24.55-11.11,28.92-13.48c4.38-2.37,29.98-15.55,29.98-15.55s0.23-4.55-5.24-6.02
				s-27.58,12.65-27.58,12.65L599.6,959.3z"/>
			<path class="st15" d="M664.13,943.5c4.64,0.74,3.99,4.31,3.99,4.31l-28.21-0.54l11.6-7.21L664.13,943.5z"/>
			<path class="st15" d="M588.14,949.11c2.25-3.26,21.71-11,28.26-12.4c6.61-1.41,17.64-17.88,25.69-5.62L599.6,959.3L588.14,949.11
				z"/>
			<path class="st15" d="M599.73,924.75c2.73,3.54,12.07,10.85,20.68,9.95c8.61-0.9-21.73,16-21.73,16L599.73,924.75z"/>
		</g>
		<path class="st16" d="M360.39,733.36L307.47,887l-51.29-1.81l42.4-170.06c4.29-17.2,21.71-27.67,38.91-23.38
			c17.2,4.29,27.97,21.77,23.68,38.97C360.95,731.6,360.67,732.52,360.39,733.36z"/>
		<path class="st3" d="M319.05,1032.32c-21.37,20.42-26.82,84.69,44.2,91.88s183.6-6.25,183.6-6.25s8.92,83.45,32.52,120.53
			c9.73,15.29,28.43,33.89,45.25,51.1c18.83,19.26,45.42-4.54,41.56-14.7c-30.47-80.01-58.57-175-69.88-188.65
			C576.73,1062.63,382.95,971.28,319.05,1032.32z"/>
		<path class="st12" d="M360.95,1131.05c-0.59,0-1.19-0.11-1.77-0.34c-2.48-0.98-3.7-3.78-2.72-6.26l51.28-129.96
			c0.03-0.08,0.06-0.16,0.1-0.24c3.59-7.85,2.95-16.88-1.72-24.15c-4.67-7.27-12.61-11.6-21.25-11.6h-99.34
			c-17.99,0-33.83,10.84-40.35,27.6l-20.21,51.98c-0.97,2.49-3.77,3.71-6.25,2.75c-2.48-0.97-3.71-3.76-2.75-6.25l20.21-51.98
			c7.97-20.51,27.34-33.76,49.35-33.76h99.34c11.94,0,22.92,6,29.37,16.04c6.43,10.01,7.33,22.43,2.43,33.26L365.44,1128
			C364.7,1129.9,362.88,1131.05,360.95,1131.05z"/>
		<path class="st21" d="M410.15,859.65c-23.81,0-43.19-19.37-43.19-43.19c0-1.42,1.15-2.56,2.57-2.56c1.42,0,2.57,1.15,2.57,2.56
			c0,20.98,17.07,38.06,38.05,38.06c20.98,0,38.06-17.07,38.06-38.06c0-12.01-5.49-23.06-15.07-30.33
			c-1.13-0.86-1.35-2.47-0.49-3.59c0.86-1.13,2.47-1.35,3.59-0.49c10.87,8.25,17.1,20.79,17.1,34.42
			C453.33,840.28,433.96,859.65,410.15,859.65z"/>
		<path class="st21" d="M465.95,859.65c-1.42,0-2.57-1.15-2.57-2.57c0-1.42,1.15-2.57,2.57-2.57c11.32,0,17.99-7.94,20.97-12.66
			c6.25-9.94,7.41-22.91,2.9-32.29c-4.65-9.67-11.2-19.86-18.95-29.46c-0.89-1.1-0.72-2.72,0.39-3.61c1.1-0.89,2.72-0.72,3.61,0.39
			c7.99,9.91,14.76,20.44,19.58,30.46c5.25,10.91,3.97,25.87-3.18,37.24C485.24,854.17,476.02,859.65,465.95,859.65z"/>
		<path class="st21" d="M307.47,889.57c-0.28,0-0.56-0.05-0.84-0.14c-1.34-0.46-2.05-1.92-1.59-3.26l41.26-119.79
			c0.46-1.34,1.92-2.05,3.26-1.59c1.34,0.46,2.05,1.92,1.59,3.26l-41.26,119.78C309.53,888.9,308.53,889.57,307.47,889.57z"/>
		<path class="st21" d="M336.54,809.91c-0.29,0-0.59-0.05-0.88-0.16c-1.33-0.48-2.02-1.96-1.53-3.29
			c1.5-4.11,11.23-17.18,17.72-19.93c1.3-0.56,2.81,0.05,3.36,1.36c0.55,1.3-0.05,2.81-1.36,3.36
			c-4.59,1.95-13.65,13.51-14.91,16.97C338.57,809.27,337.58,809.91,336.54,809.91z"/>
		<path class="st14" d="M307.47,682.65c-1.06,0-2.08-0.63-2.51-1.67c-22.07-52.99-25.65-96.5-10.64-129.32
			c10.13-22.15,29.15-38.77,53.56-46.81c1.43-0.47,2.96,0.31,3.43,1.73c0.47,1.43-0.31,2.96-1.73,3.43
			c-22.95,7.56-40.82,23.15-50.31,43.9c-14.36,31.38-10.75,73.43,10.71,124.97c0.58,1.39-0.08,2.98-1.46,3.55
			C308.17,682.58,307.82,682.65,307.47,682.65z"/>
		<path class="st14" d="M300.69,848.48c-0.09,0-0.19,0-0.29-0.01c-73.24-7.69-97.13-44.12-104.85-65.15
			c-11.33-30.84-2.9-67.26,21.46-92.78c26.57-27.83,64.89-36.51,105.13-23.81c1.43,0.45,2.23,1.98,1.77,3.41
			c-0.45,1.43-1.97,2.23-3.41,1.77c-38.18-12.05-74.47-3.89-99.56,22.38c-22.94,24.03-30.91,58.24-20.29,87.15
			c12.58,34.27,48.21,56.15,100.32,61.62c1.49,0.16,2.58,1.49,2.42,2.99C303.24,847.44,302.06,848.48,300.69,848.48z"/>
		<path class="st3" d="M469.31,1009.11l7.35,19.17c22.21,2.2,86.56-14.69,208.46,6.38C653.55,1006.33,541.01,1004.98,469.31,1009.11
			z"/>
		<path class="st3" d="M652.6,1359.58L652.6,1359.58c-3.04,16.87-3.27,35.02,10.05,39.07c39.4,11.97,51.15,34.88,66.45,41.52
			c38.09,16.52,54.83-8.99,54.83-8.99s-18.8-8.87-35.58-22.09C721.14,1426.94,660.88,1367.86,652.6,1359.58z"/>
		<path class="st3" d="M544.52,1401.74c8.24,10.11-1.49,34.38,10.64,48.54c12.14,14.16,54.61,0,54.61,0
			c-10.25-5.87-16.86-14.92-21.07-25.93l0,0c-34.32,17.35-44.32-67.36-46.93-85.56l-0.01,0c-8.09,8.07-16.67,18.31-17.61,26.2
			C521.79,1384.89,536.28,1391.63,544.52,1401.74z"/>
	</g>
	<g id="Mac">
		<path class="st3" d="M820.67,886.9c-0.3,0-0.61-0.03-0.91-0.1c-2.38-0.5-3.9-2.84-3.39-5.21l77.52-366.73
			c0.5-2.38,2.83-3.9,5.21-3.39c2.38,0.5,3.9,2.84,3.39,5.21l-77.52,366.73C824.53,885.48,822.7,886.9,820.67,886.9z"/>
		<path class="st14" d="M893.33,864.8c-0.3,0-0.61-0.03-0.91-0.1c-2.38-0.5-3.9-2.84-3.39-5.21l64.29-304.11
			c0.5-2.38,2.85-3.9,5.21-3.39c2.38,0.5,3.9,2.84,3.4,5.21l-64.29,304.11C897.19,863.38,895.36,864.8,893.33,864.8z"/>
		<path class="st14" d="M995.52,964.05H874.17c-2.43,0-4.4-1.97-4.4-4.4c0-2.43,1.97-4.4,4.4-4.4h121.35
			c7.47,0,14.28-3.46,18.69-9.5c4.4-6.03,5.62-13.58,3.34-20.69l-59.14-184.66c-0.03-0.09-2.74-8.22-10.95-13.01
			c-2.1-1.22-2.81-3.92-1.58-6.02c1.22-2.1,3.91-2.81,6.02-1.58c11.24,6.56,14.76,17.5,14.9,17.96l59.13,184.62
			c3.14,9.82,1.46,20.23-4.62,28.57C1015.24,959.28,1005.84,964.05,995.52,964.05z"/>
		<path class="st14" d="M845.46,882.5l87.39-90.97c5.33-10.97,9.25-22.57,11.68-34.53l15.28-75.4c1.68-8.27,2.63-16.68,2.84-25.11
			l-39.66-140.72L845.46,882.5z"/>
		<path class="st14" d="M898.19,511.44h60.39c4.16,0,7.51,3.43,7.41,7.59l-3.35,137.46h-67.99L898.19,511.44z"/>
		<path class="st14" d="M820.17,886.87l44.7-95.34h67.99l-42.21,91.05c-1.21,2.62-3.84,4.29-6.72,4.29H820.17z"/>
		<path class="st14" d="M995.6,964.06H806.19c-2.43,0-4.4-1.97-4.4-4.4c0-2.43,1.97-4.4,4.4-4.4h121.35c7.47,0,14.28-3.46,18.69-9.5
			c4.41-6.04,5.62-13.58,3.34-20.7l-59.14-184.66c-0.03-0.09-2.74-8.22-10.95-13.01l81.43,0c4.3,5.17,5.87,10.05,5.97,10.36
			l59.13,184.62c3.15,9.82,1.46,20.23-4.61,28.57C1015.32,959.28,1005.92,964.06,995.6,964.06z"/>
		<path class="st3" d="M927.19,964.06H805.84c-2.43,0-4.4-1.97-4.4-4.4c0-2.43,1.97-4.4,4.4-4.4h121.35c7.47,0,14.28-3.46,18.69-9.5
			c4.41-6.04,5.63-13.58,3.35-20.7l-59.14-184.66c-0.03-0.08-2.07-6.21-7.96-10.95l1.91-9.39c10.88,6.58,14.3,17.23,14.45,17.69
			l59.13,184.62c3.14,9.82,1.46,20.23-4.62,28.57C946.91,959.28,937.51,964.06,927.19,964.06z"/>
		<path class="st3" d="M820.67,885.81l44.2-94.28c5.33-10.97,9.25-22.57,11.68-34.53l15.28-75.4c1.68-8.27,2.63-16.68,2.84-25.11
			l3.53-140.72L820.67,885.81z"/>
	</g>
	<g id="Table">
		<path class="st3" d="M854.42,1466.11h-17.1c-1.45,0-2.65-1.14-2.71-2.59l-21.66-468.55c-0.07-1.5,1.09-2.77,2.59-2.84
			c1.48-0.08,2.77,1.09,2.84,2.59l21.54,465.96h11.91l21.54-465.96c0.07-1.5,1.37-2.65,2.84-2.59c1.5,0.07,2.66,1.34,2.59,2.84
			l-21.66,468.55C857.07,1464.97,855.87,1466.11,854.42,1466.11z"/>
		<path class="st3" d="M1438.07,1466.11h-17.1c-1.45,0-2.65-1.14-2.72-2.59l-21.66-468.55c-0.07-1.5,1.09-2.77,2.59-2.84
			c1.49-0.08,2.77,1.09,2.84,2.59l21.54,465.96h11.91l21.54-465.96c0.07-1.5,1.37-2.67,2.84-2.59c1.5,0.07,2.66,1.34,2.59,2.84
			l-21.66,468.55C1440.72,1464.97,1439.52,1466.11,1438.07,1466.11z"/>
		<rect x="575.08" y="964.06" class="st3" width="728.97" height="30.78"/>
		<polygon class="st14" points="613.84,994.84 635.5,1463.39 652.6,1463.39 674.26,994.84 		"/>
		<polygon class="st14" points="1197.49,994.84 1219.15,1463.39 1236.25,1463.39 1257.91,994.84 		"/>
		<rect x="776.9" y="964.06" class="st14" width="728.97" height="30.78"/>
		<polygon class="st22" points="672.28,1037.62 674.26,994.84 613.84,994.84 615.82,1037.62 		"/>
		<polygon class="st22" points="1255.93,1037.62 1257.91,994.84 1197.49,994.84 1199.47,1037.62 		"/>
		<path class="st14" d="M1624.57,1466.06H142.76c-1.5,0-2.72-1.22-2.72-2.72c0-1.5,1.22-2.72,2.72-2.72h1481.81
			c1.5,0,2.72,1.22,2.72,2.72C1627.29,1464.84,1626.07,1466.06,1624.57,1466.06z"/>
	</g>
</g>
</svg>
