<?xml version="1.0" encoding="utf-8"?>
<!-- Generator: Adobe Illustrator 24.3.0, SVG Export Plug-In . SVG Version: 6.00 Build 0)  -->
<svg version="1.1" id="_x2014_ÎÓÈ_x5F_3" xmlns="http://www.w3.org/2000/svg" xmlns:xlink="http://www.w3.org/1999/xlink"
	 x="0px" y="0px" viewBox="0 0 1259.19 1277.31" style="enable-background:new 0 0 1259.19 1277.31;" xml:space="preserve">
<style type="text/css">
	.st0{fill:url(#SVGID_1_);}
	.st1{fill:url(#SVGID_2_);}
	.st2{fill:url(#SVGID_3_);}
	.st3{fill:url(#SVGID_4_);}
	.st4{fill:url(#SVGID_5_);}
	.st5{fill:#81DAF8;}
	.st6{fill:url(#SVGID_6_);}
	.st7{fill:url(#SVGID_7_);}
	.st8{fill:url(#SVGID_8_);}
	.st9{fill:url(#SVGID_9_);}
	.st10{fill:url(#SVGID_10_);}
	.st11{fill:url(#SVGID_11_);}
	.st12{fill:url(#SVGID_12_);}
	.st13{fill:url(#SVGID_13_);}
	.st14{fill:url(#SVGID_14_);}
	.st15{fill:url(#SVGID_15_);}
	.st16{fill:url(#SVGID_16_);}
	.st17{fill:url(#SVGID_17_);}
	.st18{fill:url(#SVGID_18_);}
	.st19{fill:url(#SVGID_19_);}
	.st20{fill:url(#SVGID_20_);}
	.st21{fill:url(#SVGID_21_);}
	.st22{fill:url(#SVGID_22_);}
	.st23{fill:url(#SVGID_23_);}
	.st24{fill:url(#SVGID_24_);}
	.st25{fill:url(#SVGID_25_);}
	.st26{fill:url(#SVGID_26_);}
	.st27{fill:url(#SVGID_27_);}
	.st28{fill:url(#SVGID_28_);}
	.st29{fill:url(#SVGID_29_);}
	.st30{fill:url(#SVGID_30_);}
	.st31{fill:url(#SVGID_31_);}
	.st32{fill:url(#SVGID_32_);}
	.st33{fill:url(#SVGID_33_);}
	.st34{fill:url(#SVGID_34_);}
	.st35{fill:url(#SVGID_35_);}
	.st36{fill:url(#SVGID_36_);}
	.st37{fill:url(#SVGID_37_);}
	.st38{fill:url(#SVGID_38_);}
	.st39{fill:url(#SVGID_39_);}
	.st40{fill:url(#SVGID_40_);}
	.st41{fill:url(#SVGID_41_);}
	.st42{fill:url(#SVGID_42_);}
	.st43{fill:url(#SVGID_43_);}
	.st44{fill:url(#SVGID_44_);}
	.st45{fill:url(#SVGID_45_);}
	.st46{fill:url(#SVGID_46_);}
	.st47{fill:url(#SVGID_47_);}
	.st48{fill:#FFFFFF;}
	.st49{fill:url(#SVGID_48_);}
	.st50{fill:url(#SVGID_49_);}
	.st51{fill:url(#SVGID_50_);}
	.st52{fill:#304969;}
	.st53{fill:#66E2FF;}
	.st54{fill:#01B7E6;}
	.st55{fill:url(#SVGID_51_);}
	.st56{fill:url(#SVGID_52_);}
	.st57{fill:#8DE7FF;}
	.st58{fill:#001729;}
	.st59{font-family:'SpartanMB-Bold';}
	.st60{font-size:36.8905px;}
	.st61{fill:#CADEED;}
	.st62{fill:#30CEF2;}
	.st63{fill:#3D2559;}
	.st64{fill:#FFBE91;}
	.st65{fill:#FFD88A;}
</style>
<g>
	<g>
		<g>
			<linearGradient id="SVGID_1_" gradientUnits="userSpaceOnUse" x1="349.2691" y1="151.5934" x2="942.8823" y2="1189.6459">
				<stop  offset="0" style="stop-color:#B9E3FF"/>
				<stop  offset="0.3539" style="stop-color:#D4EDFF"/>
				<stop  offset="0.7539" style="stop-color:#ECF7FF"/>
				<stop  offset="1" style="stop-color:#F5FAFF"/>
			</linearGradient>
			<path class="st0" d="M557.68,1016.55c73.61,13.49,120.34,209.86,286.18,209.86s115.94-249.49,227.48-271.5
				c111.54-22.01,187.85-42.56,187.85-184.92s-154.07-157.91-179.05-237.75c-22.8-72.89,64.23-87.59,43.73-249.26
				C1100.09,95.5,820.38,0.98,689.77,131.6s-293.52-10.15-491.64,106.46s-123.28,351.43-49.9,467.36S108.6,883,132.08,1009.22
				s183.1,149.88,258.46,90.68C465.92,1040.71,469.63,1000.41,557.68,1016.55z"/>
			<g>
				<g>
					<g>
						<linearGradient id="SVGID_2_" gradientUnits="userSpaceOnUse" x1="858.4919" y1="515.5984" x2="1003.975" y2="887.1942">
							<stop  offset="0" style="stop-color:#8FF0FF"/>
							<stop  offset="1" style="stop-color:#1173B0"/>
						</linearGradient>
						<path class="st1" d="M804.8,874.96h363.58c0,0-113.69-446.4-181.79-446.4S804.8,874.96,804.8,874.96z"/>
						<linearGradient id="SVGID_3_" gradientUnits="userSpaceOnUse" x1="940.1663" y1="485.4181" x2="1047.1057" y2="542.5613">
							<stop  offset="0" style="stop-color:#CFF9FF"/>
							<stop  offset="1" style="stop-color:#97D7F0"/>
						</linearGradient>
						<path class="st2" d="M928.73,551.05c10.49,0.74,20.39-8.5,30.7-6.24c7.87,1.73,13.36,9.73,16.47,17.91
							c3.11,8.18,4.64,17.1,8.6,24.81c3.96,7.71,11.45,14.27,19.37,12.85c7.54-1.35,12.71-9.42,14.78-17.55
							c2.07-8.13,1.91-16.77,3.58-25.01c1.67-8.24,5.89-16.72,13.14-19.38c3.55-1.3,7.4-1.05,11.11-1.62
							c4.38-0.68,8.55-2.61,12.14-5.46c-25.22-59.56-50.83-102.79-72.03-102.79c-21.92,0-48.57,46.26-74.63,108.99
							C915.42,544.92,921.31,550.52,928.73,551.05z"/>
					</g>
					<g>
						<linearGradient id="SVGID_4_" gradientUnits="userSpaceOnUse" x1="1028.115" y1="723.2581" x2="1086.8186" y2="900.8362">
							<stop  offset="0" style="stop-color:#8FF0FF"/>
							<stop  offset="1" style="stop-color:#1173B0"/>
						</linearGradient>
						<path class="st3" d="M965.67,870.29h222.09c0,0-59.68-169.26-115.45-169.26C1016.55,701.02,965.67,870.29,965.67,870.29z"/>
						<linearGradient id="SVGID_5_" gradientUnits="userSpaceOnUse" x1="1057.9642" y1="713.3906" x2="1116.6677" y2="890.9683">
							<stop  offset="0" style="stop-color:#D6FAFF"/>
							<stop  offset="1" style="stop-color:#3092CF"/>
						</linearGradient>
						<path class="st4" d="M1019.95,770.53c14.45,2.24,23.66-14.35,37.8-12.59c9.5,1.19,16.66,11.45,26.21,10.69
							c7-0.56,12.21-6.94,19.03-8.62c14.11-3.47,26.46,14.02,40.79,12.25c-20.81-37.41-46.52-71.25-71.46-71.25
							c-23.21,0-45.57,29.33-63.77,63.56C1011.61,767.66,1015.61,769.86,1019.95,770.53z"/>
					</g>
				</g>
				<g>
					<path class="st5" d="M1203.09,957.01H695.3V795.14h319.71c86.21,0,165.98,45.64,209.67,119.96l1.21,2.05
						C1236.25,934.79,1223.54,957.01,1203.09,957.01z"/>
					<g>
						<linearGradient id="SVGID_6_" gradientUnits="userSpaceOnUse" x1="1149.4073" y1="1042.8953" x2="777.2775" y2="791.5615">
							<stop  offset="0" style="stop-color:#12B0C9"/>
							<stop  offset="1" style="stop-color:#0B3170"/>
						</linearGradient>
						<path class="st6" d="M1225.27,916.1l-0.59-1c-0.43-0.73-0.89-1.44-1.33-2.17h-141.08V848.2c0-11.37-9.25-20.62-20.62-20.62
							h-5.29c-11.37,0-20.62,9.25-20.62,20.62v64.73H695.3v3.17h340.45v7.81c0,11.37,9.25,20.62,20.62,20.62h5.29
							c11.37,0,20.62-9.25,20.62-20.62v-7.81H1225.27z M1079.1,923.91c0,9.62-7.83,17.44-17.44,17.44h-5.29
							c-9.62,0-17.44-7.83-17.44-17.44v-7.81v-3.17V848.2c0-9.62,7.83-17.44,17.44-17.44h5.29c9.62,0,17.44,7.83,17.44,17.44v64.73
							v3.17V923.91z"/>
						<g>
							<linearGradient id="SVGID_7_" gradientUnits="userSpaceOnUse" x1="1135.6108" y1="855.8449" x2="870.4596" y2="855.8449">
								<stop  offset="0" style="stop-color:#12B0C9"/>
								<stop  offset="1" style="stop-color:#0B3170"/>
							</linearGradient>
							<path class="st7" d="M1010.11,832.34h-23.34c-6.51,0-11.83,5.32-11.83,11.83v23.34c0,6.51,5.33,11.83,11.83,11.83h23.34
								c6.51,0,11.83-5.33,11.83-11.83v-23.34C1021.94,837.67,1016.61,832.34,1010.11,832.34z"/>
							<linearGradient id="SVGID_8_" gradientUnits="userSpaceOnUse" x1="1135.6108" y1="855.8449" x2="870.4597" y2="855.8449">
								<stop  offset="0" style="stop-color:#12B0C9"/>
								<stop  offset="1" style="stop-color:#0B3170"/>
							</linearGradient>
							<path class="st8" d="M951.18,832.34h-23.34c-6.51,0-11.83,5.32-11.83,11.83v23.34c0,6.51,5.32,11.83,11.83,11.83h23.34
								c6.51,0,11.83-5.33,11.83-11.83v-23.34C963.01,837.67,957.69,832.34,951.18,832.34z"/>
							<linearGradient id="SVGID_9_" gradientUnits="userSpaceOnUse" x1="1135.6108" y1="855.5544" x2="870.4597" y2="855.5544">
								<stop  offset="0" style="stop-color:#12B0C9"/>
								<stop  offset="1" style="stop-color:#0B3170"/>
							</linearGradient>
							<path class="st9" d="M1144.24,832.34h-25.86c-6.51,0-11.79,5.28-11.79,11.79v22.85c0,6.51,5.28,11.79,11.79,11.79h80.13
								C1182.7,860.59,1164.39,844.98,1144.24,832.34z"/>
							<linearGradient id="SVGID_10_" gradientUnits="userSpaceOnUse" x1="1135.6108" y1="861.3189" x2="870.4608" y2="861.3189">
								<stop  offset="0" style="stop-color:#12B0C9"/>
								<stop  offset="1" style="stop-color:#0B3170"/>
							</linearGradient>
							<path class="st10" d="M1061.62,838.68h-5.21c-5.62,0-10.18,4.56-10.18,10.18v24.94c0,5.62,4.56,10.18,10.18,10.18h5.21
								c5.62,0,10.18-4.56,10.18-10.18v-24.94C1071.8,843.23,1067.24,838.68,1061.62,838.68z"/>
						</g>
					</g>
					<linearGradient id="SVGID_11_" gradientUnits="userSpaceOnUse" x1="1077.2532" y1="978.293" x2="1077.2532" y2="957.4792">
						<stop  offset="0" style="stop-color:#8FF0FF"/>
						<stop  offset="1" style="stop-color:#1173B0"/>
					</linearGradient>
					<path class="st11" d="M1077.25,974.45c9.63,0,17.44-7.81,17.44-17.44h-34.89C1059.81,966.64,1067.62,974.45,1077.25,974.45z"/>
					<linearGradient id="SVGID_12_" gradientUnits="userSpaceOnUse" x1="1036.0221" y1="978.293" x2="1036.0221" y2="957.4792">
						<stop  offset="0" style="stop-color:#8FF0FF"/>
						<stop  offset="1" style="stop-color:#1173B0"/>
					</linearGradient>
					<path class="st12" d="M1036.02,974.45c9.63,0,17.44-7.81,17.44-17.44h-34.89C1018.58,966.64,1026.39,974.45,1036.02,974.45z"/>
					<linearGradient id="SVGID_13_" gradientUnits="userSpaceOnUse" x1="994.791" y1="978.293" x2="994.791" y2="957.4792">
						<stop  offset="0" style="stop-color:#8FF0FF"/>
						<stop  offset="1" style="stop-color:#1173B0"/>
					</linearGradient>
					<path class="st13" d="M994.79,974.45c9.63,0,17.44-7.81,17.44-17.44h-34.89C977.35,966.64,985.16,974.45,994.79,974.45z"/>
				</g>
			</g>
			<g>
				<path class="st5" d="M789.2,171.64h-14.76l-24.48,8.78c-4.05-1.22-8.11-2.39-12-3.46L770.2,72.79h-34.22
					c0,0-34.59,43.16-51.48,65.07c-16.89,21.91-44.3,31.65-70.76,31.65l0.05,0c-3.36,0-6.4,0-9.03,0c-26.18,0-175.31,0-175.31,0
					c-51.74,0-183.84,0-197.23,0c-9.9,0-26.52,1.69-44.91,8.94c-7,3.21-10.92,5.44-19,9.93c-28,15.83-45.05,18.87-45.05,30.44
					S173.16,245,195.08,245c3.18,0,12.09,0,25.08,0l6.62,11.03h2.86v5.75c-4.34,0.84-7.62,4.66-7.62,9.25c0,5.2,4.22,9.42,9.42,9.42
					c5.2,0,9.42-4.22,9.42-9.42c0-4.59-3.28-8.4-7.62-9.25v-5.75h3.07l6.62-11.03c90,0,274.07,0,295.46,0
					c27.39,0,158.27-12.17,193.58-19.48c35.31-7.3,57.22-18.26,57.22-18.26v-14c0,0-5.69-2.01-14.02-4.79L789.2,171.64z"/>
				<linearGradient id="SVGID_14_" gradientUnits="userSpaceOnUse" x1="382.4888" y1="246.4953" x2="382.4888" y2="174.0268">
					<stop  offset="0" style="stop-color:#1173B0"/>
					<stop  offset="1" style="stop-color:#8FF0FF"/>
				</linearGradient>
				<path class="st14" d="M332.95,218.21c-6.05,0-10.96,8.79-10.96,19.63c0,10.84,4.91,19.63,10.96,19.63c0,0,52.05,0,66.2,0
					c14.15,0,32.87-6.39,43.83-14.61C442.98,242.87,374.04,218.21,332.95,218.21z"/>
				<g>
					<linearGradient id="SVGID_15_" gradientUnits="userSpaceOnUse" x1="483.7577" y1="187.1932" x2="182.9373" y2="187.1932">
						<stop  offset="0" style="stop-color:#0B3170"/>
						<stop  offset="1" style="stop-color:#12B0C9"/>
					</linearGradient>
					<path class="st15" d="M190.97,180.4c-1.06,0-2.11,0.26-3.04,0.77l-20.8,11.21c-0.8,0.43-0.46,1.65,0.45,1.6l27.52-1.46
						l5.52-12.12H190.97z"/>
					<linearGradient id="SVGID_16_" gradientUnits="userSpaceOnUse" x1="483.757" y1="186.72" x2="182.937" y2="186.72">
						<stop  offset="0" style="stop-color:#0B3170"/>
						<stop  offset="1" style="stop-color:#12B0C9"/>
					</linearGradient>
					<path class="st16" d="M203.37,180.92l-4.89,11.61l11.85-0.98C210.33,191.55,213.99,181.43,203.37,180.92z"/>
					<linearGradient id="SVGID_17_" gradientUnits="userSpaceOnUse" x1="483.7566" y1="187.5751" x2="182.9373" y2="187.5751">
						<stop  offset="0" style="stop-color:#0B3170"/>
						<stop  offset="1" style="stop-color:#12B0C9"/>
					</linearGradient>
					<path class="st17" d="M251.57,183.38c-1.82,0-3.32,1.49-3.32,3.32v1.76c0,1.82,1.49,3.32,3.32,3.32c1.82,0,3.32-1.49,3.32-3.32
						v-1.76C254.89,184.87,253.4,183.38,251.57,183.38z"/>
					<linearGradient id="SVGID_18_" gradientUnits="userSpaceOnUse" x1="483.7564" y1="187.5751" x2="182.9371" y2="187.5751">
						<stop  offset="0" style="stop-color:#0B3170"/>
						<stop  offset="1" style="stop-color:#12B0C9"/>
					</linearGradient>
					<path class="st18" d="M263.18,183.38c-1.82,0-3.32,1.49-3.32,3.32v1.76c0,1.82,1.49,3.32,3.32,3.32c1.82,0,3.32-1.49,3.32-3.32
						v-1.76C266.5,184.87,265.01,183.38,263.18,183.38z"/>
					<linearGradient id="SVGID_19_" gradientUnits="userSpaceOnUse" x1="483.757" y1="187.5751" x2="182.9371" y2="187.5751">
						<stop  offset="0" style="stop-color:#0B3170"/>
						<stop  offset="1" style="stop-color:#12B0C9"/>
					</linearGradient>
					<path class="st19" d="M274.79,183.38c-1.82,0-3.32,1.49-3.32,3.32v1.76c0,1.82,1.49,3.32,3.32,3.32c1.82,0,3.32-1.49,3.32-3.32
						v-1.76C278.11,184.87,276.62,183.38,274.79,183.38z"/>
					<linearGradient id="SVGID_20_" gradientUnits="userSpaceOnUse" x1="483.7575" y1="187.5751" x2="182.9375" y2="187.5751">
						<stop  offset="0" style="stop-color:#0B3170"/>
						<stop  offset="1" style="stop-color:#12B0C9"/>
					</linearGradient>
					<path class="st20" d="M286.41,183.38c-1.82,0-3.32,1.49-3.32,3.32v1.76c0,1.82,1.49,3.32,3.32,3.32c1.82,0,3.32-1.49,3.32-3.32
						v-1.76C289.72,184.87,288.23,183.38,286.41,183.38z"/>
					<linearGradient id="SVGID_21_" gradientUnits="userSpaceOnUse" x1="483.7572" y1="187.5751" x2="182.9372" y2="187.5751">
						<stop  offset="0" style="stop-color:#0B3170"/>
						<stop  offset="1" style="stop-color:#12B0C9"/>
					</linearGradient>
					<path class="st21" d="M298.02,183.38c-1.82,0-3.32,1.49-3.32,3.32v1.76c0,1.82,1.49,3.32,3.32,3.32c1.82,0,3.32-1.49,3.32-3.32
						v-1.76C301.33,184.87,299.84,183.38,298.02,183.38z"/>
					<linearGradient id="SVGID_22_" gradientUnits="userSpaceOnUse" x1="483.7569" y1="187.5751" x2="182.937" y2="187.5751">
						<stop  offset="0" style="stop-color:#0B3170"/>
						<stop  offset="1" style="stop-color:#12B0C9"/>
					</linearGradient>
					<path class="st22" d="M309.63,183.38c-1.82,0-3.32,1.49-3.32,3.32v1.76c0,1.82,1.49,3.32,3.32,3.32c1.82,0,3.32-1.49,3.32-3.32
						v-1.76C312.94,184.87,311.45,183.38,309.63,183.38z"/>
					<linearGradient id="SVGID_23_" gradientUnits="userSpaceOnUse" x1="483.7586" y1="187.5751" x2="182.9359" y2="187.5751">
						<stop  offset="0" style="stop-color:#0B3170"/>
						<stop  offset="1" style="stop-color:#12B0C9"/>
					</linearGradient>
					<path class="st23" d="M321.24,183.38c-1.82,0-3.32,1.49-3.32,3.32v1.76c0,1.82,1.49,3.32,3.32,3.32c1.82,0,3.32-1.49,3.32-3.32
						v-1.76C324.56,184.87,323.06,183.38,321.24,183.38z"/>
					<linearGradient id="SVGID_24_" gradientUnits="userSpaceOnUse" x1="483.7567" y1="187.5751" x2="182.9374" y2="187.5751">
						<stop  offset="0" style="stop-color:#0B3170"/>
						<stop  offset="1" style="stop-color:#12B0C9"/>
					</linearGradient>
					<path class="st24" d="M332.85,183.38c-1.82,0-3.32,1.49-3.32,3.32v1.76c0,1.82,1.49,3.32,3.32,3.32c1.82,0,3.32-1.49,3.32-3.32
						v-1.76C336.17,184.87,334.67,183.38,332.85,183.38z"/>
					<linearGradient id="SVGID_25_" gradientUnits="userSpaceOnUse" x1="483.7571" y1="187.5751" x2="182.9379" y2="187.5751">
						<stop  offset="0" style="stop-color:#0B3170"/>
						<stop  offset="1" style="stop-color:#12B0C9"/>
					</linearGradient>
					<path class="st25" d="M344.46,183.38c-1.82,0-3.32,1.49-3.32,3.32v1.76c0,1.82,1.49,3.32,3.32,3.32c1.82,0,3.32-1.49,3.32-3.32
						v-1.76C347.78,184.87,346.28,183.38,344.46,183.38z"/>
					<linearGradient id="SVGID_26_" gradientUnits="userSpaceOnUse" x1="483.7584" y1="187.5751" x2="182.935" y2="187.5751">
						<stop  offset="0" style="stop-color:#0B3170"/>
						<stop  offset="1" style="stop-color:#12B0C9"/>
					</linearGradient>
					<path class="st26" d="M356.07,183.38c-1.82,0-3.32,1.49-3.32,3.32v1.76c0,1.82,1.49,3.32,3.32,3.32c1.82,0,3.32-1.49,3.32-3.32
						v-1.76C359.39,184.87,357.9,183.38,356.07,183.38z"/>
					<linearGradient id="SVGID_27_" gradientUnits="userSpaceOnUse" x1="483.7571" y1="187.5751" x2="182.9378" y2="187.5751">
						<stop  offset="0" style="stop-color:#0B3170"/>
						<stop  offset="1" style="stop-color:#12B0C9"/>
					</linearGradient>
					<path class="st27" d="M384.43,183.38c-1.82,0-3.32,1.49-3.32,3.32v1.76c0,1.82,1.49,3.32,3.32,3.32c1.82,0,3.32-1.49,3.32-3.32
						v-1.76C387.75,184.87,386.26,183.38,384.43,183.38z"/>
					<linearGradient id="SVGID_28_" gradientUnits="userSpaceOnUse" x1="483.757" y1="187.5751" x2="182.9377" y2="187.5751">
						<stop  offset="0" style="stop-color:#0B3170"/>
						<stop  offset="1" style="stop-color:#12B0C9"/>
					</linearGradient>
					<path class="st28" d="M396.04,183.38c-1.82,0-3.32,1.49-3.32,3.32v1.76c0,1.82,1.49,3.32,3.32,3.32c1.82,0,3.32-1.49,3.32-3.32
						v-1.76C399.36,184.87,397.87,183.38,396.04,183.38z"/>
					<linearGradient id="SVGID_29_" gradientUnits="userSpaceOnUse" x1="483.7569" y1="187.5751" x2="182.9376" y2="187.5751">
						<stop  offset="0" style="stop-color:#0B3170"/>
						<stop  offset="1" style="stop-color:#12B0C9"/>
					</linearGradient>
					<path class="st29" d="M407.65,183.38c-1.82,0-3.32,1.49-3.32,3.32v1.76c0,1.82,1.49,3.32,3.32,3.32c1.82,0,3.32-1.49,3.32-3.32
						v-1.76C410.97,184.87,409.48,183.38,407.65,183.38z"/>
					<linearGradient id="SVGID_30_" gradientUnits="userSpaceOnUse" x1="483.7571" y1="187.5751" x2="182.9379" y2="187.5751">
						<stop  offset="0" style="stop-color:#0B3170"/>
						<stop  offset="1" style="stop-color:#12B0C9"/>
					</linearGradient>
					<path class="st30" d="M419.26,183.38c-1.82,0-3.32,1.49-3.32,3.32v1.76c0,1.82,1.49,3.32,3.32,3.32c1.82,0,3.32-1.49,3.32-3.32
						v-1.76C422.58,184.87,421.09,183.38,419.26,183.38z"/>
					<linearGradient id="SVGID_31_" gradientUnits="userSpaceOnUse" x1="483.7572" y1="187.5751" x2="182.9379" y2="187.5751">
						<stop  offset="0" style="stop-color:#0B3170"/>
						<stop  offset="1" style="stop-color:#12B0C9"/>
					</linearGradient>
					<path class="st31" d="M430.87,183.38c-1.82,0-3.32,1.49-3.32,3.32v1.76c0,1.82,1.49,3.32,3.32,3.32c1.82,0,3.32-1.49,3.32-3.32
						v-1.76C434.19,184.87,432.7,183.38,430.87,183.38z"/>
					<linearGradient id="SVGID_32_" gradientUnits="userSpaceOnUse" x1="483.7572" y1="187.5751" x2="182.9379" y2="187.5751">
						<stop  offset="0" style="stop-color:#0B3170"/>
						<stop  offset="1" style="stop-color:#12B0C9"/>
					</linearGradient>
					<path class="st32" d="M442.49,183.38c-1.82,0-3.32,1.49-3.32,3.32v1.76c0,1.82,1.49,3.32,3.32,3.32c1.82,0,3.32-1.49,3.32-3.32
						v-1.76C445.8,184.87,444.31,183.38,442.49,183.38z"/>
					<linearGradient id="SVGID_33_" gradientUnits="userSpaceOnUse" x1="483.7574" y1="187.5751" x2="182.9374" y2="187.5751">
						<stop  offset="0" style="stop-color:#0B3170"/>
						<stop  offset="1" style="stop-color:#12B0C9"/>
					</linearGradient>
					<path class="st33" d="M454.1,183.38c-1.82,0-3.32,1.49-3.32,3.32v1.76c0,1.82,1.49,3.32,3.32,3.32c1.82,0,3.32-1.49,3.32-3.32
						v-1.76C457.41,184.87,455.92,183.38,454.1,183.38z"/>
					<linearGradient id="SVGID_34_" gradientUnits="userSpaceOnUse" x1="483.7573" y1="187.5751" x2="182.9374" y2="187.5751">
						<stop  offset="0" style="stop-color:#0B3170"/>
						<stop  offset="1" style="stop-color:#12B0C9"/>
					</linearGradient>
					<path class="st34" d="M465.71,183.38c-1.82,0-3.32,1.49-3.32,3.32v1.76c0,1.82,1.49,3.32,3.32,3.32c1.82,0,3.32-1.49,3.32-3.32
						v-1.76C469.03,184.87,467.53,183.38,465.71,183.38z"/>
					<linearGradient id="SVGID_35_" gradientUnits="userSpaceOnUse" x1="483.7574" y1="187.5751" x2="182.9374" y2="187.5751">
						<stop  offset="0" style="stop-color:#0B3170"/>
						<stop  offset="1" style="stop-color:#12B0C9"/>
					</linearGradient>
					<path class="st35" d="M477.32,183.38c-1.82,0-3.32,1.49-3.32,3.32v1.76c0,1.82,1.49,3.32,3.32,3.32c1.82,0,3.32-1.49,3.32-3.32
						v-1.76C480.64,184.87,479.14,183.38,477.32,183.38z"/>
					<linearGradient id="SVGID_36_" gradientUnits="userSpaceOnUse" x1="483.7574" y1="187.5751" x2="182.9381" y2="187.5751">
						<stop  offset="0" style="stop-color:#0B3170"/>
						<stop  offset="1" style="stop-color:#12B0C9"/>
					</linearGradient>
					<path class="st36" d="M488.93,183.38c-1.82,0-3.32,1.49-3.32,3.32v1.76c0,1.82,1.49,3.32,3.32,3.32c1.82,0,3.32-1.49,3.32-3.32
						v-1.76C492.25,184.87,490.75,183.38,488.93,183.38z"/>
					<linearGradient id="SVGID_37_" gradientUnits="userSpaceOnUse" x1="483.7574" y1="187.5751" x2="182.9374" y2="187.5751">
						<stop  offset="0" style="stop-color:#0B3170"/>
						<stop  offset="1" style="stop-color:#12B0C9"/>
					</linearGradient>
					<path class="st37" d="M517.29,183.38c-1.82,0-3.32,1.49-3.32,3.32v1.76c0,1.82,1.49,3.32,3.32,3.32c1.82,0,3.32-1.49,3.32-3.32
						v-1.76C520.61,184.87,519.11,183.38,517.29,183.38z"/>
					<linearGradient id="SVGID_38_" gradientUnits="userSpaceOnUse" x1="483.7574" y1="187.5751" x2="182.9374" y2="187.5751">
						<stop  offset="0" style="stop-color:#0B3170"/>
						<stop  offset="1" style="stop-color:#12B0C9"/>
					</linearGradient>
					<path class="st38" d="M528.9,183.38c-1.82,0-3.32,1.49-3.32,3.32v1.76c0,1.82,1.49,3.32,3.32,3.32c1.82,0,3.32-1.49,3.32-3.32
						v-1.76C532.22,184.87,530.73,183.38,528.9,183.38z"/>
					<linearGradient id="SVGID_39_" gradientUnits="userSpaceOnUse" x1="483.7574" y1="187.5751" x2="182.9374" y2="187.5751">
						<stop  offset="0" style="stop-color:#0B3170"/>
						<stop  offset="1" style="stop-color:#12B0C9"/>
					</linearGradient>
					<path class="st39" d="M540.51,183.38c-1.82,0-3.32,1.49-3.32,3.32v1.76c0,1.82,1.49,3.32,3.32,3.32c1.82,0,3.32-1.49,3.32-3.32
						v-1.76C543.83,184.87,542.34,183.38,540.51,183.38z"/>
					<linearGradient id="SVGID_40_" gradientUnits="userSpaceOnUse" x1="483.7573" y1="187.5751" x2="182.9373" y2="187.5751">
						<stop  offset="0" style="stop-color:#0B3170"/>
						<stop  offset="1" style="stop-color:#12B0C9"/>
					</linearGradient>
					<path class="st40" d="M552.12,183.38c-1.82,0-3.32,1.49-3.32,3.32v1.76c0,1.82,1.49,3.32,3.32,3.32c1.82,0,3.32-1.49,3.32-3.32
						v-1.76C555.44,184.87,553.95,183.38,552.12,183.38z"/>
					<linearGradient id="SVGID_41_" gradientUnits="userSpaceOnUse" x1="483.7569" y1="187.5751" x2="182.9342" y2="187.5751">
						<stop  offset="0" style="stop-color:#0B3170"/>
						<stop  offset="1" style="stop-color:#12B0C9"/>
					</linearGradient>
					<path class="st41" d="M563.73,183.38c-1.82,0-3.32,1.49-3.32,3.32v1.76c0,1.82,1.49,3.32,3.32,3.32c1.82,0,3.32-1.49,3.32-3.32
						v-1.76C567.05,184.87,565.56,183.38,563.73,183.38z"/>
					<linearGradient id="SVGID_42_" gradientUnits="userSpaceOnUse" x1="483.7578" y1="187.5751" x2="182.9385" y2="187.5751">
						<stop  offset="0" style="stop-color:#0B3170"/>
						<stop  offset="1" style="stop-color:#12B0C9"/>
					</linearGradient>
					<path class="st42" d="M575.34,183.38c-1.82,0-3.32,1.49-3.32,3.32v1.76c0,1.82,1.49,3.32,3.32,3.32c1.82,0,3.32-1.49,3.32-3.32
						v-1.76C578.66,184.87,577.17,183.38,575.34,183.38z"/>
					<linearGradient id="SVGID_43_" gradientUnits="userSpaceOnUse" x1="483.7576" y1="187.5751" x2="182.9383" y2="187.5751">
						<stop  offset="0" style="stop-color:#0B3170"/>
						<stop  offset="1" style="stop-color:#12B0C9"/>
					</linearGradient>
					<path class="st43" d="M586.96,183.38c-1.82,0-3.32,1.49-3.32,3.32v1.76c0,1.82,1.49,3.32,3.32,3.32c1.82,0,3.32-1.49,3.32-3.32
						v-1.76C590.27,184.87,588.78,183.38,586.96,183.38z"/>
					<linearGradient id="SVGID_44_" gradientUnits="userSpaceOnUse" x1="483.7561" y1="187.5751" x2="182.9334" y2="187.5751">
						<stop  offset="0" style="stop-color:#0B3170"/>
						<stop  offset="1" style="stop-color:#12B0C9"/>
					</linearGradient>
					<path class="st44" d="M598.57,183.38c-1.82,0-3.32,1.49-3.32,3.32v1.76c0,1.82,1.49,3.32,3.32,3.32c1.82,0,3.32-1.49,3.32-3.32
						v-1.76C601.88,184.87,600.39,183.38,598.57,183.38z"/>
					<linearGradient id="SVGID_45_" gradientUnits="userSpaceOnUse" x1="483.758" y1="187.5751" x2="182.9387" y2="187.5751">
						<stop  offset="0" style="stop-color:#0B3170"/>
						<stop  offset="1" style="stop-color:#12B0C9"/>
					</linearGradient>
					<path class="st45" d="M610.18,183.38c-1.82,0-3.32,1.49-3.32,3.32v1.76c0,1.82,1.49,3.32,3.32,3.32s3.32-1.49,3.32-3.32v-1.76
						C613.49,184.87,612,183.38,610.18,183.38z"/>
					<linearGradient id="SVGID_46_" gradientUnits="userSpaceOnUse" x1="483.7579" y1="187.5751" x2="182.9386" y2="187.5751">
						<stop  offset="0" style="stop-color:#0B3170"/>
						<stop  offset="1" style="stop-color:#12B0C9"/>
					</linearGradient>
					<path class="st46" d="M621.79,183.38c-1.82,0-3.32,1.49-3.32,3.32v1.76c0,1.82,1.49,3.32,3.32,3.32s3.32-1.49,3.32-3.32v-1.76
						C625.11,184.87,623.61,183.38,621.79,183.38z"/>
				</g>
			</g>
			<g>
				<g>
					<linearGradient id="SVGID_47_" gradientUnits="userSpaceOnUse" x1="286.5906" y1="325.7312" x2="344.2425" y2="426.547">
						<stop  offset="0" style="stop-color:#8FF0FF"/>
						<stop  offset="1" style="stop-color:#1173B0"/>
					</linearGradient>
					<path class="st47" d="M309.99,319.06c-24.34,0-44.07,19.73-44.07,44.07c0,18.04,24.2,54.92,36.74,72.81v10.19h7.34
						c0,0,44.07-58.66,44.07-83C354.06,338.79,334.33,319.06,309.99,319.06z M309.99,385.68c-13.21,0-23.92-10.71-23.92-23.92
						c0-13.21,10.71-23.92,23.92-23.92c13.21,0,23.92,10.71,23.92,23.92C333.91,374.97,323.2,385.68,309.99,385.68z"/>
					<path class="st48" d="M302.65,319.06c-24.34,0-44.07,19.73-44.07,44.07c0,24.34,44.07,83,44.07,83s44.07-58.66,44.07-83
						C346.72,338.79,326.99,319.06,302.65,319.06z M302.65,385.68c-13.21,0-23.92-10.71-23.92-23.92
						c0-13.21,10.71-23.92,23.92-23.92c13.21,0,23.92,10.71,23.92,23.92C326.57,374.97,315.86,385.68,302.65,385.68z"/>
				</g>
				<g>
					<linearGradient id="SVGID_48_" gradientUnits="userSpaceOnUse" x1="122.6463" y1="478.5785" x2="147.5891" y2="522.1962">
						<stop  offset="0" style="stop-color:#8FF0FF"/>
						<stop  offset="1" style="stop-color:#1173B0"/>
					</linearGradient>
					<path class="st49" d="M132.77,475.69c-10.53,0-19.07,8.54-19.07,19.07c0,7.8,10.47,23.76,15.89,31.5v4.41h3.17
						c0,0,19.07-25.38,19.07-35.91C151.84,484.23,143.3,475.69,132.77,475.69z M132.77,504.51c-5.71,0-10.35-4.63-10.35-10.35
						s4.63-10.35,10.35-10.35c5.71,0,10.35,4.63,10.35,10.35S138.48,504.51,132.77,504.51z"/>
					<path class="st48" d="M129.6,475.69c-10.53,0-19.07,8.54-19.07,19.07c0,10.53,19.07,35.91,19.07,35.91s19.07-25.38,19.07-35.91
						C148.66,484.23,140.13,475.69,129.6,475.69z M129.6,504.51c-5.71,0-10.35-4.63-10.35-10.35s4.63-10.35,10.35-10.35
						c5.71,0,10.35,4.63,10.35,10.35S135.31,504.51,129.6,504.51z"/>
				</g>
				<g>
					<linearGradient id="SVGID_49_" gradientUnits="userSpaceOnUse" x1="968.9571" y1="341.8999" x2="997.6603" y2="392.0933">
						<stop  offset="0" style="stop-color:#8FF0FF"/>
						<stop  offset="1" style="stop-color:#1173B0"/>
					</linearGradient>
					<path class="st50" d="M980.61,338.58c-12.12,0-21.94,9.82-21.94,21.94c0,8.98,12.05,27.34,18.29,36.25v5.07h3.65
						c0,0,21.94-29.21,21.94-41.33C1002.55,348.4,992.73,338.58,980.61,338.58z M980.61,371.74c-6.58,0-11.91-5.33-11.91-11.91
						c0-6.58,5.33-11.91,11.91-11.91s11.91,5.33,11.91,11.91C992.51,366.41,987.18,371.74,980.61,371.74z"/>
					<path class="st48" d="M976.95,338.58c-12.12,0-21.94,9.82-21.94,21.94c0,12.12,21.94,41.33,21.94,41.33
						s21.94-29.21,21.94-41.33C998.9,348.4,989.07,338.58,976.95,338.58z M976.95,371.74c-6.58,0-11.91-5.33-11.91-11.91
						c0-6.58,5.33-11.91,11.91-11.91s11.91,5.33,11.91,11.91C988.86,366.41,983.53,371.74,976.95,371.74z"/>
				</g>
				<g>
					<linearGradient id="SVGID_50_" gradientUnits="userSpaceOnUse" x1="1147.6489" y1="646.0455" x2="1191.2837" y2="722.3497">
						<stop  offset="0" style="stop-color:#8FF0FF"/>
						<stop  offset="1" style="stop-color:#1173B0"/>
					</linearGradient>
					<path class="st51" d="M1165.36,640.99c-18.42,0-33.36,14.93-33.36,33.36c0,13.65,18.32,41.57,27.8,55.11v7.71h5.55
						c0,0,33.36-44.4,33.36-62.82C1198.72,655.93,1183.78,640.99,1165.36,640.99z M1165.36,691.42c-10,0-18.1-8.1-18.1-18.1
						c0-10,8.1-18.1,18.1-18.1s18.1,8.1,18.1,18.1C1183.46,683.31,1175.36,691.42,1165.36,691.42z"/>
					<path class="st48" d="M1159.81,640.99c-18.42,0-33.36,14.93-33.36,33.36c0,18.42,33.36,62.82,33.36,62.82
						s33.36-44.4,33.36-62.82C1193.16,655.93,1178.23,640.99,1159.81,640.99z M1159.81,691.42c-10,0-18.1-8.1-18.1-18.1
						c0-10,8.1-18.1,18.1-18.1s18.1,8.1,18.1,18.1C1177.91,683.31,1169.8,691.42,1159.81,691.42z"/>
				</g>
			</g>
		</g>
		<g>
			<g>
				<path class="st52" d="M892.09,1089.48H429.95c-16.47,0-29.82-13.35-29.82-29.82V29.82C400.14,13.35,413.49,0,429.95,0h462.13
					c16.47,0,29.82,13.35,29.82,29.82v1029.84C921.91,1076.13,908.56,1089.48,892.09,1089.48z"/>
				<g>
					<path class="st53" d="M419.22,1050.56V38.92c0-10.96,8.88-19.84,19.84-19.84h428.93c10.96,0,19.84,8.88,19.84,19.84v1011.63
						c0,10.96-8.88,19.84-19.84,19.84H439.06C428.1,1070.4,419.22,1061.52,419.22,1050.56z"/>
					<path class="st54" d="M434.62,1070.4h437.81c8.51,0,15.4-6.9,15.4-15.4V941.36H419.22V1055
						C419.22,1063.5,426.11,1070.4,434.62,1070.4z"/>
					<g>
						
							<ellipse transform="matrix(0.2298 -0.9732 0.9732 0.2298 -620.4653 1227.7656)" class="st52" cx="465.44" cy="1005.88" rx="21.25" ry="21.25"/>
						
							<ellipse transform="matrix(0.9239 -0.3827 0.3827 0.9239 -340.5666 299.6148)" class="st52" cx="582.85" cy="1005.88" rx="21.25" ry="21.25"/>
						
							<ellipse transform="matrix(0.9239 -0.3827 0.3827 0.9239 -331.6295 344.5445)" class="st52" cx="700.26" cy="1005.88" rx="21.25" ry="21.25"/>
						
							<ellipse transform="matrix(0.9239 -0.3827 0.3827 0.9239 -322.6924 389.4743)" class="st52" cx="817.66" cy="1005.88" rx="21.25" ry="21.25"/>
					</g>
					<linearGradient id="SVGID_51_" gradientUnits="userSpaceOnUse" x1="720.3754" y1="56.0795" x2="553.0703" y2="519.8372">
						<stop  offset="0" style="stop-color:#61351E"/>
						<stop  offset="1" style="stop-color:#0D0304"/>
					</linearGradient>
					<path class="st55" d="M887.84,57.04c0-7.7-2.3-14.86-6.24-20.85L419.22,220.29v228.76l468.62-186.59V57.04z"/>
					<linearGradient id="SVGID_52_" gradientUnits="userSpaceOnUse" x1="792.6006" y1="96.8115" x2="625.2957" y2="560.5686">
						<stop  offset="0" style="stop-color:#61351E"/>
						<stop  offset="1" style="stop-color:#0D0304"/>
					</linearGradient>
					<polygon class="st56" points="419.22,645.96 887.84,459.37 887.84,318.66 419.22,505.26 					"/>
				</g>
				<path class="st57" d="M506.2,725.18c0,0,67.02-79.74,78.27-115.94c5.36-17.23,11.82-45.43,17.12-70.25
					c0.96,0.74,1.93,1.46,2.94,2.13c0.44,0.98,0.88,1.92,1.31,2.81c4.31,8.92,7.33,18.43,9.33,28.12
					c1.87,9.09,3.72,17.48,0.42,26.42c-1.77,4.8-3.74,9.97-2.34,14.89c0.55,1.92,1.58,3.63,2.92,5.11
					c-8.69,21.97-39.48,77.96-43.67,123.7c-4.5,49.13,4.09,193.67,3.28,209.64c-0.82,15.97-21.7,48.32-30.3,101.95
					c-0.83,5.2-1.58,10.79-2.26,16.64h59.3c3.9-28.59,7.28-55.07,12.13-71c5.73-18.83,47.61-137.74,52.99-173.94
					c0,0,8.81,47.94,9.78,91.97c0.98,44.03,6.36,58.7,0,80.72c-4.06,14.05-9.71,41.06-11.74,72.25h62.3
					c4.52-31.71,5.2-71.76,5.2-71.76s41.58-176.11,41.58-245.58c0-36.98-7.97-73.91-19.62-108.87
					c-5.43-16.31-11.48-32.17,1.71-46.95c7.32-8.21,17.19-13.97,23.9-22.69c10.32-13.42,11.56-31.58,11.11-48.5
					c-1.37-50.86-25.43-94.07-45-140.82c-3.68-8.8-7.42-18.52-4.57-27.62c3.78-12.07,16.86-20.49,23.53-31.01
					c6.38-10.06,13.37-23.32,14.35-35.38c1.15-14.13-8.97-23.32-8.97-23.32s-13.83,1.85-32.36-0.6
					c-7.49-17.65-24.78-48.04-58.71-46.3c-36.35,1.86-48.22,29.6-51.81,46.58c-3.01-0.01-5.87-0.13-8.5-0.42
					c-26.12-2.88-41.11,21.99-42.51,33.85c-1.89,16.09,7.41,42.19,51.61,56.3c-3.48,10.53-9.15,20.27-15.46,29.34
					c-10.8,15.51-23.62,29.82-31.61,46.94c-3.41,7.31-5.77,14.85-7.17,22.51c-5.28,11.89-10.43,26.64-11.74,41.11
					c-2.94,32.29-9.57,71.91-26.07,107.62c-16.49,35.71-64.92,90.5-64.92,90.5S475.87,715.4,506.2,725.18z"/>
				<g>
					<path class="st53" d="M918.28,216.94L918.28,216.94c-5.48,0-9.92,6.46-9.92,14.44v60.61c0,7.97,4.44,14.44,9.92,14.44l0,0
						c5.48,0,9.92-6.46,9.92-14.44v-60.61C928.2,223.4,923.76,216.94,918.28,216.94z"/>
					<path class="st58" d="M921.47,216.94L921.47,216.94c-5.48,0-9.92,6.46-9.92,14.44v60.61c0,7.97,4.44,14.44,9.92,14.44l0,0
						c5.48,0,9.92-6.46,9.92-14.44v-60.61C931.39,223.4,926.95,216.94,921.47,216.94z"/>
				</g>
			</g>
		</g>
	</g>
</g>
<path class="st58" d="M766.21,298.22H564.13c-13.47,0-24.39-10.92-24.39-24.39v-24.31c0-13.47,10.92-24.39,24.39-24.39h202.08
	c13.47,0,24.39,10.92,24.39,24.39v24.31C790.6,287.31,779.68,298.22,766.21,298.22z"/>
<path class="st52" d="M766.21,294.02H564.13c-13.47,0-24.39-10.92-24.39-24.39v-24.31c0-13.47,10.92-24.39,24.39-24.39h202.08
	c13.47,0,24.39,10.92,24.39,24.39v24.31C790.6,283.1,779.68,294.02,766.21,294.02z"/>
<g>
	<text transform="matrix(1 0 0 1 587.9517 270.3755)" class="st48 st59 st60">Reservar</text>
</g>
<g>
	<ellipse class="st61" cx="396.33" cy="1248.62" rx="325.18" ry="28.68"/>
	<g>
		<g>
			<g>
				<path class="st48" d="M165.15,923.66c-0.58,0-1.17-0.1-1.74-0.31c-2.67-0.96-4.05-3.9-3.09-6.57l63.61-176.58
					c0.96-2.67,3.9-4.05,6.57-3.09c2.67,0.96,4.05,3.9,3.09,6.57l-63.61,176.58C169.23,922.35,167.26,923.66,165.15,923.66z"/>
			</g>
		</g>
		<path class="st58" d="M295.07,751.77H227.2c-2.66,0-4.84-2.18-4.84-4.84v-9.98c0-2.66,2.18-4.84,4.84-4.84h67.87
			c2.66,0,4.84,2.18,4.84,4.84v9.98C299.91,749.59,297.73,751.77,295.07,751.77z"/>
		<g>
			<g>
				<path class="st48" d="M229.73,923.66c-0.58,0-1.17-0.1-1.74-0.31c-2.67-0.96-4.05-3.9-3.09-6.57L288.5,740.2
					c0.96-2.67,3.9-4.05,6.57-3.09c2.67,0.96,4.05,3.9,3.09,6.57l-63.61,176.58C233.8,922.35,231.83,923.66,229.73,923.66z"/>
			</g>
		</g>
		<g>
			<path class="st52" d="M104.12,919.39c-12.34,0.97-14.69,9.48-18.19,19.21c-13.6,37.75-27.2,75.5-40.8,113.25
				c-7.22,20.04-14.44,40.09-21.66,60.13c-3.78,10.48-8.91,21.25-11.56,32.1c-3.19,13.04,6.38,28.94,12.55,39.78
				c8.3,14.56,18.48,28.74,27.9,42.61c7.77,11.44,24.75,7.97,36.97,7.97c22.11,0,44.22,0,66.33,0c18.3,0,36.6,0,54.9,0
				c10.81,0,17.51-3.49,21.41-13.9c25.76-68.67,51.65-137.84,74.73-207.45c1.83-5.53,3.74-10.67,0.21-16.4
				c-7.81-14.19-16.04-28.23-24.07-42.33c-6.27-11.01-13.56-33.39-28.2-34.97H104.12z"/>
			<path class="st58" d="M306.91,996.68c-7.81-14.19-16.04-28.23-24.07-42.33c-4.15-7.29-8.76-19.57-15.64-27.49
				c1.83,3.39,2.32,7.53,0.86,11.58l-77.84,216.08c-2.03,5.65-7.39,9.41-13.39,9.41H25.01c-6.15,0-11.14-3.81-13.21-8.92
				c1.82,10.25,8.07,20.94,12.66,28.83c9.01,15.49,19.78,30.43,27.9,42.61c7.67,11.5,24.75,7.97,36.97,7.97c22.11,0,44.22,0,66.33,0
				c18.3,0,36.6,0,54.9,0c10.81,0,17.51-3.49,21.41-13.9c25.76-68.67,51.65-137.84,74.73-207.45
				C308.53,1007.56,310.44,1002.42,306.91,996.68z"/>
			<g>
				<g>
					<path class="st58" d="M43,1137.45c-0.17,0-0.34-0.03-0.5-0.09c-0.76-0.28-1.16-1.12-0.88-1.88l72.37-199.05
						c0.28-0.76,1.12-1.15,1.88-0.88c0.76,0.28,1.16,1.12,0.88,1.88l-72.37,199.05C44.17,1137.08,43.6,1137.45,43,1137.45z"/>
				</g>
				<g>
					<path class="st58" d="M98.83,1141.64c-0.17,0-0.34-0.03-0.5-0.09c-0.76-0.28-1.16-1.12-0.88-1.88l72.37-199.05
						c0.28-0.76,1.12-1.15,1.88-0.88c0.76,0.28,1.16,1.12,0.88,1.88l-72.37,199.05C99.99,1141.27,99.43,1141.64,98.83,1141.64z"/>
				</g>
				<g>
					<path class="st58" d="M156.37,1145.04c-0.17,0-0.34-0.03-0.5-0.09c-0.76-0.28-1.16-1.12-0.88-1.88l72.37-199.05
						c0.28-0.76,1.12-1.15,1.88-0.88c0.76,0.28,1.16,1.12,0.88,1.88l-72.37,199.05C157.53,1144.67,156.97,1145.04,156.37,1145.04z"
						/>
				</g>
			</g>
			<g>
				<g>
					<path class="st62" d="M73.28,1226.42c-3.74,0-6.78,7.05-6.78,15.76s3.04,15.76,6.78,15.76h9.14v-31.51H73.28z"/>
					<ellipse class="st52" cx="82.42" cy="1242.18" rx="6.78" ry="15.76"/>
				</g>
				<g>
					<path class="st62" d="M176.63,1226.42c-3.74,0-6.78,7.05-6.78,15.76s3.04,15.76,6.78,15.76h9.14v-31.51H176.63z"/>
					<ellipse class="st52" cx="185.77" cy="1242.18" rx="6.78" ry="15.76"/>
				</g>
				<g>
					<path class="st62" d="M48.32,1168.16c-3.74,0-6.78,7.05-6.78,15.76c0,8.7,3.04,15.76,6.78,15.76h9.14v-31.51H48.32z"/>
					<ellipse class="st52" cx="57.46" cy="1183.92" rx="6.78" ry="15.76"/>
				</g>
				<g>
					<path class="st62" d="M151.67,1168.16c-3.74,0-6.78,7.05-6.78,15.76c0,8.7,3.04,15.76,6.78,15.76h9.14v-31.51H151.67z"/>
					<ellipse class="st52" cx="160.81" cy="1183.92" rx="6.78" ry="15.76"/>
				</g>
			</g>
		</g>
	</g>
	<g>
		<g>
			<g>
				<g>
					<path class="st53" d="M279.33,1237.43c0,3.38,2.74,6.11,6.11,6.11h54.49c10.03,0,23.05-2.2,21.83-12.96
						c-1.22-10.76-3-19.24-2.72-30.9h-24.57c0,0-5.52,11.82-15.31,18.37C316.37,1219.92,279.33,1226.26,279.33,1237.43z"/>
					<path class="st63" d="M285.44,1243.54h54.49c10.03,0,23.05-2.2,21.83-12.96c-0.1-0.88-0.21-1.73-0.31-2.59
						c-2.07,6.44-9.65,10.41-18.72,10.41c-8.64,0-53.06,0-63.3,0C279.9,1241.31,282.4,1243.54,285.44,1243.54z"/>
				</g>
				<g>
					<path class="st53" d="M519.83,1238.41c2.57,0,4.34-2.54,3.49-4.96c-1.65-4.72-5.26-11.69-12.9-15.83
						c-5.87-3.18-8.68-2.81-11.93-16.14l-28.37,2.3c0,0-5.07,8.22-5.07,22.65c0,3.72,0.54,6.64,1.1,8.67
						c0.54,1.96,2.3,3.32,4.34,3.32H519.83z"/>
					<path class="st63" d="M470.48,1238.41h49.35c2.57,0,4.34-2.54,3.49-4.96c-0.26-0.73-0.57-1.53-0.93-2.35
						c-1.39,1.04-4.2,1.94-9.78,1.94c-13.21,0-31.06,0-39.87,0c-3.14,0-5.53-0.56-7.31-1.29c0.2,1.3,0.45,2.42,0.71,3.35
						C466.69,1237.05,468.45,1238.41,470.48,1238.41z"/>
				</g>
			</g>
			<g>
				<path class="st58" d="M415.33,611.01c-5.52,17.89-40.73,78.9-45.23,128.03c-4.5,49.13,4.09,193.67,3.28,209.64
					c-0.82,15.97-21.7,48.32-30.3,101.95c-8.6,53.64-8.6,149.04-8.6,149.04s2.87,4.09,11.06,4.09c8.19,0,13.51-4.09,13.51-4.09
					s36.19-84.38,41.1-118.78c4.91-34.39,8.31-65.93,14.29-84.68c7.13-22.35,45.41-137.67,50.8-173.87c0,0,8.81,47.94,9.78,91.97
					c0.98,44.03,6.36,58.7,0,80.72c-6.36,22.01-16.63,75.83-10.76,127.68c5.87,51.85,5.87,81.06,5.87,81.06s3.42,3.57,12.72,3.57
					c9.29,0,15.65-5.87,15.65-5.87s16.63-85.12,23.97-116.92c7.34-31.8,8.32-89.03,8.32-89.03s41.58-176.11,41.58-245.58
					c0-69.47-30.32-137.26-30.32-137.26L415.33,611.01z"/>
				<g>
					<path class="st52" d="M460.88,757.28h-1.34c-20.92,0-39.77-9.05-39.96-9.15c-0.73-0.35-1.61-0.05-1.96,0.68
						c-0.35,0.73-0.05,1.61,0.68,1.96c0.77,0.38,18.86,9.07,39.91,9.43c0.62,6.52,3.45,35.8,6.24,57.44
						c0.1,0.74,0.73,1.28,1.45,1.28c0.06,0,0.13,0,0.19-0.01c0.8-0.1,1.37-0.84,1.27-1.64c-3.14-24.31-6.32-58.31-6.35-58.65
						L460.88,757.28z"/>
					<path class="st52" d="M442.33,705.4c8.07-21.8,11.02-34.75,11.05-34.88l0.43-1.91l-1.96,0.13
						c-27.66,1.77-48.23-10.19-48.43-10.31l-1.58-0.94l-0.56,1.75c-0.28,0.88-6.95,21.64-7.53,29.76
						c-0.67,9.44,3.93,29.83,18.07,36.46l0.33,0.16l0.37-0.02C413.45,725.55,435.38,724.18,442.33,705.4z M412.72,722.63
						c-13.57-6.68-16.52-26.79-16.04-33.43c0.46-6.47,5.24-22.18,6.86-27.37c5.31,2.78,23.04,10.94,46.52,9.94
						c-1.1,4.3-4.24,15.77-10.47,32.61C433.76,720.1,415.51,722.38,412.72,722.63z"/>
					<path class="st52" d="M534.15,669.69l-0.05-1.73l-1.7,0.33c-26.72,5.24-49.61,1.95-49.83,1.92l-1.63-0.24l-0.05,1.65
						c-0.03,0.92-0.67,22.72,1.02,30.68c1.97,9.26,12.05,27.56,27.47,30.02l0.36,0.06l0.35-0.12c0.89-0.3,21.84-7.68,23.05-27.69
						C534.48,682.35,534.16,669.81,534.15,669.69z M530.2,704.39c-1.01,16.72-18.12,23.96-20.74,24.96
						c-14.9-2.65-23.3-21.16-24.68-27.67c-1.37-6.41-1.12-23.11-1-28.37c5.64,0.63,25.09,2.3,47.47-1.82
						C531.28,675.62,531.26,687.02,530.2,704.39z"/>
				</g>
			</g>
		</g>
		<g>
			<path class="st64" d="M523.93,336.08c0,0-0.98,27.88-8.81,43.05c0,0-6.36,18.59,0,35.22c0,0-10.27,7.83-22.99,0
				c0,0-11.25-69.95,2.94-74.85C509.25,334.62,523.93,336.08,523.93,336.08z"/>
			<path class="st64" d="M643.01,429.15c0,0,3.27-23.17,2.92-37.9c-0.34-14.73-6.51-24.66-6.51-34.26s18.5-35.63,23.98-43.16
				c5.48-7.54,11.04-15.44,13.57-12.69c2.53,2.75-12.1,29.38-11.81,34.74c0.3,5.35,7.47,3.3,12.1,16.31
				c4.63,13.02-8.38,26.72-8.38,41.45c0,14.73,1.71,50.7,1.71,50.7L643.01,429.15z"/>
			<path class="st48" d="M460.82,409.4c28.43,0,84.74-2.15,102.98,23.06c18.24,25.21,37.55,68.65,52.56,81.53
				c0,0,24.67-55.78,26.82-86.89c0,0,5.9-4.83,18.77,1.61c12.87,6.44,15.02,21.45,15.02,21.45s-11.05,44.95-13.73,64.26
				c-2.68,19.31-7.51,61.68-30.04,60.61c-30.57-2.15-63.5-43.34-73.16-57.29c-0.01,0.03-0.02,0.05-0.03,0.08
				c-3.51,9.31-6.46,18.86-9.1,28.44c-2.38,8.63-4.45,17.36-6.06,26.17c-1.47,8.03-4.71,16.73-0.69,24.33
				c1.96,3.7,4.5,7.34,4.7,11.52c0.26,5.26-3.41,10.11-7.98,12.73c-4.57,2.62-9.93,3.43-15.17,4.08
				c-31.65,3.92-63.91,3.46-95.25-2.4c-4.02-0.75-8.09-1.61-11.71-3.52c-3.62-1.9-6.8-5-7.92-8.94c-1.4-4.92,0.57-10.09,2.34-14.89
				c3.3-8.94,1.44-17.32-0.42-26.42c-1.99-9.69-5.01-19.2-9.33-28.12C387.34,507.56,361.6,409.4,460.82,409.4z"/>
			<g>
				<path class="st64" d="M278.05,700.47c0,0-13.5,10.89-24.15,16.57c-10.65,5.68-12.55,6.63-13.97,14.68
					c-1.42,8.05-3.79,17.99,0,22.73c3.05,3.81,10.37,4.61,14.78,5.42c6.71,1.24,15.72,3.78,22.23,1.09c1.8-0.75,3.47-2.01,4.31-3.77
					c1.31-2.75,0.09-5.42-3.03-5.6c-1.48-0.09-3.1,0.1-4.31-0.76c-1.03-0.74-1.46-2.12-1.32-3.39c0.14-1.26,0.78-2.42,1.54-3.44
					c2.68-3.61,6.82-5.78,10.73-8.01c3.44-1.97,6.73-4.17,9.03-7.45c1.05-1.5,2.32-2.77,3.31-4.35c0.33-0.52,3.09-5.1,2.63-5.49
					C299.83,718.7,278.05,700.47,278.05,700.47z"/>
				<path class="st48" d="M385.49,428.05c0,0-22.01,33.75-24.95,66.04c-2.94,32.29-9.57,71.91-26.07,107.62
					c-16.49,35.71-64.92,90.5-64.92,90.5s3.91,20.06,34.24,29.84c0,0,67.02-79.74,78.27-115.94
					c11.25-36.2,27.39-120.83,27.39-120.83S413.86,409.46,385.49,428.05z"/>
			</g>
		</g>
		<g>
			<path class="st52" d="M411.05,383.53c-10.8,15.51-23.62,29.82-31.61,46.94c-11.59,24.84-11.35,52.45-0.8,77.56
				c4.99,11.87,12.78,22.82,23.49,29.97c13.03,8.7,27.1,9.12,41.95,10.57c14.7,1.44,29.72-4.38,40.38-14.45
				c12.99-12.27,19.87-30.05,21.44-47.85c1.13-12.82-0.35-26.08-2.36-38.75c-0.89-5.62-3.64-10.65-4.51-16.31
				c-1.08-7.05-0.46-14.34,1.03-21.28c2.74-12.67,8.13-24.67,10.7-37.38c2.57-12.71,1.88-27.04-6.32-37.09
				c-5.14-6.3-12.72-10.23-20.56-12.36c-7.84-2.13-16.03-2.62-24.14-3.1c-7.71-0.45-15.88-0.81-22.66,2.87
				c-10.97,5.95-6.6,16.45-9.06,26.14C424.87,361.56,418.39,373,411.05,383.53z"/>
			<g>
				<path class="st65" d="M374.9,297.89c-2.44,20.71,13.67,58.01,98.86,64.97c85.19,6.96,102.85-60.63,104-74.75
					c1.15-14.13-8.97-23.32-8.97-23.32s-23.26,3.12-49.87-4.07c-26.61-7.19-74.79,6.27-101.52,3.33
					C391.29,261.16,376.3,286.02,374.9,297.89z"/>
				<path class="st65" d="M540.62,275.15c0,0-13.28,56.2-65.71,51.91c-52.43-4.28-51.39-40.56-50.3-53.99
					c1.1-13.43,9.48-52.97,53.1-55.2C521.35,215.65,537.46,266.53,540.62,275.15z"/>
				<path class="st48" d="M538.19,268.51c-6.36,15.76-23.71,45.86-62.61,42.68c-40.97-3.35-49.29-26.23-50.45-42.48
					c-0.25,1.64-0.41,3.12-0.52,4.36c-1.1,13.43-2.13,49.71,50.3,53.99c52.43,4.28,65.71-51.91,65.71-51.91
					C540.14,273.83,539.34,271.49,538.19,268.51z"/>
			</g>
		</g>
	</g>
</g>
</svg>
