<?xml version="1.0" encoding="utf-8"?>
<!-- Generator: Adobe Illustrator 24.3.0, SVG Export Plug-In . SVG Version: 6.00 Build 0)  -->
<svg version="1.1" id="Layer_3" xmlns="http://www.w3.org/2000/svg" xmlns:xlink="http://www.w3.org/1999/xlink" x="0px" y="0px"
	 viewBox="0 0 643.73 577.98" style="enable-background:new 0 0 643.73 577.98;" xml:space="preserve">
<style type="text/css">
	.st0{fill:url(#SVGID_1_);}
	.st1{fill:#66AEDF;}
	.st2{fill:url(#SVGID_2_);}
	.st3{fill:#4A8EC6;}
	.st4{fill:url(#SVGID_3_);}
	.st5{fill:url(#SVGID_4_);}
	.st6{fill:url(#SVGID_5_);}
	.st7{fill:url(#SVGID_6_);}
	.st8{fill:url(#SVGID_7_);}
	.st9{fill:url(#SVGID_8_);}
	.st10{fill:url(#SVGID_9_);}
	.st11{fill:url(#SVGID_10_);}
	.st12{fill:url(#SVGID_11_);}
	.st13{fill:url(#SVGID_12_);}
	.st14{fill:url(#SVGID_13_);}
	.st15{fill:url(#SVGID_14_);}
	.st16{fill:url(#SVGID_15_);}
	.st17{fill:url(#SVGID_16_);}
	.st18{fill:url(#SVGID_17_);}
	.st19{fill:url(#SVGID_18_);}
	.st20{fill:url(#SVGID_19_);}
	.st21{fill:url(#SVGID_20_);}
	.st22{fill:url(#SVGID_21_);}
	.st23{fill:url(#SVGID_22_);}
	.st24{fill:url(#SVGID_23_);}
	.st25{fill:url(#SVGID_24_);}
	.st26{fill:url(#SVGID_25_);}
	.st27{fill:url(#SVGID_26_);}
	.st28{fill:url(#SVGID_27_);}
	.st29{fill:url(#SVGID_28_);}
	.st30{fill:url(#SVGID_29_);}
	.st31{fill:url(#SVGID_30_);}
	.st32{fill:url(#SVGID_31_);}
	.st33{fill:#5CA6DD;}
	.st34{fill:#CCCCCC;}
	.st35{opacity:0.19;fill:#C8E1FB;}
	.st36{fill:#13477E;}
	.st37{fill:url(#SVGID_32_);}
	.st38{fill:url(#SVGID_33_);}
	.st39{fill:#FFFFFF;}
	.st40{fill:url(#SVGID_34_);}
	.st41{fill:url(#SVGID_35_);}
	.st42{fill:url(#SVGID_36_);}
	.st43{fill:url(#SVGID_37_);}
	.st44{fill:#FF7D26;}
	.st45{fill:#81C1FF;}
	.st46{fill:none;stroke:#81C1FF;stroke-miterlimit:10;}
	.st47{fill:#00C2FF;}
</style>
<g>
	<g>
		<g>
			<g>
				<g>
					<linearGradient id="SVGID_1_" gradientUnits="userSpaceOnUse" x1="-5.476877e-03" y1="491.8314" x2="643.7241" y2="491.8314">
						<stop  offset="0.1363" style="stop-color:#0478D3"/>
						<stop  offset="1" style="stop-color:#035C95"/>
					</linearGradient>
					<path class="st0" d="M643.71,574.82v-5.55h-1.79v1.16l-73.36-163.05c-0.47-1.03-1.5-1.7-2.63-1.7L69.01,406.5
						c-1.18,0-2.23,0.72-2.67,1.81L2.03,569.45h-2.04v5.64c0,0.01,0,0.02,0,0.03v0.05h0c0.03,1.5,1.25,2.82,2.88,2.82l637.97-0.06
						C642.59,577.92,643.85,576.42,643.71,574.82z"/>
				</g>
				<g>
					<g>
						<path class="st1" d="M542.7,423.32H91.12c-12.95,0-23.54-10.59-23.54-23.54V90.41c0-12.95,10.59-23.54,23.54-23.54H542.7
							c12.95,0,23.54,10.59,23.54,23.54v309.37C566.24,412.73,555.65,423.32,542.7,423.32z"/>
					</g>
					<g>
						<linearGradient id="SVGID_2_" gradientUnits="userSpaceOnUse" x1="92.2399" y1="236.231" x2="536.1019" y2="236.231">
							<stop  offset="0.2116" style="stop-color:#D0E9FB"/>
							<stop  offset="0.502" style="stop-color:#BEE0F6"/>
							<stop  offset="1" style="stop-color:#96CCEC"/>
						</linearGradient>
						<rect x="92.24" y="88.33" class="st2" width="443.86" height="295.8"/>
					</g>
					<g>
						<g>
							<g>
								<path class="st3" d="M640.85,572.2L2.88,572.26c-2.04,0-3.43-2.06-2.67-3.95l66.14-165.73c0.44-1.09,1.24-3.96,2.67-5.39
									l496.92-0.82c0.31,1.43,2.16,4.24,2.63,5.28l74.91,166.49C644.33,570.04,642.94,572.2,640.85,572.2z"/>
							</g>
							<g>
								<polygon class="st1" points="590.38,501.55 49.83,501.89 84.76,406.33 550.4,405.59 								"/>
							</g>
							<g>
								<linearGradient id="SVGID_3_" gradientUnits="userSpaceOnUse" x1="119.5498" y1="483.3373" x2="454.7889" y2="418.1959">
									<stop  offset="0.1363" style="stop-color:#0478D3"/>
									<stop  offset="1" style="stop-color:#035C95"/>
								</linearGradient>
								<path class="st4" d="M116.6,495.01l-36.58,0.03c-0.97,0-1.66-0.95-1.36-1.88l4.29-13.09c0.19-0.59,0.74-0.99,1.36-0.99
									l35.82-0.03c0.94,0,1.63,0.89,1.38,1.8l-3.53,13.09C117.81,494.58,117.25,495.01,116.6,495.01z"/>
							</g>
							<g>
								<linearGradient id="SVGID_4_" gradientUnits="userSpaceOnUse" x1="121.5379" y1="493.5693" x2="456.7766" y2="428.4279">
									<stop  offset="0.1363" style="stop-color:#0478D3"/>
									<stop  offset="1" style="stop-color:#035C95"/>
								</linearGradient>
								<path class="st5" d="M172.02,494.97L135.39,495c-0.93,0-1.61-0.87-1.39-1.77l3.23-13.1c0.16-0.64,0.73-1.09,1.39-1.09
									l35.88-0.03c0.9,0,1.57,0.81,1.41,1.7l-2.47,13.1C173.3,494.48,172.71,494.97,172.02,494.97z"/>
							</g>
							<g>
								<linearGradient id="SVGID_5_" gradientUnits="userSpaceOnUse" x1="127.5424" y1="524.47" x2="462.7816" y2="459.3286">
									<stop  offset="0.1363" style="stop-color:#0478D3"/>
									<stop  offset="1" style="stop-color:#035C95"/>
								</linearGradient>
								<path class="st6" d="M408.57,478.81l-15.49,0.01l-38.73,0.03l-15.49,0.01l-38.73,0.03l-15.49,0.01l-38.73,0.03l-53,0.04
									c-0.7,0-1.3,0.51-1.41,1.2l-2.16,13.1c-0.14,0.87,0.53,1.67,1.41,1.66l53.83-0.04l39.65-0.03l15.86-0.01l39.65-0.03
									l15.86-0.01l39.65-0.03l15.86-0.01l37.88-0.03c0.91,0,1.59-0.84,1.4-1.74l-2.86-13.14c-0.14-0.66-0.73-1.13-1.4-1.13
									L408.57,478.81z"/>
							</g>
							<g>
								<linearGradient id="SVGID_6_" gradientUnits="userSpaceOnUse" x1="133.4677" y1="554.9604" x2="468.7058" y2="489.8192">
									<stop  offset="0.1363" style="stop-color:#0478D3"/>
									<stop  offset="1" style="stop-color:#035C95"/>
								</linearGradient>
								<path class="st7" d="M504.37,494.74l-36.6,0.03c-0.66,0-1.24-0.45-1.39-1.1l-3.16-13.14c-0.22-0.9,0.47-1.77,1.39-1.77
									l35.84-0.03c0.63,0,1.19,0.42,1.37,1.02l3.92,13.14C506.02,493.82,505.33,494.74,504.37,494.74z"/>
							</g>
							<g>
								<linearGradient id="SVGID_7_" gradientUnits="userSpaceOnUse" x1="135.4557" y1="565.1924" x2="470.6943" y2="500.0511">
									<stop  offset="0.1363" style="stop-color:#0478D3"/>
									<stop  offset="1" style="stop-color:#035C95"/>
								</linearGradient>
								<path class="st8" d="M559.73,494.7l-36.54,0.03c-0.62,0-1.17-0.4-1.36-0.99l-4.23-13.15c-0.3-0.92,0.39-1.87,1.36-1.87
									l35.78-0.03c0.6,0,1.13,0.37,1.34,0.92l4.99,13.15C561.42,493.7,560.73,494.7,559.73,494.7z"/>
							</g>
							<g>
								<linearGradient id="SVGID_8_" gradientUnits="userSpaceOnUse" x1="116.5807" y1="468.0577" x2="451.8198" y2="402.9163">
									<stop  offset="0.1363" style="stop-color:#0478D3"/>
									<stop  offset="1" style="stop-color:#035C95"/>
								</linearGradient>
								<path class="st9" d="M148.54,456.69l-5.55,0.01l-51.36,0.05c-0.62,0-1.17,0.4-1.36,0.99l-4.29,13.09
									c-0.3,0.93,0.39,1.88,1.36,1.88l51.72-0.05l5.69-0.01l31.48-0.03c0.69,0,1.28-0.49,1.41-1.17l2.47-13.1
									c0.17-0.88-0.51-1.7-1.41-1.7L148.54,456.69z"/>
							</g>
							<g>
								<linearGradient id="SVGID_9_" gradientUnits="userSpaceOnUse" x1="119.4506" y1="482.8277" x2="454.6894" y2="417.6863">
									<stop  offset="0.1363" style="stop-color:#0478D3"/>
									<stop  offset="1" style="stop-color:#035C95"/>
								</linearGradient>
								<path class="st10" d="M229.83,472.57l-35.38,0.03c-0.88,0-1.56-0.79-1.41-1.66l2.16-13.1c0.11-0.69,0.71-1.2,1.41-1.2
									l34.62-0.04c0.85,0,1.52,0.74,1.42,1.58l-1.4,13.11C231.17,472.02,230.56,472.57,229.83,472.57z"/>
							</g>
							<g>
								<linearGradient id="SVGID_10_" gradientUnits="userSpaceOnUse" x1="121.3708" y1="492.7105" x2="456.61" y2="427.5691">
									<stop  offset="0.1363" style="stop-color:#0478D3"/>
									<stop  offset="1" style="stop-color:#035C95"/>
								</linearGradient>
								<path class="st11" d="M283.42,472.53l-35.4,0.03c-0.84,0-1.5-0.72-1.43-1.55l1.1-13.11c0.06-0.74,0.68-1.31,1.43-1.31
									l34.64-0.04c0.81,0,1.45,0.66,1.43,1.47l-0.34,13.11C284.83,471.91,284.2,472.53,283.42,472.53z"/>
							</g>
							<g>
								<linearGradient id="SVGID_11_" gradientUnits="userSpaceOnUse" x1="123.2912" y1="502.5932" x2="458.5303" y2="437.4518">
									<stop  offset="0.1363" style="stop-color:#0478D3"/>
									<stop  offset="1" style="stop-color:#035C95"/>
								</linearGradient>
								<path class="st12" d="M337,472.48l-35.41,0.03c-0.79,0-1.43-0.64-1.43-1.44l0.03-13.12c0-0.79,0.64-1.43,1.43-1.43
									l34.65-0.04c0.76,0,1.39,0.59,1.43,1.35l0.73,13.12C338.47,471.79,337.82,472.48,337,472.48z"/>
							</g>
							<g>
								<linearGradient id="SVGID_12_" gradientUnits="userSpaceOnUse" x1="125.2117" y1="512.4759" x2="460.4509" y2="447.3345">
									<stop  offset="0.1363" style="stop-color:#0478D3"/>
									<stop  offset="1" style="stop-color:#035C95"/>
								</linearGradient>
								<path class="st13" d="M390.57,472.43l-35.39,0.03c-0.75,0-1.37-0.57-1.43-1.32l-1.03-13.12c-0.07-0.83,0.59-1.54,1.43-1.54
									l34.63-0.04c0.72,0,1.32,0.53,1.42,1.24l1.79,13.13C392.11,471.66,391.44,472.43,390.57,472.43z"/>
							</g>
							<g>
								<linearGradient id="SVGID_13_" gradientUnits="userSpaceOnUse" x1="127.1325" y1="522.3586" x2="462.3711" y2="457.2173">
									<stop  offset="0.1363" style="stop-color:#0478D3"/>
									<stop  offset="1" style="stop-color:#035C95"/>
								</linearGradient>
								<path class="st14" d="M444.13,472.38l-35.36,0.03c-0.7,0-1.3-0.51-1.42-1.21l-2.1-13.13c-0.14-0.87,0.53-1.66,1.41-1.66
									l34.6-0.04c0.67,0,1.26,0.47,1.4,1.13l2.86,13.14C445.72,471.54,445.05,472.38,444.13,472.38z"/>
							</g>
							<g>
								<linearGradient id="SVGID_14_" gradientUnits="userSpaceOnUse" x1="130.0216" y1="537.2314" x2="465.2604" y2="472.0901">
									<stop  offset="0.1363" style="stop-color:#0478D3"/>
									<stop  offset="1" style="stop-color:#035C95"/>
								</linearGradient>
								<path class="st15" d="M494.83,456.33l-5.71,0.01l-29.91,0.03c-0.93,0-1.61,0.87-1.39,1.77l3.16,13.14
									c0.15,0.64,0.73,1.1,1.39,1.1l31.38-0.03l5.85-0.01l51.63-0.05c1,0,1.69-1,1.34-1.94l-4.99-13.15
									c-0.21-0.56-0.74-0.92-1.34-0.92L494.83,456.33z"/>
							</g>
							<g>
								<linearGradient id="SVGID_15_" gradientUnits="userSpaceOnUse" x1="112.1642" y1="445.3285" x2="447.403" y2="380.1871">
									<stop  offset="0.1363" style="stop-color:#0478D3"/>
									<stop  offset="1" style="stop-color:#035C95"/>
								</linearGradient>
								<path class="st16" d="M139.78,434.36l-20.93,0.03l-19.9,0.03c-0.62,0-1.17,0.4-1.36,0.99l-4.29,13.09
									c-0.3,0.93,0.39,1.88,1.36,1.88l19.49-0.02l21.47-0.02l20.33-0.02c0.67,0,1.25-0.46,1.39-1.12l2.97-13.1
									c0.2-0.9-0.48-1.75-1.4-1.75L139.78,434.36z"/>
							</g>
							<g>
								<linearGradient id="SVGID_16_" gradientUnits="userSpaceOnUse" x1="114.4491" y1="457.0874" x2="449.6877" y2="391.946">
									<stop  offset="0.1363" style="stop-color:#0478D3"/>
									<stop  offset="1" style="stop-color:#035C95"/>
								</linearGradient>
								<path class="st17" d="M206.33,450.24l-34.07,0.04c-0.91,0-1.59-0.83-1.4-1.72l2.69-13.1c0.14-0.66,0.72-1.14,1.4-1.14
									l33.31-0.04c0.87,0,1.55,0.78,1.42,1.64l-1.93,13.1C207.64,449.72,207.04,450.24,206.33,450.24z"/>
							</g>
							<g>
								<linearGradient id="SVGID_17_" gradientUnits="userSpaceOnUse" x1="116.3017" y1="466.621" x2="451.5408" y2="401.4796">
									<stop  offset="0.1363" style="stop-color:#0478D3"/>
									<stop  offset="1" style="stop-color:#035C95"/>
								</linearGradient>
								<path class="st18" d="M258.11,450.19l-34.1,0.04c-0.86,0-1.53-0.75-1.42-1.61l1.63-13.11c0.09-0.72,0.7-1.25,1.42-1.25
									l33.34-0.04c0.83,0,1.49,0.7,1.43,1.53l-0.87,13.11C259.49,449.6,258.87,450.19,258.11,450.19z"/>
							</g>
							<g>
								<linearGradient id="SVGID_18_" gradientUnits="userSpaceOnUse" x1="118.1541" y1="476.1547" x2="453.3929" y2="411.0133">
									<stop  offset="0.1363" style="stop-color:#0478D3"/>
									<stop  offset="1" style="stop-color:#035C95"/>
								</linearGradient>
								<path class="st19" d="M309.88,450.13l-34.11,0.04c-0.82,0-1.47-0.68-1.43-1.49l0.57-13.11c0.03-0.77,0.66-1.37,1.43-1.37
									l33.35-0.04c0.78,0,1.42,0.63,1.43,1.41l0.19,13.12C311.32,449.47,310.68,450.13,309.88,450.13z"/>
							</g>
							<g>
								<linearGradient id="SVGID_19_" gradientUnits="userSpaceOnUse" x1="120.0066" y1="485.6883" x2="455.2457" y2="420.5469">
									<stop  offset="0.1363" style="stop-color:#0478D3"/>
									<stop  offset="1" style="stop-color:#035C95"/>
								</linearGradient>
								<path class="st20" d="M361.64,450.07l-34.11,0.04c-0.77,0-1.4-0.61-1.43-1.38l-0.5-13.12c-0.03-0.81,0.62-1.48,1.43-1.49
									l33.35-0.04c0.74,0,1.36,0.56,1.43,1.29l1.26,13.13C363.15,449.34,362.49,450.07,361.64,450.07z"/>
							</g>
							<g>
								<linearGradient id="SVGID_20_" gradientUnits="userSpaceOnUse" x1="121.859" y1="495.222" x2="457.0978" y2="430.0806">
									<stop  offset="0.1363" style="stop-color:#0478D3"/>
									<stop  offset="1" style="stop-color:#035C95"/>
								</linearGradient>
								<path class="st21" d="M413.39,450.01l-34.08,0.04c-0.73,0-1.34-0.54-1.42-1.26l-1.56-13.13c-0.1-0.85,0.56-1.6,1.42-1.6
									l33.32-0.04c0.7,0,1.29,0.5,1.41,1.18l2.32,13.13C414.96,449.21,414.28,450.01,413.39,450.01z"/>
							</g>
							<g>
								<linearGradient id="SVGID_21_" gradientUnits="userSpaceOnUse" x1="123.7121" y1="504.7555" x2="458.9502" y2="439.6143">
									<stop  offset="0.1363" style="stop-color:#0478D3"/>
									<stop  offset="1" style="stop-color:#035C95"/>
								</linearGradient>
								<path class="st22" d="M465.13,449.96l-34.04,0.04c-0.68,0-1.27-0.48-1.41-1.15l-2.63-13.13c-0.18-0.89,0.5-1.71,1.4-1.71
									l33.28-0.04c0.65,0,1.22,0.44,1.39,1.07l3.39,13.14C466.75,449.07,466.07,449.95,465.13,449.96z"/>
							</g>
							<g>
								<linearGradient id="SVGID_22_" gradientUnits="userSpaceOnUse" x1="126.0162" y1="516.6146" x2="461.2547" y2="451.4733">
									<stop  offset="0.1363" style="stop-color:#0478D3"/>
									<stop  offset="1" style="stop-color:#035C95"/>
								</linearGradient>
								<path class="st23" d="M517.96,433.88l-20.77,0.03l-18.88,0.02c-0.95,0-1.63,0.9-1.38,1.82l3.67,13.14
									c0.17,0.62,0.74,1.05,1.38,1.05l20.21-0.02l21.3-0.02l19.23-0.02c1,0,1.69-1,1.34-1.94l-4.99-13.15
									c-0.21-0.56-0.74-0.92-1.34-0.92L517.96,433.88z"/>
							</g>
							<g>
								<linearGradient id="SVGID_23_" gradientUnits="userSpaceOnUse" x1="107.7306" y1="422.5117" x2="442.9695" y2="357.3703">
									<stop  offset="0.1363" style="stop-color:#0478D3"/>
									<stop  offset="1" style="stop-color:#035C95"/>
								</linearGradient>
								<path class="st24" d="M134.67,427.99l-32.69,0.04c-0.97,0-1.67-0.95-1.36-1.88l4.29-13.09c0.19-0.59,0.74-0.98,1.36-0.99
									l31.93-0.05c0.94,0,1.63,0.89,1.38,1.8l-3.53,13.09C135.88,427.55,135.32,427.99,134.67,427.99z"/>
							</g>
							<g>
								<linearGradient id="SVGID_24_" gradientUnits="userSpaceOnUse" x1="109.5151" y1="431.6963" x2="444.7537" y2="366.5549">
									<stop  offset="0.1363" style="stop-color:#0478D3"/>
									<stop  offset="1" style="stop-color:#035C95"/>
								</linearGradient>
								<path class="st25" d="M184.65,427.92l-32.75,0.04c-0.93,0-1.61-0.87-1.39-1.77l3.23-13.1c0.16-0.64,0.73-1.09,1.39-1.09
									l31.99-0.05c0.9,0,1.58,0.81,1.41,1.7l-2.47,13.1C185.93,427.43,185.34,427.92,184.65,427.92z"/>
							</g>
							<g>
								<linearGradient id="SVGID_25_" gradientUnits="userSpaceOnUse" x1="111.3001" y1="440.8807" x2="446.5387" y2="375.7394">
									<stop  offset="0.1363" style="stop-color:#0478D3"/>
									<stop  offset="1" style="stop-color:#035C95"/>
								</linearGradient>
								<path class="st26" d="M234.62,427.86l-32.79,0.04c-0.88,0-1.56-0.79-1.41-1.66l2.16-13.1c0.11-0.69,0.71-1.2,1.41-1.2
									l32.03-0.05c0.85,0,1.52,0.74,1.43,1.58l-1.4,13.11C235.96,427.3,235.35,427.85,234.62,427.86z"/>
							</g>
							<g>
								<linearGradient id="SVGID_26_" gradientUnits="userSpaceOnUse" x1="113.0843" y1="450.0653" x2="448.3236" y2="384.9239">
									<stop  offset="0.1363" style="stop-color:#0478D3"/>
									<stop  offset="1" style="stop-color:#035C95"/>
								</linearGradient>
								<path class="st27" d="M284.58,427.79l-32.81,0.04c-0.84,0-1.5-0.72-1.43-1.55l1.1-13.11c0.06-0.74,0.68-1.31,1.42-1.31
									l32.05-0.05c0.81,0,1.45,0.66,1.43,1.47L286,426.39C285.98,427.17,285.35,427.79,284.58,427.79z"/>
							</g>
							<g>
								<linearGradient id="SVGID_27_" gradientUnits="userSpaceOnUse" x1="114.8695" y1="459.2497" x2="450.108" y2="394.1084">
									<stop  offset="0.1363" style="stop-color:#0478D3"/>
									<stop  offset="1" style="stop-color:#035C95"/>
								</linearGradient>
								<path class="st28" d="M334.52,427.72l-32.81,0.04c-0.79,0-1.44-0.64-1.43-1.44l0.03-13.12c0-0.79,0.64-1.43,1.43-1.43
									l32.05-0.05c0.76,0,1.39,0.59,1.43,1.35l0.73,13.12C336,427.03,335.35,427.72,334.52,427.72z"/>
							</g>
							<g>
								<linearGradient id="SVGID_28_" gradientUnits="userSpaceOnUse" x1="116.654" y1="468.4343" x2="451.8927" y2="403.2929">
									<stop  offset="0.1363" style="stop-color:#0478D3"/>
									<stop  offset="1" style="stop-color:#035C95"/>
								</linearGradient>
								<path class="st29" d="M384.46,427.65l-32.8,0.04c-0.75,0-1.37-0.57-1.43-1.32l-1.03-13.12c-0.07-0.83,0.59-1.54,1.43-1.54
									l32.04-0.05c0.72,0,1.32,0.53,1.42,1.24l1.79,13.13C386,426.89,385.33,427.65,384.46,427.65z"/>
							</g>
							<g>
								<linearGradient id="SVGID_29_" gradientUnits="userSpaceOnUse" x1="118.439" y1="477.6188" x2="453.6776" y2="412.4774">
									<stop  offset="0.1363" style="stop-color:#0478D3"/>
									<stop  offset="1" style="stop-color:#035C95"/>
								</linearGradient>
								<path class="st30" d="M434.4,427.59l-32.77,0.04c-0.7,0-1.3-0.51-1.42-1.21l-2.1-13.13c-0.14-0.87,0.53-1.66,1.41-1.66
									l32-0.05c0.67,0,1.26,0.47,1.4,1.13l2.86,13.14C435.99,426.74,435.31,427.59,434.4,427.59z"/>
							</g>
							<g>
								<linearGradient id="SVGID_30_" gradientUnits="userSpaceOnUse" x1="120.2239" y1="486.8033" x2="455.462" y2="421.662">
									<stop  offset="0.1363" style="stop-color:#0478D3"/>
									<stop  offset="1" style="stop-color:#035C95"/>
								</linearGradient>
								<path class="st31" d="M484.32,427.52l-32.71,0.04c-0.66,0-1.24-0.45-1.39-1.1l-3.16-13.14c-0.22-0.9,0.46-1.76,1.39-1.77
									l31.95-0.05c0.63,0,1.19,0.42,1.37,1.02l3.92,13.14C485.96,426.6,485.28,427.52,484.32,427.52z"/>
							</g>
							<g>
								<linearGradient id="SVGID_31_" gradientUnits="userSpaceOnUse" x1="122.0095" y1="495.9877" x2="457.248" y2="430.8464">
									<stop  offset="0.1363" style="stop-color:#0478D3"/>
									<stop  offset="1" style="stop-color:#035C95"/>
								</linearGradient>
								<path class="st32" d="M534.23,427.45l-32.65,0.04c-0.62,0-1.17-0.4-1.36-0.99L496,413.36c-0.3-0.92,0.39-1.87,1.36-1.87
									l31.89-0.05c0.6,0,1.13,0.37,1.34,0.92l4.99,13.15C535.92,426.45,535.23,427.45,534.23,427.45z"/>
							</g>
							<g>
								<path class="st33" d="M116.6,492.31l-36.58,0.03c-0.97,0-1.66-0.95-1.36-1.88l4.29-13.09c0.19-0.59,0.74-0.99,1.36-0.99
									l35.82-0.03c0.94,0,1.63,0.89,1.38,1.8l-3.53,13.09C117.81,491.87,117.25,492.31,116.6,492.31z"/>
							</g>
							<g>
								<path class="st33" d="M172.02,492.27l-36.64,0.03c-0.93,0-1.61-0.87-1.39-1.77l3.23-13.1c0.16-0.64,0.73-1.09,1.39-1.09
									l35.88-0.03c0.9,0,1.57,0.81,1.41,1.7l-2.47,13.1C173.3,491.78,172.71,492.27,172.02,492.27z"/>
							</g>
							<g>
								<path class="st33" d="M408.57,476.11l-15.49,0.01l-38.73,0.03l-15.49,0.01l-38.73,0.03l-15.49,0.01l-38.73,0.03l-53,0.04
									c-0.7,0-1.3,0.51-1.41,1.2l-2.16,13.1c-0.14,0.87,0.53,1.67,1.41,1.66l53.83-0.04l39.65-0.03l15.86-0.01l39.65-0.03
									l15.86-0.01l39.65-0.03l15.86-0.01l37.88-0.03c0.91,0,1.59-0.84,1.4-1.74l-2.86-13.14c-0.14-0.66-0.73-1.13-1.4-1.13
									L408.57,476.11z"/>
							</g>
							<g>
								<path class="st33" d="M504.37,492.04l-36.6,0.03c-0.66,0-1.24-0.45-1.39-1.1l-3.16-13.14c-0.22-0.9,0.47-1.77,1.39-1.77
									l35.84-0.03c0.63,0,1.19,0.42,1.37,1.02l3.92,13.14C506.02,491.11,505.33,492.04,504.37,492.04z"/>
							</g>
							<g>
								<path class="st33" d="M559.73,492l-36.54,0.03c-0.62,0-1.17-0.4-1.36-0.99l-4.23-13.15c-0.3-0.92,0.39-1.87,1.36-1.87
									l35.78-0.03c0.6,0,1.13,0.37,1.34,0.92l4.99,13.15C561.42,491,560.73,492,559.73,492z"/>
							</g>
							<g>
								<path class="st33" d="M148.54,453.99l-5.55,0.01l-51.36,0.05c-0.62,0-1.17,0.4-1.36,0.99l-4.29,13.09
									c-0.3,0.93,0.39,1.88,1.36,1.88l51.72-0.05l5.69-0.01l31.48-0.03c0.69,0,1.28-0.49,1.41-1.17l2.47-13.1
									c0.17-0.88-0.51-1.7-1.41-1.7L148.54,453.99z"/>
							</g>
							<g>
								<path class="st33" d="M229.83,469.87l-35.38,0.03c-0.88,0-1.56-0.79-1.41-1.66l2.16-13.1c0.11-0.69,0.71-1.2,1.41-1.2
									l34.62-0.04c0.85,0,1.52,0.74,1.42,1.58l-1.4,13.11C231.17,469.32,230.56,469.87,229.83,469.87z"/>
							</g>
							<g>
								<path class="st33" d="M283.42,469.82l-35.4,0.03c-0.84,0-1.5-0.72-1.43-1.55l1.1-13.11c0.06-0.74,0.68-1.31,1.43-1.31
									l34.64-0.04c0.81,0,1.45,0.66,1.43,1.47l-0.34,13.11C284.83,469.2,284.2,469.82,283.42,469.82z"/>
							</g>
							<g>
								<path class="st33" d="M337,469.77l-35.41,0.03c-0.79,0-1.43-0.64-1.43-1.44l0.03-13.12c0-0.79,0.64-1.43,1.43-1.43
									l34.65-0.04c0.76,0,1.39,0.59,1.43,1.35l0.73,13.12C338.47,469.08,337.82,469.77,337,469.77z"/>
							</g>
							<g>
								<path class="st33" d="M390.57,469.73l-35.39,0.03c-0.75,0-1.37-0.57-1.43-1.32l-1.03-13.12c-0.07-0.83,0.59-1.54,1.43-1.54
									l34.63-0.04c0.72,0,1.32,0.53,1.42,1.24l1.79,13.13C392.11,468.96,391.44,469.73,390.57,469.73z"/>
							</g>
							<g>
								<path class="st33" d="M444.13,469.68l-35.36,0.03c-0.7,0-1.3-0.51-1.42-1.21l-2.1-13.13c-0.14-0.87,0.53-1.66,1.41-1.66
									l34.6-0.04c0.67,0,1.26,0.47,1.4,1.13l2.86,13.14C445.72,468.83,445.05,469.68,444.13,469.68z"/>
							</g>
							<g>
								<path class="st33" d="M494.83,453.62l-5.71,0.01l-29.91,0.03c-0.93,0-1.61,0.87-1.39,1.77l3.16,13.14
									c0.15,0.64,0.73,1.1,1.39,1.1l31.38-0.03l5.85-0.01l51.63-0.05c1,0,1.69-1,1.34-1.94l-4.99-13.15
									c-0.21-0.56-0.74-0.92-1.34-0.92L494.83,453.62z"/>
							</g>
							<g>
								<path class="st33" d="M139.78,431.66l-20.93,0.03l-19.9,0.03c-0.62,0-1.17,0.4-1.36,0.99l-4.29,13.09
									c-0.3,0.93,0.39,1.88,1.36,1.88l19.49-0.02l21.47-0.02l20.33-0.02c0.67,0,1.25-0.46,1.39-1.11l2.97-13.1
									c0.2-0.9-0.48-1.75-1.4-1.75L139.78,431.66z"/>
							</g>
							<g>
								<path class="st33" d="M206.33,447.54l-34.07,0.04c-0.91,0-1.59-0.83-1.4-1.72l2.69-13.1c0.14-0.66,0.72-1.14,1.4-1.14
									l33.31-0.04c0.87,0,1.55,0.78,1.42,1.64l-1.93,13.1C207.64,447.02,207.04,447.54,206.33,447.54z"/>
							</g>
							<g>
								<path class="st33" d="M258.11,447.48l-34.1,0.04c-0.86,0-1.53-0.75-1.42-1.61l1.63-13.11c0.09-0.72,0.7-1.25,1.42-1.25
									l33.34-0.04c0.83,0,1.49,0.7,1.43,1.53l-0.87,13.11C259.49,446.9,258.87,447.48,258.11,447.48z"/>
							</g>
							<g>
								<path class="st33" d="M309.88,447.42l-34.11,0.04c-0.82,0-1.47-0.68-1.43-1.49l0.57-13.11c0.03-0.77,0.66-1.37,1.43-1.37
									l33.35-0.04c0.78,0,1.42,0.63,1.43,1.41l0.19,13.12C311.32,446.77,310.68,447.42,309.88,447.42z"/>
							</g>
							<g>
								<path class="st33" d="M361.64,447.37l-34.11,0.04c-0.77,0-1.4-0.61-1.43-1.38l-0.5-13.12c-0.03-0.81,0.62-1.48,1.43-1.49
									l33.35-0.04c0.74,0,1.36,0.56,1.43,1.29l1.26,13.13C363.15,446.64,362.49,447.37,361.64,447.37z"/>
							</g>
							<g>
								<path class="st33" d="M413.39,447.31l-34.08,0.04c-0.73,0-1.34-0.54-1.42-1.26l-1.56-13.13c-0.1-0.85,0.56-1.6,1.42-1.6
									l33.32-0.04c0.7,0,1.29,0.5,1.41,1.18l2.32,13.13C414.96,446.5,414.28,447.31,413.39,447.31z"/>
							</g>
							<g>
								<path class="st33" d="M465.13,447.25l-34.04,0.04c-0.68,0-1.27-0.48-1.41-1.15L427.06,433c-0.18-0.89,0.5-1.71,1.4-1.71
									l33.28-0.04c0.65,0,1.22,0.44,1.39,1.07l3.39,13.14C466.75,446.37,466.07,447.25,465.13,447.25z"/>
							</g>
							<g>
								<path class="st33" d="M517.96,431.18l-20.77,0.03l-18.88,0.02c-0.95,0-1.63,0.9-1.38,1.82l3.67,13.14
									c0.17,0.62,0.74,1.05,1.38,1.05l20.21-0.02l21.3-0.02l19.23-0.02c1,0,1.69-1,1.34-1.94l-4.99-13.15
									c-0.21-0.56-0.74-0.92-1.34-0.92L517.96,431.18z"/>
							</g>
							<g>
								<path class="st33" d="M134.67,425.29l-32.69,0.04c-0.97,0-1.67-0.95-1.36-1.88l4.29-13.09c0.19-0.59,0.74-0.98,1.36-0.99
									l31.93-0.05c0.94,0,1.63,0.89,1.38,1.8l-3.53,13.09C135.88,424.85,135.32,425.29,134.67,425.29z"/>
							</g>
							<g>
								<path class="st33" d="M184.65,425.22l-32.75,0.04c-0.93,0-1.61-0.87-1.39-1.77l3.23-13.1c0.16-0.64,0.73-1.09,1.39-1.09
									l31.99-0.05c0.9,0,1.58,0.81,1.41,1.7l-2.47,13.1C185.93,424.73,185.34,425.22,184.65,425.22z"/>
							</g>
							<g>
								<path class="st33" d="M234.62,425.15l-32.79,0.04c-0.88,0-1.56-0.79-1.41-1.66l2.16-13.1c0.11-0.69,0.71-1.2,1.41-1.2
									l32.03-0.05c0.85,0,1.52,0.74,1.43,1.58l-1.4,13.11C235.96,424.6,235.35,425.15,234.62,425.15z"/>
							</g>
							<g>
								<path class="st33" d="M284.58,425.08l-32.81,0.04c-0.84,0-1.5-0.72-1.43-1.55l1.1-13.11c0.06-0.74,0.68-1.31,1.42-1.31
									l32.05-0.05c0.81,0,1.45,0.66,1.43,1.47L286,423.69C285.98,424.47,285.35,425.08,284.58,425.08z"/>
							</g>
							<g>
								<path class="st33" d="M334.52,425.02l-32.81,0.04c-0.79,0-1.44-0.64-1.43-1.44l0.03-13.12c0-0.79,0.64-1.43,1.43-1.43
									l32.05-0.05c0.76,0,1.39,0.59,1.43,1.35l0.73,13.12C336,424.33,335.35,425.02,334.52,425.02z"/>
							</g>
							<g>
								<path class="st33" d="M384.46,424.95l-32.8,0.04c-0.75,0-1.37-0.57-1.43-1.32l-1.03-13.12c-0.07-0.83,0.59-1.54,1.43-1.54
									l32.04-0.05c0.72,0,1.32,0.53,1.42,1.24l1.79,13.13C386,424.18,385.33,424.95,384.46,424.95z"/>
							</g>
							<g>
								<path class="st33" d="M434.4,424.88l-32.77,0.04c-0.7,0-1.3-0.51-1.42-1.21l-2.1-13.13c-0.14-0.87,0.53-1.66,1.41-1.66
									l32-0.05c0.67,0,1.26,0.47,1.4,1.13l2.86,13.14C435.99,424.04,435.31,424.88,434.4,424.88z"/>
							</g>
							<g>
								<path class="st33" d="M484.32,424.82l-32.71,0.04c-0.66,0-1.24-0.45-1.39-1.1l-3.16-13.14c-0.22-0.9,0.46-1.77,1.39-1.77
									l31.95-0.05c0.63,0,1.19,0.41,1.37,1.02l3.92,13.14C485.96,423.89,485.28,424.81,484.32,424.82z"/>
							</g>
							<g>
								<path class="st33" d="M534.23,424.75l-32.65,0.04c-0.62,0-1.17-0.4-1.36-0.99L496,410.65c-0.3-0.92,0.39-1.87,1.36-1.87
									l31.89-0.05c0.6,0,1.13,0.37,1.34,0.92l4.99,13.15C535.92,423.75,535.23,424.75,534.23,424.75z"/>
							</g>
							<g>
								<path class="st1" d="M435.61,565.12l-227.68,0.03c-10.33,0-18.22-3.17-17.63-7.09l5.74-38.18c0.59-3.92,8.86-7.1,18.47-7.11
									l211.86-0.12c9.61-0.01,18.04,3.17,18.83,7.1l7.68,38.25C453.67,561.93,445.94,565.12,435.61,565.12z"/>
							</g>
						</g>
					</g>
				</g>
			</g>
			<g>
				<g>
					<path class="st34" d="M272.58,512.75l-57.13,0.03c-4.94,0-9.52,0.85-12.89,2.2h73.86L272.58,512.75z"/>
				</g>
				<g>
					<path class="st34" d="M272.58,512.75l3.84,2.23h164.23c-3.47-1.43-8.24-2.32-13.33-2.32L272.58,512.75z"/>
				</g>
			</g>
		</g>
		<g>
			<path class="st34" d="M387.71,572.26H241.84c-1.3,0-2.36-1.05-2.36-2.36l0,0c0-1.3,1.05-2.36,2.36-2.36h145.86
				c1.3,0,2.36,1.05,2.36,2.36l0,0C390.06,571.2,389.01,572.26,387.71,572.26z"/>
		</g>
	</g>
	<g>
		<path class="st34" d="M321.86,70.07L321.86,70.07c-3.4,0-6.17,2.78-6.17,6.17l0,0c0,3.4,2.78,6.17,6.17,6.17l0,0
			c3.4,0,6.17-2.78,6.17-6.17l0,0C328.04,72.85,325.26,70.07,321.86,70.07z"/>
	</g>
	<rect x="119.02" y="120.12" class="st35" width="382.95" height="89.11"/>
	<rect x="119.02" y="228.5" class="st35" width="382.95" height="121.51"/>
</g>
<g>
	<g>
		<path class="st36" d="M599.33,89.73c-0.03,0.04-0.06,0.07-0.1,0.11c0.01-0.01,0.03-0.02,0.04-0.03
			C599.29,89.78,599.31,89.75,599.33,89.73z"/>
		<g>
			<linearGradient id="SVGID_32_" gradientUnits="userSpaceOnUse" x1="361.9468" y1="344.7446" x2="361.9468" y2="126.4697">
				<stop  offset="0.1363" style="stop-color:#0478D3"/>
				<stop  offset="1" style="stop-color:#035C95"/>
			</linearGradient>
			<path class="st37" d="M440.12,295.7L284.07,120.45L255.87,295.7c0,15.35,12.56,27.9,27.9,27.9h184.26
				C452.68,323.61,440.12,311.05,440.12,295.7z"/>
			<linearGradient id="SVGID_33_" gradientUnits="userSpaceOnUse" x1="404.1019" y1="-179.1611" x2="392.3694" y2="246.7283">
				<stop  offset="0" style="stop-color:#F9F9FF"/>
				<stop  offset="0.2757" style="stop-color:#F7F8FF"/>
				<stop  offset="0.4325" style="stop-color:#EEF5FD"/>
				<stop  offset="0.5595" style="stop-color:#E0EFFB"/>
				<stop  offset="0.6705" style="stop-color:#CDE6F8"/>
				<stop  offset="0.7701" style="stop-color:#B3DBF4"/>
				<stop  offset="0.8037" style="stop-color:#A9D7F2"/>
				<stop  offset="0.9788" style="stop-color:#6AA6CC"/>
			</linearGradient>
			<path class="st38" d="M495.86,18.4c0-9.95,8-18.09,17.89-18.37H303.01c-0.17,0-0.34-0.03-0.51-0.03c-0.17,0-0.34,0.02-0.51,0.03
				c-9.88,0.27-17.88,8.42-17.88,18.37v0.38l-0.04,0.04v101.64L440.12,295.7c0,15.35,12.56,27.9,27.9,27.9
				c15.35,0,27.9-12.56,27.9-27.9V27.22l0.89-1.35h-0.97V18.4z M407.53,5.69c1.13,0,2.05,0.92,2.05,2.05s-0.92,2.05-2.05,2.05
				c-1.13,0-2.05-0.92-2.05-2.05S406.4,5.69,407.53,5.69z"/>
			<path class="st39" d="M407.53,9.8c1.13,0,2.05-0.92,2.05-2.05s-0.92-2.05-2.05-2.05c-1.13,0-2.05,0.92-2.05,2.05
				S406.4,9.8,407.53,9.8z"/>
			<linearGradient id="SVGID_34_" gradientUnits="userSpaceOnUse" x1="514.2502" y1="118.307" x2="514.2502" y2="25.1459">
				<stop  offset="0.1363" style="stop-color:#0478D3"/>
				<stop  offset="1" style="stop-color:#035C95"/>
			</linearGradient>
			<path class="st40" d="M514.25,0c-0.17,0-0.34,0.02-0.51,0.03c-9.88,0.27-17.89,8.42-17.89,18.37v49.12h0.97h13.94
				c8.36,0,14.74,0,21.88,0V18.4C532.65,8.28,524.37,0,514.25,0z"/>
		</g>
	</g>
	<g>
		<g>
			<path class="st36" d="M506.82,426.79c-0.03,0.04-0.06,0.07-0.1,0.11c0.01-0.01,0.03-0.02,0.04-0.03
				C506.78,426.84,506.8,426.81,506.82,426.79z"/>
			<g>
				<linearGradient id="SVGID_35_" gradientUnits="userSpaceOnUse" x1="269.4366" y1="484.3615" x2="269.4366" y2="459.6954">
					<stop  offset="0.1363" style="stop-color:#0478D3"/>
					<stop  offset="1" style="stop-color:#035C95"/>
				</linearGradient>
				<path class="st41" d="M347.61,457.51H191.56h-28.21c0,15.35,12.56,27.9,27.9,27.9h0.3h183.95
					C360.17,485.41,347.61,472.86,347.61,457.51z"/>
				<linearGradient id="SVGID_36_" gradientUnits="userSpaceOnUse" x1="307.5201" y1="58.3087" x2="281.7083" y2="590.9669">
					<stop  offset="0.4566" style="stop-color:#F9F9FF"/>
					<stop  offset="0.5681" style="stop-color:#F4F7FE"/>
					<stop  offset="0.697" style="stop-color:#E6F1FC"/>
					<stop  offset="0.8347" style="stop-color:#CFE7F8"/>
					<stop  offset="0.9776" style="stop-color:#AFD9F3"/>
					<stop  offset="1" style="stop-color:#A9D7F2"/>
				</linearGradient>
				<path class="st42" d="M403.34,72.01c0-9.95,8-18.09,17.89-18.37H210.5c-0.17,0-0.34-0.03-0.51-0.03s-0.34,0.02-0.51,0.03
					c-9.88,0.27-17.88,8.42-17.88,18.37v0.38l-0.04,0.04v385.09h156.05c0,15.35,12.56,27.9,27.9,27.9c15.35,0,27.9-12.56,27.9-27.9
					V346.83v-73.77v-18.64v-10.16v-42.69V80.83l0.89-1.35h-0.97V72.01z M315.02,59.3c1.13,0,2.05,0.92,2.05,2.05
					c0,1.13-0.92,2.05-2.05,2.05c-1.13,0-2.05-0.92-2.05-2.05C312.97,60.22,313.89,59.3,315.02,59.3z"/>
				<path class="st39" d="M315.02,63.41c1.13,0,2.05-0.92,2.05-2.05c0-1.13-0.92-2.05-2.05-2.05c-1.13,0-2.05,0.92-2.05,2.05
					C312.97,62.49,313.89,63.41,315.02,63.41z"/>
				<linearGradient id="SVGID_37_" gradientUnits="userSpaceOnUse" x1="421.74" y1="344.7445" x2="421.74" y2="126.4692">
					<stop  offset="0.1363" style="stop-color:#0478D3"/>
					<stop  offset="1" style="stop-color:#035C95"/>
				</linearGradient>
				<path class="st43" d="M421.74,53.61c-0.17,0-0.34,0.02-0.51,0.03c-9.88,0.27-17.89,8.42-17.89,18.37v49.12l0.97,175.25h13.94
					c8.36,0,14.74,0,21.88,0V72.01C440.14,61.89,431.86,53.61,421.74,53.61z"/>
			</g>
		</g>
		<g>
			<polygon class="st44" points="240.94,147.52 242.95,153.7 249.44,153.7 244.19,157.52 246.2,163.7 240.94,159.88 235.68,163.7 
				237.69,157.52 232.43,153.7 238.93,153.7 			"/>
			<polygon class="st44" points="219.51,147.52 221.52,153.7 228.02,153.7 222.76,157.52 224.77,163.7 219.51,159.88 214.25,163.7 
				216.26,157.52 211,153.7 217.5,153.7 			"/>
			<polygon class="st45" points="263.29,147.52 265.3,153.7 271.8,153.7 266.54,157.52 268.55,163.7 263.29,159.88 258.04,163.7 
				260.04,157.52 254.79,153.7 261.28,153.7 			"/>
			<polygon class="st45" points="285.65,147.52 287.66,153.7 294.15,153.7 288.9,157.52 290.9,163.7 285.65,159.88 280.39,163.7 
				282.4,157.52 277.14,153.7 283.64,153.7 			"/>
			<polygon class="st45" points="308,147.52 310.01,153.7 316.51,153.7 311.25,157.52 313.26,163.7 308,159.88 302.74,163.7 
				304.75,157.52 299.5,153.7 305.99,153.7 			"/>
		</g>
		<rect x="211" y="172.08" class="st45" width="78.71" height="3.75"/>
		<rect x="300.19" y="172.08" class="st45" width="78.71" height="3.75"/>
		<rect x="300.19" y="83.64" class="st45" width="48.21" height="3.75"/>
		<rect x="300.19" y="91.07" class="st45" width="48.21" height="3.75"/>
		<rect x="300.19" y="98.5" class="st45" width="78.71" height="3.75"/>
		<rect x="300.19" y="105.94" class="st45" width="78.71" height="3.75"/>
		<rect x="300.19" y="222.62" class="st45" width="48.21" height="3.75"/>
		<rect x="300.19" y="230.05" class="st45" width="48.21" height="3.75"/>
		<rect x="300.19" y="237.48" class="st45" width="78.71" height="3.75"/>
		<rect x="300.19" y="360.11" class="st45" width="48.21" height="3.75"/>
		<rect x="300.19" y="367.55" class="st45" width="48.21" height="3.75"/>
		<rect x="300.19" y="374.98" class="st45" width="78.71" height="3.75"/>
		<rect x="300.19" y="382.41" class="st45" width="78.71" height="3.75"/>
		<rect x="211" y="181.45" class="st45" width="170.23" height="3.75"/>
		<rect x="211" y="189.17" class="st45" width="170.23" height="3.75"/>
		<rect x="211" y="311.85" class="st45" width="78.71" height="3.75"/>
		<rect x="300.93" y="311.85" class="st45" width="78.71" height="3.75"/>
		<rect x="211" y="321.22" class="st45" width="170.23" height="3.75"/>
		<rect x="211" y="328.94" class="st45" width="170.23" height="3.75"/>
		<rect x="211" y="452.04" class="st45" width="78.71" height="3.75"/>
		<rect x="209.35" y="222.97" class="st46" width="80.77" height="16.77"/>
		<rect x="209.35" y="250.32" class="st46" width="80.77" height="16.77"/>
		<rect x="299.86" y="250.32" class="st46" width="80.77" height="16.77"/>
		<rect x="299.86" y="277.66" class="st46" width="80.77" height="16.77"/>
		<rect x="209.35" y="277.66" class="st46" width="80.77" height="16.77"/>
		<rect x="209.35" y="354.97" class="st46" width="80.77" height="16.77"/>
		<rect x="209.35" y="382.32" class="st46" width="80.77" height="16.77"/>
		<rect x="209.35" y="415.32" class="st46" width="172.87" height="16.77"/>
		<circle class="st45" cx="246.53" cy="105.24" r="32.06"/>
	</g>
</g>
<g>
	<path class="st47" d="M643.72,569.49v-0.22h-0.01c-0.01-0.38-0.07-0.76-0.23-1.13l-74.91-166.49c-0.38-0.85-1.69-2.89-2.32-4.39
		V90.41c0-12.95-10.59-23.54-23.54-23.54h-10.05V18.4c0-10.12-8.28-18.4-18.39-18.4c-0.17,0-0.34,0.02-0.51,0.03H303.02
		c-0.17,0-0.34-0.03-0.51-0.03c-0.17,0-0.34,0.02-0.51,0.03c-9.88,0.27-17.88,8.42-17.88,18.37v0.38l-0.04,0.04v34.82h-73.57
		c-0.17,0-0.34-0.03-0.51-0.03c-0.17,0-0.34,0.02-0.51,0.03c-8.11,0.23-14.95,5.76-17.14,13.23H91.13
		c-12.95,0-23.54,10.59-23.54,23.54v309c-0.58,1.24-0.98,2.53-1.24,3.18L0.21,568.31c-0.15,0.38-0.2,0.76-0.19,1.14H0v5.64
		c0,0.01,0,0.02,0,0.03v0.05h0c0.03,1.5,1.25,2.82,2.88,2.82l637.97-0.06c1.74,0,3-1.5,2.87-3.11v-5.23
		C643.72,569.56,643.72,569.52,643.72,569.49z"/>
	<path class="st47" d="M599.33,89.73c-0.03,0.04-0.06,0.07-0.1,0.11c0.01-0.01,0.03-0.02,0.04-0.03
		C599.3,89.78,599.31,89.75,599.33,89.73z"/>
</g>
</svg>
