<svg width="20" height="20" viewBox="0 0 20 20" fill="none" xmlns="http://www.w3.org/2000/svg">
<path fill-rule="evenodd" clip-rule="evenodd" d="M20 10.0092C20.0061 8.03445 19.4249 6.10225 18.3299 4.45728C17.2349 2.8123 15.6752 1.52853 13.8485 0.768532C12.0218 0.00852818 10.0102 -0.193533 8.06833 0.187934C6.12646 0.5694 4.34171 1.51724 2.94005 2.91143C1.53839 4.30562 0.582852 6.08347 0.194455 8.01985C-0.193942 9.95624 0.0022564 11.9641 0.758204 13.7891C1.51415 15.6142 2.79585 17.1744 4.44101 18.2722C6.08618 19.37 8.02081 19.956 9.99996 19.956C11.3111 19.9581 12.6099 19.7025 13.8221 19.2038C15.0343 18.7051 16.1362 17.973 17.0648 17.0493C17.9934 16.1257 18.7305 15.0285 19.2342 13.8206C19.7378 12.6126 19.998 11.3175 20 10.0092ZM5.59284 12.0361C5.25456 11.3492 5.08396 10.5923 5.09497 9.82704C5.09945 9.00234 5.3089 8.19162 5.70454 7.46752C6.10018 6.74343 6.66965 6.12857 7.36195 5.67803C7.7944 5.3788 8.2927 5.18788 8.81471 5.1214C8.81471 5.1214 6.60772 11.8565 14.3689 12.0837C13.9792 12.8574 13.3857 13.5106 12.6521 13.9732C11.9185 14.4357 11.0724 14.6901 10.2048 14.709C9.26049 14.7498 8.3242 14.5197 7.50685 14.0459C6.68949 13.5722 6.02527 12.8747 5.59284 12.0361Z" fill="white"/>
</svg>
