<?xml version="1.0" encoding="utf-8"?>
<!-- Generator: Adobe Illustrator 24.3.0, SVG Export Plug-In . SVG Version: 6.00 Build 0)  -->
<svg version="1.1" id="_x2014_ÎÓÈ_x5F_3" xmlns="http://www.w3.org/2000/svg" xmlns:xlink="http://www.w3.org/1999/xlink"
	 x="0px" y="0px" viewBox="0 0 2150.45 1506.29" style="enable-background:new 0 0 2150.45 1506.29;" xml:space="preserve">
<style type="text/css">
	.st0{fill:#00263F;}
	.st1{fill:#FFFFFF;}
	.st2{fill:url(#SVGID_1_);}
	.st3{fill:#252E5F;}
	.st4{fill:#BBE7FF;}
	.st5{fill:#FCFEFF;}
	.st6{fill:url(#SVGID_2_);}
	.st7{fill:#01B7E6;}
	.st8{fill:url(#SVGID_3_);}
	.st9{fill:#304969;}
	.st10{fill:#001729;}
	.st11{fill:url(#SVGID_4_);}
	.st12{fill:url(#SVGID_5_);}
	.st13{fill:url(#SVGID_6_);}
	.st14{fill:url(#SVGID_7_);}
	.st15{fill:url(#SVGID_8_);}
	.st16{fill:url(#SVGID_9_);}
	.st17{fill:url(#SVGID_10_);}
	.st18{fill:url(#SVGID_11_);}
	.st19{fill:url(#SVGID_12_);}
	.st20{fill:url(#SVGID_13_);}
	.st21{fill:url(#SVGID_14_);}
	.st22{fill:url(#SVGID_15_);}
	.st23{fill:url(#SVGID_16_);}
	.st24{fill:url(#SVGID_17_);}
	.st25{fill:url(#SVGID_18_);}
	.st26{fill:url(#SVGID_19_);}
	.st27{fill:#00A6CC;}
	.st28{fill:#81DAF8;}
	.st29{fill:url(#SVGID_20_);}
	.st30{fill:url(#SVGID_21_);}
	.st31{fill:url(#SVGID_22_);}
	.st32{fill:url(#SVGID_23_);}
	.st33{fill:url(#SVGID_24_);}
	.st34{fill:url(#SVGID_25_);}
	.st35{fill:url(#SVGID_26_);}
	.st36{fill:url(#SVGID_27_);}
	.st37{fill:url(#SVGID_28_);}
	.st38{fill:url(#SVGID_29_);}
	.st39{fill:url(#SVGID_30_);}
	.st40{fill:url(#SVGID_31_);}
	.st41{fill:url(#SVGID_32_);}
	.st42{fill:url(#SVGID_33_);}
	.st43{fill:url(#SVGID_34_);}
	.st44{fill:#EDEDED;}
</style>
<g>
	<g>
		<g>
			<path class="st0" d="M1305.35,264.33v-0.42l-531.6,0.63l0.93,784.8l336.74-0.4l194.64-0.23l0.22,0l0-0.01
				c18.77-0.15,34.08-16.1,34.06-35.57l-0.85-713.3C1339.47,280.35,1324.12,264.43,1305.35,264.33z"/>
			<g>
				<path class="st1" d="M887.67,365.83c3.35-0.58,7.74-1.08,13.33-1.09c6.86-0.01,11.89,1.64,15.09,4.6
					c2.95,2.65,4.72,6.69,4.72,11.65c0.01,5.04-1.42,9.01-4.13,11.9c-3.67,4.06-9.65,6.13-16.43,6.14c-2.07,0-4-0.08-5.59-0.49
					l0.03,22.31l-6.94,0.01L887.67,365.83z M894.64,392.68c1.52,0.41,3.43,0.57,5.75,0.57c8.38-0.01,13.48-4.23,13.47-11.92
					c-0.01-7.35-5.04-10.9-12.7-10.89c-3.03,0-5.35,0.25-6.54,0.58L894.64,392.68z"/>
				<path class="st1" d="M932.17,403.3l-5.57,17.53l-7.18,0l18.21-55.72l8.38-0.01l18.42,55.68l-7.42,0.01l-5.77-17.52L932.17,403.3
					z M949.8,397.66l-5.29-16.03c-1.2-3.63-2-6.94-2.81-10.16l-0.16,0c-0.79,3.3-1.67,6.69-2.7,10.08l-5.25,16.13L949.8,397.66z"/>
				<path class="st1" d="M971.37,412.01c3.11,1.98,7.67,3.63,12.46,3.62c7.1-0.01,11.25-3.89,11.24-9.51
					c0-5.21-2.88-8.18-10.15-11.06c-8.78-3.22-14.22-7.91-14.23-15.77c-0.01-8.67,6.93-15.14,17.39-15.15c5.5,0,9.5,1.31,11.89,2.71
					l-1.91,5.87c-1.76-0.99-5.35-2.64-10.21-2.63c-7.35,0.01-10.14,4.56-10.13,8.36c0,5.21,3.28,7.77,10.7,10.73
					c9.11,3.63,13.74,8.17,13.75,16.35c0.01,8.6-6.13,16.04-18.82,16.06c-5.19,0.01-10.86-1.56-13.73-3.54L971.37,412.01z"/>
				<path class="st1" d="M1010.72,411.96c3.12,1.98,7.67,3.63,12.46,3.62c7.1-0.01,11.24-3.9,11.24-9.52
					c-0.01-5.21-2.89-8.18-10.15-11.06c-8.79-3.21-14.22-7.92-14.23-15.77c-0.01-8.68,6.92-15.13,17.38-15.14
					c5.51-0.01,9.5,1.31,11.9,2.71l-1.91,5.87c-1.76-0.99-5.35-2.64-10.22-2.63c-7.34,0-10.13,4.55-10.12,8.35
					c0,5.21,3.28,7.76,10.71,10.73c9.1,3.62,13.74,8.16,13.75,16.35c0.01,8.6-6.12,16.04-18.82,16.05
					c-5.19,0.01-10.86-1.56-13.73-3.54L1010.72,411.96z"/>
				<path class="st1" d="M1050.97,365.64c3.36-0.58,7.75-1.08,13.33-1.09c6.86-0.01,11.89,1.64,15.09,4.61
					c2.96,2.64,4.72,6.69,4.73,11.64c0,5.04-1.43,9.01-4.14,11.91c-3.66,4.06-9.65,6.13-16.43,6.13c-2.07,0.01-3.99-0.07-5.59-0.48
					l0.03,22.31l-6.95,0.01L1050.97,365.64z M1057.95,392.49c1.52,0.41,3.44,0.57,5.75,0.57c8.38-0.01,13.48-4.23,13.48-11.92
					c-0.01-7.36-5.04-10.91-12.7-10.89c-3.03,0-5.35,0.25-6.54,0.59L1057.95,392.49z"/>
				<path class="st1" d="M1139.44,392.14c0.02,19.17-11.22,29.35-24.95,29.37c-14.2,0.02-24.19-11.38-24.22-28.24
					c-0.02-17.69,10.58-29.27,24.95-29.28C1129.91,363.98,1139.42,375.61,1139.44,392.14z M1097.7,393.11
					c0.02,11.9,6.26,22.55,17.19,22.54c11.01-0.01,17.22-10.52,17.21-23.16c-0.01-11.07-5.61-22.63-17.19-22.62
					C1103.42,369.87,1097.69,380.87,1097.7,393.11z"/>
				<path class="st1" d="M1148.43,365.6c3.51-0.75,8.54-1.17,13.33-1.17c7.42-0.01,12.21,1.39,15.57,4.52
					c2.71,2.48,4.24,6.27,4.25,10.58c0,7.36-4.46,12.24-10.12,14.22l0,0.25c4.15,1.48,6.63,5.44,7.92,11.23
					c1.77,7.76,3.05,13.13,4.17,15.29l-7.19,0.01c-0.88-1.57-2.08-6.36-3.6-13.3c-1.61-7.69-4.48-10.58-10.79-10.82l-6.54,0.01
					l0.03,24.13l-6.95,0.01L1148.43,365.6z M1155.4,390.97l7.1-0.01c7.42-0.01,12.13-4.23,12.12-10.59
					c-0.01-7.19-5.05-10.32-12.39-10.4c-3.35,0-5.75,0.34-6.86,0.67L1155.4,390.97z"/>
				<path class="st1" d="M1202.31,370.91l-16.36,0.02l-0.01-6.12l39.83-0.05l0.01,6.12l-16.44,0.02l0.06,49.59l-7.03,0.01
					L1202.31,370.91z"/>
			</g>
			<g>
				<g>
					<path class="st1" d="M1110.54,953.9l-105.39-0.08l-0.01,21.68l33.11,0.03c1.58-9.4,9.75-16.56,19.59-16.56
						c9.84,0.01,18.01,7.18,19.57,16.58l33.11,0.02L1110.54,953.9z"/>
					<path class="st1" d="M1057.81,998.69c-9.84-0.01-18-7.18-19.57-16.58l-33.11-0.02l-0.02,21.69l105.39,0.08l0.02-21.69
						l-33.12-0.03C1075.82,991.53,1067.65,998.7,1057.81,998.69z"/>
				</g>
				<path class="st1" d="M1071.7,978.85c0,7.66-6.22,13.87-13.88,13.86c-7.66-0.01-13.87-6.22-13.87-13.89
					c0.01-7.66,6.22-13.87,13.89-13.86C1065.5,964.96,1071.7,971.18,1071.7,978.85z"/>
			</g>
			<linearGradient id="SVGID_1_" gradientUnits="userSpaceOnUse" x1="907.5917" y1="679.6361" x2="1206.4963" y2="679.6361">
				<stop  offset="0" style="stop-color:#FCFEFF"/>
				<stop  offset="1" style="stop-color:#F0FBFF"/>
			</linearGradient>
			<path class="st2" d="M1057.04,530.18c-82.54,0-149.45,66.91-149.45,149.45c0,82.54,66.91,149.45,149.45,149.45
				s149.45-66.91,149.45-149.45C1206.5,597.1,1139.58,530.18,1057.04,530.18z M1060.11,750.27c-28.86,0.83-56.15-14.28-68.93-40.18
				c-4.48-9.07-7.52-20.07-7.44-33.19c0.15-25.08,12.86-48.67,33.88-62.34c6.64-4.32,14.07-7.67,21.71-8.36
				c0,0-32.98,101.21,83.02,104.62C1122.34,710.82,1105.56,748.97,1060.11,750.27z"/>
		</g>
		<g>
			<path class="st3" d="M2129.83,358.9c17.11,7.17,25.17,26.85,18,43.97l-419.09,1000.39c-7.17,17.11-26.85,25.18-43.97,18.01
				L1007.2,1137.4c-17.11-7.17-25.17-26.86-18-43.97L1408.29,93.05c7.17-17.11,26.85-25.17,43.96-18L2129.83,358.9z"/>
			<g>
				<path class="st1" d="M1931.11,895.61l205.29-490.03c7-16.71-0.87-35.92-17.58-42.92L1457.3,85.51
					c-16.71-7-35.92,0.87-42.92,17.58l-205.29,490.03L1931.11,895.61z"/>
				<path class="st1" d="M1927.94,903.17l-205.29,490.03c-7,16.71-26.22,24.58-42.92,17.58l-661.52-277.14
					c-16.71-7-24.58-26.21-17.58-42.92l205.29-490.03L1927.94,903.17z"/>
			</g>
		</g>
		<g>
			
				<rect x="1138.25" y="750.98" transform="matrix(0.3864 -0.9223 0.9223 0.3864 -6.8853 1690.3448)" class="st4" width="257.4" height="198.73"/>
			<g>
				<path class="st5" d="M1293.75,863.76l-23.01,62.25c0,0-39.03,7.77-52.16,0.66c-15.27-8.26,44.86-77.8,44.86-77.8L1293.75,863.76
					z"/>
				
					<linearGradient id="SVGID_2_" gradientUnits="userSpaceOnUse" x1="2583.6956" y1="1728.499" x2="2782.4224" y2="1728.499" gradientTransform="matrix(0.9223 0.3864 -0.3864 0.9223 -571.5358 -1704.697)">
					<stop  offset="0" style="stop-color:#E1F1FC"/>
					<stop  offset="1" style="stop-color:#B7D5F1"/>
				</linearGradient>
				<path class="st6" d="M1187.79,956.72c12.62-15.14,25.9-30.19,39.19-43.86c0.05,0.11,4.01-16.94,4.01-16.94l12.66,1.32
					c-8.29-10.59-4.88-17.28-4.08-18.54c0.93-1.47-5.33-3.14-14.66-4.39c-6.04,4.18-22.22,19.78-50.67,76.72L1187.79,956.72z"/>
				<path class="st7" d="M1187.79,956.72c12.62-15.14,25.9-30.19,39.19-43.86c0.05,0.11,4.01-16.94,4.01-16.94l12.66,1.32
					c-8.29-10.59-4.88-17.28-4.08-18.54c0.93-1.47-5.33-3.14-14.66-4.39c-6.04,4.18-22.22,19.78-50.67,76.72L1187.79,956.72z"/>
				
					<linearGradient id="SVGID_3_" gradientUnits="userSpaceOnUse" x1="2583.6965" y1="1733.5641" x2="2782.4241" y2="1733.5641" gradientTransform="matrix(0.9223 0.3864 -0.3864 0.9223 -571.5358 -1704.697)">
					<stop  offset="0" style="stop-color:#E1F1FC"/>
					<stop  offset="1" style="stop-color:#B7D5F1"/>
				</linearGradient>
				<path class="st8" d="M1234.79,920.86c0,0-14.74,16.13-32.02,42.14l15.55,6.51c33.17-25.27,64.9-47.26,74.5-52.66
					c-4.3-5.11-9.09-9.29-14.17-11.75c0,0-10.39,5.69-21.64,2.04c1.57,5.76,3.43,12.12,3.43,12.12L1234.79,920.86z"/>
				<path class="st7" d="M1234.79,920.86c0,0-14.74,16.13-32.02,42.14l15.55,6.51c33.17-25.27,64.9-47.26,74.5-52.66
					c-4.3-5.11-9.09-9.29-14.17-11.75c0,0-10.39,5.69-21.64,2.04c1.57,5.76,3.43,12.12,3.43,12.12L1234.79,920.86z"/>
				<path class="st3" d="M1257.01,907.14c-1.07-3.92-1.99-7.56-2.11-8.73l-11.26-1.17c0.49,0.63,1.02,1.27,1.6,1.92
					C1248.99,903.43,1253.06,905.86,1257.01,907.14z"/>
				<path class="st9" d="M1226.97,912.86c-13.29,13.67-26.57,28.72-39.19,43.86l14.98,6.28c17.28-26.01,32.02-42.14,32.02-42.14
					l25.65-1.59c0,0-1.86-6.36-3.43-12.12c-3.96-1.28-8.02-3.71-11.78-7.98c-0.58-0.65-1.1-1.29-1.6-1.92l-12.66-1.32
					C1230.98,895.92,1227.02,912.97,1226.97,912.86z"/>
				<g>
					<path class="st10" d="M1154.68,870.34c-1.25,0.1-2.58,0.22-3.98,0.34l-2.64,6.31l-14.93,35.64l-7.55,18.03l3.75,1.57
						l20.62,8.64c2.38-12.31,4.27-21.3,5.07-23.46c2.49,0.65,24.24,8.78,24.24,8.78l-13.73-17.93c0,0,28.86-27.6,39.96-35.6
						c0.65-0.47,1.24-0.87,1.76-1.19c-17.2-2.67-43.32-4.02-51.77-1.88C1155.2,869.83,1154.94,870.09,1154.68,870.34z"/>
					<path class="st10" d="M1307.66,931.64l-2.64,4.56l-24.57,35.45l-24.09-7.4l21.44,28.4c0,0-0.92,0.23-2.63,0.68l23.09,9.67
						l0.19,0.08l4.95,2.07l5.46,2.29l9.05-21.61l6.11-14.59l6.19-14.78C1323.97,950.58,1314.9,940.2,1307.66,931.64z"/>
				</g>
				
					<linearGradient id="SVGID_4_" gradientUnits="userSpaceOnUse" x1="2583.6799" y1="1700.4534" x2="2782.4299" y2="1700.4534" gradientTransform="matrix(0.9223 0.3864 -0.3864 0.9223 -571.5358 -1704.697)">
					<stop  offset="0" style="stop-color:#E1F1FC"/>
					<stop  offset="1" style="stop-color:#B7D5F1"/>
				</linearGradient>
				<path class="st11" d="M1296.02,917.58c0,0,5.06,6.28,11.64,14.07l0.48-0.83l-12.75-15.2c-0.46,0.12-1.33,0.54-2.56,1.23
					c0.51,0.6,1.01,1.21,1.49,1.84C1295.01,918.17,1295.58,917.8,1296.02,917.58z"/>
				
					<linearGradient id="SVGID_5_" gradientUnits="userSpaceOnUse" x1="2583.6968" y1="1736.2441" x2="2782.4265" y2="1736.2441" gradientTransform="matrix(0.9223 0.3864 -0.3864 0.9223 -571.5358 -1704.697)">
					<stop  offset="0" style="stop-color:#E1F1FC"/>
					<stop  offset="1" style="stop-color:#B7D5F1"/>
				</linearGradient>
				<path class="st12" d="M1230.75,974.72c32.5-27.31,55.85-50.33,63.57-56.03c-0.49-0.62-0.99-1.24-1.49-1.84
					c-9.6,5.4-41.33,27.4-74.5,52.66L1230.75,974.72z"/>
				
					<linearGradient id="SVGID_6_" gradientUnits="userSpaceOnUse" x1="-358.956" y1="1416.5477" x2="-549.0287" y2="1416.5477" gradientTransform="matrix(-0.8217 -0.57 -0.57 0.8217 1671.064 -492.679)">
					<stop  offset="0" style="stop-color:#AFCBEB"/>
					<stop  offset="1" style="stop-color:#73A5D9"/>
				</linearGradient>
				<path class="st13" d="M1230.75,974.72c32.5-27.31,55.85-50.33,63.57-56.03c-0.49-0.62-0.99-1.24-1.49-1.84
					c-9.6,5.4-41.33,27.4-74.5,52.66L1230.75,974.72z"/>
				
					<linearGradient id="SVGID_7_" gradientUnits="userSpaceOnUse" x1="2583.6973" y1="1703.8485" x2="2782.426" y2="1703.8485" gradientTransform="matrix(0.9223 0.3864 -0.3864 0.9223 -571.5358 -1704.697)">
					<stop  offset="0" style="stop-color:#E1F1FC"/>
					<stop  offset="1" style="stop-color:#B7D5F1"/>
				</linearGradient>
				<path class="st14" d="M1294.32,918.69c4.15,5.26,7.78,11.35,10.71,17.52l2.64-4.56c-6.59-7.79-11.64-14.07-11.64-14.07
					C1295.58,917.8,1295.01,918.17,1294.32,918.69z"/>
				
					<linearGradient id="SVGID_8_" gradientUnits="userSpaceOnUse" x1="2795.6272" y1="1819.545" x2="2544.2715" y2="1733.2263" gradientTransform="matrix(0.9369 0.3497 -0.3497 0.9369 -592.9645 -1681.9475)">
					<stop  offset="0" style="stop-color:#355C90"/>
					<stop  offset="1" style="stop-color:#012847"/>
				</linearGradient>
				<path class="st15" d="M1294.32,918.69c4.15,5.26,7.78,11.35,10.71,17.52l2.64-4.56c-6.59-7.79-11.64-14.07-11.64-14.07
					C1295.58,917.8,1295.01,918.17,1294.32,918.69z"/>
				
					<linearGradient id="SVGID_9_" gradientUnits="userSpaceOnUse" x1="2583.6907" y1="1736.8027" x2="2782.4297" y2="1736.8027" gradientTransform="matrix(0.9223 0.3864 -0.3864 0.9223 -571.5358 -1704.697)">
					<stop  offset="0" style="stop-color:#E1F1FC"/>
					<stop  offset="1" style="stop-color:#B7D5F1"/>
				</linearGradient>
				<path class="st16" d="M1230.75,974.72l44.42,18.61c1.7-0.44,2.63-0.68,2.63-0.68l-17.17-24.02l19.88,9.96l24.53-42.39
					c-2.93-6.17-6.56-12.25-10.71-17.52C1286.6,924.39,1263.24,947.41,1230.75,974.72z"/>
				
					<linearGradient id="SVGID_10_" gradientUnits="userSpaceOnUse" x1="-358.9459" y1="1415.4747" x2="-549.0342" y2="1415.4747" gradientTransform="matrix(-0.8217 -0.57 -0.57 0.8217 1671.064 -492.679)">
					<stop  offset="0" style="stop-color:#AFCBEB"/>
					<stop  offset="1" style="stop-color:#73A5D9"/>
				</linearGradient>
				<path class="st17" d="M1230.75,974.72l44.42,18.61c1.7-0.44,2.63-0.68,2.63-0.68l-17.17-24.02l19.88,9.96l24.53-42.39
					c-2.93-6.17-6.56-12.25-10.71-17.52C1286.6,924.39,1263.24,947.41,1230.75,974.72z"/>
				
					<linearGradient id="SVGID_11_" gradientUnits="userSpaceOnUse" x1="2782.8257" y1="1856.8365" x2="2531.4639" y2="1770.5157" gradientTransform="matrix(0.9369 0.3497 -0.3497 0.9369 -592.9645 -1681.9475)">
					<stop  offset="0" style="stop-color:#355C90"/>
					<stop  offset="1" style="stop-color:#012847"/>
				</linearGradient>
				<path class="st18" d="M1230.75,974.72l44.42,18.61c1.7-0.44,2.63-0.68,2.63-0.68l-17.17-24.02l19.88,9.96l24.53-42.39
					c-2.93-6.17-6.56-12.25-10.71-17.52C1286.6,924.39,1263.24,947.41,1230.75,974.72z"/>
				
					<linearGradient id="SVGID_12_" gradientUnits="userSpaceOnUse" x1="2583.6946" y1="1685.4517" x2="2782.4189" y2="1685.4517" gradientTransform="matrix(0.9223 0.3864 -0.3864 0.9223 -571.5358 -1704.697)">
					<stop  offset="0" style="stop-color:#E1F1FC"/>
					<stop  offset="1" style="stop-color:#B7D5F1"/>
				</linearGradient>
				<path class="st19" d="M1224.9,874.32c1.86-1.29,2.77-1.5,2.77-1.5s-15.39-3.75-18.67-2.26c-0.43,0.12-1.03,0.44-1.77,0.9
					c3.91,0.61,7.34,1.28,10.02,2C1219.95,873.71,1222.52,874,1224.9,874.32z"/>
				
					<linearGradient id="SVGID_13_" gradientUnits="userSpaceOnUse" x1="2583.6929" y1="1729.7563" x2="2782.4277" y2="1729.7563" gradientTransform="matrix(0.9223 0.3864 -0.3864 0.9223 -571.5358 -1704.697)">
					<stop  offset="0" style="stop-color:#E1F1FC"/>
					<stop  offset="1" style="stop-color:#B7D5F1"/>
				</linearGradient>
				<path class="st20" d="M1217.49,873.52c2.61,0.71-24.75,28.99-49.84,74.77l6.58,2.75c28.46-56.94,44.63-72.53,50.67-76.72
					c-2.38-0.32-4.95-0.61-7.65-0.86C1217.32,873.48,1217.41,873.5,1217.49,873.52z"/>
				
					<linearGradient id="SVGID_14_" gradientUnits="userSpaceOnUse" x1="-358.9461" y1="1424.1539" x2="-549.0446" y2="1424.1539" gradientTransform="matrix(-0.8217 -0.57 -0.57 0.8217 1671.064 -492.679)">
					<stop  offset="0" style="stop-color:#AFCBEB"/>
					<stop  offset="1" style="stop-color:#73A5D9"/>
				</linearGradient>
				<path class="st21" d="M1217.49,873.52c2.61,0.71-24.75,28.99-49.84,74.77l6.58,2.75c28.46-56.94,44.63-72.53,50.67-76.72
					c-2.38-0.32-4.95-0.61-7.65-0.86C1217.32,873.48,1217.41,873.5,1217.49,873.52z"/>
				
					<linearGradient id="SVGID_15_" gradientUnits="userSpaceOnUse" x1="2583.6875" y1="1688.6497" x2="2782.4353" y2="1688.6497" gradientTransform="matrix(0.9223 0.3864 -0.3864 0.9223 -571.5358 -1704.697)">
					<stop  offset="0" style="stop-color:#E1F1FC"/>
					<stop  offset="1" style="stop-color:#B7D5F1"/>
				</linearGradient>
				<path class="st22" d="M1217.25,873.46c-2.67-0.72-6.11-1.39-10.02-2c-0.52,0.33-1.11,0.72-1.76,1.19
					C1209.53,872.83,1213.51,873.11,1217.25,873.46z"/>
				
					<linearGradient id="SVGID_16_" gradientUnits="userSpaceOnUse" x1="2790.7703" y1="1833.7721" x2="2539.3828" y2="1747.4425" gradientTransform="matrix(0.9369 0.3497 -0.3497 0.9369 -592.9645 -1681.9475)">
					<stop  offset="0" style="stop-color:#355C90"/>
					<stop  offset="1" style="stop-color:#012847"/>
				</linearGradient>
				<path class="st23" d="M1217.25,873.46c-2.67-0.72-6.11-1.39-10.02-2c-0.52,0.33-1.11,0.72-1.76,1.19
					C1209.53,872.83,1213.51,873.11,1217.25,873.46z"/>
				
					<linearGradient id="SVGID_17_" gradientUnits="userSpaceOnUse" x1="2583.6892" y1="1730.8182" x2="2782.4294" y2="1730.8182" gradientTransform="matrix(0.9223 0.3864 -0.3864 0.9223 -571.5358 -1704.697)">
					<stop  offset="0" style="stop-color:#E1F1FC"/>
					<stop  offset="1" style="stop-color:#B7D5F1"/>
				</linearGradient>
				<path class="st24" d="M1217.49,873.52c-0.08-0.02-0.16-0.04-0.24-0.06c-3.74-0.35-7.72-0.63-11.78-0.81
					c-11.09,8-39.96,35.6-39.96,35.6l13.73,17.93c0,0-21.75-8.12-24.24-8.78c-0.8,2.15-2.7,11.15-5.07,23.46l17.71,7.42
					C1192.74,902.51,1220.1,874.24,1217.49,873.52z"/>
				
					<linearGradient id="SVGID_18_" gradientUnits="userSpaceOnUse" x1="-358.9446" y1="1427.927" x2="-549.0518" y2="1427.927" gradientTransform="matrix(-0.8217 -0.57 -0.57 0.8217 1671.064 -492.679)">
					<stop  offset="0" style="stop-color:#AFCBEB"/>
					<stop  offset="1" style="stop-color:#73A5D9"/>
				</linearGradient>
				<path class="st25" d="M1217.49,873.52c-0.08-0.02-0.16-0.04-0.24-0.06c-3.74-0.35-7.72-0.63-11.78-0.81
					c-11.09,8-39.96,35.6-39.96,35.6l13.73,17.93c0,0-21.75-8.12-24.24-8.78c-0.8,2.15-2.7,11.15-5.07,23.46l17.71,7.42
					C1192.74,902.51,1220.1,874.24,1217.49,873.52z"/>
				
					<linearGradient id="SVGID_19_" gradientUnits="userSpaceOnUse" x1="2776.5085" y1="1875.3035" x2="2525.1235" y2="1788.9747" gradientTransform="matrix(0.9369 0.3497 -0.3497 0.9369 -592.9645 -1681.9475)">
					<stop  offset="0" style="stop-color:#355C90"/>
					<stop  offset="1" style="stop-color:#012847"/>
				</linearGradient>
				<path class="st26" d="M1217.49,873.52c-0.08-0.02-0.16-0.04-0.24-0.06c-3.74-0.35-7.72-0.63-11.78-0.81
					c-11.09,8-39.96,35.6-39.96,35.6l13.73,17.93c0,0-21.75-8.12-24.24-8.78c-0.8,2.15-2.7,11.15-5.07,23.46l17.71,7.42
					C1192.74,902.51,1220.1,874.24,1217.49,873.52z"/>
				<path class="st0" d="M1208.99,870.56c-0.43,0.12-1.03,0.44-1.77,0.9c-0.52,0.33-1.11,0.72-1.76,1.19
					c-11.09,8-39.96,35.6-39.96,35.6l13.73,17.93c0,0-21.75-8.12-24.24-8.78c-0.8,2.15-2.7,11.15-5.07,23.46l17.71,7.42l6.58,2.75
					c28.46-56.94,44.63-72.53,50.67-76.72c1.86-1.29,2.77-1.5,2.77-1.5S1212.27,869.07,1208.99,870.56z"/>
				<path class="st5" d="M1306.96,786.58c1.54,2.54,24.52,33.86-9.65,68.48c-14.06,18.29-46.66,11.85-44.26-21.97
					C1255.46,799.28,1289.82,758.4,1306.96,786.58z"/>
				<path class="st0" d="M1319.26,804.3c0,0,6.42-44.61-42.44-51.17c-2.09-0.28-4.3-0.01-6.13,1.04
					c-6.86,3.94-1.42,13.19,5.06,16.88c-9.69-4.88-22.47,0.78-9.65,12.23c-5.46,0.64-8.24,11.22-1.18,16.43
					c0.12-0.83,7.56-11.99,17.49-10.91c5.95,0.65,21.91,4.06,25.39,10.91c7.48,14.71,4.3,34.26,4.3,34.26
					S1320.15,817.25,1319.26,804.3z"/>
				<path class="st5" d="M1311.63,822.12c0,0,14.09-4.68,8.53,7.03c-4.41,9.3-13.32,5.22-13.32,5.22L1311.63,822.12z"/>
				<path class="st0" d="M1295.39,915.62c-0.46,0.12-1.33,0.54-2.56,1.23c-9.6,5.4-41.33,27.4-74.5,52.66l12.42,5.21l44.42,18.61
					c1.7-0.44,2.63-0.68,2.63-0.68l-17.17-24.02l19.88,9.96l24.53-42.39l2.64-4.56l0.48-0.83L1295.39,915.62z"/>
				<path class="st27" d="M1294.41,916.53c0,0-12.61,10.23-39.89,10.77c-0.75-5.49-6.34-27.58-6.34-27.58l-24.39,2.33
					c0,0-6.48-15.46,2.63-28.6c4.76,0,13.73,3.52,13.73,3.52s6.07,26.16,41.91,27.01C1288.7,908.16,1294.41,916.53,1294.41,916.53z"
					/>
				<path class="st0" d="M1266.64,833.31c1.11-0.55,2.4-0.65,3.57-0.24c0.82,0.29,1.72,0.58,2.28,0.73
					c1.37,0.35,2.47,1.36,3.01,2.67c3.54,8.53,11.34,19.04,26.21,4.84c7.23-7.39,9.5-5.82,9.5-5.82s-6.59,54.2-48.43,55.45
					c-25.7,0.78-43.94-38.28-8.3-65.83C1254.12,836.46,1260.85,836.18,1266.64,833.31z"/>
			</g>
		</g>
		
			<rect x="1508.05" y="761.41" transform="matrix(0.3864 -0.9223 0.9223 0.3864 162.1033 1908.6924)" class="st28" width="15.04" height="142.21"/>
		
			<rect x="1509.18" y="797.81" transform="matrix(0.3864 -0.9223 0.9223 0.3864 106.5257 1947.1799)" class="st28" width="15.04" height="191.43"/>
		
			<rect x="1374.66" y="828.16" transform="matrix(0.3864 -0.9223 0.9223 0.3864 -214.9365 1982.0463)" class="st28" width="15.04" height="648.81"/>
		
			<rect x="1224.39" y="958.43" transform="matrix(0.3864 -0.9223 0.9223 0.3864 -295.5703 1835.7592)" class="st28" width="15.04" height="363.19"/>
		
			<rect x="1546.51" y="1136.83" transform="matrix(0.3864 -0.9223 0.9223 0.3864 -222.3803 2215.6675)" class="st28" width="15.04" height="276.28"/>
		
			<rect x="1698.49" y="841.19" transform="matrix(0.3864 -0.9223 0.9223 0.3864 205.3741 2133.2942)" class="st28" width="15.04" height="142.21"/>
		
			<rect x="1700.88" y="913.67" transform="matrix(0.3864 -0.9223 0.9223 0.3864 150.1015 2173.2937)" class="st28" width="15.04" height="120.33"/>
		
			<rect x="1452.07" y="876.99" transform="matrix(0.3864 -0.9223 0.9223 0.3864 31.6387 1921.0018)" class="st28" width="15.04" height="119.46"/>
		
			<rect x="1571.7" y="949.29" transform="matrix(0.3864 -0.9223 0.9223 0.3864 58.8308 2062.1084)" class="st28" width="15.04" height="75.09"/>
		
			<rect x="1431.2" y="926.82" transform="matrix(0.3864 -0.9223 0.9223 0.3864 -27.1105 1932.3477)" class="st28" width="15.04" height="119.46"/>
		
			<rect x="1550.83" y="999.12" transform="matrix(0.3864 -0.9223 0.9223 0.3864 0.0745 2073.4424)" class="st28" width="15.04" height="75.09"/>
		
			<rect x="1410.32" y="976.64" transform="matrix(0.3864 -0.9223 0.9223 0.3864 -85.8854 1943.6516)" class="st28" width="15.04" height="119.46"/>
		
			<rect x="1529.95" y="1048.94" transform="matrix(0.3864 -0.9223 0.9223 0.3864 -58.6878 2084.7666)" class="st28" width="15.04" height="75.09"/>
		
			<rect x="1693.04" y="977.94" transform="matrix(0.3864 -0.9223 0.9223 0.3864 86.4053 2205.2197)" class="st28" width="15.04" height="119.46"/>
		<g>
			<g>
				
					<linearGradient id="SVGID_20_" gradientUnits="userSpaceOnUse" x1="3047.3264" y1="1070.5203" x2="3228.5491" y2="1070.5203" gradientTransform="matrix(0.9223 0.3864 -0.3864 0.9223 -571.5358 -1704.697)">
					<stop  offset="0" style="stop-color:#AFCBEB"/>
					<stop  offset="1" style="stop-color:#73A5D9"/>
				</linearGradient>
				<path class="st29" d="M1873.92,578.72c-46.08-19.31-67.86-72.5-48.56-118.58c19.3-46.08,72.5-67.87,118.58-48.56
					c46.08,19.31,67.87,72.5,48.56,118.58C1973.2,576.24,1920.01,598.02,1873.92,578.72z M1941.95,416.35
					c-43.45-18.2-93.6,2.34-111.81,45.79c-18.2,43.45,2.34,93.6,45.79,111.8c43.45,18.2,93.61-2.34,111.81-45.78
					C2005.93,484.7,1985.4,434.55,1941.95,416.35z"/>
			</g>
			<g>
				
					<linearGradient id="SVGID_21_" gradientUnits="userSpaceOnUse" x1="3062.9709" y1="1070.5189" x2="3212.9033" y2="1070.5189" gradientTransform="matrix(0.9223 0.3864 -0.3864 0.9223 -571.5358 -1704.697)">
					<stop  offset="0" style="stop-color:#AFCBEB"/>
					<stop  offset="1" style="stop-color:#73A5D9"/>
				</linearGradient>
				<path class="st30" d="M1880.05,564.31l-0.07-0.03c-1.98-0.83-3.95-1.75-5.84-2.74l1.2-2.29c1.83,0.96,3.73,1.85,5.64,2.65
					L1880.05,564.31z M1886.18,566.57l0.79-2.46c2,0.64,4.05,1.2,6.09,1.66l-0.57,2.53
					C1890.37,567.81,1888.25,567.23,1886.18,566.57z M1868.48,558.26c-1.83-1.17-3.63-2.44-5.35-3.76l1.58-2.05
					c1.66,1.28,3.4,2.5,5.16,3.63L1868.48,558.26z M1898.92,569.45l0.35-2.56c2.07,0.28,4.19,0.47,6.28,0.57l-0.12,2.58
					C1903.25,569.94,1901.06,569.74,1898.92,569.45z M1858.13,550.29c-1.6-1.47-3.15-3.03-4.61-4.64l1.92-1.74
					c1.41,1.55,2.91,3.06,4.45,4.48L1858.13,550.29z M1911.96,570.06l-0.11-2.58c2.09-0.09,4.21-0.27,6.29-0.54l0.33,2.57
					C1916.32,569.79,1914.12,569.97,1911.96,570.06z M1849.33,540.63c-1.31-1.73-2.57-3.53-3.73-5.37l2.19-1.38
					c1.12,1.77,2.33,3.52,3.6,5.18L1849.33,540.63z M1924.91,568.39l-0.56-2.53c2.05-0.45,4.1-0.99,6.1-1.62l0.77,2.47
					C1929.16,567.36,1927.03,567.93,1924.91,568.39z M1842.36,529.59c-1-1.94-1.93-3.93-2.75-5.93l2.39-0.98
					c0.79,1.93,1.68,3.86,2.65,5.73L1842.36,529.59z M1937.38,564.5l-0.98-2.39c1.94-0.8,3.87-1.69,5.73-2.64l1.18,2.3
					C1941.39,562.75,1939.39,563.68,1937.38,564.5z M1837.39,517.51c-0.65-2.07-1.21-4.19-1.68-6.32l2.53-0.56
					c0.45,2.05,1,4.1,1.62,6.1L1837.39,517.51z M1948.99,558.52l-1.38-2.19c1.77-1.12,3.52-2.33,5.19-3.6l1.56,2.06
					C1952.63,556.11,1950.82,557.36,1948.99,558.52z M1834.58,504.76c-0.28-2.16-0.47-4.35-0.56-6.51l2.59-0.11
					c0.09,2.09,0.27,4.2,0.54,6.28L1834.58,504.76z M1959.39,550.61l-1.74-1.92c1.55-1.41,3.06-2.91,4.48-4.45l1.9,1.76
					C1962.56,547.6,1961,549.15,1959.39,550.61z M1834.03,491.71c0.1-2.17,0.3-4.36,0.58-6.51l2.57,0.35
					c-0.28,2.08-0.47,4.19-0.57,6.28L1834.03,491.71z M1968.25,541.01l-2.05-1.58c1.28-1.66,2.51-3.4,3.63-5.16l2.18,1.4
					C1970.84,537.5,1969.58,539.29,1968.25,541.01z M1835.77,478.77c0.48-2.11,1.05-4.23,1.71-6.31l2.47,0.79
					c-0.64,2-1.19,4.05-1.65,6.09L1835.77,478.77z M1975.3,530.02l-2.29-1.2c0.97-1.86,1.88-3.78,2.69-5.71l0.12-0.29l2.39,1
					l-0.11,0.28C1977.24,526.11,1976.3,528.1,1975.3,530.02z M1842.12,467.32l-2.39-1l0.06-0.14c0.82-1.96,1.73-3.9,2.71-5.77
					l2.3,1.2c-0.94,1.81-1.82,3.68-2.61,5.57L1842.12,467.32z M1977.97,516.89c0.63-2,1.18-4.05,1.64-6.09l2.53,0.56
					c-0.47,2.11-1.04,4.24-1.7,6.31L1977.97,516.89z M1847.96,456.14l-2.18-1.39c1.17-1.84,2.43-3.64,3.75-5.35l2.05,1.58
					C1850.31,452.63,1849.09,454.37,1847.96,456.14z M1980.71,504.59c0.28-2.07,0.46-4.18,0.55-6.29l2.59,0.12
					c-0.1,2.18-0.29,4.37-0.57,6.51L1980.71,504.59z M1855.64,446.15l-1.91-1.75c1.47-1.6,3.04-3.15,4.64-4.62l1.74,1.92
					C1858.57,443.1,1857.06,444.6,1855.64,446.15z M1981.26,492c-0.09-2.09-0.28-4.21-0.55-6.29l2.57-0.34
					c0.28,2.15,0.48,4.34,0.57,6.51L1981.26,492z M1864.96,437.65l-1.57-2.06c1.73-1.32,3.53-2.57,5.36-3.74l1.39,2.18
					C1868.37,435.16,1866.62,436.38,1864.96,437.65z M1979.6,479.5c-0.46-2.05-1-4.1-1.63-6.09l2.47-0.78
					c0.65,2.07,1.22,4.19,1.7,6.31L1979.6,479.5z M1875.61,430.89l-1.19-2.3c1.93-1,3.93-1.93,5.93-2.75l0.99,2.39
					C1879.4,429.04,1877.47,429.93,1875.61,430.89z M1975.81,467.47c-0.8-1.93-1.7-3.86-2.66-5.72l2.3-1.19
					c1,1.93,1.93,3.92,2.76,5.93L1975.81,467.47z M1887.27,426.09l-0.78-2.47c2.07-0.65,4.19-1.22,6.32-1.68l0.56,2.53
					C1891.32,424.91,1889.27,425.46,1887.27,426.09z M1970,456.28c-1.12-1.77-2.34-3.51-3.61-5.18l2.05-1.57
					c1.32,1.72,2.58,3.53,3.74,5.36L1970,456.28z M1899.58,423.36l-0.33-2.57c2.15-0.28,4.34-0.47,6.51-0.57l0.11,2.59
					C1903.78,422.91,1901.66,423.09,1899.58,423.36z M1962.34,446.26c-1.41-1.55-2.91-3.05-4.46-4.47l1.75-1.91
					c1.6,1.47,3.16,3.03,4.62,4.63L1962.34,446.26z M1912.17,422.82l0.11-2.58c2.17,0.1,4.36,0.29,6.51,0.58l-0.35,2.56
					C1916.38,423.1,1914.27,422.91,1912.17,422.82z M1953.04,437.74c-1.66-1.27-3.4-2.49-5.17-3.61l1.39-2.19
					c1.83,1.17,3.63,2.43,5.35,3.75L1953.04,437.74z M1924.67,424.49l0.57-2.53c2.12,0.47,4.24,1.05,6.31,1.71l-0.79,2.47
					C1928.76,425.5,1926.71,424.94,1924.67,424.49z M1942.41,430.97c-1.79-0.93-3.64-1.8-5.5-2.58l-0.22-0.09l1-2.39l0.21,0.09
					c1.94,0.81,3.86,1.71,5.71,2.67L1942.41,430.97z"/>
			</g>
			<g>
				
					<linearGradient id="SVGID_22_" gradientUnits="userSpaceOnUse" x1="3079.0186" y1="1070.5197" x2="3196.8604" y2="1070.5197" gradientTransform="matrix(0.9223 0.3864 -0.3864 0.9223 -571.5358 -1704.697)">
					<stop  offset="0" style="stop-color:#AFCBEB"/>
					<stop  offset="1" style="stop-color:#73A5D9"/>
				</linearGradient>
				<path class="st31" d="M1886.17,549.49c-29.96-12.55-44.13-47.14-31.57-77.11c12.55-29.96,47.14-44.13,77.11-31.58
					c29.96,12.55,44.13,47.14,31.58,77.11C1950.72,547.87,1916.14,562.04,1886.17,549.49z M1929.7,445.57
					c-27.33-11.45-58.88,1.47-70.33,28.8c-11.45,27.33,1.47,58.88,28.8,70.33c27.33,11.45,58.88-1.47,70.33-28.8
					C1969.95,488.58,1957.03,457.03,1929.7,445.57z"/>
			</g>
			
				<linearGradient id="SVGID_23_" gradientUnits="userSpaceOnUse" x1="3093.927" y1="1070.5198" x2="3181.9495" y2="1070.5198" gradientTransform="matrix(0.9223 0.3864 -0.3864 0.9223 -571.5358 -1704.697)">
				<stop  offset="0" style="stop-color:#AFCBEB"/>
				<stop  offset="1" style="stop-color:#73A5D9"/>
			</linearGradient>
			<polygon class="st32" points="1946.9,518.42 1865.72,484.4 1870.97,471.87 1952.15,505.88 			"/>
		</g>
		<g>
			<g>
				
					<linearGradient id="SVGID_24_" gradientUnits="userSpaceOnUse" x1="1101.1582" y1="278.7272" x2="1265.3357" y2="278.7272" gradientTransform="matrix(0.9978 -0.0661 0.0661 0.9978 356.7228 125.6389)">
					<stop  offset="0" style="stop-color:#AFCBEB"/>
					<stop  offset="1" style="stop-color:#73A5D9"/>
				</linearGradient>
				<path class="st33" d="M1561.22,407.45c-45.16,2.99-84.34-31.32-87.34-76.48c-2.99-45.16,31.32-84.34,76.48-87.34
					c45.16-2.99,84.34,31.32,87.33,76.48C1640.69,365.28,1606.38,404.45,1561.22,407.45z M1550.67,248.31
					c-42.58,2.82-74.93,39.76-72.11,82.35c2.82,42.58,39.76,74.93,82.34,72.11c42.58-2.82,74.93-39.76,72.11-82.34
					C1630.2,277.84,1593.25,245.49,1550.67,248.31z"/>
			</g>
			<g>
				
					<linearGradient id="SVGID_25_" gradientUnits="userSpaceOnUse" x1="1115.3324" y1="278.7262" x2="1251.1609" y2="278.7262" gradientTransform="matrix(0.9978 -0.0661 0.0661 0.9978 356.7228 125.6389)">
					<stop  offset="0" style="stop-color:#AFCBEB"/>
					<stop  offset="1" style="stop-color:#73A5D9"/>
				</linearGradient>
				<path class="st34" d="M1560.35,393.3l-0.07,0c-1.94,0.13-3.91,0.18-5.85,0.14l0.04-2.35c1.87,0.04,3.77-0.01,5.65-0.13
					L1560.35,393.3z M1566.24,392.65l-0.36-2.32c1.88-0.29,3.77-0.67,5.61-1.12l0.56,2.28
					C1570.14,391.96,1568.19,392.35,1566.24,392.65z M1548.53,393.07c-1.95-0.21-3.93-0.5-5.85-0.88l0.45-2.3
					c1.86,0.37,3.76,0.65,5.65,0.85L1548.53,393.07z M1577.73,389.83l-0.75-2.22c1.79-0.61,3.59-1.31,5.32-2.08l0.95,2.14
					C1581.44,388.47,1579.59,389.2,1577.73,389.83z M1536.92,390.79c-1.89-0.55-3.78-1.18-5.61-1.89l0.85-2.19
					c1.77,0.69,3.6,1.3,5.42,1.83L1536.92,390.79z M1588.55,385.05l-1.13-2.05c1.66-0.92,3.3-1.92,4.88-2.98l1.31,1.95
					C1591.97,383.06,1590.27,384.1,1588.55,385.05z M1525.88,386.52c-1.76-0.87-3.51-1.82-5.2-2.84l1.21-2
					c1.62,0.98,3.31,1.91,5.02,2.74L1525.88,386.52z M1598.37,378.45l-1.47-1.83c1.48-1.19,2.92-2.46,4.29-3.78l1.62,1.69
					C1601.4,375.9,1599.9,377.22,1598.37,378.45z M1515.75,380.4c-1.59-1.16-3.15-2.41-4.62-3.7l1.54-1.77
					c1.42,1.24,2.93,2.45,4.46,3.57L1515.75,380.4z M1606.9,370.26l-1.77-1.54c1.25-1.43,2.46-2.93,3.57-4.46l1.89,1.39
					C1609.45,367.22,1608.2,368.77,1606.9,370.26z M1506.84,372.62c-1.36-1.41-2.68-2.91-3.92-4.44l1.82-1.48
					c1.2,1.48,2.47,2.93,3.78,4.29L1506.84,372.62z M1613.9,360.71l-2.01-1.22c0.99-1.63,1.91-3.31,2.75-5.02l2.1,1.04
					C1615.87,357.28,1614.91,359.03,1613.9,360.71z M1499.41,363.41c-1.1-1.64-2.14-3.33-3.09-5.05l2.05-1.13
					c0.92,1.66,1.92,3.3,2.98,4.87L1499.41,363.41z M1619.13,350.09l-2.19-0.85c0.69-1.77,1.31-3.6,1.83-5.42l2.25,0.65
					C1620.48,346.37,1619.84,348.26,1619.13,350.09z M1493.68,353.06c-0.8-1.8-1.52-3.65-2.16-5.51l2.22-0.76
					c0.61,1.8,1.32,3.59,2.09,5.32L1493.68,353.06z M1622.43,338.73l-2.3-0.45c0.37-1.86,0.66-3.77,0.86-5.65l2.33,0.25
					C1623.11,334.83,1622.81,336.8,1622.43,338.73z M1489.86,341.86c-0.47-1.9-0.86-3.86-1.16-5.81l2.32-0.36
					c0.29,1.88,0.67,3.77,1.12,5.6L1489.86,341.86z M1623.69,326.97l-2.35-0.05c0.04-1.9-0.01-3.82-0.13-5.72l-0.02-0.29l2.34-0.16
					l0.02,0.27C1623.69,323.01,1623.73,325,1623.69,326.97z M1490.38,330.02l-2.34,0.15l-0.01-0.14c-0.13-1.92-0.17-3.86-0.14-5.77
					l2.35,0.04c-0.03,1.85,0.01,3.73,0.14,5.57L1490.38,330.02z M1620.55,315.24c-0.3-1.88-0.68-3.76-1.13-5.6l2.27-0.57
					c0.47,1.9,0.87,3.86,1.18,5.8L1620.55,315.24z M1490.58,318.59l-2.33-0.25c0.21-1.96,0.5-3.93,0.88-5.86l2.3,0.45
					C1491.07,314.8,1490.78,316.7,1490.58,318.59z M1617.79,304.16c-0.62-1.79-1.32-3.58-2.1-5.32l2.14-0.95
					c0.8,1.8,1.53,3.66,2.17,5.51L1617.79,304.16z M1492.77,307.38l-2.25-0.65c0.54-1.89,1.18-3.78,1.89-5.62l2.19,0.85
					C1493.91,303.73,1493.3,305.55,1492.77,307.38z M1613.15,293.73c-0.93-1.66-1.93-3.3-2.99-4.87l1.94-1.32
					c1.1,1.63,2.14,3.32,3.1,5.04L1613.15,293.73z M1496.88,296.73l-2.11-1.03c0.87-1.77,1.82-3.52,2.84-5.2l2.01,1.21
					C1498.64,293.33,1497.72,295.02,1496.88,296.73z M1606.75,284.27c-1.2-1.48-2.47-2.92-3.79-4.28l1.68-1.63
					c1.37,1.41,2.69,2.9,3.93,4.43L1606.75,284.27z M1502.79,286.94l-1.9-1.38c1.16-1.59,2.4-3.15,3.7-4.63l1.77,1.54
					C1505.1,283.9,1503.9,285.41,1502.79,286.94z M1598.8,276.05c-1.43-1.24-2.93-2.44-4.47-3.56l1.38-1.9
					c1.59,1.16,3.15,2.4,4.63,3.69L1598.8,276.05z M1510.29,278.33l-1.63-1.69c1.41-1.36,2.91-2.68,4.44-3.92l1.47,1.82
					C1513.1,275.74,1511.66,277.01,1510.29,278.33z M1589.57,269.33c-1.63-0.98-3.32-1.9-5.02-2.73l1.03-2.11
					c1.77,0.86,3.52,1.82,5.2,2.83L1589.57,269.33z M1519.17,271.14l-1.31-1.94c1.63-1.1,3.33-2.14,5.05-3.1l1.14,2.05
					C1522.39,269.07,1520.75,270.08,1519.17,271.14z M1579.3,264.32c-1.77-0.68-3.59-1.29-5.42-1.82l0.65-2.26
					c1.89,0.55,3.78,1.18,5.62,1.88L1579.3,264.32z M1529.16,265.61l-0.95-2.14c1.8-0.8,3.65-1.53,5.51-2.17l0.76,2.22
					C1532.69,264.13,1530.89,264.83,1529.16,265.61z M1568.32,261.16c-1.86-0.36-3.76-0.64-5.65-0.84l0.24-2.33
					c1.96,0.2,3.93,0.5,5.86,0.87L1568.32,261.16z M1539.96,261.9l-0.57-2.28c1.91-0.47,3.86-0.87,5.81-1.17l0.36,2.32
					C1543.69,261.07,1541.8,261.44,1539.96,261.9z M1556.96,259.98c-1.83-0.03-3.68,0.02-5.5,0.14l-0.21,0.02l-0.16-2.34l0.2-0.02
					c1.9-0.12,3.82-0.17,5.71-0.14L1556.96,259.98z"/>
			</g>
			<g>
				
					<linearGradient id="SVGID_26_" gradientUnits="userSpaceOnUse" x1="1129.8707" y1="278.7265" x2="1236.6245" y2="278.7265" gradientTransform="matrix(0.9978 -0.0661 0.0661 0.9978 356.7228 125.6389)">
					<stop  offset="0" style="stop-color:#AFCBEB"/>
					<stop  offset="1" style="stop-color:#73A5D9"/>
				</linearGradient>
				<path class="st35" d="M1559.32,378.8c-29.37,1.95-54.84-20.36-56.79-49.73c-1.95-29.37,20.36-54.85,49.73-56.79
					c29.37-1.95,54.85,20.36,56.79,49.73C1611,351.38,1588.69,376.86,1559.32,378.8z M1552.57,276.96
					c-26.79,1.77-47.13,25.01-45.36,51.8c1.77,26.79,25.01,47.14,51.8,45.36c26.79-1.77,47.14-25.01,45.36-51.8
					C1602.59,295.53,1579.36,275.18,1552.57,276.96z"/>
			</g>
			
				<linearGradient id="SVGID_27_" gradientUnits="userSpaceOnUse" x1="1143.3745" y1="278.7268" x2="1223.1204" y2="278.7268" gradientTransform="matrix(0.9978 -0.0661 0.0661 0.9978 356.7228 125.6389)">
				<stop  offset="0" style="stop-color:#AFCBEB"/>
				<stop  offset="1" style="stop-color:#73A5D9"/>
			</linearGradient>
			<polygon class="st36" points="1595.98,329.05 1516.41,334.32 1515.6,322.03 1595.17,316.76 			"/>
		</g>
		<g>
			<g>
				
					<linearGradient id="SVGID_28_" gradientUnits="userSpaceOnUse" x1="1528.9351" y1="801.1955" x2="1802.8224" y2="801.1955" gradientTransform="matrix(0.9989 0.0464 -0.0464 0.9989 -27.3013 -306.3546)">
					<stop  offset="0" style="stop-color:#AFCBEB"/>
					<stop  offset="1" style="stop-color:#73A5D9"/>
				</linearGradient>
				<path class="st37" d="M1699.32,648.83l-206.27-9.59c-18.56-0.86-32.96-16.67-32.09-35.22l3.64-78.23
					c0.86-18.56,16.66-32.96,35.22-32.09l206.27,9.59c18.56,0.86,32.96,16.66,32.09,35.22l-3.64,78.23
					C1733.68,635.29,1717.88,649.69,1699.32,648.83z M1499.66,497.15c-16.65-0.77-30.82,12.14-31.6,28.79l-3.63,78.23
					c-0.77,16.65,12.14,30.82,28.79,31.6l206.27,9.59c16.65,0.78,30.82-12.14,31.6-28.79l3.64-78.23
					c0.77-16.65-12.14-30.82-28.79-31.6L1499.66,497.15z"/>
			</g>
			<g>
				
					<linearGradient id="SVGID_29_" gradientUnits="userSpaceOnUse" x1="1540.7695" y1="801.1949" x2="1790.9855" y2="801.1949" gradientTransform="matrix(0.9989 0.0464 -0.0464 0.9989 -27.3013 -306.3546)">
					<stop  offset="0" style="stop-color:#AFCBEB"/>
					<stop  offset="1" style="stop-color:#73A5D9"/>
				</linearGradient>
				<path class="st38" d="M1690.92,637.47l-188.44-8.76c-16.96-0.79-30.16-14.26-29.42-30.03l3.09-66.47
					c0.73-15.77,15.12-27.96,32.08-27.17l188.44,8.76c16.96,0.79,30.15,14.26,29.42,30.03l-3.09,66.47
					C1722.26,626.07,1707.87,638.25,1690.92,637.47z M1508.09,507.99c-15.21-0.71-28.12,10.23-28.78,24.37l-3.09,66.47
					c-0.66,14.15,11.18,26.23,26.39,26.94l188.44,8.76c15.21,0.71,28.12-10.22,28.78-24.37l3.09-66.47
					c0.66-14.15-11.18-26.23-26.39-26.94L1508.09,507.99z"/>
			</g>
			<g>
				
					<linearGradient id="SVGID_30_" gradientUnits="userSpaceOnUse" x1="1602.0367" y1="769.8102" x2="1732.1375" y2="769.8102" gradientTransform="matrix(0.9989 0.0464 -0.0464 0.9989 -27.3013 -306.3546)">
					<stop  offset="0" style="stop-color:#AFCBEB"/>
					<stop  offset="1" style="stop-color:#73A5D9"/>
				</linearGradient>
				<polygon class="st39" points="1666.73,553.38 1536.77,547.34 1537.74,526.54 1667.69,532.59 				"/>
				
					<linearGradient id="SVGID_31_" gradientUnits="userSpaceOnUse" x1="1563.0048" y1="822.7147" x2="1642.3684" y2="822.7147" gradientTransform="matrix(0.9989 0.0464 -0.0464 0.9989 -27.3013 -306.3546)">
					<stop  offset="0" style="stop-color:#AFCBEB"/>
					<stop  offset="1" style="stop-color:#73A5D9"/>
				</linearGradient>
				<polygon class="st40" points="1574.6,602.06 1495.33,598.38 1496.29,577.58 1575.57,581.27 				"/>
				
					<linearGradient id="SVGID_32_" gradientUnits="userSpaceOnUse" x1="1679.2264" y1="822.7181" x2="1758.5878" y2="822.7181" gradientTransform="matrix(0.9989 0.0464 -0.0464 0.9989 -27.3013 -306.3546)">
					<stop  offset="0" style="stop-color:#AFCBEB"/>
					<stop  offset="1" style="stop-color:#73A5D9"/>
				</linearGradient>
				<polygon class="st41" points="1690.69,607.45 1611.42,603.77 1612.39,582.98 1691.66,586.66 				"/>
			</g>
		</g>
		<g>
			<polygon class="st0" points="1957.29,906.09 1739.21,965.28 1712.5,806.72 1936.93,785.25 			"/>
			
				<linearGradient id="SVGID_33_" gradientUnits="userSpaceOnUse" x1="1571.7389" y1="266.8933" x2="1663.8053" y2="266.8933" gradientTransform="matrix(0.9861 -0.1662 0.1662 0.9861 103.0697 888.8524)">
				<stop  offset="0" style="stop-color:#B9E3FF"/>
				<stop  offset="0.3539" style="stop-color:#D4EDFF"/>
				<stop  offset="0.7539" style="stop-color:#ECF7FF"/>
				<stop  offset="1" style="stop-color:#F5FAFF"/>
			</linearGradient>
			<path class="st42" d="M1729.14,720.08l-58.91,9.93l54.19,321.61l58.91-9.93c17.6-2.96,29.46-19.63,26.49-37.23l-43.45-257.89
				C1763.41,728.97,1746.74,717.11,1729.14,720.08z"/>
			
				<rect x="1692.1" y="743.96" transform="matrix(0.9861 -0.1662 0.1662 0.9861 -124.538 294.0074)" class="st7" width="5.26" height="294.58"/>
			<g>
				
					<linearGradient id="SVGID_34_" gradientUnits="userSpaceOnUse" x1="1821.6057" y1="266.9059" x2="1888.5284" y2="266.9059" gradientTransform="matrix(0.9861 -0.1662 0.1662 0.9861 103.0697 888.8524)">
					<stop  offset="0" style="stop-color:#B9E3FF"/>
					<stop  offset="0.3539" style="stop-color:#D4EDFF"/>
					<stop  offset="0.7539" style="stop-color:#ECF7FF"/>
					<stop  offset="1" style="stop-color:#F5FAFF"/>
				</linearGradient>
				<path class="st43" d="M1966.34,754.41l-37.54,6.33l29.84,177.11l37.55-6.32c15.71-2.65,26.29-17.52,23.65-33.23l-20.26-120.23
					C1996.93,762.35,1982.05,751.77,1966.34,754.41z"/>
				<path class="st0" d="M1966.34,754.41l-2.81,0.47L1993.37,932l2.82-0.47c15.71-2.65,26.29-17.52,23.65-33.23l-20.26-120.23
					C1996.93,762.35,1982.05,751.77,1966.34,754.41z"/>
			</g>
		</g>
		<g>
			<g>
				<path class="st7" d="M1397.36,991.26l-4.67-5.94l4.29-7.19l-8.49-10.82l-7.9,2.59l-4.55-5.8l35.34-10.7l4.54,5.78
					L1397.36,991.26z M1400.17,972.8l7.12-11.61l-12.91,4.23L1400.17,972.8z"/>
				<path class="st7" d="M1423.18,1003.67l2.48,6.62c-3.59,1.51-6.85,1.88-9.76,1.11c-2.92-0.76-5.52-2.6-7.79-5.5
					c-2.82-3.59-3.91-7.51-3.27-11.75c0.64-4.24,3.09-8.03,7.35-11.38c4.5-3.54,8.91-5.12,13.23-4.75
					c4.32,0.37,7.96,2.45,10.94,6.24c2.6,3.31,3.73,6.77,3.4,10.37c-0.19,2.14-1.13,4.37-2.81,6.68l-5.54-4.4
					c1.15-1.42,1.73-2.96,1.75-4.61c0.01-1.65-0.55-3.21-1.69-4.66c-1.58-2.01-3.57-3.07-5.99-3.19c-2.42-0.12-5.24,1.09-8.47,3.62
					c-3.42,2.68-5.38,5.21-5.86,7.58c-0.49,2.37,0.04,4.54,1.59,6.51c1.14,1.45,2.58,2.34,4.33,2.66
					C1418.8,1005.16,1420.84,1004.77,1423.18,1003.67z"/>
				<path class="st7" d="M1444.61,1030.97l2.48,6.62c-3.59,1.51-6.84,1.88-9.76,1.11c-2.92-0.76-5.51-2.6-7.79-5.5
					c-2.82-3.59-3.91-7.51-3.27-11.75c0.64-4.24,3.09-8.03,7.35-11.38c4.5-3.54,8.92-5.12,13.23-4.75
					c4.32,0.37,7.96,2.45,10.94,6.24c2.6,3.31,3.73,6.77,3.4,10.37c-0.19,2.14-1.13,4.37-2.81,6.68l-5.54-4.39
					c1.15-1.42,1.73-2.96,1.75-4.61c0.02-1.65-0.55-3.21-1.69-4.66c-1.57-2.01-3.57-3.07-5.99-3.19c-2.42-0.12-5.24,1.09-8.47,3.62
					c-3.42,2.69-5.38,5.21-5.86,7.58c-0.49,2.37,0.04,4.54,1.59,6.51c1.14,1.45,2.58,2.34,4.33,2.66
					C1440.23,1032.46,1442.27,1032.07,1444.61,1030.97z"/>
				<path class="st7" d="M1442.5,1048.77l27.06-21.24l15.75,20.07l-4.58,3.59l-11.46-14.6l-6,4.71l10.67,13.59l-4.56,3.58
					l-10.66-13.59l-7.37,5.78l11.87,15.12l-4.56,3.58L1442.5,1048.77z"/>
				<path class="st7" d="M1462.29,1073.98l27.06-21.24l6.88,8.77c2.61,3.32,4.17,5.59,4.69,6.82c0.81,1.87,0.95,3.86,0.41,5.97
					c-0.54,2.11-1.89,4.02-4.04,5.71c-1.66,1.3-3.3,2.1-4.9,2.38c-1.61,0.29-3.1,0.22-4.47-0.21c-1.38-0.42-2.54-1.03-3.51-1.83
					c-1.28-1.1-2.89-2.89-4.84-5.36l-2.8-3.56l-10.21,8.01L1462.29,1073.98z M1489.06,1061.8l-7.68,6.03l2.35,2.99
					c1.69,2.15,2.96,3.48,3.81,3.99c0.85,0.5,1.74,0.73,2.67,0.67c0.93-0.06,1.79-0.41,2.59-1.03c0.98-0.77,1.57-1.7,1.76-2.78
					c0.19-1.08,0.01-2.13-0.52-3.14c-0.39-0.75-1.36-2.11-2.9-4.08L1489.06,1061.8z"/>
				<path class="st7" d="M1486.86,1105.29l22.48-17.65l-6.3-8.03l4.58-3.59l16.88,21.51l-4.58,3.59l-6.29-8.01l-22.48,17.65
					L1486.86,1105.29z"/>
				<path class="st7" d="M1500.21,1122.29l27.06-21.24l15.75,20.07l-4.58,3.59l-11.46-14.6l-6,4.71l10.66,13.59l-4.56,3.58
					l-10.66-13.59l-7.37,5.78l11.87,15.12l-4.56,3.58L1500.21,1122.29z"/>
				<path class="st7" d="M1547.05,1126.25l7.84,9.99c1.77,2.25,2.94,4.11,3.52,5.56c0.78,1.95,1.02,3.97,0.71,6.04
					c-0.3,2.07-1.09,4.08-2.36,6.03c-1.27,1.95-3.17,3.92-5.7,5.91c-2.23,1.75-4.36,2.98-6.41,3.69c-2.5,0.87-4.85,1.15-7.06,0.85
					c-1.67-0.22-3.39-0.94-5.17-2.14c-1.33-0.91-2.78-2.37-4.37-4.39l-8.07-10.28L1547.05,1126.25z M1546.76,1135.31l-17.92,14.07
					l3.2,4.08c1.2,1.53,2.15,2.56,2.85,3.1c0.92,0.71,1.87,1.15,2.86,1.32c0.99,0.17,2.23-0.04,3.73-0.62
					c1.5-0.58,3.3-1.69,5.39-3.34c2.09-1.64,3.55-3.09,4.38-4.34c0.83-1.25,1.3-2.45,1.4-3.61c0.11-1.16-0.13-2.34-0.71-3.53
					c-0.43-0.9-1.51-2.46-3.26-4.69L1546.76,1135.31z"/>
			</g>
			<g>
				<path class="st7" d="M1533.11,1205.43l-192.42-245.15l94.89-74.48l192.42,245.15L1533.11,1205.43z M1349.04,961.29
					l185.07,235.79l85.53-67.13l-185.07-235.79L1349.04,961.29z"/>
			</g>
			<g>
				<polygon class="st7" points="1446.38,970.57 1447.97,979.24 1453.89,972.71 1462.62,973.87 1458.23,966.23 1462.04,958.28 
					1453.42,960.09 1447.04,954.02 1446.09,962.78 1438.34,966.97 				"/>
				<polygon class="st7" points="1497.3,1035.45 1498.89,1044.12 1504.81,1037.58 1513.54,1038.75 1509.15,1031.11 1512.96,1023.16 
					1504.34,1024.97 1497.96,1018.89 1497.01,1027.65 1489.26,1031.84 				"/>
				<polygon class="st7" points="1548.22,1100.32 1549.81,1108.99 1555.73,1102.45 1564.46,1103.62 1560.07,1095.98 
					1563.88,1088.03 1555.26,1089.84 1548.88,1083.77 1547.93,1092.53 1540.18,1096.72 				"/>
			</g>
		</g>
	</g>
	<g>
		<path class="st4" d="M528.18,100.66l9.33-48.41c0,0-6.09-11.39-9.11-17.55c-1.44-2.94-0.66-7.33,1.38-15.91
			c2.83-11.96,8.16-21.55,19.94-18.06c5.39,1.59,18.82,8.47,24.21,14.21c10.02,10.69,5.72,28.16,2.98,36.17
			c-0.92,2.68-2.59,5.05-4.76,6.87l-5.08,4.27l-17.12,48.33L528.18,100.66z"/>
		<path class="st4" d="M52.04,507.07l-9.33-48.41c0,0,6.09-11.39,9.1-17.55c1.44-2.94,0.66-7.33-1.38-15.91
			c-2.83-11.96-8.16-21.55-19.94-18.06c-5.39,1.59-18.82,8.47-24.21,14.21c-10.02,10.69-5.72,28.16-2.98,36.17
			c0.92,2.68,2.59,5.04,4.76,6.87l5.08,4.27l17.12,48.33L52.04,507.07z"/>
		<path class="st10" d="M398.48,321.85c0,0,58.84-60.92,133.25-260.72c6.47-1.83,35.09,13.33,35.09,13.33
			s-31.21,178.87-106.38,353.99C454.46,419.65,399.83,338.96,398.48,321.85z"/>
		<path class="st10" d="M458.9,480.39c0,0,54.03,119.73,126.51,141.16c0.64,0.19-18.74,76.17-113.99,76.81
			C425.58,675.19,458.9,480.39,458.9,480.39z"/>
		<path class="st10" d="M480.69,667.36c0,0,74.76,71.31,81.86,262.24c0.58,15.55-8.01,42.5-32.18,55.31
			c-29.86,15.82-139.19,6.86-221.86,0.81c-6.47-14.5,4.2-40.04,6.89-42.36c7.24-6.24,146.24-26.9,146.24-26.9
			s-11.46-43.58-49.71-112.63c-2.34-4.22-78.97-19.32-62.54-111.07C360.66,629.9,457.43,652.8,480.69,667.36z"/>
		<path class="st5" d="M162.19,973.72l-51.75-14.53c0,0-6.95-12.18-17.98-3.65c-11.04,8.52-18.77,33.15-18.01,39.07
			c1.59,12.34,28-17.81,28-17.81l64.09,17.7L162.19,973.72z"/>
		<g>
			<path class="st9" d="M102.29,978.61c0,0-28.82,41.72-39.88,40.27c-17.67-2.3,15.39-68.33,27.57-73.1
				c11.69-4.58,19.28,10.18,19.28,10.18S97.77,960.95,102.29,978.61z"/>
			<path class="st44" d="M98.5,981.4c0,0-1.83-6.14-5.7-9.57C89.81,970.49,97.25,988.31,98.5,981.4z"/>
			<path class="st44" d="M91.66,989.57c0,0-1.83-6.09-5.71-9.48C82.96,978.77,90.41,996.42,91.66,989.57z"/>
			<path class="st44" d="M85.8,997.47c0,0-1.64-5.23-5.12-8.13C78,988.2,84.67,1003.35,85.8,997.47z"/>
		</g>
		<path class="st28" d="M346.17,950.84l-53.43-5.8c0,0-8.86-10.87-18.34-0.64c-9.48,10.23-13.04,35.79-11.31,41.51
			c3.6,11.91,24.67-22.19,24.67-22.19l66.13,6.88L346.17,950.84z"/>
		<g>
			<path class="st9" d="M287.89,965.54c0,0-21.54,45.9-32.68,46.3c-17.81,0.64,3.9-69.94,15.13-76.65
				c10.78-6.45,20.7,6.86,20.7,6.86S280.53,948.86,287.89,965.54z"/>
			<path class="st44" d="M284.62,968.91c0,0-2.82-5.76-7.2-8.5C274.25,959.59,284.53,975.94,284.62,968.91z"/>
			<path class="st44" d="M279.22,978.1c0,0-2.81-5.7-7.2-8.41C268.85,968.88,279.11,985.07,279.22,978.1z"/>
			<path class="st44" d="M274.74,986.86c0,0-2.48-4.88-6.39-7.18C265.52,979.01,274.6,992.85,274.74,986.86z"/>
		</g>
		<path class="st0" d="M435.01,703.8c0,0,15.13,81.95-61.75,292.65c-5.88,16.11-31.74,42.34-59.21,48.65
			c-33.93,7.78-114.63-25.01-194.71-56.56c-2.37-17.41,4.69-27,7.99-28.65c8.9-4.44,151.58-2.59,151.58-2.59
			s13.7-98.07,15.52-131.03c0.29-5.3-30.95-57.25,4.8-128.73C327.53,640.96,416.05,681.22,435.01,703.8z"/>
		<path class="st10" d="M363.17,328.51c0,0,35.31-11.33,38.64-10.66c3.33,0.67,111.26,148.57,101.93,273.16
			C498.42,573.02,439.12,415.79,363.17,328.51z"/>
		<path class="st4" d="M271.74,267.66l82.99,140.91c0,0-96.52,30.9-100.16,11.44c-14.21-75.95-31.52-112.36-31.52-112.36
			l45.06-40.55C269.23,266.1,270.98,266.37,271.74,267.66z"/>
		<path class="st7" d="M382.94,323.63c-6.39-8.77-64.19,20.67-64.19,20.67s-1.02,63.52-73.64,42.16
			c-39.99,9.48-72.15,46.35-72.15,46.35s104.64,160.7,116.64,239.47c10.43,47.38,202.93,24.14,202.93,24.14
			S568.6,578.13,382.94,323.63z"/>
		<path class="st10" d="M218.54,434.45c-15.92,3.19-37.63-22.66-47.47,3.78c-19.96,53.63-25.1,133.98-23.86,137.72
			C152,590.3,70.69,541.71,54.7,468.43c-0.13-0.61-42.64,25.32-42.64,25.32s35.98,163.9,127.63,177.23
			c59.8,8.7,127.54-155.37,127.54-155.37S241.73,429.81,218.54,434.45z"/>
		<g>
			<path class="st4" d="M208.77,233.9c-1.31,3.65-22.47,49.75,30.35,85.05c22.79,19.7,62.8,2.88,50.83-39.73
				C277.98,236.6,223.29,193.35,208.77,233.9z"/>
			<path class="st0" d="M197.7,259.8c0,0-19.93-55.37,40.83-76.6c2.6-0.91,5.49-1.14,8.11-0.28c9.81,3.23,5.28,16.5-2.04,22.91
				c11.1-8.78,28.95-4.91,15.56,13.11c7.15-0.61,13.49,12.18,5.82,20.7c-0.37-1.03-12.82-13.35-25.23-9.35
				c-7.44,2.4-26.95,10.95-29.61,20.62c-5.71,20.78,3.51,44.95,3.51,44.95S199.96,276.59,197.7,259.8z"/>
			<path class="st4" d="M212.15,280.58c0,0-19.25-2.28-9.07,11.24c8.09,10.73,18.41,3.16,18.41,3.16L212.15,280.58z"/>
			<path class="st0" d="M272.63,283.06c-1.57-0.41-3.24-0.2-4.63,0.63c-0.97,0.58-2.04,1.2-2.72,1.53c-1.67,0.81-2.8,2.39-3.16,4.21
				c-2.28,11.84-9.49,27.33-32.24,13.08c-11.2-7.55-13.68-4.95-13.68-4.95s22.67,67.58,76.53,58.19
				c33.07-5.76,46.13-60.5-6.69-86.37C289.46,283.8,280.78,285.21,272.63,283.06z"/>
		</g>
		<path class="st10" d="M500.42,680.95l4,21.99c0,0-159.21,27.58-208.75-6.44c-3.18-0.99-2.8-16.86-2.8-16.86
			S396.94,702.13,500.42,680.95z"/>
		<path class="st10" d="M212.82,396.47c0,0-42.64,27.54-43.53,43.53c2.66,9.77,148.35,205.65,45.3,258.95
			c-1.78,4.44,17.77,50.19,90.61,62.63C332.75,696.72,361.17,535.94,212.82,396.47z"/>
		<path class="st0" d="M190.62,410.68l21.76-14.66c0,0,90.17,75.51,103.49,167.89c0.45-3.55-70.62-76.84-76.84-78.17
			c1.78-2.66,27.98-18.65,27.98-18.65l-31.98,7.55L190.62,410.68z"/>
		<path class="st0" d="M346.07,329.4c0,0,25.32-9.77,33.31-9.77c3.24,0,37.45,20.04,55.96,56.41c2.08,4.08-2.22,7.99-3.55,15.1
			c-0.23,1.23,7.48-2.46,9.33,1.33c24.16,49.73,49.85,119.27,55.96,151.9C497.97,541.26,428.69,423.56,346.07,329.4z"/>
		<path class="st9" d="M288.78,391.36l17.99-25.32l26.65,4l-2.67,21.99c0,0,20.65,38.31,60.63,55.96
			c75.36,33.28,173.22,39.3,193.21,73.95c-0.67-2,2,54.63,2,54.63l-59.29-21.32c0,0-25.78-46.04-124.59-73.29
			c-71.29-19.65-84.28-80.61-84.28-80.61L288.78,391.36z"/>
		<path class="st27" d="M220.82,394.69c0,0,36.73,16.43,71.95,17.32c1.01-7.08,12.81-41.09,12.81-41.09l36.49,6.89
			c0,0,9.45-26.94-2.22-43.97c-6.15-0.04-19.99,6.66-19.99,6.66s-4.44,38.2-79.49,40.57C229.17,382.7,220.82,394.69,220.82,394.69z"
			/>
	</g>
	<path class="st4" d="M605.42,1471c0,19.49-115.73,35.29-258.48,35.29c-142.76,0-258.48-15.8-258.48-35.29
		c0-19.49,115.73-35.29,258.48-35.29C489.69,1435.71,605.42,1451.51,605.42,1471z"/>
</g>
</svg>
