<svg xmlns="http://www.w3.org/2000/svg" viewBox="0 0 512 512"><link xmlns="" type="text/css" rel="stylesheet" id="dark-mode-custom-link"/><link xmlns="" type="text/css" rel="stylesheet" id="dark-mode-general-link"/><style xmlns="" lang="en" type="text/css" id="dark-mode-custom-style"/><style xmlns="" lang="en" type="text/css" id="dark-mode-native-style"/><path fill="#00121d" d="M134.5 316.4c.2-.4-1.4-1.5 1.4-.8 2.3.6 4.4 1.4 6.4 2.1s4 1.5 6 2.2c3.9 1.6 7.9 3 12.5 4l.9-.6c6.9 2.2 14.2 4.5 21.7 6.5 14 2.9 28.1 5.1 42.2 6.3-.3-.3-.5-.6.9-.6 2.9.2 6.4.6 10.3.9 3.8.3 8 .7 12.2.9h3.7c1-.1 1.2-.4 1.4-.6 1.9.1 3.7.1 5.4.1s3.4.1 4.9.1l3.9-.2 3.9-.3 7.8-.6 7.8-.9 3.9-.5 3.9-.6c2.6-.4 5.2-.8 7.8-1.3 2.6-.5 5.2-1 7.8-1.6l3.9-.8 3.9-1c2.6-.6 5.2-1.3 7.8-1.9 2.6-.8 5.1-1.5 7.7-2.3 1.3-.4 2.6-.8 3.9-1.1 1.3-.4 2.6-.9 3.8-1.3 2.6-.9 5.1-1.8 7.7-2.6 2.5-1 5.1-2 7.6-3 1.3-.5 2.6-1 3.8-1.5 1.3-.6 2.5-1.1 3.8-1.7 2.5-1.1 5.1-2.2 7.6-3.4 5-2.5 10.1-4.8 15-7.6 2.1-1.2 4.1-2.4 6.2-3.6 2-1.3 4-2.6 6-3.8 2-1.3 4-2.5 5.9-3.8s3.8-2.6 5.8-3.9c1.4-.9 2.9-1.8 4.4-2.8s3-2 4.6-3.1c1.6-1 3.1-2.1 4.7-3.1 1.6-1.1 3.1-2.2 4.7-3.3 6.3-4.3 12.3-9.1 17.5-13.2-1.7-.4 3.4-6.1 7.8-11.5 4.3-5.5 8.2-10.6 4.9-9.4 1.6-1.4 3.2-3.2 4.9-5 1.7-1.8 3.4-3.5 4.9-5.1 2.9-3.3 5-6 4.9-6.5-.2-1.5.3-3.9 2.5-8.2 2.1-4.3 6-10.5 11.7-20 2.3-3.6 5.4-8.1 7.9-12.2 2.5-4 4.4-7.6 4.9-9 .4-1.2.2-1.2-.4-.6-.5.6-1.3 1.7-2.1 2.8-1.6 2.2-3.3 4.4-2.5 2.2-7.7 13.6-17.2 26.2-27.8 38.1-10.5 12-21.8 23.1-33.9 33.3-24.2 20.3-51.9 36.7-82.4 47.6-5.1 2.1-17.7 6.9-35 10.6-2.2.5-4.4.9-6.7 1.4-2.3.4-4.7.8-7.1 1.2-1.2.2-2.4.4-3.7.6-1.2.2-2.5.3-3.8.5-2.5.3-5.1.7-7.7 1-10.5 1.1-21.6 1.6-32.9 1.5-11.3-.1-22.7-1-33.7-2.3s-21.7-3.2-31.4-5.2c-19.5-4.2-35.6-9.2-44.8-12.4-1.1-.4-2.3-.7-3.4-1.1-10.1-3.4-21-7.4-30.9-12s-18.7-9.9-25.5-14.9c-6.3-4.4-12.4-9.6-17.8-15.5.9 1.6 1.9 3.1 2.8 4.6 1 1.4 1.8 2.8 2.7 4.1-5.5-6.1-10.1-12.9-12.1-15.4-1.3-1.8-2.2-3.3-3.1-4.4-.8-1.2-1.4-2-1.9-2.6-.9-1.1-1.3-1.2-1.4-.5-.1.7.2 2.1.6 3.7.4 1.6 1 3.6 1.5 5.3 1 2.4.3 2.3-.2 2.5-.2.1-.4.3-.4.9.1.6.5 1.7 1.5 3.4-3.2-4.9-4.7-7.4-7.4-12.7-.3-.1.2.9.9 2.3s1.8 3.3 2.9 5c2.1 3.5 4.3 6.5 2.6 5.2-2.9-4.9-6.5-10.2-8.9-15.6-.1 1.2 2 5.9 4.4 10.1 2.3 4.2 4.8 7.9 4.1 7.8-.5-.6-1.3-1.9-2.2-3.4-.8-1.5-1.8-3.3-2.7-5.1-.4-.9-.9-1.7-1.3-2.6l-1.1-2.2c-.7-1.3-1.3-2.2-1.7-2.3s2.3 5.3 3.8 7.9c-4.8-7.9-7.8-14.5-9.2-17-.7-1.2-1.1-1.4-1-.2s.7 3.7 2.1 7.9c-1.2-2.8-2.4-6.2-3.5-9.7-.5-1.8-1-3.5-1.5-5.2-.4-1.7-.9-3.4-1.3-4.9v.1c.4 1.5.8 3.6 1.4 5.7.6 2.1 1.1 4.1 1.6 5.5-1.2-3.4-2.2-6.9-3.1-10.4v2c.5 2.7 1.2 5.3 2.1 8-.4-1.1-.7-2.3-1.1-3.4-.4-1.2-.7-2.3-1-3.5 0 1.9.3 4 .6 6.3 2 8.5 4.6 16.7 7 20.9 2.3 4.3 4.9 8.4 7.7 12.3 2.8 4 5.9 7.7 9.1 11.3 3.3 3.6 6.8 7 10.5 10.1s7.6 6.1 11.5 8.8c8 5.4 16.4 9.8 24.9 13.6 8.9 4.2 17.4 7.4 25.9 10.2z"/><path fill="#00121d" d="M37.4 302.6l61.8-75.4-85.6-9.6z"/><path fill="#00121d" d="M60 268.6c-1 .2-1.7.3-2.7.3-2.5 1.3-6.3 4.5-8.3 4.3-.4-.4.7-4.6 1.4-4.9 5.4-4.6 10.1-4.7 16.1-9.6.6-.3 1.1-3 2-5.2 0 0-.6.3-1.4.8 1.2-3.1 5-6.3 7-9.7-.8.4-.8.4-1.4.5 1.8-.5 3.6-2.2 5.3-4.2.4-.5.9-1 1.3-1.5.3-.3.2-.3.3-.4l.2-.3c.3-.4.5-.7.7-1 .4-.2.9-.3 1.4-.5.3-.7.8-1.3 1.4-2 .5-.6.9-1.4.5-1.6-1.3.2-1.8 0-2.6-.2-.7-.2-1.7-.4-2.7-.4l-1.2-.3-.3-.1-.2-.1-.5-.1-1.9-.4c-2.6-.5-5.1-1-7.7-1.4-5.1-.8-10.2-1.2-14.9-.3-1.6.3-4.4-.1-6.8-1.5-3 1.4-7.2 1.5-11.5 1.1-1.1-.1-2.2-.2-3.3-.4-.4 0-.3 0-.4-.1h-.1l-.3-.1c-.4-.1-.8-.4-1.2-.5-.3-.1-.8-.5-1.5-1.1s-1.6-1.3-2.5-1.9c-.1.1-.3.2-.4.4 1.1 1.9 2.1 3.2 2.7 4.1.3.5.6.8.8 1.2l.1.2v.1l.1.3.2.6c.3.9.5 1.7.8 2.6 3 9.7 6.1 19.3 7.9 30.4.3 1.5 1.5 4.2 2.4 5.6-.1.7-.2 1.4-.3 2.2 1.9 6.2 4.9 11.6 5.8 17.2 1.1 7.7-2.3 9.5-5.2 11.3-4.4-7.4-12.1-13.7-13.2-26.4-.1-3.6-2.7-8.3-4.3-12.4-1.7-3.4-1.1-7.7-4-10.3.6-2.6.6-6.7 0-11.1-.3-2.2-.7-4.5-1.3-6.7-.6-2.4-1.4-4.9-2.4-7.3.1-.7.6.2.6-1-1.8-3.8-3.5-8.2-5-12.7 4.8.2 10.4.7 16.1 1.3 2.6.2 5.3.5 8 .8 2.3.2 4.6.4 6.9.5 6.6.1 14.2 1.9 22.4 1.7.8-.2 4.1 1.1 6.3 1.1.8-.2 1.6-.3 2.4-.5 1.4.2 2.9.3 4.4.5.8.1 1.6.2 2.4.2 1 .1 2.1.2 3.1.3 4.1.5 7.8 1 10.1 1.9 2.4.7 4.8 1.1 7.2 1.4 2.4.4 4.7.6 6.7 1-.6.7-1.3 1.4-2 2.1-3.4 3.4-6.4 7.2-9.6 11.1-1.6 1.9-3.2 3.8-4.8 5.4-.8.8-1.6 1.5-2.3 2.1-.7.5-1.3.9-2 1.3-.6.3-1.9 2.2-2.8 3.3-.6.3-1.3.7-1.9 1-.9 1.1-.5 2.7-1.4 3.7-6.3 6.9-13.4 16-19 17.1.4-.4 1.9-3 .3-2.8zM30.8 293.6c-.2-.6-1.2.4-1.7 1.1.9-.2 1.7-.2 3.1-1.2l-1.8 1.9c.1 1.9 1.9-1.7 1.3-.2-1 1-1.9 1.7-2 .8.4 0 .6-.6 1.3-1.1-.6-.7-1.7.2-2.6.4l2.6-3-.2 1.3z"/><path fill="#00121d" d="M37.6 287.7l-.6.6c.2.6 1 .2 1.7-.2-2.9 2.3-1.3-1-3.3.1.3.2 2.1-1.2 2.2-.5zM36.5 292.8c-1.8.5-2.1 2.3-3.4 1.8l3.6-2.4-.2.6zM53.3 271.5c.5-1.2.2-.6 1.6-2l-1.9 2.2.3-.2zM85.5 234.2c-1.6.9-3.1 1.5-3.9 2.1.2-.3 1-.7 1.9-1.1.8-.4 1.7-.9 2-1zM78.9 227c.2-.4-.5-.6.6-.7.4.3-.6 1.2 1.1.8l-1.7-.1zM77.4 224.6l-1.1-.9c0 .1.4.5 1.1.9zM60.6 257.9h.3c0-.1.1-.3.1-.4l-.4.4zM63.7 255.3l-2.4 1.5c0 .2-.1.4-.2.6 1.3-1.1 1.5-.2 2.6-2.1zM61.4 257.9h-.5c-.9 2.3-2.8 2-4.7 4.9 2.2-1.4 4-3.2 5.2-4.9zM60.4 260.6l-.2 1.1c-.6.6-.9.2-1.1.1l-1 1.5c.2 1.1 3.8-3 4.8-4l-2.5 1.3zM55.5 278.3zM60.4 275.7l-1-1.1c-1.3 1.9-2.4 1.5-3.9 3.7v.1c1.8.2 2.8-2.1 4.9-2.7zM66.9 253.9c-1.5 1.7-2.6 3-2.4 4.1l3-3c-1.5.8-.4-.5-.6-1.1zM71.4 253l-1.2 1.6.9-.4c-.1-.2 0-.6.3-1.2z"/><path fill="#00121d" d="M71.1 254.2c.1.2.5.1 1-.4l-1 .4zM69.5 258c1.6-.3.6-1 2.2-2.6-.7-.8-1.5 1.8-2.2 2.6zM75.8 251.1l1.1-.1-.7-.8zM80.8 237.8c.2.4.5.5.9.3.4-.1.8-.4 1.2-.4-.7.1-1.4.1-2.1.1zM79.3 250.7l-1.2-.1.2.6c-.4.4-.9 1.2-1.5 1.3.5 1.2 1.6-1 2.5-1.8zM82.9 242.4c.6-.4 1.1-.6 1.7-1M78.8 257c.3.3 3.4-1.3.8 1.3 1-1 2.2-2.6 2.1-1.1 1.5-1.7-.7-.8-.1-2.3-.5 1.4-1.9 1.4-2.8 2.1zM83.1 253.3c.9-.7 2-1.5 2.1-2.3-.7.9-2.1 1.1-2.1 2.3zM85.7 254.1l-1.7.7 1.4-.1z"/><path fill="none" d="M93.8 232.8l-2.3.5"/><path fill="#00121d" d="M89.9 249l-2.5 3.2 2.8-2.4c.9-2.1-.1-1.5-1.3-.5.4-.3.7-.4 1-.3zM85.7 251.2l-.5 1.2c.2.2 1.3-1.2 2.5-2.3-.8.7-1.6 1.2-2 1.1zM87.8 250.1c.4-.3.7-.6 1.1-.8-.4.2-.7.5-1.1.8zM93.9 228l2.4.4-.4.5c.2-.2.5-.4.7-.6-.6-.3-1.5-.4-2.7-.3zM93.6 246.5l.6-.7-.8-.7c-1 1.5 0 1.3.2 1.4zM101 240.7c1-.7 1.9-1.8 2.7-3 .8-1.1 1.4-2.2 1.8-2.8-2.6 1.9-4.1 3.8-6.2 6.1 2.2-2.2 1.3-.5 1.7-.3zM108.8 233.4l-4.4 5.2c2.3-.9 2.7-3 4.4-5.2zM114.9 225.3c.2-.4-.6.1-.3-.7-1.4 1-2.4 2.5-3.6 3.8l3.9-3.1zM77.6 253.5c.6-.8 1.2-1.6 1.7-2.3-1.1.9-2.2 1.9-3.2 2.8.5-.1 1-.2 1.5-.5z"/><path fill="#00121d" d="M43.6 281.6c-3-3.7-5.5-11.5-7-15.8-1.8-7.2-6.3-15.6-9.1-23.8h.4c-.3-1.7-.8-3.5-1.3-5.3-.3-.9-.6-1.8-.9-2.8-.1-.5-.3-.9-.4-1.4l-.3-.5c-.6-1.5-1.4-3.3-1.9-4.9l-.7-.3c0 .5.3 1.3-.8.4.1-.8.1-1.7.6-1.4-.4-.5-.9-1-1.3-1.5.2 0 .9.6 1.5 1 .8.6 1.5 1.1 1.7.8-.8-1.1.5-.6 1.3-.2.9.4 1.5.7.8-.6.7.8 1.1.9 1.5.8.4-.1.8-.3 1.2-.3-.2-.4-.4-.8-.7-1.2.5.2.9.5 1.3.8.2.1.4.3.5.4.2.1.2.3.6.4 1.2.6 2.3 1.1 3 1 3.8.2 9 .7 13.1.6.8 1.4-4.3-.5-1.8 1.2 8.1-1.5 18.6 3.2 28.1 2.9-.3-.1-1.1-.4-.4-.5.9.6 1.9.7 3.2.8.3 0 .6 0 1 .1h.4c.3 0 .5.1.7.3.1-.4-.3-.7-.8-.9-.1-.1-1-.2-1.5-.3-.6-.1-1.1-.2-1.4-.3.6-1 .8-.9 1.3-.5.3.2.6.4 1.1.6.3.1.4.2.6.2h.6c-.1-.1-.3-.4-.2-.6 2.1-.2.3 1.4 1.7 1.2-.1-.2-.2-.5-.4-.7 1.4.2.5-.2 2.6-.5-.6.5-.8 1-1 1.4-.1.4-.2.6-.1.7.7-.5 1.4 0 2.6-.9-.6 1.1-.1 1 .7.9.7-.1 1.7-.2.2.7 0 0-.1 0-.1.1.7-.1 1.3-.4 1.9-.8.3-.3.4-.5 1.3-.9.5 0 .8-.1.9 0-.3.4-1 .6-1.7.9-.7.3-1.5.5-1.9.8.2 0 .2.4-.1.9-.3.5-1 1.1-1.9 1.5l1.2-.1c-2.2 1.2-3.6 2.5-4.8 2.1.5.4.7.6 1 .5s.6-.4.8-.7c.8 0 .6.9.1 1.1.1-.2.7 0 .5-.4.8.2-.1.6-.1.9-.7.6-.7.4-.6.1.1-.3.1-.7-.3-.5 0 .1-.1.3-.2.5 0 .1 0 .1-.1.2l-.2.3c-.1.2-.3.4-.4.6-.5.8-.7 1.4.3 1.1-2 2.5-1.7.2-3.1 1.2 1.1-.7 1.4-1.5 1.8-2.2.2-.4.3-.7.6-1l.4-.4c.1-.1.2-.1.3-.2h.2c-.2-.4-.5-.5-.9-.6-1.5 2.2-5.4 5.5-4.4 6.1l-1.4.5-.2 1.5-.5.3c1.7-.2 3.8-1.7 5.2-1.8.5.2-.7 1.3-1.2 2.1l-1.2-.1c-1.6 1.6.3 2.5-2 4.6.3-2.3-3.7 1.4-5.7 2.5.2 3.2 1.5.9 1.7 3.7-1.5 1.7-3.3 4.8-5.6 6.5 4.2-5.1-3.3 1.5-.5-3.1-.9.7-1.2 1.6-2 2.5-1.9-.4 0-2.2-2-1.8l.6 1.1c-1.7.7-3.3.5-5.6 2.7.2.6-.3 2.3-1.4 3.1-1-.2-1.4-.3-3.2 1.9-1.8 5.7 5.9-2.4 8.2-1.9 5.5-5.8 9.9-2.5 17.1-9.4.4-1.7-.1-1.4 1.5-3.9-.2-2.8-4 2.3-6.1 3 .3-.9.7-1.8 1.5-2.2l-1.6-.1c2.6-4 3.2-.7 5.4-4.2l-.3.9 1.2-2.1-.5.3c.9-1.2.4-2.1 2.2-3.5l-.5 2c.3-1.4 1.7-.6 2.5-2.3-.2 1.1 0 1.7-.3 2.2 2.1-1.7 3.8-3.4 5.3-5.1 2.2-3.1 4.3-5.7 6.8-8.5s5.4-5.7 8.9-9.1l-.3-.1v.2c-.3.3-.6.5-.8.6 0-.1.1-.2.2-.4-1.2-.1-1.1-.5-1-1-1.2-.4-2.3-.7-3.5-1.1-3.7-.2-6.6-.3-10.6-.9.2-.6.6-.8 1.2-.8-1.7-.1-2.7 0-1.6.8-2.6-.1-3.5-.9-5.5-1.2 1.6-.2 3.2-.4 5-.5-.9-.3-1.5-.2-2.2 0s-1.3.3-2.6-.1h-1.1c-.2 0-.3.1-.3.2s.2.3.6.5c.8.5 2 1 1.6 1.5l-1.4-.3c.5.5.9 1 1.2 1.5-1.4-.4-2.5-.9-3.4-1.4s-1.5-1.1-2.1-1.5l2.2.7c1-1.4-3.7-.6-4.6-1.6l.3-.1c-3.4-.5.6.9-1.7.8l-3.9-1.7.6 1.1c-2.4.3-6.9-1.7-10.8-2.5-2.2-.5-5.3-.1-8.2-.2.5.3 1.6.7 1.2.9-1.7-.2-5.4-.6-4-1.5l-2.5.5c-.9-.1-1.5-.3-2.1-.6l.6.5h-3c.1-.2-1-.8.5-.7-1.6-.8-3.4-.7-5.5-.6-.5 0-1.1 0-1.6.1h-1.9c-1.3 0-2.6-.1-4-.5l1.6-.3c-1.6.2-2.6-.1-3.7-.5s-2.4-.8-4.1-.6l1.4.9c-1.2.1-3.1-.3-4.9-.8s-3.4-1.1-3.4-1.4c1.4 1.5-.3.5-1.3.4.1.4.4 1 1.2 2-.6-.1-1.3-.1-1.9-.1 1.2 2.4 2 4.2 2.8 3.8-.3 2 .3 4.5 2 6.3l.1.1.1.1c.3.6.7 3 1.2 2.1.8 2.8.5 3.5.4 4.4-.1.4-.2.8-.1 1.5 0 .6.2 1.4.5 2.6l1.3-.1c.8 3.9 2.9 7.4 4.5 10.1l-.9.7c.8 1.9.9-.7 2 2.3-.1.5-.3 1-.6 1 .9 3 1.4 7.1 2.6 11.7-.2 0-.6-.5-.8-.8.6 1.9 1.9 4.9 2.9 7.1-.3 5.7.6 13.5 2.9 20.4 4 4.6 8 7.3 11.2 6.9.8-2.3 1.3-8.3.9-15.8z"/></svg>