<?xml version="1.0" encoding="utf-8"?>
<!-- Generator: Adobe Illustrator 24.0.2, SVG Export Plug-In . SVG Version: 6.00 Build 0)  -->
<svg version="1.1" id="Capa_2" xmlns="http://www.w3.org/2000/svg" xmlns:xlink="http://www.w3.org/1999/xlink" x="0px" y="0px"
	 viewBox="0 0 1489.51 859.02" style="enable-background:new 0 0 1489.51 859.02;" xml:space="preserve">
<style type="text/css">
	.st0{fill:#ED9A9A;}
	.st1{fill:#AD524D;}
	.st2{fill:#FED6CE;}
	.st3{fill:#3E68C3;}
	.st4{fill:#4E75C8;}
	.st5{fill:#1E2C40;}
	.st6{fill:#EA8888;}
	.st7{fill:#1368AD;}
	.st8{fill:#FFFFFF;}
	.st9{fill:#265189;}
	.st10{fill:#EA6968;}
	.st11{fill:#426BC5;}
	.st12{fill:#3662C1;}
	.st13{fill:#A84743;}
	.st14{fill:#18223B;}
	.st15{fill:#00C2FF;}
	.st16{fill:#4996D6;}
	.st17{fill:#D9F0FF;}
	.st18{fill:#6D89CF;}
	.st19{fill:#001729;}
	.st20{fill:#88C9FF;}
	.st21{fill:#010117;}
	.st22{fill:#93B3F4;}
	.st23{opacity:0.91;fill:#00C2FF;}
	.st24{fill:#A13934;}
	.st25{fill:#A74541;}
	.st26{fill:#FA7269;}
	.st27{fill:#0D0D38;}
	.st28{fill:#EC9292;}
	.st29{fill:#0B0754;}
	.st30{fill:#BED2FA;}
	.st31{fill:#9E332E;}
</style>
<g>
	<g>
		<path class="st0" d="M655.4,698.17c-0.01,3.01-1.49,5.09-4.02,6.48c-0.01,0.01-0.02,0.02-0.04,0.02
			c-4.67,2.57-12.86,2.83-21.78,2.44c-1.14-0.05-2.17-0.08-3.08-0.08c-0.24,0-0.48,0-0.71,0.01c-0.19,0-0.37,0.01-0.55,0.01
			c-8.82,0.22-7.89,2.86-24.66,4.3c-19.12,1.63-26.16-4.22-27.29-6.88c-0.95-2.26,7.26-4.82,16.42-7.75
			c0.44-0.14,0.89-0.29,1.34-0.43c1.22-0.39,2.45-0.79,3.67-1.19c10.91-3.63,21.66-7.93,24.34-18.98c2.84-11.71-5.7-44.41-5.7-44.41
			l30.29-3.27c0,0,2.92,34.18,4.82,44.83c1.03,5.69,3.6,10.21,5.11,15.08c0.11,0.34,0.21,0.68,0.3,1.03
			C654.64,692.22,655.41,695.15,655.4,698.17z"/>
		<path class="st1" d="M655.4,698.17c-0.01,3.01-1.49,5.09-4.02,6.48c-0.01,0.01-0.02,0.02-0.04,0.02
			c-4.97,2.3-13.03,2.63-21.77,2.38c-1.14-0.03-2.17-0.04-3.1-0.02c-0.24,0-0.48,0-0.71,0.01c-0.19,0-0.37,0.01-0.55,0.01
			c-8.82,0.22-7.89,2.86-24.66,4.3c-19.12,1.63-26.16-4.22-27.29-6.88c-0.95-2.26,7.26-4.82,16.42-7.75
			c2.57,0.99,14.83,5.25,29.33,2.5c12.75-2.4,25.42-8.75,34.54-10.87c0.11,0.34,0.21,0.68,0.3,1.03
			C654.64,692.22,655.41,695.15,655.4,698.17z"/>
		<path class="st0" d="M458.83,659.5c-1.68,8.41-13.68,7.01-27.07,3.74c-13.4-3.27-10.21,0.62-29.28-1.49
			c-19.07-2.11-24.85-9.22-25.43-12.06c-0.52-2.52,8.9-3.4,19.01-4.57c1.27-0.14,2.55-0.3,3.82-0.46
			c11.41-1.43,19.77-8.8,30.13-14.84c9.82-5.73,24.47-29.06,24.47-29.06l26.15,2.07c0,0-13.72,20.84-19.03,29.91
			c-3.12,5.33-2.96,12.38-2.57,17.82C459.23,653.51,459.42,656.54,458.83,659.5z"/>
		<path class="st1" d="M431.75,663.24c-13.4-3.27-10.21,0.62-29.28-1.49c-19.07-2.11-24.85-9.22-25.43-12.06
			c-0.52-2.52,8.9-3.4,19.01-4.57l0.09,0.19c0,0,11.44,8.11,27.31,8.49c12.94,0.31,26.64-3.39,35.57-3.25
			c0.2,2.96,0.4,5.98-0.2,8.95C457.14,667.91,445.15,666.51,431.75,663.24z"/>
		<path class="st2" d="M517.02,275.4c0,0-6.23-15.27-13.08-15.89c-6.85-0.62-28.66-4.05-30.22-0.93c-1.56,3.12,0,14.33,4.67,18.38
			c4.67,4.05,33.65,10.59,33.65,10.59L517.02,275.4z"/>
		<path class="st3" d="M559.05,492.28l56.36,151.68c0,0,8.66,0.84,16.96-1.55c7.64-2.2,16.39-7.98,16.39-7.98
			s-13.98-145.64-39.61-175.93C583.51,428.2,559.05,492.28,559.05,492.28z"/>
		<path class="st4" d="M781.97,430.92c0,0-161.95-54.76-198.07-43.11c-36.12,11.65-144.56,227.41-144.56,227.41s2.44,3.26,9.13,5.76
			c6.21,2.33,21.26,2.18,21.26,2.18s97.87-83.89,109.52-108.36c11.65-24.47,16.31-47.77,27.96-45.44
			c11.65,2.33,150.3,57.09,181.76,24.47c31.46-32.62,23.23-75.01,23.23-75.01L781.97,430.92z"/>
		<path class="st5" d="M683,176.17c-2.59-5.34-5.48-14.82-6.89-31.73c0.22,1.68,3.13,23,11.33,35.07
			c33.68,22.11,98.24,95.95,96.96,109.94c0,0,22.74-38.57,23.13-38.8c0,0,41.95-53.34-7.77-83.89
			c-25.27-15.53-25.14-35.46-24.08-52.77c1.06-17.31-6.89-91.84-57.51-72.34c0,0-8.12-3.61-11.76-3.07c0,0,2.97,0.57,4.48,2.13
			c-5.87-0.35-14.26,0.09-21.26,4.07C671.09,55.32,654.48,149.92,683,176.17z"/>
		<path class="st2" d="M689.44,180.61c-0.17,0.08,16.26,8.61,28.62,5.23c11.63-3.17,19.22-18.24,19.06-18.28
			c-4.92-0.98-6.34-7.74-6.24-36.82l-2.23,0.44l-37.42,7.41c0,0,0.85,11.78,0.88,22.87C692.13,170.78,691.57,179.61,689.44,180.61z"
			/>
		<path class="st6" d="M691.23,138.59c0,0,0.85,11.78,0.88,22.87c20.94-0.59,32.01-19.69,36.55-30.28L691.23,138.59z"/>
		<path class="st5" d="M732.52,127.11c0,0,10.97-17.34,13.61-32.17c1.88-10.59-3.51-49.82-42.94-44.17c0,0-11.45,1.13-22.22,8.4
			c-8.56,5.78-20.92,18.26-7.1,52.5l3.59,11.57L732.52,127.11z"/>
		<path class="st2" d="M684.24,149.1c0,0,49.55,0.82,49.58-30.05s6.45-51.54-25.18-53.37c-31.63-1.83-37.79,9.94-40.31,20.24
			C665.81,96.22,671.35,148.09,684.24,149.1z"/>
		<path class="st5" d="M731.02,71.43c0,0-33.84-23.14-44.55-7.14c-3.25-2.78-9.03-4.8-16.67,4.47
			c-11.49,13.92-1.27,38.53-1.27,38.53c4.72,0.55,5.83-15.63,8.3-23.49c1.86-5.93,8.08-11.98,11.03-14.6
			c4.32,9.74,16.21,33.06,32.6,37.28c20.82,5.35,29.85-0.22,29.85-0.22S734.34,93.58,731.02,71.43z"/>
		<path class="st7" d="M799.76,313.9c4.89-20.49-11.74-60.26-29.09-93.18c-15.75-29.84-32.09-54.04-33.56-53.17
			c-41.53,24.65-45.28,4.16-45.28,4.16s-37.72,5.01-48.4,23.4c-14.77,25.42-30.86,101.72-46.67,100.59
			c-7.26-0.52-80.27-27.96-80.27-27.96s-12.16,11.4-9.83,25.38c0,0,36.05,24.14,66.54,39.55c16.13,8.15,30.7,13.85,37.55,12.23
			c13.89-3.27,35.58-35.47,47.31-54.42c0.03-0.04,0.05-0.08,0.08-0.13c14.96,84.69-5.38,103.98,4.92,112.91
			c10.88,9.43,26.41-4.49,60.59,10.32c22.42,9.73,53.53,23.79,74.47,26.23c10.98,1.29,19.18-0.62,21.85-8.04
			C827.73,410.22,790.44,352.97,799.76,313.9z"/>
		<path class="st8" d="M695.25,130.39c0,0-0.92,3.92-10.68,3.32c0,0-8.19-0.51-7.94-4.82C676.64,128.89,684.58,125.82,695.25,130.39
			z"/>
		<path class="st9" d="M819.96,431.77c-2.67,7.42-10.87,9.33-21.85,8.04c-14.49-6.32-77.11-30.57-76.41-47.01
			c1.04-24.34,12.04-25.11,4.27-55.15c-6.24-24.12,36.16-73.71,45.39-83.46c17.35,32.92,33.29,39.22,28.4,59.71
			C790.44,352.97,827.73,410.22,819.96,431.77z"/>
		<path class="st9" d="M658.06,290.47c-11.72,18.95-33.42,51.15-47.31,54.42c-6.85,1.62-21.42-4.09-37.55-12.23
			c11.77,3.04,23.2,2.95,34.31,1.88c12.04-1.17,15.54-15.92,34.57-38.06C654.42,282.12,657.45,285.74,658.06,290.47z"/>
		<path class="st2" d="M716.07,337.07c0,0-10.49-8.16-20.39-6.21c-9.9,1.94-14.76,8.74-14.37,11.85
			c0.39,3.11,5.63,11.85,13.21,12.62c7.57,0.78,29.13-4.66,29.13-4.66L716.07,337.07z"/>
		<path class="st7" d="M737.12,167.56c0,0,40.38,2.49,54.36,21.99c19.68,27.45,53.86,139.5,44.54,165.13l-122.86-0.52
			c0,0-2.98-13.92,1.17-20.65c4.14-6.73,71.46-17.61,74.57-20.71c3.11-3.11-38.84-60.59-38.84-69.91
			C750.05,233.56,737.12,167.56,737.12,167.56z"/>
	</g>
	<g>
		<path class="st2" d="M895.56,343.84c0,0-11.22-3.73-16.64-2.61c-5.42,1.12-22.23,8.97-22.61,10.65c-0.37,1.68,0,2.89,0,2.89h39.24
			c0,0,8.77-1.7,10.27-6.88C907.32,342.72,895.56,343.84,895.56,343.84z"/>
		<path class="st10" d="M1041.98,838.32c-0.3,3.21-2.08,5.28-4.91,6.52c-0.01,0.01-0.03,0.01-0.04,0.01
			c-5.23,2.29-13.99,1.77-23.46,0.49c-1.21-0.16-2.3-0.29-3.28-0.38c-0.26-0.02-0.51-0.05-0.76-0.06c-0.2-0.02-0.4-0.03-0.59-0.04
			c-9.43-0.62-8.69,2.28-26.71,2.2c-20.54-0.11-27.49-7.03-28.43-9.98c-0.79-2.5,8.2-4.44,18.26-6.68c0.49-0.11,0.97-0.22,1.47-0.33
			c1.34-0.3,2.69-0.61,4.02-0.91c11.99-2.81,23.86-6.36,27.79-17.88c4.16-12.22,3.18-48.46,3.18-48.46h36.38
			c0,0-9.55,40.05-8.55,51.59c0.54,6.16,3.49,7.91,4.63,13.25c0.08,0.37,0.16,0.75,0.22,1.12
			C1041.74,831.9,1042.28,835.1,1041.98,838.32z"/>
		<g>
			<path class="st11" d="M1084.32,446.53c-3.07,17.24-7.45,35.05-11.26,53.58c-6.11,29.79-10.73,61.43-6,95.51
				c0.6,4.39,0.93,9.23,1,14.43c0.92,60.23-25.99,169.37-25.99,169.37s-7.31,3.15-19.56,2.55c-6.31-0.31-15.98-4.38-15.98-4.38
				s-2.55-67.67-2.7-158.67c-0.11-65.97-13.06-152.82-15.68-203.86c-1.58-30.89,1.85-72.04,1.85-72.04s53.64-43.13,72.91-21.06
				C1081.94,343.75,1095.8,382.05,1084.32,446.53z"/>
		</g>
		<path class="st12" d="M1067.06,595.62c0.6,4.39,0.93,9.23,1,14.43c-40.17-58.2-49.06-185.12-49.06-185.12l44.12,21.41
			c0,0,4.84,23.8,9.93,53.77C1066.95,529.9,1062.33,561.54,1067.06,595.62z"/>
		<path class="st10" d="M1158.04,838.32c-0.3,3.21-2.08,5.28-4.91,6.52c-0.01,0.01-0.03,0.01-0.04,0.01
			c-5.23,2.29-13.99,1.77-23.46,0.49c-1.21-0.16-2.3-0.29-3.28-0.38c-0.26-0.02-0.51-0.05-0.76-0.06c-0.2-0.02-0.4-0.03-0.59-0.04
			c-9.43-0.62-8.69,2.28-26.71,2.2c-20.54-0.11-27.49-7.03-28.43-9.98c-0.79-2.5,8.2-4.44,18.26-6.68c0.49-0.11,0.97-0.22,1.47-0.33
			c1.34-0.3,2.69-0.61,4.02-0.91c11.99-2.81,23.86-6.36,27.79-17.88c4.16-12.22-1.79-47.91-1.79-47.91l33.7-2.82
			c0,0-2.09,40.67-1.09,52.21c0.54,6.16,3.67,9.55,4.81,14.89c0.08,0.37,0.16,0.75,0.22,1.12
			C1157.79,831.9,1158.34,835.1,1158.04,838.32z"/>
		<path class="st11" d="M1153.29,782.5c0,0-8.66,4.1-14.9,5.35c-6.24,1.25-19.2-1.19-19.2-1.19c-2.34-26.21-7.77-67.19-18.32-113.43
			c-12.02-52.65-29.9-114.86-54.83-173.77c-5.32-12.58-27.28-72.14-31.01-87.17c-11.27-45.41,0.04-40.52,0.04-40.52l98.49-11.56
			c0,0,12.13,6.24,17.72,70.36c1.67,19.2,1.88,102.12,4.4,117.84c2.39,14.89,5.18,27.26,8.46,35.31
			C1162.44,628.63,1153.29,782.5,1153.29,782.5z"/>
		<path class="st13" d="M1158.04,838.32c-0.3,3.21-2.08,5.28-4.91,6.52c-0.01,0.01-0.03,0.01-0.04,0.01
			c-5.52,1.97-14.15,1.55-23.44,0.44c-1.21-0.14-2.31-0.25-3.3-0.32c-0.26-0.02-0.51-0.05-0.76-0.06c-0.2-0.02-0.4-0.03-0.59-0.04
			c-9.43-0.62-8.69,2.28-26.71,2.2c-20.54-0.11-27.49-7.03-28.43-9.98c-0.79-2.5,8.2-4.44,18.26-6.68c2.65,1.31,15.3,7.03,31.04,5.5
			c13.83-1.33,27.96-6.87,37.88-8.25c0.08,0.37,0.16,0.75,0.22,1.12C1157.79,831.9,1158.34,835.1,1158.04,838.32z"/>
		<path class="st13" d="M1041.98,838.32c-0.3,3.21-2.08,5.28-4.91,6.52c-0.01,0.01-0.03,0.01-0.04,0.01
			c-5.52,1.97-14.15,1.55-23.44,0.44c-1.21-0.14-2.31-0.25-3.3-0.32c-0.26-0.02-0.51-0.05-0.76-0.06c-0.2-0.02-0.4-0.03-0.59-0.04
			c-9.43-0.62-8.69,2.28-26.71,2.2c-20.54-0.11-27.49-7.03-28.43-9.98c-0.79-2.5,8.2-4.44,18.26-6.68c2.65,1.31,15.3,7.03,31.04,5.5
			c13.83-1.33,27.96-6.87,37.88-8.25c0.08,0.37,0.16,0.75,0.22,1.12C1041.74,831.9,1042.28,835.1,1041.98,838.32z"/>
		<path class="st14" d="M1002.58,65.29c-3.33-27.17,5.16-70.65,59.39-63.7c54.23,6.95,71.32,60.24,60.38,83.94
			c-10.94,23.7,15.74,29.41,24.12,54.89c7.2,21.89,9.7,49.07,21.35,61.27c37.54,39.33-36.04,99.81-80.4,87.05
			c-80.8-23.23-91.2-26.7-88.33-90.18c1.47-32.53,26.78-45.13,10.71-54.54C970.97,121.29,1010.11,126.77,1002.58,65.29z"/>
		<path class="st2" d="M1082.26,136.44l-14.91,38.59l-32.28,1.58L1019,152.53c18.23-13.83,17.46-40.28,16.57-49.52
			c-0.2-2.08-0.41-3.29-0.41-3.29l40.35-12.28c0.49,10.67,1.08,19.01,1.72,25.53C1079.49,135.89,1082.26,136.44,1082.26,136.44z"/>
		<path class="st2" d="M1018.88,135.05c2.07,0,37.29-7.17,96.76,8.05c0,0-32.57,149.22-21.51,177.35
			c11.06,28.13,15.27,53.09,15.27,53.09l-120.03,1.49c0,0,1.68-96.54-3.85-130.71C979.99,210.15,1018.88,135.05,1018.88,135.05z"/>
		<path class="st15" d="M1107.37,301.5c1.76,19.75,20.21,64.89,16.22,74.5c-4.18,10.1-10,15.21-22.71,18.13
			c-8.77,2.02-20.81,2.99-37.86,3.84c-36.16,1.8-74.91-2.75-80.19-19.94c-2.53-8.25-1.55-40.18-0.21-54.91
			c2.77-30.5-3.04-74.26-3.88-102.58c-0.7-23.62,13.55-77.37,13.55-77.37s6.43-4.06,26.6-8.12c0,0,2.12,27.92,16.69,30.32
			c25.19,4.16,45.49-18.92,51.42-28.21c0,0,28.94,7.3,37.43,16.98c8.04,9.17-2.96,77.07-5.41,83.59
			c-2.11,5.59-4.11,11.04-5.85,16.53C1108.57,268.72,1105.76,283.41,1107.37,301.5z"/>
		<path class="st2" d="M1210.4,343.93c0,0,11.22-3.7,16.64-2.58c5.42,1.11,22.23,8.89,22.61,10.56c0.37,1.67,0,2.87,0,2.87h-39.24
			c0,0-8.77-1.69-10.27-6.82C1198.64,342.83,1210.4,343.93,1210.4,343.93z"/>
		<path class="st6" d="M1077.23,115.53c-14.72-9.87-33.22-10.35-41.66-9.96c-0.2-2.08-0.41-3.29-0.41-3.29l40.35-12.28
			C1076,100.66,1076.59,109,1077.23,115.53z"/>
		<path class="st2" d="M1024.63,102.46c0,0,48.3,9.7,53.88-20.47c5.58-30.17,15.57-49.24-15.03-56.71
			c-30.6-7.47-38.74,2.93-43.05,12.55C1016.11,47.45,1012.21,99.16,1024.63,102.46z"/>
		<path class="st14" d="M1087.86,27.28c-8.17-9.2-19.96-10.98-28.56-10.84c5.18-6.28-15.66-20.05-39.49,3.43
			c-10.27,10.12-8.71,30-3.22,41.54c0,0,8.44-24.73,23.81-30.12c3.42-1.2,6.67-3.2,9.65-5.58c1.87,4.7,5.64,11.35,13.21,19.63
			c15.89,17.37,12.79,52.48,12.79,52.48S1102.14,43.35,1087.86,27.28z"/>
		<path class="st8" d="M1039.68,87.62c0,0-1.29,3.58-10.39,1.96c0,0-7.63-1.36-6.93-5.38C1022.36,84.19,1030.15,82.17,1039.68,87.62
			z"/>
		<path class="st16" d="M1172.2,271.69c-18.27-70.51-28.3-110.77-43.27-122.96c-13.24-10.77-41.79-11.76-41.79-11.76
			c-0.44,8.48-0.04,16.99,1,25.42l-35.12,66.93c0,0-17.99,35.6-24.39,74.55c-4.83-38.67-9.62-74.55-9.62-74.55
			s-4.53-22.87-5.96-43.82c4.23-16.33,3.79-33.38,5.78-50.45l-2.21,0.13c-6.94,0.48-28.56,2.69-39.58,11.74
			c-14.97,12.29-18.33,66.27-43.27,124.04c0,0-30.22,50.81-39.84,70.96c0,0,1.8,2.75,5.41,4.83c3.49,2.01,7.9,2.81,7.9,2.81
			s54.51-53.68,58.09-62.16c1.18-2.79,7.77-12.58,15.96-26.98v0c0,0,2.17,76.69-2.59,109.79c-1.01,7.01,2.35,13.92,8.51,17.41
			c33.66,19.01,134.51,70.81,153.28,20.51c2.1-5.64-34.75-101.45-29.71-122.19c1.61-6.63,3.74-21.76,5.9-39.27
			c11.55,22.15,22.4,37.7,23.95,41.33c3.58,8.41,58.09,61.62,58.09,61.62s4.41-0.79,7.9-2.79c3.6-2.06,5.41-4.79,5.41-4.79
			C1202.41,322.05,1172.2,271.69,1172.2,271.69z"/>
		<path class="st7" d="M1085.24,136.77l-32.22,92.55l32.22-30.46l-2.44-9.47c0,0,7.41,0.66,10.41-1.28c3.01-1.94,10-49.26,10-49.26
			s-6.56-1.1-8.73-1.35C1092.16,137.22,1085.24,136.77,1085.24,136.77z"/>
		<path class="st7" d="M1018.82,135.05c0,0-6.78,73.16,0.18,94.27c0,0-19.94-31.58-16.2-38.11l7.23-4.76c0,0-13.95-1.81-11.34-9.83
			c2.62-8.02,13.83-40.52,13.83-40.52L1018.82,135.05z"/>
	</g>
	<g>
		<polygon class="st17" points="307.14,859.02 1420.06,859.02 1420.06,606.67 307.14,604.16 		"/>
		<rect x="307.14" y="402.34" class="st17" width="1112.92" height="65.99"/>
	</g>
	<path class="st7" d="M1466.52,402.34H231.51c-12.7,0-22.99-10.29-22.99-22.99v-1.58c0-12.7,10.29-22.99,22.99-22.99h1235.01
		c12.7,0,22.99,10.29,22.99,22.99v1.58C1489.51,392.04,1479.22,402.34,1466.52,402.34z"/>
	<path class="st18" d="M458.08,354.96c-0.11,0.07-0.23,0.13-0.35,0.2l0.11-0.2H458.08z"/>
	<g>
		<path class="st19" d="M158.56,856.22H78.47c-1.1-1.86-1.72-4.91-2.04-8.33c-0.81-8.79,0.35-20.04,0.35-20.04s26.6-22.2,30.67-5.72
			c4.07,16.49,26.2,23.47,38.75,25.24C154.97,848.6,157.71,853.43,158.56,856.22z"/>
		<path class="st19" d="M88.12,856.22H5.62c-3.39-7.52-1.22-28.37-1.22-28.37s26.6-22.2,30.66-5.72
			c4.07,16.49,26.2,23.47,38.75,25.24c0.93,0.13,1.79,0.31,2.62,0.52C82.91,849.55,86.41,853.49,88.12,856.22z"/>
		<path class="st5" d="M42.04,411.5c0,0,0.06,2.98,0.18,8.34c0.75,34.54,3.7,168.1,6.5,242.56c0.12,2.71,0.22,5.33,0.31,7.88
			c0.05,1.35,0.11,2.7,0.16,4.04c1.68,36,6.56,71.25,11.5,99.44c6.29,35.95,12.68,60.43,12.68,60.43
			c23.98,4.86,39.53-4.26,39.53-4.26s6.47-55.79,8.93-89.57c0.81-10.96,4.76-48.34,9.71-93.83c3.84-35.17,8.28-75.19,12.36-111.58
			c0.22-1.94,0.42-3.88,0.65-5.79c6.58-58.84,12.03-106.76,12.03-106.76l-42.4-4.04L42.04,411.5z"/>
		<path class="st19" d="M60.69,773.75l70.84-127.22c3.84-35.17,8.28-75.19,12.36-111.58c0.22-1.94,0.42-3.88,0.65-5.79
			c6.58-58.84,12.03-106.76,12.03-106.76l-42.4-4.04l-71.94,1.47L60.69,773.75z"/>
		<path class="st5" d="M148.73,422.73c0,0-39.64,195.94-71.94,290.51c-32.3,94.57-32.7,120.84-32.7,120.84s-29.64,6.42-42.69-1.04
			c0,0-7.46-179.27,12.08-226.88c12.93-31.49,22.81-98.51,19.45-122.65c-3.36-24.14-6.5-72.56-6.5-72.56L148.73,422.73z"/>
		<path class="st2" d="M101.98,155.2l-39.13-11.03c0,0,6.65-16.25,8.95-33.2c1.28-9.41,1.22-19.03-2.04-26.19
			c-0.2-0.45-0.42-0.89-0.64-1.32c-1.49-2.79-0.58-4.07,1.4-4.37c3.55-0.57,10.54,1.92,13.5,4.39c4.49,3.74,26.12,14.72,27.24,15.3
			c0.04,0.02,0.05,0.02,0.05,0.02s0.04,0.16,0.08,0.47l0.01,0.02c0.12,0.76,0.37,2.36,0.6,4.59
			C113.07,114.3,114.01,138.57,101.98,155.2z"/>
		<path class="st20" d="M36.98,433.2c9.37,6.63,24.13,9.03,40.39,8.78c18.99-0.31,40.01-4.23,56.81-9.25
			c9.04-2.7,16.84-5.72,22.48-8.65c25.1-13.09,21.54-30.51,20.94-95.73c-0.61-66.56-41.57-152.6-48.95-167.01
			c-13.13-25.64-72.03-16.18-72.03-16.18c-12.92,6.19-17.52,26.84-18.77,53.82c-1.4,29.96,1.32,67.75,1.32,102.2
			c0,28.48-5.38,53.67-9.29,74.55C24.8,402.85,22.19,422.72,36.98,433.2z"/>
		<path class="st16" d="M29.87,375.73c11.33,23.89,33.65,50.77,47.5,66.25c18.99-0.31,40.01-4.23,56.81-9.25
			c7.07-16.93,10.17-45.18,3.63-91.82c-4.98-35.56-41.28-178.59-41.28-178.59C67.22,158.5,49,174.46,37.84,198.98
			c-1.4,29.96,1.32,67.75,1.32,102.2C39.16,329.67,33.79,354.85,29.87,375.73z"/>
		<path class="st16" d="M166.71,489.4H140.1v-8.27c0-13.73-11.17-24.9-24.9-24.9H93.18c-13.73,0-24.9,11.17-24.9,24.9v8.27H41.67
			c-7.99,0-14.52,6.53-14.52,14.52v67.76c0,7.99,6.53,14.52,14.52,14.52h125.04c7.99,0,14.52-6.53,14.52-14.52v-67.76
			C181.24,495.94,174.7,489.4,166.71,489.4z M78.16,481.13c0-8.29,6.74-15.03,15.03-15.03h22.02c8.29,0,15.03,6.74,15.03,15.03v8.27
			H78.16V481.13z"/>
		<path class="st2" d="M111.82,439.57c0,0,15.33,29.56,7.66,41.06c-7.66,11.5-35.04-3.28-37.23-9.85c-2.19-6.57,0-38.32,0-38.32
			L111.82,439.57z"/>
		<path class="st20" d="M46.24,208.32c0,0,5.7,81.36,5.63,115.01c-0.07,33.66,26.71,123.18,26.71,123.18s17.72,1.42,24.68,0.52
			c8.01-1.03,12.79-4.71,12.79-4.71s-5.88-105.77,5.34-146.31c11.22-40.54,11.81-121.96,11.81-121.96s-6.23-17.58-43.55-12.03
			C45.38,168.6,46.24,208.32,46.24,208.32z"/>
		<path class="st16" d="M62.09,116.38c-2.83,9.84-6.79,25.03-5.47,28.78c0,0,55.3,5.82,77.41,27.37c0,0-8-29.43-16.84-37.17
			c-6.43-5.63-31.3-17.69-44.37-23.85C68.5,109.48,63.41,111.8,62.09,116.38z"/>
		<path class="st6" d="M111.98,103.87c-4.39-0.03-31.72,0.06-39.4,6.55c-0.28,0.23-0.54,0.41-0.78,0.54
			c1.28-9.41,1.22-19.03-2.04-26.19c0.28-2.2,0.54-4.17,0.76-5.69c3.55-0.57,10.54,1.92,13.5,4.39c4.49,3.74,26.12,14.72,27.24,15.3
			l0.12,0.49l0.01,0.02C111.5,100.04,111.75,101.64,111.98,103.87z"/>
		<path class="st2" d="M129.59,102.13c0,0-45.21,8.65-50.17-19.58c-4.96-28.24-14.13-46.14,14.53-52.86
			c28.66-6.72,36.17,3.07,40.12,12.09C138.01,50.8,141.22,99.15,129.59,102.13z"/>
		<path class="st14" d="M71.28,94.82c0,0,2.35-1.79-6.8-15.67c-9.15-13.87-13.5-10.07-13.61-24.85
			c-0.11-14.78-5.61-23.66,11.54-33.28C79.57,11.4,76.83,2.48,87.13,0.35c10.29-2.13,25.26,6.35,34.1,4.56
			c8.83-1.79,36.5,34.23,18.78,42.75c0,0-8.23,0.41-14.02-3.15c-5.78-3.57-27-7.17-29.48-0.72C94.02,50.24,80.58,89.83,71.28,94.82z
			"/>
	</g>
	<g>
		<path class="st21" d="M714.12,241.02l-24.07-3.43c-1.62-0.23-2.75-1.73-2.52-3.35l1.53-10.77c0.23-1.62,1.73-2.75,3.35-2.52
			l24.07,3.43c1.62,0.23,2.75,1.73,2.52,3.35l-1.53,10.77C717.24,240.13,715.74,241.26,714.12,241.02z"/>
		
			<rect x="691.96" y="224.49" transform="matrix(0.99 0.1411 -0.1411 0.99 39.3789 -95.8783)" class="st22" width="7.92" height="10.62"/>
		<path class="st22" d="M714.05,229.7l-9.76-1.39c-0.72-0.1-1.23-0.78-1.13-1.5l0,0c0.1-0.72,0.78-1.23,1.5-1.13l9.76,1.39
			c0.72,0.1,1.23,0.78,1.13,1.5l0,0C715.44,229.3,714.77,229.81,714.05,229.7z"/>
		<path class="st22" d="M714.34,233.45l-11.39-1.62c-0.28-0.04-0.47-0.3-0.43-0.57l0,0c0.04-0.28,0.3-0.47,0.57-0.43l11.39,1.62
			c0.28,0.04,0.47,0.3,0.43,0.57l0,0C714.88,233.29,714.62,233.49,714.34,233.45z"/>
		<path class="st22" d="M714.11,235.08l-11.39-1.62c-0.28-0.04-0.47-0.3-0.43-0.57l0,0c0.04-0.27,0.3-0.47,0.57-0.43l11.39,1.62
			c0.28,0.04,0.47,0.3,0.43,0.57l0,0C714.64,234.92,714.39,235.11,714.11,235.08z"/>
	</g>
	<g>
		<path class="st21" d="M1103.46,227.55l-22.16-1.36c-1.49-0.09-2.63-1.38-2.53-2.87l0.61-9.91c0.09-1.49,1.38-2.63,2.87-2.53
			l22.16,1.36c1.49,0.09,2.63,1.38,2.53,2.87l-0.61,9.91C1106.23,226.5,1104.95,227.64,1103.46,227.55z"/>
		
			<rect x="1082.46" y="213.81" transform="matrix(0.9981 0.0615 -0.0615 0.9981 15.4919 -66.3368)" class="st22" width="7.23" height="9.69"/>
		<path class="st22" d="M1102.57,217.25l-8.99-0.55c-0.66-0.04-1.18-0.62-1.13-1.28l0,0c0.04-0.66,0.62-1.18,1.28-1.13l8.99,0.55
			c0.67,0.04,1.18,0.62,1.14,1.28l0,0C1103.81,216.78,1103.23,217.29,1102.57,217.25z"/>
		<path class="st22" d="M1103.11,220.63l-10.48-0.65c-0.25-0.02-0.45-0.24-0.43-0.49l0,0c0.02-0.25,0.24-0.45,0.49-0.43l10.48,0.65
			c0.25,0.02,0.45,0.24,0.43,0.49l0,0C1103.58,220.45,1103.36,220.65,1103.11,220.63z"/>
		<path class="st22" d="M1103.02,222.13l-10.48-0.65c-0.25-0.02-0.45-0.24-0.43-0.49l0,0c0.02-0.25,0.24-0.45,0.49-0.43l10.48,0.65
			c0.25,0.02,0.45,0.24,0.43,0.49l0,0C1103.49,221.95,1103.27,222.15,1103.02,222.13z"/>
	</g>
	<path class="st7" d="M1033.05,307.25c0-1.92,1.56-3.48,3.48-3.48c1.92,0,3.48,1.56,3.48,3.48c0,1.92-1.56,3.48-3.48,3.48
		C1034.6,310.73,1033.05,309.17,1033.05,307.25z"/>
	<path class="st7" d="M1033.05,329.09c0-1.92,1.56-3.48,3.48-3.48c1.92,0,3.48,1.56,3.48,3.48c0,1.92-1.56,3.48-3.48,3.48
		C1034.6,332.56,1033.05,331.01,1033.05,329.09z"/>
	<polygon class="st23" points="315.82,604.16 1420.06,606.67 1420.06,468.33 315.82,468.33 	"/>
	<g>
		<path class="st2" d="M557.44,354.96h-47.3c-0.11,0.07-0.23,0.13-0.35,0.2l0.11-0.2l5.13-9.79c0,0,1.55-0.78,3.88-1.74
			c4.97-2.07,13.46-4.98,17.8-2.95C542.64,343.27,555.72,349.76,557.44,354.96z"/>
		<path class="st24" d="M519.01,343.54c0,0-2.01,7.45-8.87,11.42c-0.11,0.07-0.23,0.13-0.35,0.2l0.11-0.2h-82.37
			c-2.53-2.24-6.75-6.56-10.93-13.48c-1.31-2.17-2.62-4.6-3.87-7.29c-4.05-8.74-7.49-20.34-8.51-35.32
			c-1.97-28.95-4.03-76.68-5.16-104.64c-0.54-13.45-0.87-22.31-0.87-22.31l0.01,0.01c0.5,0.33,32.58,21.54,39.26,87.01
			c0,0,1.68,52.65,7.56,56.8c5.85,4.13,68.24,21.01,73.89,27.7C518.95,343.47,518.98,343.5,519.01,343.54z"/>
		<g>
			<path class="st14" d="M387.45,75.04c0,0-4.24-60.52-82.83-37.6c-17.83,5.2-15.51,59.04,27.67,79.53L387.45,75.04z"/>
			<path class="st25" d="M356.03,154.94c0,0,30.76,5.57,42.17,16.98c11.41,11.41,38.33,45.06,21.39,157.27
				c0,0-1.36,33.82-39.39,37.08C342.17,369.52,356.03,154.94,356.03,154.94z"/>
			<path class="st2" d="M285.33,433.99c5.29,36.82,40.78,132.53,39.75,165.61c-0.82,26.07-0.39,86.29,3.05,126.29
				c0.95,10.88,2.06,20.22,3.48,27.01c3.05,14.75,6.97,31.75,9.08,42.46c4.69,24.04,2.24,38.07,6.07,50.97
				c4.22,14.11,52.61,11.53,38.03,2.97c-5.2-3.05-12.78-9.55-16.52-17.94c-13.59-30.45,5.46-161.78,11.14-212.41
				c0.73-6.32,1.25-11.36,1.46-14.8c1.89-31.27,23.36-239.61,23.36-239.61C352.09,335.56,280.08,397.17,285.33,433.99z"/>
			<path class="st26" d="M285.33,433.99c5.29,36.82,40.78,132.53,39.75,165.61c-0.82,26.07-0.39,86.29,3.05,126.29l51.27-106.94
				c0.73-6.32,1.25-11.36,1.46-14.8c1.89-31.27,23.9-239.69,23.9-239.69C352.63,335.48,280.08,397.17,285.33,433.99z"/>
			<path class="st2" d="M398.43,371.32c0,0-44.77,205.82-49.86,236.72c-5.09,30.9-45.86,176.4-36.98,212.86
				c5.24,21.51,14.38,27.87,14.38,27.87c2.15,3.94-33.26,11.78-36.12-3.32c-3.63-19.16-4.39-46.06-9.71-91.65
				c-9.16-78.51,9.01-123.18,13.41-155.99c4.4-32.81-14.79-137.1-4.14-172.74C308.06,362.7,349.57,337.12,398.43,371.32z"/>
			<path class="st25" d="M410.49,552.92c-7.9,3.27-16.64,5.68-25.74,7.43c-0.02,0.01-0.05,0.02-0.07,0.02
				c-8.92,1.72-18.18,2.79-27.35,3.41c-12.91,0.87-25.64,0.84-36.95,0.38l-3.27-38.11l-3.44,13.8l-5.89,23.62
				c-5.45-0.38-10.35-0.82-14.49-1.26c-8.9-0.91-14.33-1.75-14.33-1.75c-10.03-82.69,1.99-134.81,15.58-165.6c0,0,0,0,0-0.01
				c4.3-9.76,8.77-17.38,12.74-23.14c2.14-3.1,4.13-5.67,5.87-7.74c1.42-1.69,2.68-3.06,3.73-4.13c2.01-2.06,3.22-3,3.22-3
				c4.64,1.78,9.21,3.28,13.67,4.55c3.18,0.9,6.31,1.68,9.37,2.34c0.05,0.02,0.1,0.03,0.15,0.03c2.1,0.46,4.17,0.86,6.2,1.22
				c0.76,0.13,1.51,0.26,2.25,0.38c2.39,0.38,4.73,0.7,7.01,0.96c13.16,1.51,24.37,1.13,32.43,0.33c6.94-0.69,11.55-1.69,13.05-2.04
				c0.36-0.08,0.54-0.13,0.54-0.13l0.06,2.11l1.09,35.94L410.49,552.92z"/>
			<path class="st19" d="M333.31,856.35H291c-3.27-5.93-7.62-23.69-10.94-27.4c-0.24-0.26-0.5-0.57-0.77-0.91l-0.34,28.31h-3.81
				c-0.09-6.03-0.56-27.14-2.63-39c-2.27-4.32-3.88-8.51-3.18-10.27c1.47-3.68,15.02-11.85,15.02-11.85s10.03,50.15,14.77,51.35
				c11.31,2.85,22.68,1.79,25.9,1.4c0.59-0.08,5.68,2.2,7.59,5.23C333.25,854.2,333.57,855.27,333.31,856.35z"/>
			<path class="st19" d="M389.95,856.35h-42.32c-3.23-5.86-7.52-23.24-10.83-27.24l-0.33,27.24h-3.8c-0.01-0.8-0.03-1.87-0.05-3.15
				c-0.17-7.73-0.69-23.12-2.2-33.52c-2.89-5.07-5.28-10.52-4.45-12.61c1.46-3.68,14.71-11.78,14.71-11.78s0.05,0.44,0.2,1.16
				c0.02,0.11,0.04,0.21,0.06,0.33c0.02,0.14,0.05,0.29,0.08,0.45c0.02,0.12,0.05,0.22,0.07,0.34c1.93,9.7,9.78,47.76,14.66,48.98
				c12.9,3.25,25.88,1.42,26.76,1.29c0.03-0.01,0.05-0.01,0.05-0.01S391,851.94,389.95,856.35z"/>
			<path class="st8" d="M412.74,334.19c-1.41,7.75-2.85,14.44-4.07,19.67c-0.09,0.38-0.17,0.74-0.26,1.1
				c-1.72,7.24-2.94,11.41-2.94,11.41c-0.21,0.07-0.43,0.14-0.64,0.21c-0.1,0.04-0.2,0.07-0.29,0.1c-0.18,0.06-0.36,0.12-0.54,0.17
				c-2.91,0.94-5.76,1.75-8.55,2.44c-15.61,3.89-29.43,4.22-40.94,2.9c-6.28-0.72-11.89-1.93-16.73-3.32
				c-1.12-0.32-2.19-0.64-3.22-0.99c-0.05-0.01-0.1-0.03-0.15-0.04c-2.67-0.87-5.06-1.78-7.15-2.66c-6.45-2.7-10.08-5.13-10.39-5.34
				c-0.02-0.01-0.02-0.02-0.02-0.02c0.54-1.32,1-2.95,1.39-4.87c0.74-3.63,1.22-8.26,1.49-13.68c0.48-9.38,0.34-21.1-0.17-33.99
				c-0.01-0.38-0.03-0.75-0.04-1.13c-0.66-16.16-1.86-34.09-3.11-51.49c-0.96-13.37-1.94-26.42-2.72-38.14
				c-0.24-3.59-0.47-7.06-0.66-10.36c-1.09-18.48-1.39-32.1,0.25-35.68c2.49-5.43,10.22-8.72,18.45-10.72
				c1.18-0.29,2.37-0.55,3.55-0.78c0.16-0.03-0.35-1.33-0.19-1.36c1.14-0.22,2.95,0.85,4.06,0.67c0.48-0.08,0.95-0.15,1.42-0.22
				c7.39-1.09,13.75-1.33,15.35-1.37c0.25-0.01,0.38-0.01,0.38-0.01s5.21,2.54,12.61,7.79c0.56,0.4,7.81-4.32,8.39-3.88
				c8.45,6.18,18.46,17.36,23.12,32.5c6.31,20.52,15.6,30.67,17.54,50.93C421.11,276.94,417.05,310.54,412.74,334.19z"/>
			<path class="st25" d="M289.06,370.07c15.74,3.23,40.86,1.59,59.49-3.74c6.19-1.76,11.66-3.96,15.79-6.49
				c16.65-10.24,24.73-86.03,21.85-114.72c-2.84-28.65-51.1-87.48-51.1-87.48c-11.83,8.78-17.04,29.2-24.14,55.99
				C293.88,278.1,289.06,370.07,289.06,370.07z"/>
			<path class="st24" d="M289.06,370.07c15.74,3.23,40.86,1.59,59.49-3.74c6.84-9.72,12.3-21.59,15.23-36.09
				c8.47-41.81-24.95-87.19-52.82-116.61C293.88,278.1,289.06,370.07,289.06,370.07z"/>
			<path class="st27" d="M389.3,306.38l-37.09-26.77c-4.59-3.31-11.05-2.27-14.37,2.32l-41.37,57.32
				c-3.31,4.59-2.27,11.05,2.32,14.37l37.09,26.77c4.59,3.31,11.05,2.27,14.37-2.32l41.37-57.32
				C394.94,316.16,393.89,309.7,389.3,306.38z"/>
			<path class="st28" d="M356.43,335.09c0,0,18.13-1.83,20.37,1.22c2.24,3.06,0.2,14.87-9.98,16.09c-10.19,1.22-21.8-7.13-21.8-7.13
				L356.43,335.09z"/>
			<path class="st25" d="M335.09,157.62c0,0-32.23,3.8-46.21,32.83c-13.98,29.04-29.04,103.77-25.27,110.76
				c3.76,6.99,48.93,44.63,86.03,49.47c0,0,8.07-10.22,7.53-19.36c0,0-50.01-31.19-54.31-39.79c-4.3-8.6,38.18-80.12,37.64-92.48
				C339.96,186.69,335.09,157.62,335.09,157.62z"/>
			<path class="st29" d="M371.43,63.03c0,0,18.9,2.32,19.98,24.14c0,0,8.27-34.58-21.67-33.89
				C339.8,53.98,371.43,63.03,371.43,63.03z"/>
			<path class="st2" d="M377.3,160.6c0-0.02-1.7-18.25-1.31-22.94v-0.01c0.21-2.41,0.46-3.84,0.46-3.84l-0.46-0.14l-37.85-11.53
				c-0.02,0.3-0.02,0.6-0.04,0.9c-0.48,10.23-1.07,18.16-1.71,24.32c-0.08,0.8-0.16,1.58-0.25,2.32c-0.34,3.13-0.7,5.75-1.06,7.93
				c7.33,3.2,13.38,5.4,18.4,6.86c13.58,3.95,19.46,2.37,21.98,0C377.58,162.5,377.34,160.91,377.3,160.6z"/>
			<path class="st6" d="M373,133.68v3.98c0,0-21.8,0.25-36.6,9.71c0.63-6.16,1.22-14.09,1.7-24.32L373,133.68z"/>
			<path class="st2" d="M383.45,136.41c0,0-45.87,9.21-51.16-19.44c-5.3-28.65-14.78-46.76,14.28-53.85
				c29.06-7.09,36.79,2.79,40.88,11.92C391.54,84.18,395.25,133.28,383.45,136.41z"/>
			<path class="st14" d="M367.88,56.77c0,0,12.96,16.25-10.69,31.1c-23.66,14.85-21.84,44.56-15.56,52.92
				c0,0-47.09-45.96-25.28-73.34C338.18,40.06,367.88,56.77,367.88,56.77z"/>
		</g>
	</g>
	<g>
		<polygon class="st22" points="1344.34,240.35 1319.72,354.77 1415.69,354.77 1437.16,240.35 		"/>
		<polygon class="st30" points="1347.64,244 1325.4,347.34 1412.09,347.34 1431.48,244 		"/>
	</g>
	<g>
		<path class="st22" d="M1420.11,252.3h-65.98c-1.21,0-2.21,0.99-2.21,2.21c0,1.21,1,2.21,2.21,2.21h65.98
			c1.22,0,2.21-0.99,2.21-2.21C1422.32,253.29,1421.33,252.3,1420.11,252.3z"/>
		<path class="st22" d="M1416.75,262.71h-65.98c-1.22,0-2.21,0.99-2.21,2.21c0,1.22,0.99,2.21,2.21,2.21h65.98
			c1.22,0,2.21-0.99,2.21-2.21C1418.96,263.71,1417.96,262.71,1416.75,262.71z"/>
		<path class="st22" d="M1414.64,272.71h-65.98c-1.22,0-2.21,0.99-2.21,2.21c0,1.22,0.99,2.21,2.21,2.21h65.98
			c1.22,0,2.21-0.99,2.21-2.21C1416.85,273.71,1415.86,272.71,1414.64,272.71z"/>
		<path class="st22" d="M1411.59,293.33h-65.98c-1.22,0-2.21,0.99-2.21,2.21s0.99,2.21,2.21,2.21h65.98c1.22,0,2.21-0.99,2.21-2.21
			S1412.81,293.33,1411.59,293.33z"/>
		<path class="st22" d="M1408.22,303.74h-65.98c-1.22,0-2.21,0.99-2.21,2.21s0.99,2.21,2.21,2.21h65.98c1.22,0,2.21-0.99,2.21-2.21
			S1409.44,303.74,1408.22,303.74z"/>
		<path class="st22" d="M1406.12,313.74h-65.98c-1.22,0-2.21,0.99-2.21,2.21c0,1.21,0.99,2.21,2.21,2.21h65.98
			c1.22,0,2.21-0.99,2.21-2.21C1408.33,314.74,1407.33,313.74,1406.12,313.74z"/>
	</g>
	
		<rect x="1272.93" y="326.81" transform="matrix(0.2888 -0.9574 0.9574 0.2888 608.6565 1475.7476)" class="st31" width="49.46" height="2.74"/>
	<path class="st25" d="M1291.04,346.9c-4.91,0-8.95,3.43-9.57,7.87h19.13C1299.99,350.33,1295.95,346.9,1291.04,346.9z"/>
	<g>
		<path class="st25" d="M1303.58,353.5c-3.66,0-7.3-0.61-7.59-0.66l0.11-0.62c3.66,0.62,13.4,1.57,14.49-1.49
			c0.48-1.36,0.03-3.65-0.6-6.82c-1.14-5.77-2.86-14.48-0.84-26.63c1.59-9.52,0.41-12.4-0.86-13.14c-1.33-0.78-3.11,0.64-3.13,0.66
			l-0.4-0.49c0.09-0.07,2.15-1.7,3.85-0.71c2.09,1.22,2.49,5.86,1.17,13.79c-2.01,12.04-0.3,20.69,0.83,26.41
			c0.65,3.27,1.11,5.63,0.57,7.15C1310.45,352.97,1307.01,353.5,1303.58,353.5z"/>
	</g>
	<g>
		<polygon class="st15" points="1135.85,416.67 1141.48,428.08 1154.07,429.91 1144.96,438.79 1147.11,451.33 1135.85,445.41 
			1124.59,451.33 1126.74,438.79 1117.63,429.91 1130.22,428.08 		"/>
		<polygon class="st15" points="1186.35,416.67 1191.98,428.08 1204.57,429.91 1195.46,438.79 1197.61,451.33 1186.35,445.41 
			1175.09,451.33 1177.24,438.79 1168.13,429.91 1180.72,428.08 		"/>
		<polygon class="st15" points="1239.73,416.67 1245.36,428.08 1257.95,429.91 1248.84,438.79 1250.99,451.33 1239.73,445.41 
			1228.47,451.33 1230.62,438.79 1221.51,429.91 1234.1,428.08 		"/>
		<polygon class="st15" points="1293.3,416.67 1298.93,428.08 1311.53,429.91 1302.41,438.79 1304.56,451.33 1293.3,445.41 
			1282.04,451.33 1284.19,438.79 1275.08,429.91 1287.67,428.08 		"/>
		<polygon class="st15" points="1339.77,416.67 1345.41,428.08 1358,429.91 1348.89,438.79 1351.04,451.33 1339.77,445.41 
			1328.51,451.33 1330.66,438.79 1321.55,429.91 1334.14,428.08 		"/>
	</g>
</g>
</svg>
