<?xml version="1.0" encoding="utf-8"?>
<!-- Generator: Adobe Illustrator 24.3.0, SVG Export Plug-In . SVG Version: 6.00 Build 0)  -->
<svg version="1.1" id="_x2014_ÎÓÈ_x5F_3" xmlns="http://www.w3.org/2000/svg" xmlns:xlink="http://www.w3.org/1999/xlink"
	 x="0px" y="0px" viewBox="0 0 1837.59 1928.73" style="enable-background:new 0 0 1837.59 1928.73;" xml:space="preserve">
<style type="text/css">
	.st0{fill:#B8CBF2;}
	.st1{fill:url(#SVGID_1_);}
	.st2{fill:#001729;}
	.st3{fill:url(#SVGID_2_);}
	.st4{fill:#F6DEF8;}
	.st5{fill:#FEF2FE;}
	.st6{fill:#00263F;}
	.st7{fill:#304969;}
	.st8{fill:#557393;}
	.st9{fill:url(#SVGID_3_);}
	.st10{fill:url(#SVGID_4_);}
	.st11{fill:url(#SVGID_5_);}
	.st12{fill:url(#SVGID_6_);}
	.st13{fill:url(#SVGID_7_);}
</style>
<g>
	<g>
		<path class="st0" d="M645.98,274.51l-3.62-10.08l72.39-17.61c0,0-7.52,18.25-5.42,40.1C687.46,287.81,666.24,282.65,645.98,274.51
			z"/>
		<linearGradient id="SVGID_1_" gradientUnits="userSpaceOnUse" x1="669.2493" y1="222.0669" x2="751.9216" y2="222.0669">
			<stop  offset="0" style="stop-color:#FCFEFF"/>
			<stop  offset="1" style="stop-color:#F0FBFF"/>
		</linearGradient>
		<path class="st1" d="M675.62,206.72c11.53-18.12,35.54-20.99,51.02-34.29l25.28,37.22l-11.74,7.83l11.74,46.96
			c0,0-18.15,5.33-42.54,7.26C681.79,257.16,657.23,235.01,675.62,206.72z"/>
		<path class="st0" d="M716.7,157.81l9.93,14.63c-15.48,13.3-39.49,16.16-51.02,34.29c-18.39,28.29,6.17,50.44,33.76,64.98
			c-20.29,1.61-44.9,0.87-67.02-7.26c-48.7-17.91-53.8-69.46-53.8-69.46L716.7,157.81z"/>
		<path class="st2" d="M633.88,213.24c0,0,127.82-41.74,173.8-136.63c0,0-167.28,40.11-250.43,131.08c0,0,31.3,53.8,85.11,56.74
			l-14.67-32.28c0,0-24.46-1.96-21.52-16.63C609.1,200.85,633.88,213.24,633.88,213.24z"/>
		<linearGradient id="SVGID_2_" gradientUnits="userSpaceOnUse" x1="725.4241" y1="191.1006" x2="910.5179" y2="191.1006">
			<stop  offset="0" style="stop-color:#FCFEFF"/>
			<stop  offset="1" style="stop-color:#F0FBFF"/>
		</linearGradient>
		<path class="st3" d="M804.75,181.29c-27.51-1.38-55.01-9.55-79.13-23.1c-0.03-0.12-0.09-0.25-0.11-0.37
			c-3.91-19.57,128.45-14.67,152.76,0c4.86,2.93,16.61,13.9,32.25,30.54c-0.41,18.01-7.56,35.34-19.1,48.95
			c-5.11-6.57-10.51-12.86-16.24-18.84C861.48,204.76,808.66,214.55,804.75,181.29z"/>
		<path class="st0" d="M804.75,181.29c3.91,33.26,56.74,23.48,70.43,37.17c5.73,5.97,11.13,12.27,16.24,18.84
			c-3.49,4.11-7.36,7.9-11.59,11.24c-6.28-8.83-11.88-15.7-16.39-19.65c0,0-48.91-0.65-65.54-30.98c0,0-67.58-20.28-72.28-39.73
			C749.73,171.74,777.23,179.91,804.75,181.29z"/>
		<path class="st4" d="M891.7,266.27c-4.14-6.48-8.12-12.46-11.87-17.73c4.23-3.34,8.1-7.13,11.59-11.24
			c4.5,5.79,8.76,11.79,12.8,17.98C900.36,259.25,896.18,262.94,891.7,266.27z"/>
		<path class="st5" d="M929.17,208.87c-3.38,17.37-12.39,33.46-24.95,46.41c-4.04-6.19-8.3-12.19-12.8-17.98
			c11.54-13.61,18.69-30.94,19.1-48.95C916.26,194.46,922.53,201.34,929.17,208.87z"/>
		<path class="st2" d="M891.7,266.27c4.48-3.33,8.66-7.02,12.52-10.99c23.6,36.11,39.64,78.57,50.29,121.94
			C936.86,343.67,912.35,298.62,891.7,266.27z"/>
		<path class="st2" d="M1082.57,490.41c0.71-14.91,0.38-29.56-0.69-44.05c8.05,23.72,12.4,46.31,11.45,66.55
			c0,0-124.86,6.24-265.59-49.4c-1.93-11.33-4.31-22.61-7.34-33.75C902.57,464.98,992.57,494.32,1082.57,490.41z"/>
		<path class="st2" d="M414.75,648.89C425.26,580,524.59,408.72,545.31,373.55c-38.97,85.12-85.9,166.07-108.38,257.73
			c-20.88,77.11-12.75,154.22-3.75,232.42c-3.27,0.14-6.53,0.45-9.77,0.99C416.49,805.19,406.69,701.78,414.75,648.89z"/>
		<path class="st2" d="M592.03,491.67L521.29,636.1c17.57-60.46,30.55-122.24,60.42-176.99
			C584.93,469.96,588.42,480.81,592.03,491.67z"/>
		<path class="st6" d="M436.93,631.28c22.48-91.65,69.41-172.61,108.38-257.73c2.43-4.12,3.79-6.4,3.79-6.4l115.76-40.11l60.65-1.96
			h67.5l185.21,98.15c0,0-9.69-19.38-23.71-46.02c-10.65-43.37-26.69-85.83-50.29-121.94c12.56-12.94,21.57-29.04,24.95-46.41
			c51.13,57.97,124.57,154.59,152.7,237.49c1.07,14.49,1.4,29.14,0.69,44.05c-90,3.91-180-25.43-262.17-60.65
			c3.04,11.14,5.41,22.41,7.34,33.75c-6.66-2.63-13.35-5.4-20.06-8.31L601.27,472.8l-9.24,18.87c-3.61-10.86-7.1-21.71-10.32-32.56
			c-29.86,54.75-42.85,116.53-60.42,176.99l-13.93,28.44c0,0-10.36,139.9-12.82,215.21c-19.18-10.03-40.43-16.95-61.37-16.05
			C424.18,785.5,416.04,708.39,436.93,631.28z"/>
		<path class="st5" d="M494.54,879.75c-0.24,7.31-0.4,14.02-0.48,19.92c-17.59-9.09-38.35-12.75-58.03-11.01
			c-0.94-8.33-1.91-16.65-2.86-24.96C454.12,862.8,475.36,869.71,494.54,879.75z"/>
		<path class="st4" d="M423.4,864.69c3.24-0.54,6.5-0.85,9.77-0.99c0.96,8.31,1.92,16.63,2.86,24.96c-3.22,0.28-6.42,0.7-9.56,1.27
			C425.59,882.96,424.53,874.41,423.4,864.69z"/>
		<path class="st2" d="M1113.87,709.54c-36.33,160.88-64.98,324.83-52.2,489.12c-11.75-58.37-49.22-267.41-14.32-405.5
			c0,0-135,149.2-305.21,180.51c-100.54,18.49-54.32-63.35,0.36-133.46c66.93-5.24,132.5-21.04,197.25-42.62
			C1002.35,774.1,1051.26,731.06,1113.87,709.54z"/>
		<path class="st6" d="M1223.43,593.68c0,0-43.04,354.55-158.47,620.63c0,0-1.27-5.62-3.29-15.65
			c-12.78-164.3,15.87-328.24,52.2-489.12c-62.61,21.52-111.52,64.56-174.13,88.04C875,819.16,809.43,834.96,742.5,840.2
			c37.9-48.59,79.86-91.53,79.86-91.53S1092.35,610.87,1223.43,593.68z"/>
		<path class="st6" d="M624.9,957.47c33.03,18.43,68.89,32.18,105.5,41.63c29.49-91.95,51.28-186.98,53.11-283.72
			c36.54,0.96,63.24,21.14,63.24,21.14s69.52,78.67-20.48,184.32c0,0-73.28,377.71-279.78,826.7
			C546.49,1747.53,574.98,1238.84,624.9,957.47z"/>
		<path class="st2" d="M661.37,975.45c-29.61,161.01-67.88,404.48-111.84,765.45c-1.01,2.21-2.02,4.42-3.04,6.64
			c0,0,28.49-508.69,78.41-790.06C636.72,964.07,648.92,970.04,661.37,975.45z"/>
		<path class="st2" d="M624.9,957.47c13.57-76.51,28.73-136.22,45.33-164.32c37.3-63.12,79.49-78.66,113.27-77.78
			c-1.83,96.74-23.61,191.77-53.11,283.72C693.8,989.65,657.93,975.9,624.9,957.47z"/>
		<path class="st2" d="M847.59,732.58c-1.16,5.32-2.37,10.68-3.71,16.09c0,0-17.33,64-118.37,38.48c0,0-0.79-10.54-2.3-28.39
			C766.94,771.05,812.37,761.34,847.59,732.58z"/>
		<path class="st5" d="M664.86,327.04l60.65-1.96h26.41c0,0,150.73,154.22,95.67,407.49c-35.23,28.76-80.65,38.47-124.38,26.18
			c-7.92-93.64-35.8-388.98-75.12-425.9L664.86,327.04z"/>
		<polygon class="st4" points="744.42,371.07 748.01,413.78 656.33,373.55 742.14,404 742.14,367.15 778.99,396.83 759.42,339.11 
			792.68,411.83 		"/>
		<path class="st7" d="M755.56,390.28c-0.19-0.67-0.3-1.03-0.3-1.03c50.95,57.31,110.13,270.4,110.13,270.4L821.56,764.2l-0.13-0.2
			C835.57,637.38,821.23,500.41,755.56,390.28z"/>
		<path class="st8" d="M755.56,390.28c65.67,110.14,80,247.1,65.87,373.73l-54.16-82.03C808.31,578.25,759.83,405.04,755.56,390.28z
			"/>
		<path class="st6" d="M642.36,686.06c-1.04-7.91-2.83-16.82-5.18-26.42c-6.6-68.81-35.89-134.67-55.47-200.53
			c-3.79,6.95-7.3,14.02-10.59,21.18c-8.3-18.96-13.87-30.97-13.87-30.97l-8.15-82.17l115.76-40.11c0,0,208.37,186.84,57.72,646.62
			c0,0-86.09-7.83-176.08-103.69C546.49,869.97,652.14,760.41,642.36,686.06z"/>
		<path class="st2" d="M637.18,659.64c-13.76-56.12-47.07-135.96-66.06-179.35c3.29-7.16,6.8-14.23,10.59-21.18
			C601.29,524.97,630.58,590.83,637.18,659.64z"/>
		<path class="st2" d="M725.51,325.09c0,0,153.58,92.93,118.37,423.58c0,0,73.04-208.04,43.04-339.78l-63.91-19.57l14.35-27.39
			l-60.09-36.85H725.51z"/>
		<polygon class="st2" points="549.36,1700.15 481.93,1769.95 745.4,1769.95 		"/>
		<polygon class="st2" points="1056.08,1169.15 1004.31,1247.57 1293.87,1169.15 		"/>
		<polygon class="st7" points="1614.97,1928.73 1503.21,1636.91 1374.08,1582.13 1346.69,1429.52 1182.35,1343.44 1134.65,1212.27 
			965.18,1257.35 953.14,1333.66 859.72,1388.44 793.01,1769.95 425.19,1769.95 190.11,1928.73 		"/>
		<linearGradient id="SVGID_3_" gradientUnits="userSpaceOnUse" x1="645.98" y1="320.8332" x2="742.1393" y2="320.8332">
			<stop  offset="0" style="stop-color:#FCFEFF"/>
			<stop  offset="1" style="stop-color:#F0FBFF"/>
		</linearGradient>
		<path class="st9" d="M709.33,286.93c1.2,12.46,5.52,26.08,16.18,38.16l16.63,42.06l-77.28-40.11l-18.88-52.53
			C666.24,282.65,687.46,287.81,709.33,286.93z"/>
		<path class="st2" d="M632.58,438.56l55.76-43.04l-50.87-18.3l8.92-43.77l18.47-6.4c0,0,135.87,121.85,108.84,410.88
			C752.43,626.42,632.58,438.56,632.58,438.56z"/>
		<g>
			<path class="st2" d="M709.43,807.36c1.03,0,2.03-0.54,2.56-1.5c0.79-1.41,0.29-3.2-1.13-3.99l-72.25-40.45
				c-1.41-0.79-3.2-0.29-3.99,1.13c-0.79,1.41-0.29,3.2,1.13,3.99L708,806.99C708.45,807.24,708.94,807.36,709.43,807.36z"/>
		</g>
		<g>
			<path class="st2" d="M766.27,749.65c0.43,0,0.82-0.28,0.94-0.71c0.15-0.52-0.16-1.06-0.68-1.21l-16.3-4.56
				c-0.53-0.15-1.06,0.16-1.21,0.68c-0.15,0.52,0.16,1.06,0.68,1.21l16.3,4.56C766.09,749.63,766.18,749.65,766.27,749.65z"/>
		</g>
		<g>
			<path class="st2" d="M761.52,775.92c0.43,0,0.82-0.28,0.94-0.71c0.15-0.52-0.16-1.06-0.68-1.21l-16.3-4.56
				c-0.53-0.15-1.06,0.16-1.21,0.68c-0.15,0.52,0.16,1.06,0.68,1.21l16.3,4.56C761.34,775.91,761.43,775.92,761.52,775.92z"/>
		</g>
		<g>
			<path class="st6" d="M661.88,439.87c0.19,0,0.37-0.05,0.54-0.16l13.74-9.13c0.45-0.3,0.57-0.91,0.27-1.35
				c-0.3-0.45-0.91-0.57-1.35-0.27l-13.74,9.13c-0.45,0.3-0.57,0.91-0.27,1.35C661.25,439.72,661.56,439.87,661.88,439.87z"/>
		</g>
		<g>
			<path class="st2" d="M704.21,509c1.44,0,2.69-1.05,2.9-2.52c0.23-1.6-0.89-3.09-2.49-3.32l-95.76-13.7
				c-1.59-0.22-3.09,0.88-3.32,2.49c-0.23,1.6,0.89,3.09,2.49,3.32l95.76,13.7C703.93,508.99,704.07,509,704.21,509z"/>
		</g>
		<path class="st5" d="M887.6,251.05c0,2.33,1.89,4.22,4.22,4.22c2.33,0,4.22-1.89,4.22-4.22c0-2.33-1.89-4.22-4.22-4.22
			C889.49,246.83,887.6,248.72,887.6,251.05z"/>
		<path class="st5" d="M427.56,875.51c0,2.34,1.9,4.24,4.24,4.24c2.34,0,4.24-1.9,4.24-4.24c0-2.34-1.9-4.24-4.24-4.24
			C429.46,871.27,427.56,873.17,427.56,875.51z"/>
		<path class="st6" d="M424.25,844.88c0,3.25,2.64,5.89,5.89,5.89c3.25,0,5.89-2.64,5.89-5.89c0-3.25-2.64-5.89-5.89-5.89
			C426.89,838.99,424.25,841.63,424.25,844.88z"/>
		<path class="st6" d="M421.67,824.83c0,3.25,2.64,5.89,5.89,5.89s5.89-2.64,5.89-5.89c0-3.25-2.64-5.89-5.89-5.89
			S421.67,821.57,421.67,824.83z"/>
		<path class="st6" d="M420.02,806.4c0,3.25,2.64,5.89,5.89,5.89c3.25,0,5.89-2.64,5.89-5.89s-2.64-5.89-5.89-5.89
			C422.65,800.51,420.02,803.15,420.02,806.4z"/>
		<polygon class="st7" points="744.42,371.07 762.54,386.37 766.11,407.42 745.95,389.24 		"/>
		<polygon class="st7" points="617.75,1120.35 250.36,974.76 159.84,1200.21 526.55,1352.5 		"/>
		<path class="st8" d="M402.23,948.71c19.38-10.39,41.44-11.12,65.55-2.17c6.55,2.43,12.49,5.35,17.85,8.73
			c-1.33,0.02-2.6,0.23-3.7,0.78c-2.66,1.78-4.48,3.98-5.53,6.56c-3.76-2.08-7.8-3.95-12.18-5.57c-21.23-7.87-40.43-7.35-57.08,1.56
			c-33,17.65-45.9,62.62-46.03,63.08l-10.23-3.11C351.45,1016.53,365.12,968.6,402.23,948.71z"/>
		<polygon class="st8" points="617.75,1120.35 388.79,1163.63 250.36,974.76 		"/>
		<polygon class="st8" points="617.75,1120.35 566.28,1332.44 526.55,1352.5 		"/>
		<path class="st6" d="M369.82,1163.63c0,10.48,8.49,18.97,18.97,18.97c10.48,0,18.97-8.49,18.97-18.97
			c0-10.48-8.49-18.97-18.97-18.97C378.32,1144.66,369.82,1153.16,369.82,1163.63z"/>
		<linearGradient id="SVGID_4_" gradientUnits="userSpaceOnUse" x1="407.4978" y1="958.8509" x2="517.8173" y2="958.8509">
			<stop  offset="0" style="stop-color:#FCFEFF"/>
			<stop  offset="1" style="stop-color:#F0FBFF"/>
		</linearGradient>
		<path class="st10" d="M411.49,993.23c-9.78-27.39-1.96-64.56,27.39-78.26c-0.9-8.79-1.86-17.56-2.85-26.31
			c19.68-1.73,40.44,1.93,58.03,11.01c-0.1,8.02-0.03,14.59,0.25,19.21c0,0,25.92,41.53,23.31,55.88
			c-2.61,14.35-33.55-26.9-32.44-12.84c0.98,12.47,35.54,24.29,29.02,38.64c-1.91,4.19-15.48,22.15-23.55,28.45
			C457.11,1031.34,421.73,1025.4,411.49,993.23z"/>
		<path class="st0" d="M429.1,909.75c0,0-1.05-7.4-2.63-19.82c3.15-0.57,6.34-0.99,9.56-1.27c0.99,8.76,1.95,17.52,2.85,26.31
			c-29.35,13.7-37.17,50.87-27.39,78.26c10.24,32.17,45.61,38.11,79.17,35.79c-19.52,15.26-54.55,26.26-92.86-17.53
			C397.8,1011.49,357.36,960.62,429.1,909.75z"/>
		<path class="st8" d="M481.93,956.05c1.11-0.55,2.37-0.77,3.7-0.78c13.73,8.63,23.53,20.31,29.22,34.9
			c16.14,41.42-6.69,90.97-7.67,93.05l-9.56-4.9c0.22-0.47,21.71-47.24,7.36-83.99c-5.27-13.5-14.87-24.12-28.58-31.72
			C477.45,960.03,479.26,957.83,481.93,956.05z"/>
		<polygon class="st2" points="1134.65,1212.27 1134.65,1352.5 1053.22,1421.51 1186.26,1380.61 1346.69,1429.52 1182.35,1343.44 		
			"/>
		<polygon class="st2" points="859.72,1388.44 945.61,1709.3 1268.43,1812.99 793.01,1769.95 		"/>
		<polygon class="st2" points="1374.08,1582.13 1473.86,1656.47 1113.87,1691.69 1561.91,1790.17 1503.21,1636.91 		"/>
		<polygon class="st2" points="982.97,1388.44 1082.94,1546.91 1233.22,1560.61 1021.92,1608.5 		"/>
	</g>
	<g>
		<linearGradient id="SVGID_5_" gradientUnits="userSpaceOnUse" x1="259.3259" y1="1818.4447" x2="1599.8724" y2="1818.4447">
			<stop  offset="0" style="stop-color:#FCFEFF"/>
			<stop  offset="1" style="stop-color:#F0FBFF"/>
		</linearGradient>
		<path class="st11" d="M1599.87,1928.73H259.33l484.66-59.92c0,0,2.7-115.56,162-68.48c0,0,13.01-87.74,136.1-92.02
			c123.09-4.28,114.99,79.18,114.99,79.18s156.6-81.32,248.4-2.14c91.8,79.18-54,100.58-54,100.58L1599.87,1928.73z"/>
		<linearGradient id="SVGID_6_" gradientUnits="userSpaceOnUse" x1="1235.8108" y1="49.5079" x2="1837.5887" y2="49.5079">
			<stop  offset="0" style="stop-color:#FCFEFF"/>
			<stop  offset="1" style="stop-color:#F0FBFF"/>
		</linearGradient>
		<path class="st12" d="M1837.59,99.02h-601.78l217.57-26.9c0,0,1.21-51.87,72.72-30.74c0,0,5.84-39.39,61.1-41.31
			c55.26-1.92,51.62,35.54,51.62,35.54s70.3-36.5,111.51-0.96c41.21,35.54-24.24,45.15-24.24,45.15L1837.59,99.02z"/>
		<linearGradient id="SVGID_7_" gradientUnits="userSpaceOnUse" x1="0" y1="302.6531" x2="401.1953" y2="302.6531">
			<stop  offset="0" style="stop-color:#FCFEFF"/>
			<stop  offset="1" style="stop-color:#F0FBFF"/>
		</linearGradient>
		<path class="st13" d="M0,335.66h401.2l-145.05-17.93c0,0-0.81-34.58-48.48-20.49c0,0-3.89-26.26-40.73-27.54
			c-36.84-1.28-34.41,23.7-34.41,23.7s-46.87-24.34-74.34-0.64c-27.47,23.7,16.16,30.1,16.16,30.1L0,335.66z"/>
	</g>
</g>
</svg>
