<svg width="279" height="72" viewBox="0 0 279 72" fill="none" xmlns="http://www.w3.org/2000/svg">
<path fill-rule="evenodd" clip-rule="evenodd" d="M178.135 35.2013L190.292 23.8778H181.891L168.301 36.4892V5.04857H162.421V55.1121H168.293V44.316L173.681 39.2905L185.159 55.1083H192.595L178.105 35.1937L178.135 35.2013ZM103.43 23.2625C100.048 23.4307 96.8105 24.6995 94.2098 26.8778V23.8778H88.3337V55.1236H94.206V38.3427C94.1336 33.2408 98.2023 29.0447 103.293 28.9682C108.384 28.8956 112.571 32.9733 112.647 38.0752C112.647 38.1631 112.647 38.2548 112.647 38.3427V55.1236H118.519V38.3427C118.599 30.0956 111.991 23.3466 103.766 23.2663C103.655 23.2663 103.541 23.2663 103.43 23.2663V23.2625ZM139.828 23.1937C130.824 23.0562 123.415 30.26 123.278 39.2829C123.141 48.3058 130.329 55.7312 139.332 55.8688C139.5 55.8726 139.664 55.8726 139.831 55.8688C148.834 56.0064 156.243 48.8026 156.381 39.7797C156.518 30.7568 149.33 23.3313 140.327 23.1937C140.159 23.1899 139.991 23.1899 139.828 23.1937ZM139.828 50.0026C134.058 49.9643 129.41 45.2446 129.448 39.4625C129.486 33.6803 134.195 29.0217 139.965 29.06C145.692 29.0982 150.322 33.7529 150.344 39.493C150.337 45.3096 145.627 50.014 139.828 50.0026ZM209.141 49.5249C206.551 49.3491 204.53 47.2128 204.496 44.614V29.4727H214.124V23.8778H204.496V11.8091H198.624V23.8855H193.979V29.4803H198.62V44.7669C198.605 50.4765 203.207 55.1197 208.904 55.1389C208.935 55.1389 208.965 55.1389 209 55.1389H215.898L214.395 49.544H209.137L209.141 49.5249ZM234.613 23.1937C225.61 23.0562 218.201 30.26 218.064 39.2829C217.926 48.3058 225.114 55.7312 234.117 55.8688C234.285 55.8726 234.449 55.8726 234.617 55.8688C243.62 56.0064 251.029 48.8026 251.166 39.7797C251.303 30.7568 244.116 23.3313 235.113 23.1937C234.941 23.1899 234.773 23.1899 234.613 23.1937ZM234.613 50.0026C228.844 49.9643 224.195 45.2484 224.233 39.4663C224.271 33.6841 228.977 29.0256 234.746 29.0638C240.474 29.102 245.107 33.7529 245.126 39.4969C245.118 45.3096 240.409 50.014 234.613 50.0026ZM277.565 41.1364C276.711 39.9899 275.586 39.0765 274.29 38.4765C271.941 37.5593 269.515 36.8523 267.044 36.3593C262.88 35.4727 261.241 34.3797 261.241 32.3351C261.351 30.9517 262.221 29.744 263.494 29.1975C264.543 28.716 265.687 28.4829 266.842 28.5135C269.424 28.6128 271.903 29.5721 273.874 31.2421L277.283 27.2829C274.854 25.3262 271.96 24.0345 268.882 23.5339C268.131 23.4651 267.311 23.4001 266.56 23.4001C264.699 23.3886 262.858 23.7861 261.165 24.5619C259.624 25.2001 258.282 26.2358 257.271 27.5619C256.306 28.9682 255.784 30.6307 255.769 32.3389C255.723 35.4077 257.416 38.2357 260.139 39.6383C262.495 40.5937 264.943 41.3045 267.449 41.7555C271.685 42.5045 273.527 43.8 273.527 45.9172C273.496 47.4879 272.528 48.8866 271.067 49.4637C269.923 49.9605 268.692 50.2166 267.445 50.2128C264.227 50.0637 261.172 48.7567 258.838 46.5287L255.162 50.5491C257.847 52.8229 261.069 54.3745 264.52 55.051C265.576 55.265 266.652 55.3796 267.731 55.3949C269.66 55.4064 271.567 55.0127 273.333 54.2331C275.007 53.4994 276.448 52.3185 277.497 50.8204C278.499 49.3835 279.026 47.6637 278.999 45.9096C279.026 44.209 278.522 42.5389 277.565 41.1364ZM71.8414 36.1147C71.9024 16.2307 55.8716 0.0613203 36.0314 0.00017396C16.195 -0.0609723 0.0611853 16.0052 0.000173577 35.8892C-0.0608381 55.7733 15.97 71.9388 35.8064 71.9999C35.8445 71.9999 35.8827 71.9999 35.917 71.9999C55.7229 72.0343 71.8033 55.9682 71.8376 36.1185C71.8414 36.1185 71.8414 36.1147 71.8414 36.1147ZM20.0883 43.4255C18.8719 40.9491 18.2617 38.2166 18.2999 35.4536C18.3342 29.4077 21.3924 23.7861 26.4411 20.4842C27.9931 19.4065 29.7853 18.7148 31.6576 18.4778C31.6576 18.4778 23.7299 42.7758 51.6084 43.5975C48.7561 49.2879 43.002 52.9299 36.6491 53.0713C29.7281 53.3694 23.2609 49.6051 20.0883 43.4255Z" fill="white"/>
</svg>
