<?xml version="1.0" encoding="utf-8"?>
<!-- Generator: Adobe Illustrator 24.3.0, SVG Export Plug-In . SVG Version: 6.00 Build 0)  -->
<svg version="1.1" id="Capa_1" xmlns="http://www.w3.org/2000/svg" xmlns:xlink="http://www.w3.org/1999/xlink" x="0px" y="0px"
	 viewBox="0 0 500 500" style="enable-background:new 0 0 500 500;" xml:space="preserve">
<style type="text/css">
	.st0{fill:#2F4869;}
</style>
<g id="YtwEUD.tif">
	<g>
		<path class="st0" d="M5.53,264.66c0-9.53,0-19.06,0-28.59c0.28-1.52,0.6-3.04,0.84-4.58c2.1-13.3,3.21-26.84,6.42-39.87
			C43.76,65.79,168.71-14,295.57,10.72c52.83,10.3,97.78,35.1,133.83,74.94c51.02,56.4,71.34,122.95,61.78,198.24
			c-6.12,48.19-25.86,90.67-58.01,127.11c-37.86,42.92-85.03,69.68-141.53,79.59c-9.19,1.61-18.51,2.53-27.77,3.76
			c-9.53,0-19.07,0-28.6,0c-6.44-0.77-12.89-1.42-19.31-2.33c-48.12-6.79-90.66-26.01-127.08-58.17
			c-42.9-37.88-69.73-85-79.59-141.52C7.68,283.18,6.77,273.89,5.53,264.66z M133.96,159.62c-15.88,6.36-31.03,11.62-45.48,18.4
			c-20.71,9.71-39.78,22.03-53.24,41.24c-11.04,15.76-14.2,32.78-6.41,50.88c5.12,11.89,13.48,21.46,23.33,29.69
			c21.32,17.81,46.18,28.87,72.33,37.24c33.31,10.65,67.6,15.84,102.48,17.51c37.94,1.82,75.52-0.9,112.79-8.31
			c3.81-0.76,5.32-2.31,5.78-5.96c0.47-3.76,1.26-7.53,2.41-11.14c1.49-4.67,5.88-7.12,10.43-6.34c4.52,0.77,7.67,4.56,7.65,9.48
			c-0.01,2.42-0.36,4.84-0.57,7.56c21.48-6.05,41.64-14.05,60.44-25.16c14.72-8.7,28.24-18.97,38.06-33.3
			c8.07-11.77,12.42-24.55,9.78-39.08c-3.16-17.39-13.61-30.18-26.52-41.15c-21.29-18.1-46.38-29.13-72.69-37.54
			c-33.16-10.59-67.29-15.78-102.01-17.46c-38.42-1.86-76.48,0.81-114.18,8.57c-2.81,0.58-4.01,1.5-4.42,4.39
			c-0.65,4.54-1.6,9.08-2.92,13.47c-1.4,4.65-5.92,7.12-10.44,6.31c-4.58-0.82-7.78-4.59-7.7-9.48
			C132.91,166.78,133.44,164.13,133.96,159.62z M159.36,134.84c1.97-0.27,2.71-0.39,3.46-0.48c16.52-2.11,32.98-4.92,49.56-6.2
			c63.9-4.92,126.5,1.2,186.86,24.03c20.73,7.84,40.2,18.11,57.55,32.08c3.24,2.61,6.29,5.45,9.93,8.64
			c-19.9-78.94-85.7-141.48-159.36-159.5c4,4.85,8.19,9.35,11.71,14.33c5.03,7.12,9.78,14.45,14.22,21.95
			c2.86,4.82,1.25,10.23-3.1,12.95c-4.23,2.65-9.62,1.41-12.94-3.14c-1.49-2.05-2.72-4.28-4.03-6.46
			c-7.31-12.2-15.82-23.42-26.85-32.53c-13.41-11.07-28.37-17.55-46.14-14.05c-13.2,2.6-23.88,9.93-33.34,19.21
			c-14.87,14.6-25.01,32.37-33.3,51.17C168.27,108.93,164.27,121.61,159.36,134.84z M338.9,367.02
			c-22.01,2.22-43.56,5.19-65.21,6.42c-49.32,2.8-98.01-1.78-145.63-15.45c-30.09-8.64-58.68-20.54-83.64-39.94
			c-3.98-3.09-7.71-6.5-12.33-10.41c10.81,39.74,30.38,73.26,58.64,101.79c31.88,32.19,74.74,52.73,100.58,57.47
			c-4.38-5.45-9.26-10.73-13.22-16.62c-5.74-8.54-11.03-17.42-16.1-26.38c-2.88-5.09-1.06-10.69,3.51-13.23
			c4.67-2.59,9.81-1.05,13.08,4.03c1.2,1.86,2.2,3.86,3.25,5.81c7.49,13.94,16.37,26.86,28.23,37.46
			c12.46,11.14,26.54,18.82,43.9,17.08c15.37-1.54,27.84-9.34,38.42-20.16C316.62,430.08,329.06,399.02,338.9,367.02z
			 M307.86,467.17c80.03-19.48,142.58-89.25,158.46-158.92c-3.98,3.37-7.73,6.78-11.72,9.88c-25.88,20.06-55.53,32.22-86.8,40.72
			c-5.49,1.49-8.3,3.75-9.79,9.49c-7.08,27.31-17.32,53.37-33.29,76.83C319.49,452.83,313.44,459.93,307.86,467.17z M192.48,33.11
			c-80.53,20.5-142.06,86.75-159.98,159.86c1.72-1.53,2.91-2.72,4.23-3.74c6.38-4.97,12.52-10.29,19.23-14.75
			c24.02-15.97,50.64-26.07,78.33-33.51c3.25-0.87,4.84-2.26,5.92-5.62c4.91-15.21,9.63-30.53,15.62-45.33
			C164.27,69.17,176.12,50.24,192.48,33.11z"/>
		<path class="st0" d="M292.53,250.31c0-11.12-0.01-22.23,0-33.35c0.02-16.03,9.81-25.73,25.92-25.71
			c7.62,0.01,15.25-0.06,22.87,0.04c14.16,0.19,24.21,9.69,24.38,23.85c0.28,23.5,0.27,47.01-0.03,70.51
			c-0.18,14.17-10.2,23.62-24.41,23.78c-8.1,0.1-16.2,0.1-24.3,0c-14.37-0.19-24.22-9.99-24.38-24.34
			c-0.13-11.59-0.03-23.19-0.03-34.78C292.54,250.31,292.54,250.31,292.53,250.31z M311.62,249.97c0.01,0,0.01,0,0.02,0
			c0,11.27-0.02,22.54,0.01,33.82c0.02,5.17,1.35,6.56,6.4,6.59c7.46,0.05,14.93-0.09,22.39,0.05c4.5,0.09,6.29-1.98,6.28-6.34
			c-0.06-22.54-0.05-45.09,0-67.63c0.01-4.45-2.04-6.26-6.44-6.17c-7.3,0.15-14.61,0.01-21.91,0.05c-5.38,0.03-6.71,1.33-6.73,6.76
			C311.59,228.06,311.62,239.02,311.62,249.97z"/>
		<path class="st0" d="M230.33,237.17c9.62,0,18.5-0.01,27.37,0c16.75,0.02,26.38,9.51,26.48,26.13c0.04,7.14,0.1,14.28-0.02,21.42
			c-0.26,15.13-9.79,24.59-24.85,24.72c-7.94,0.07-15.87,0.1-23.81-0.01c-14.22-0.19-24.09-9.71-24.21-23.85
			c-0.19-23.64-0.17-47.29,0.05-70.93c0.12-13.42,9.86-23.03,23.2-23.33c8.09-0.18,16.19-0.12,24.28-0.02
			c6.6,0.08,10.81,3.91,10.79,9.53c-0.02,5.61-4.23,9.38-10.85,9.47c-7.46,0.1-14.92,0.11-22.38-0.01
			c-4.18-0.07-6.16,1.62-6.08,5.92C230.42,223,230.33,229.8,230.33,237.17z M230.35,256.29c0,10.21-0.01,19.72,0,29.22
			c0,3.07,1.58,4.81,4.64,4.83c8.41,0.07,16.82,0.06,25.23,0.01c3.02-0.02,4.78-1.68,4.81-4.73c0.07-8.09,0.04-16.18,0.02-24.28
			c-0.01-3.35-1.95-4.99-5.09-5.02C250.32,256.23,240.67,256.29,230.35,256.29z"/>
		<path class="st0" d="M183.74,259.9c-6.71,0-12.87,0-19.03,0c-7.91,0-12.29-3.31-12.39-9.34c-0.1-6.2,4.34-9.67,12.53-9.72
			c5.72-0.04,11.43-0.03,17.15-0.06c0.31,0,0.63-0.1,1.64-0.26c0-8.67,0.2-17.49-0.21-26.28c-0.06-1.36-2.87-3.61-4.52-3.7
			c-7.12-0.41-14.28-0.19-21.43-0.18c-3.07,0-4.47,1.76-5.07,4.62c-1.45,6.83-5.51,10.2-10.87,9.23c-5.95-1.08-8.85-6.02-7.69-13.06
			c1.85-11.18,10.48-19.24,21.79-19.73c8.24-0.36,16.52-0.36,24.77-0.01c12.32,0.52,22.06,9.94,22.25,22.39
			c0.38,24.45,0.39,48.91-0.05,73.35c-0.23,12.69-10.18,21.88-22.85,22.25c-7.62,0.22-15.25,0.2-22.87,0.02
			c-12.75-0.31-22.14-9.2-23.4-21.89c-0.64-6.51,2.9-11.45,8.67-12.08c5.17-0.57,9.46,3.28,10.21,9.55
			c0.43,3.64,2.03,5.46,5.78,5.42c6.67-0.07,13.34-0.05,20.01-0.01c3.75,0.02,5.58-1.79,5.58-5.51
			C183.74,276.81,183.74,268.72,183.74,259.9z"/>
		<path class="st0" d="M348.78,105.13c0.07,5.06-4.08,9.38-9.18,9.58c-5,0.2-9.66-4.4-9.76-9.62c-0.09-5,4.13-9.32,9.27-9.47
			C344.36,95.46,348.71,99.74,348.78,105.13z"/>
		<path class="st0" d="M148.16,389.61c-0.08-5.14,4.01-9.4,9.15-9.54c5.21-0.14,9.73,4.49,9.83,10.06c0.09,4.98-4.16,9.38-9.23,9.55
			C152.63,399.86,148.25,395.34,148.16,389.61z"/>
	</g>
</g>
</svg>
