<?xml version="1.0" encoding="utf-8"?>
<!-- Generator: Adobe Illustrator 24.3.0, SVG Export Plug-In . SVG Version: 6.00 Build 0)  -->
<svg version="1.1" id="Capa_1" xmlns="http://www.w3.org/2000/svg" xmlns:xlink="http://www.w3.org/1999/xlink" x="0px" y="0px"
	 viewBox="0 0 500 500" style="enable-background:new 0 0 500 500;" xml:space="preserve">
<style type="text/css">
	.st0{fill-rule:evenodd;clip-rule:evenodd;fill:#2F4869;}
</style>
<g>
	
		<ellipse transform="matrix(0.1327 -0.9912 0.9912 0.1327 58.602 386.2274)" class="st0" cx="250" cy="159.63" rx="65.37" ry="65.36"/>
	
		<ellipse transform="matrix(0.02 -0.9998 0.9998 0.02 -96.8004 263.3239)" class="st0" cx="85.92" cy="181.04" rx="55.69" ry="55.69"/>
	
		<ellipse transform="matrix(0.02 -0.9998 0.9998 0.02 224.8001 591.4182)" class="st0" cx="414.08" cy="181.04" rx="55.69" ry="55.69"/>
	<path class="st0" d="M445.18,236.73h-31.1h-31.1c-16.61,0-31.51,7.4-41.56,19.09c-11.31-18.48-31.69-30.83-54.92-30.83H250h-36.5
		c-23.24,0-43.61,12.35-54.92,30.83c-10.06-11.68-24.95-19.09-41.56-19.09h-31.1h-31.1C24.57,236.73,0,261.3,0,291.56v12.77h149.16
		h22.68h7.53c12.55-26.4,39.47-44.67,70.63-44.67c31.15,0,58.08,18.27,70.63,44.67h7.53h22.68H500v-12.77
		C500,261.3,475.43,236.73,445.18,236.73z"/>
	<path class="st0" d="M250,269.89c-37.49,0-67.92,30.44-67.92,67.92c0,37.49,30.44,67.92,67.92,67.92
		c37.49,0,67.92-30.44,67.92-67.92C317.92,300.33,287.49,269.89,250,269.89z M302.58,319.64c-0.16,2.03-1.12,3.92-2.68,5.24
		c-13.44,11.46-46.39,39.56-59.83,51.02c-1.55,1.32-3.56,1.97-5.6,1.81c-2.03-0.16-3.92-1.12-5.24-2.68
		c-3.77-4.42-8.29-9.72-8.29-9.72l0.09-0.08c0,0-13.98-16.02-21.74-24.92c-1.34-1.54-2.02-3.54-1.88-5.58
		c0.14-2.03,1.08-3.93,2.62-5.27c1.25-1.09,2.58-2.25,3.83-3.34c1.54-1.34,3.54-2.02,5.58-1.88c2.03,0.14,3.93,1.08,5.27,2.62
		c7.8,8.94,21.9,25.1,21.9,25.1s35.7-30.44,50.02-42.66c1.55-1.32,3.56-1.97,5.6-1.81c2.03,0.16,3.92,1.12,5.24,2.68
		c1.08,1.27,2.22,2.6,3.3,3.87C302.09,315.59,302.74,317.6,302.58,319.64z"/>
</g>
</svg>
