<?xml version="1.0" encoding="utf-8"?>
<!-- Generator: Adobe Illustrator 24.3.0, SVG Export Plug-In . SVG Version: 6.00 Build 0)  -->
<svg version="1.1" id="Capa_1" xmlns="http://www.w3.org/2000/svg" xmlns:xlink="http://www.w3.org/1999/xlink" x="0px" y="0px"
	 viewBox="0 0 500 500" style="enable-background:new 0 0 500 500;" xml:space="preserve">
<style type="text/css">
	.st0{fill:none;}
	.st1{fill:#2F4869;}
	.st2{fill:#FFFFFF;}
</style>
<g>
	<g>
		<path class="st0" d="M242.9,123.09c26.14,11.83,61.13,18.34,98.5,18.34s72.36-6.51,98.5-18.34c23.21-10.5,36.55-24.05,36.63-37.2
			c-0.01-13.18-13.36-26.78-36.63-37.3c-26.15-11.83-61.13-18.34-98.5-18.34s-72.36,6.51-98.5,18.34
			c-23.24,10.51-36.58,24.09-36.63,37.25C206.32,99,219.67,112.57,242.9,123.09z M262.29,103.82c1.69-5.26,7.32-8.15,12.58-6.47
			c23.62,7.58,51.55,11.58,80.78,11.58c5.52,0,10,4.48,10,10s-4.48,10-10,10c-31.27,0-61.32-4.33-86.89-12.54
			C263.5,114.71,260.6,109.08,262.29,103.82z M234.26,81.28c3.43-5.73,10.87-7.6,16.6-4.16c5.73,3.43,7.6,10.87,4.16,16.6
			c-3.43,5.73-10.87,7.6-16.6,4.16C232.69,94.45,230.83,87.01,234.26,81.28z"/>
		<path class="st1" d="M496.53,85.63c-0.15-21.59-17.31-41.21-48.38-55.27c-28.68-12.98-66.59-20.12-106.75-20.12
			c-40.16,0-78.07,7.15-106.75,20.12c-31.07,14.06-48.23,33.68-48.38,55.27c0,0.05-0.01,0.09-0.01,0.14v47.39v0.2v47.39
			c0,0.09,0.01,0.18,0.01,0.27c0,0.05-0.01,0.09-0.01,0.13v47.39v0.2v47.39c0,1.26,0.06,2.52,0.18,3.76
			c-0.11,0.6-0.18,1.22-0.18,1.86v47.39v0.2v47.39c0,21.7,17.18,41.43,48.39,55.54c28.68,12.98,66.59,20.12,106.75,20.12
			c40.49,0,78.3-6.6,106.47-18.59c31.29-13.32,48.52-32.56,48.52-54.16l0.15-50.29c0-0.06,0-0.11,0-0.17v0c0-0.01,0-0.02,0-0.03
			c0-0.53-0.05-1.05-0.13-1.56l0.13-45.62c0-0.06,0-0.11,0-0.17v0c0-0.01,0-0.02,0-0.03c0-0.62-0.06-1.22-0.17-1.8
			c0.01-0.3,0.02-0.61,0.02-0.91l0.15-50.29c0-0.06,0-0.11,0-0.17v0c0-0.01,0-0.02,0-0.03c0-0.53-0.05-1.05-0.13-1.56l0.13-45.62
			c0-0.06,0-0.11,0-0.17v0c0-0.01,0-0.02,0-0.03c0-0.54-0.05-1.06-0.14-1.57l0.14-46.22c0-0.06,0-0.11,0-0.17v0
			c0-0.01,0-0.02,0-0.03c0-0.53-0.05-1.05-0.13-1.56l0.13-45.62c0-0.02,0-0.03,0-0.05c0,0,0-0.01,0-0.01c0,0,0-0.01,0-0.01
			c0-0.03,0-0.06,0-0.1v0c0-0.01,0-0.02,0-0.03C496.54,85.72,496.53,85.67,496.53,85.63z M476.39,331.47
			c-1.47,12.44-14.58,25.07-36.49,34.98c-26.15,11.83-61.13,18.34-98.5,18.34s-72.36-6.51-98.5-18.34
			c-23.28-10.53-36.63-24.14-36.63-37.32v-9.35c7.5,6.46,17.01,12.36,28.39,17.5c28.68,12.98,66.59,20.12,106.75,20.12
			c40.16,0,78.07-7.15,106.75-20.12c11.32-5.12,20.8-10.98,28.27-17.41L476.39,331.47z M206.27,123.81
			c7.5,6.46,17.01,12.36,28.39,17.5c28.68,12.98,66.59,20.12,106.75,20.12c40.16,0,78.07-7.15,106.75-20.12
			c11.32-5.12,20.8-10.98,28.27-17.41l-0.03,11.59c-1.47,12.44-14.58,25.07-36.49,34.98c-26.15,11.83-61.13,18.34-98.5,18.34
			s-72.36-6.51-98.5-18.34c-23.28-10.53-36.63-24.14-36.63-37.32V123.81z M476.39,183.5c-1.48,12.44-14.59,25.06-36.48,34.96
			c-13.15,5.95-28.54,10.55-45.34,13.66c-16.52,2.8-34.49,4.28-53.16,4.28c-37.38,0-72.36-6.51-98.5-18.34
			c-23.28-10.53-36.63-24.14-36.63-37.32v-9.54c7.5,6.46,17.01,12.36,28.39,17.5c28.68,12.98,66.59,20.12,106.75,20.12
			c40.16,0,78.07-7.15,106.75-20.12c11.32-5.12,20.8-10.98,28.27-17.41L476.39,183.5z M440.04,314.79
			c-25.75,10.96-60.78,16.99-98.63,16.99c-37.38,0-72.36-6.51-98.5-18.34c-23.28-10.53-36.63-24.14-36.63-37.32v-9.54
			c7.5,6.46,17.01,12.36,28.39,17.5c28.68,12.98,66.59,20.12,106.75,20.12s78.07-7.15,106.75-20.12
			c11.32-5.12,20.8-10.98,28.27-17.41L476.39,279C476.39,291.91,463.14,304.96,440.04,314.79z M439.91,265.85
			c-26.14,11.83-61.13,18.34-98.5,18.34c-37.38,0-72.36-6.51-98.5-18.34c-23.28-10.53-36.63-24.14-36.63-37.32v-9.35
			c7.5,6.46,17.01,12.36,28.39,17.5c28.68,12.98,66.59,20.12,106.75,20.12c40.16,0,78.07-7.15,106.75-20.12
			c11.32-5.12,20.8-10.98,28.27-17.41l-0.03,11.59C474.92,243.32,461.81,255.94,439.91,265.85z M242.9,48.58
			c26.14-11.83,61.13-18.34,98.5-18.34s72.36,6.51,98.5,18.34c23.27,10.53,36.62,24.12,36.63,37.3
			c-0.08,13.15-13.42,26.7-36.63,37.2c-26.15,11.83-61.13,18.34-98.5,18.34s-72.36-6.51-98.5-18.34
			c-23.24-10.51-36.58-24.09-36.63-37.25C206.32,72.67,219.67,59.1,242.9,48.58z M476.39,379.59c0,12.91-13.25,25.96-36.35,35.79
			c-25.75,10.96-60.78,16.99-98.63,16.99c-37.38,0-72.36-6.51-98.5-18.34c-23.28-10.53-36.63-24.14-36.63-37.32v-9.54
			c7.5,6.46,17.01,12.36,28.39,17.5c28.68,12.98,66.59,20.12,106.75,20.12c40.16,0,78.07-7.15,106.75-20.12
			c11.32-5.12,20.8-10.98,28.27-17.41L476.39,379.59z"/>
		<path class="st1" d="M238.42,97.88c5.73,3.43,13.16,1.57,16.6-4.16c3.43-5.73,1.57-13.17-4.16-16.6
			c-5.73-3.43-13.16-1.57-16.6,4.16C230.83,87.01,232.69,94.45,238.42,97.88z"/>
		<path class="st1" d="M268.76,116.4c25.57,8.2,55.62,12.54,86.89,12.54c5.52,0,10-4.48,10-10s-4.48-10-10-10
			c-29.23,0-57.16-4-80.78-11.58c-5.26-1.68-10.89,1.21-12.58,6.47C260.6,109.08,263.5,114.71,268.76,116.4z"/>
	</g>
	<path class="st2" d="M313.72,318.99c-0.15-21.59-17.31-41.21-48.38-55.27c-28.68-12.98-66.59-20.12-106.75-20.12
		s-78.07,7.15-106.75,20.12C20.78,277.78,3.61,297.4,3.47,318.99c0,0.05-0.01,0.09-0.01,0.14v47.39v0.2v47.39
		c0,21.7,17.18,41.43,48.39,55.54c28.68,12.98,66.59,20.12,106.75,20.12c40.49,0,78.3-6.6,106.47-18.59
		c31.29-13.32,48.52-32.56,48.52-54.16l0.15-50.29c0-0.06,0-0.11,0-0.17v0c0-0.01,0-0.02,0-0.03c0-0.53-0.05-1.05-0.13-1.56
		l0.13-45.63c0-0.02,0-0.03,0-0.05c0,0,0-0.01,0-0.01c0,0,0-0.01,0-0.01c0-0.03,0-0.06,0-0.1v0c0-0.01,0-0.02,0-0.03
		C313.73,319.08,313.72,319.03,313.72,318.99z"/>
	<g>
		<path class="st1" d="M313.72,318.99c-0.15-21.59-17.31-41.21-48.38-55.27c-28.68-12.98-66.59-20.12-106.75-20.12
			c-40.16,0-78.07,7.15-106.75,20.12C20.78,277.78,3.61,297.4,3.47,318.99c0,0.05-0.01,0.09-0.01,0.14v47.39v0.2v47.39
			c0,21.7,17.18,41.43,48.39,55.54c28.68,12.98,66.59,20.12,106.75,20.12c40.49,0,78.3-6.6,106.47-18.59
			c31.29-13.32,48.52-32.56,48.52-54.16l0.15-50.29c0-0.06,0-0.11,0-0.17v0c0-0.01,0-0.02,0-0.03c0-0.53-0.05-1.05-0.13-1.56
			l0.13-45.63c0-0.02,0-0.03,0-0.05c0,0,0-0.01,0-0.01c0,0,0-0.01,0-0.01c0-0.03,0-0.06,0-0.1v0c0-0.01,0-0.02,0-0.03
			C313.73,319.08,313.72,319.03,313.72,318.99z M257.23,452.77c-25.75,10.96-60.78,16.99-98.63,16.99
			c-37.38,0-72.36-6.51-98.5-18.34c-23.28-10.53-36.63-24.14-36.63-37.32v-9.54c7.5,6.46,17.01,12.36,28.39,17.5
			c28.68,12.98,66.59,20.12,106.75,20.12c40.16,0,78.07-7.15,106.75-20.12c11.32-5.12,20.8-10.98,28.28-17.41l-0.04,12.33
			C293.58,429.89,280.33,442.94,257.23,452.77z M60.09,281.94c26.14-11.83,61.13-18.34,98.5-18.34s72.36,6.51,98.5,18.34
			c23.27,10.53,36.62,24.12,36.63,37.3c-0.08,13.15-13.42,26.7-36.63,37.2c-26.14,11.83-61.13,18.34-98.5,18.34
			s-72.36-6.51-98.5-18.34c-23.24-10.51-36.58-24.09-36.63-37.25C23.51,306.03,36.85,292.46,60.09,281.94z M293.58,368.84
			c-1.47,12.44-14.58,25.08-36.49,34.99c-26.14,11.83-61.13,18.34-98.5,18.34s-72.36-6.51-98.5-18.34
			c-23.28-10.53-36.63-24.14-36.63-37.32v-9.35c7.5,6.46,17.01,12.36,28.39,17.5c28.68,12.98,66.59,20.12,106.75,20.12
			c40.16,0,78.07-7.15,106.75-20.12c11.32-5.12,20.8-10.98,28.28-17.41L293.58,368.84z"/>
		<path class="st1" d="M58.48,333.23c5.73,3.43,13.17,1.57,16.6-4.16s1.57-13.17-4.16-16.6c-5.73-3.43-13.17-1.57-16.6,4.16
			C50.88,322.36,52.74,329.79,58.48,333.23z"/>
		<path class="st1" d="M88.81,351.74c25.57,8.2,55.61,12.53,86.89,12.53c5.52,0,10-4.48,10-10s-4.48-10-10-10
			c-29.23,0-57.16-4-80.78-11.58c-5.26-1.68-10.89,1.21-12.58,6.47C80.66,344.43,83.55,350.06,88.81,351.74z"/>
	</g>
</g>
</svg>
